<svg width="64" height="59" viewBox="0 0 64 59" fill="none" xmlns="http://www.w3.org/2000/svg">
<g clip-path="url(#clip0_1229_14076)">
<path d="M18.7133 47.2943C16.0927 47.0992 13.3747 47.2943 10.8516 46.6333C5.16648 45.2357 1.74459 41.2919 0.423475 35.6795C-0.897637 30.0672 0.802483 25.56 4.98239 21.8437C5.23826 21.6521 5.43769 21.3949 5.55967 21.0993C5.68164 20.8038 5.72164 20.4807 5.67544 20.1643C5.49956 18.6616 5.66754 17.1385 6.16666 15.7102C6.66579 14.282 7.48298 12.986 8.55645 11.9203C9.62991 10.8546 10.9315 10.0471 12.3629 9.55888C13.7942 9.07065 15.3177 8.91447 16.8183 9.10216C17.6196 9.18884 17.7928 8.75545 18.1177 8.28956C22.3626 2.16799 28.2318 -0.69235 35.5845 0.141917C38.9702 0.40315 42.2028 1.66081 44.8755 3.75653C47.5482 5.85226 49.5414 8.69234 50.6041 11.9192C50.9154 12.967 51.4544 13.9329 52.1827 14.7477C52.911 15.5626 53.8104 16.2061 54.8165 16.6322C57.7229 18.1215 60.1008 20.4696 61.6274 23.3577C63.1539 26.2458 63.7552 29.534 63.3496 32.7758C62.2667 40.1001 57.2421 45.6582 50.355 46.785C47.7294 47.0581 45.0883 47.1523 42.45 47.0667C41.3671 47.0667 40.2084 47.0667 39.1039 47.0667C37.9994 47.0667 37.1331 46.3191 37.1331 45.2898C37.1331 44.2606 37.8586 43.5455 39.1147 43.5238C41.9194 43.5238 44.724 43.5238 47.5395 43.5238C53.9069 43.5238 59.0397 38.7132 59.8302 32.0499C60.1076 29.0698 59.3213 26.0877 57.6106 23.6324C55.8999 21.1771 53.3755 19.4072 50.485 18.6366C48.6765 18.2033 48.46 17.9649 48.1568 16.0905C47.7116 12.9357 46.2491 10.0126 43.9916 7.76553C41.734 5.51849 38.8049 4.07044 35.6495 3.6415C32.6225 3.20525 29.5346 3.71153 26.805 5.09159C24.0754 6.47166 21.8363 8.65868 20.3918 11.3558C19.493 13.0026 19.1356 13.176 17.3272 12.7534C16.2175 12.4512 15.0475 12.4491 13.9367 12.7474C12.8259 13.0456 11.8142 13.6336 11.0048 14.4511C10.1954 15.2686 9.61743 16.2864 9.32987 17.4006C9.04232 18.5148 9.05549 19.6853 9.36805 20.7927C9.57371 21.3559 9.56856 21.9746 9.35356 22.5343C9.13856 23.094 8.72826 23.5569 8.19854 23.8373C6.28914 25.1 4.84904 26.9573 4.10123 29.1216C3.35342 31.2859 3.33962 33.6366 4.06195 35.8095C4.70618 38.0492 6.06401 40.0169 7.92884 41.4133C9.79366 42.8098 12.0634 43.5585 14.3926 43.5455C17.5763 43.5455 20.7599 43.5455 23.9436 43.5455C24.5507 43.5109 25.1512 43.6869 25.6437 44.0439C25.8568 44.269 26.0131 44.5418 26.0998 44.8395C26.1864 45.1372 26.2008 45.4513 26.1418 45.7557C25.9634 46.0768 25.7184 46.356 25.4233 46.5746C25.1282 46.7932 24.7899 46.9462 24.4309 47.0234C22.5359 47.1859 20.63 47.0884 18.735 47.0884L18.7133 47.2943Z" fill="#243B55"/>
<path d="M29.9855 27.7571C27.8197 29.9782 25.8272 31.9284 23.8997 33.8895C23.7587 34.0835 23.5801 34.2472 23.3745 34.3707C23.1689 34.4942 22.9406 34.575 22.7032 34.6084C22.4657 34.6418 22.224 34.627 21.9923 34.5649C21.7607 34.5028 21.5439 34.3947 21.355 34.247C21.1469 34.1059 20.9739 33.9189 20.8493 33.7004C20.7247 33.4819 20.6517 33.2378 20.636 32.9868C20.6203 32.7357 20.6623 32.4844 20.7588 32.2521C20.8553 32.0198 21.0036 31.8127 21.1925 31.6467C24.2823 28.4902 27.4046 25.3663 30.5594 22.2748C30.7165 22.104 30.9083 21.9688 31.1219 21.8784C31.3355 21.788 31.566 21.7444 31.7979 21.7506C32.0297 21.7567 32.2576 21.8125 32.4661 21.9141C32.6746 22.0158 32.859 22.1609 33.0067 22.3398C36.1254 25.4024 39.2188 28.4975 42.287 31.6251C42.4699 31.7817 42.6168 31.9761 42.7175 32.1949C42.8182 32.4138 42.8703 32.6518 42.8703 32.8927C42.8703 33.1336 42.8182 33.3717 42.7175 33.5905C42.6168 33.8093 42.4699 34.0037 42.287 34.1604C42.1109 34.3211 41.9041 34.4444 41.6791 34.523C41.454 34.6016 41.2154 34.6337 40.9776 34.6175C40.7398 34.6013 40.5078 34.5371 40.2954 34.4288C40.0831 34.3204 39.8949 34.1701 39.7422 33.987C37.7497 32.0151 35.7897 30.0107 33.5265 27.7463V55.9705C33.5702 56.3811 33.5702 56.7951 33.5265 57.2056C33.4781 57.602 33.2837 57.966 32.9813 58.2264C32.6789 58.4869 32.2903 58.6252 31.8914 58.6141C31.4741 58.6549 31.0571 58.5336 30.7266 58.2755C30.3961 58.0174 30.1773 57.6422 30.1154 57.2273C30.0664 56.8171 30.0664 56.4024 30.1154 55.9922C30.1154 47.1583 30.1154 38.3209 30.1154 29.4798L29.9855 27.7571Z" fill="#797979"/>
</g>
<defs>
<clipPath id="clip0_1229_14076">
<rect width="63.5" height="58.6154" fill="white"/>
</clipPath>
</defs>
</svg>
