<svg width="122" height="96" viewBox="0 0 122 96" fill="none" xmlns="http://www.w3.org/2000/svg">
<path d="M9.85653 78.9091H11.8381V87.5192C11.8381 88.4354 11.6229 89.2472 11.1925 89.9545C10.7621 90.6577 10.157 91.2116 9.37713 91.6165C8.5973 92.017 7.68324 92.2173 6.63494 92.2173C5.59091 92.2173 4.67898 92.017 3.89915 91.6165C3.11932 91.2116 2.5142 90.6577 2.08381 89.9545C1.65341 89.2472 1.43821 88.4354 1.43821 87.5192V78.9091H3.41335V87.3594C3.41335 87.9517 3.54332 88.478 3.80327 88.9382C4.06747 89.3984 4.44034 89.7607 4.92188 90.0249C5.40341 90.2848 5.97443 90.4148 6.63494 90.4148C7.29972 90.4148 7.87287 90.2848 8.3544 90.0249C8.8402 89.7607 9.21094 89.3984 9.46662 88.9382C9.72656 88.478 9.85653 87.9517 9.85653 87.3594V78.9091ZM14.5563 95.6818V82.1818H16.4228V83.7734H16.5826C16.6934 83.5689 16.8532 83.3324 17.062 83.0639C17.2708 82.7955 17.5605 82.5611 17.9313 82.3608C18.302 82.1562 18.7921 82.054 19.4015 82.054C20.1941 82.054 20.9015 82.2543 21.5236 82.6548C22.1458 83.0554 22.6337 83.6328 22.9874 84.3871C23.3453 85.1413 23.5243 86.049 23.5243 87.1101C23.5243 88.1712 23.3475 89.081 22.9938 89.8395C22.6401 90.5937 22.1543 91.1754 21.5364 91.5845C20.9185 91.9893 20.2132 92.1918 19.4206 92.1918C18.824 92.1918 18.3361 92.0916 17.9569 91.8913C17.5819 91.6911 17.2878 91.4567 17.0748 91.1882C16.8617 90.9197 16.6976 90.6811 16.5826 90.4723H16.4675V95.6818H14.5563ZM16.4292 87.0909C16.4292 87.7812 16.5293 88.3864 16.7296 88.9062C16.9299 89.4261 17.2196 89.8331 17.5989 90.1271C17.9782 90.4169 18.4426 90.5618 18.9924 90.5618C19.5634 90.5618 20.0407 90.4105 20.4242 90.108C20.8077 89.8011 21.0975 89.3857 21.2935 88.8615C21.4938 88.3374 21.5939 87.7472 21.5939 87.0909C21.5939 86.4432 21.4959 85.8615 21.2999 85.3459C21.1081 84.8303 20.8184 84.4233 20.4306 84.125C20.0471 83.8267 19.5676 83.6776 18.9924 83.6776C18.4384 83.6776 17.9696 83.8203 17.5861 84.1058C17.2069 84.3913 16.9192 84.7898 16.7232 85.3011C16.5272 85.8125 16.4292 86.4091 16.4292 87.0909ZM27.5769 78.9091V92H25.6657V78.9091H27.5769ZM34.2837 92.1982C33.3633 92.1982 32.56 91.9872 31.8739 91.5653C31.1879 91.1435 30.6552 90.5533 30.2759 89.7947C29.8967 89.0362 29.707 88.1499 29.707 87.1357C29.707 86.1172 29.8967 85.2266 30.2759 84.4638C30.6552 83.701 31.1879 83.1087 31.8739 82.6868C32.56 82.2649 33.3633 82.054 34.2837 82.054C35.2042 82.054 36.0075 82.2649 36.6935 82.6868C37.3796 83.1087 37.9123 83.701 38.2915 84.4638C38.6708 85.2266 38.8604 86.1172 38.8604 87.1357C38.8604 88.1499 38.6708 89.0362 38.2915 89.7947C37.9123 90.5533 37.3796 91.1435 36.6935 91.5653C36.0075 91.9872 35.2042 92.1982 34.2837 92.1982ZM34.2901 90.5938C34.8867 90.5938 35.381 90.4361 35.7731 90.1207C36.1651 89.8054 36.4549 89.3857 36.6424 88.8615C36.8342 88.3374 36.93 87.7599 36.93 87.1293C36.93 86.5028 36.8342 85.9276 36.6424 85.4034C36.4549 84.875 36.1651 84.451 35.7731 84.1314C35.381 83.8118 34.8867 83.652 34.2901 83.652C33.6893 83.652 33.1907 83.8118 32.7944 84.1314C32.4023 84.451 32.1104 84.875 31.9187 85.4034C31.7312 85.9276 31.6374 86.5028 31.6374 87.1293C31.6374 87.7599 31.7312 88.3374 31.9187 88.8615C32.1104 89.3857 32.4023 89.8054 32.7944 90.1207C33.1907 90.4361 33.6893 90.5938 34.2901 90.5938ZM43.851 92.2173C43.2289 92.2173 42.6664 92.1023 42.1635 91.8722C41.6607 91.6378 41.2623 91.299 40.9682 90.8558C40.6784 90.4126 40.5336 89.8693 40.5336 89.2259C40.5336 88.6719 40.6401 88.2159 40.8532 87.858C41.0662 87.5 41.3539 87.2166 41.7161 87.0078C42.0783 86.799 42.4831 86.6413 42.9306 86.5348C43.378 86.4283 43.834 86.3473 44.2985 86.2919C44.8865 86.2237 45.3638 86.1683 45.7303 86.1257C46.0968 86.0788 46.3631 86.0043 46.5293 85.902C46.6955 85.7997 46.7786 85.6335 46.7786 85.4034V85.3587C46.7786 84.8004 46.6209 84.3679 46.3056 84.0611C45.9945 83.7543 45.53 83.6009 44.9121 83.6009C44.2686 83.6009 43.7615 83.7436 43.3908 84.0291C43.0243 84.3104 42.7708 84.6236 42.6301 84.9688L40.834 84.5597C41.0471 83.9631 41.3581 83.4815 41.7672 83.1151C42.1806 82.7443 42.6557 82.4759 43.1926 82.3097C43.7296 82.1392 44.2942 82.054 44.8865 82.054C45.2786 82.054 45.6941 82.1009 46.133 82.1946C46.5762 82.2841 46.9895 82.4503 47.373 82.6932C47.7608 82.9361 48.0783 83.2834 48.3255 83.7351C48.5726 84.1825 48.6962 84.7642 48.6962 85.4801V92H46.8297V90.6577H46.753C46.6294 90.9048 46.4441 91.1477 46.1969 91.3864C45.9498 91.625 45.6323 91.8232 45.2445 91.9808C44.8567 92.1385 44.3922 92.2173 43.851 92.2173ZM44.2665 90.6832C44.7949 90.6832 45.2466 90.5788 45.6216 90.37C46.0009 90.1612 46.2885 89.8885 46.4846 89.5518C46.6848 89.2109 46.785 88.8466 46.785 88.4588V87.1932C46.7168 87.2614 46.5847 87.3253 46.3887 87.3849C46.1969 87.4403 45.9775 87.4893 45.7303 87.532C45.4831 87.5703 45.2424 87.6065 45.008 87.6406C44.7736 87.6705 44.5776 87.696 44.4199 87.7173C44.0492 87.7642 43.7104 87.843 43.4036 87.9538C43.101 88.0646 42.8581 88.2244 42.6749 88.4332C42.4959 88.6378 42.4064 88.9105 42.4064 89.2514C42.4064 89.7244 42.5811 90.0824 42.9306 90.3253C43.28 90.5639 43.7253 90.6832 44.2665 90.6832ZM54.9173 92.1918C54.1246 92.1918 53.4173 91.9893 52.7951 91.5845C52.1772 91.1754 51.6914 90.5937 51.3377 89.8395C50.9883 89.081 50.8136 88.1712 50.8136 87.1101C50.8136 86.049 50.9904 85.1413 51.3441 84.3871C51.7021 83.6328 52.1921 83.0554 52.8143 82.6548C53.4364 82.2543 54.1417 82.054 54.93 82.054C55.5394 82.054 56.0295 82.1562 56.4002 82.3608C56.7752 82.5611 57.065 82.7955 57.2695 83.0639C57.4783 83.3324 57.6403 83.5689 57.7553 83.7734H57.8704V78.9091H59.7816V92H57.9151V90.4723H57.7553C57.6403 90.6811 57.4741 90.9197 57.2567 91.1882C57.0437 91.4567 56.7496 91.6911 56.3746 91.8913C55.9996 92.0916 55.5138 92.1918 54.9173 92.1918ZM55.3391 90.5618C55.8888 90.5618 56.3533 90.4169 56.7326 90.1271C57.1161 89.8331 57.4059 89.4261 57.6019 88.9062C57.8022 88.3864 57.9023 87.7812 57.9023 87.0909C57.9023 86.4091 57.8043 85.8125 57.6083 85.3011C57.4123 84.7898 57.1246 84.3913 56.7454 84.1058C56.3661 83.8203 55.8974 83.6776 55.3391 83.6776C54.7638 83.6776 54.2844 83.8267 53.9009 84.125C53.5174 84.4233 53.2276 84.8303 53.0316 85.3459C52.8398 85.8615 52.744 86.4432 52.744 87.0909C52.744 87.7472 52.842 88.3374 53.038 88.8615C53.234 89.3857 53.5238 89.8011 53.9073 90.108C54.2951 90.4105 54.7724 90.5618 55.3391 90.5618ZM67.4265 92V78.9091H72.0927C73.1112 78.9091 73.9549 79.0945 74.6239 79.4652C75.293 79.8359 75.7937 80.343 76.1261 80.9865C76.4585 81.6257 76.6246 82.3459 76.6246 83.147C76.6246 83.9524 76.4563 84.6768 76.1197 85.3203C75.7873 85.9595 75.2844 86.4666 74.6112 86.8416C73.9421 87.2124 73.1005 87.3977 72.0863 87.3977H68.8775V85.723H71.9073C72.5508 85.723 73.0728 85.6122 73.4734 85.3906C73.8739 85.1648 74.168 84.858 74.3555 84.4702C74.543 84.0824 74.6367 83.6413 74.6367 83.147C74.6367 82.6527 74.543 82.2138 74.3555 81.8303C74.168 81.4467 73.8718 81.1463 73.467 80.929C73.0664 80.7116 72.538 80.603 71.8817 80.603H69.4016V92H67.4265ZM78.7868 92V82.1818H80.6341V83.7415H80.7363C80.9153 83.2131 81.2306 82.7976 81.6824 82.495C82.1383 82.1882 82.6539 82.0348 83.2292 82.0348C83.3485 82.0348 83.4892 82.0391 83.6511 82.0476C83.8173 82.0561 83.9473 82.0668 84.041 82.0795V83.9077C83.9643 83.8864 83.8279 83.8629 83.6319 83.8374C83.4359 83.8075 83.2399 83.7926 83.0439 83.7926C82.5922 83.7926 82.1895 83.8885 81.8358 84.0803C81.4863 84.2678 81.2093 84.5298 81.0048 84.8665C80.8002 85.1989 80.698 85.5781 80.698 86.0043V92H78.7868ZM89.479 92.1982C88.5586 92.1982 87.7553 91.9872 87.0692 91.5653C86.3832 91.1435 85.8505 90.5533 85.4712 89.7947C85.092 89.0362 84.9023 88.1499 84.9023 87.1357C84.9023 86.1172 85.092 85.2266 85.4712 84.4638C85.8505 83.701 86.3832 83.1087 87.0692 82.6868C87.7553 82.2649 88.5586 82.054 89.479 82.054C90.3995 82.054 91.2028 82.2649 91.8888 82.6868C92.5749 83.1087 93.1076 83.701 93.4869 84.4638C93.8661 85.2266 94.0558 86.1172 94.0558 87.1357C94.0558 88.1499 93.8661 89.0362 93.4869 89.7947C93.1076 90.5533 92.5749 91.1435 91.8888 91.5653C91.2028 91.9872 90.3995 92.1982 89.479 92.1982ZM89.4854 90.5938C90.082 90.5938 90.5763 90.4361 90.9684 90.1207C91.3604 89.8054 91.6502 89.3857 91.8377 88.8615C92.0295 88.3374 92.1254 87.7599 92.1254 87.1293C92.1254 86.5028 92.0295 85.9276 91.8377 85.4034C91.6502 84.875 91.3604 84.451 90.9684 84.1314C90.5763 83.8118 90.082 83.652 89.4854 83.652C88.8846 83.652 88.386 83.8118 87.9897 84.1314C87.5977 84.451 87.3058 84.875 87.114 85.4034C86.9265 85.9276 86.8327 86.5028 86.8327 87.1293C86.8327 87.7599 86.9265 88.3374 87.114 88.8615C87.3058 89.3857 87.5977 89.8054 87.9897 90.1207C88.386 90.4361 88.8846 90.5938 89.4854 90.5938ZM100.862 82.1818V83.7159H95.3134V82.1818H100.862ZM96.8347 92V81.044C96.8347 80.4304 96.9689 79.9212 97.2374 79.5163C97.5059 79.1072 97.8617 78.8026 98.3049 78.6023C98.748 78.3977 99.2296 78.2955 99.7495 78.2955C100.133 78.2955 100.461 78.3274 100.734 78.3913C101.007 78.451 101.209 78.5064 101.341 78.5575L100.894 80.1044C100.804 80.0788 100.689 80.049 100.548 80.0149C100.408 79.9766 100.237 79.9574 100.037 79.9574C99.5726 79.9574 99.2402 80.0724 99.04 80.3026C98.8439 80.5327 98.7459 80.8651 98.7459 81.2997V92H96.8347ZM102.834 92V82.1818H104.745V92H102.834ZM103.799 80.6669C103.466 80.6669 103.181 80.5561 102.942 80.3345C102.708 80.1087 102.591 79.8402 102.591 79.5291C102.591 79.2138 102.708 78.9453 102.942 78.7237C103.181 78.4979 103.466 78.3849 103.799 78.3849C104.131 78.3849 104.415 78.4979 104.649 78.7237C104.888 78.9453 105.007 79.2138 105.007 79.5291C105.007 79.8402 104.888 80.1087 104.649 80.3345C104.415 80.5561 104.131 80.6669 103.799 80.6669ZM109.227 78.9091V92H107.316V78.9091H109.227ZM116.03 92.1982C115.063 92.1982 114.23 91.9915 113.531 91.5781C112.836 91.1605 112.299 90.5746 111.92 89.8203C111.545 89.0618 111.357 88.1733 111.357 87.1548C111.357 86.1491 111.545 85.2628 111.92 84.4957C112.299 83.7287 112.828 83.13 113.505 82.6996C114.187 82.2692 114.984 82.054 115.896 82.054C116.45 82.054 116.987 82.1456 117.507 82.3288C118.026 82.5121 118.493 82.7997 118.906 83.1918C119.32 83.5838 119.646 84.093 119.884 84.7195C120.123 85.3416 120.242 86.098 120.242 86.9886V87.6662H112.438V86.2344H118.369C118.369 85.7315 118.267 85.2862 118.063 84.8984C117.858 84.5064 117.57 84.1974 117.2 83.9716C116.833 83.7457 116.403 83.6328 115.909 83.6328C115.372 83.6328 114.903 83.7649 114.502 84.0291C114.106 84.2891 113.799 84.63 113.582 85.0518C113.369 85.4695 113.262 85.9233 113.262 86.4134V87.532C113.262 88.1882 113.377 88.7464 113.607 89.2067C113.842 89.6669 114.168 90.0185 114.585 90.2614C115.003 90.5 115.491 90.6193 116.049 90.6193C116.411 90.6193 116.742 90.5682 117.04 90.4659C117.338 90.3594 117.596 90.2017 117.813 89.9929C118.031 89.7841 118.197 89.5263 118.312 89.2195L120.121 89.5455C119.976 90.0781 119.716 90.5447 119.341 90.9453C118.97 91.3416 118.504 91.6506 117.941 91.8722C117.383 92.0895 116.746 92.1982 116.03 92.1982Z" fill="#252525"/>
<path d="M61.3282 52.301H39.9475C35.6748 52.301 32.6641 49.1689 32.6641 44.7265V16.197C32.6641 11.7663 35.6804 8.64595 39.9645 8.64007C42.415 8.64007 44.8654 8.64007 47.3216 8.64007C47.729 8.64007 47.9214 8.5343 48.0403 8.11708C48.3006 7.20626 48.6062 6.30718 48.9118 5.41986C49.392 4.04011 50.269 2.84693 51.424 2.00188C52.579 1.15682 53.9561 0.700714 55.369 0.695312C59.3494 0.695313 63.3297 0.695313 67.3101 0.695313C68.7263 0.699919 70.1065 1.15847 71.2623 2.00831C72.4181 2.85814 73.2929 4.05781 73.7673 5.44337C74.0729 6.28955 74.3332 7.15337 74.5992 8.02306C74.6116 8.12188 74.643 8.21708 74.6916 8.30298C74.7403 8.38887 74.8051 8.46369 74.8823 8.52295C74.9594 8.58221 75.0473 8.62468 75.1406 8.64784C75.234 8.67099 75.3308 8.67435 75.4255 8.6577C77.8929 8.62245 80.3603 8.6577 82.8278 8.6577C83.7764 8.63099 84.7203 8.80531 85.6019 9.17001C86.4834 9.53472 87.2842 10.0822 87.9552 10.7789C88.6262 11.4757 89.1534 12.3071 89.5047 13.2225C89.8559 14.1379 90.0238 15.118 89.9981 16.103C89.9981 25.6931 89.9981 35.2911 89.9981 44.8969C90.0191 45.8787 89.8478 46.8547 89.4944 47.7656C89.141 48.6765 88.613 49.5033 87.9423 50.1958C87.2717 50.8883 86.4725 51.432 85.5933 51.7939C84.7141 52.1558 83.7732 52.3283 82.8278 52.301C75.6631 52.3088 68.4966 52.3088 61.3282 52.301ZM61.3282 48.3345H82.6806C84.8821 48.3345 86.1781 47.0006 86.1781 44.7265V16.2088C86.1781 13.964 84.8878 12.6125 82.7372 12.6125H73.5975C73.1453 12.6538 72.6939 12.5253 72.3252 12.2503C71.9565 11.9753 71.6951 11.5721 71.5885 11.114C71.1414 9.76832 70.7226 8.41678 70.2812 7.06523C70.0886 6.35181 69.6685 5.72736 69.0898 5.29399C68.511 4.86061 67.8078 4.64396 67.095 4.67945H55.5671C54.8544 4.64458 54.1513 4.86229 53.5734 5.29687C52.9955 5.73144 52.577 6.35707 52.3866 7.0711C51.9565 8.38152 51.549 9.69781 51.1189 11.0023C50.7398 12.1776 50.1512 12.6125 48.9458 12.6183H39.9871C37.7574 12.6183 36.4897 13.9464 36.4897 16.2793C36.4897 25.7205 36.4897 35.1657 36.4897 44.6148C36.4897 47.0535 37.7348 48.3404 40.106 48.3404L61.3282 48.3345Z" fill="#252525"/>
<path d="M46.9981 29.5C46.9947 26.5545 47.833 23.6743 49.4069 21.2238C50.9807 18.7734 53.2193 16.8628 55.8394 15.7341C58.4594 14.6053 61.3431 14.309 64.1254 14.8828C66.9077 15.4566 69.4635 16.8746 71.4693 18.9573C73.4751 21.04 74.8407 23.6938 75.3933 26.5828C75.9458 29.4718 75.6605 32.4661 74.5734 35.1866C73.4864 37.9071 71.6464 40.2316 69.2864 41.8658C66.9265 43.5 64.1526 44.3705 61.316 44.367C57.52 44.3623 53.8808 42.7945 51.1966 40.0074C48.5125 37.2203 47.0026 33.4415 46.9981 29.5ZM61.3443 40.4064C63.4242 40.4052 65.457 39.7636 67.1857 38.5627C68.9144 37.3617 70.2612 35.6554 71.0558 33.6596C71.8505 31.6638 72.0572 29.4681 71.65 27.3502C71.2427 25.2324 70.2397 23.2875 68.7678 21.7617C67.2959 20.2358 65.4212 19.1974 63.381 18.778C61.3407 18.3585 59.2264 18.5767 57.3056 19.4051C55.3848 20.2334 53.7437 21.6347 52.5899 23.4316C51.4361 25.2285 50.8215 27.3403 50.8237 29.5C50.8342 32.3922 51.9465 35.1627 53.9177 37.2062C55.8889 39.2497 58.5588 40.4002 61.3443 40.4064Z" fill="#252525"/>
<path d="M80.4349 16.5548C80.8142 16.5513 81.1859 16.6649 81.5028 16.8813C81.8197 17.0977 82.0675 17.407 82.2148 17.7699C82.362 18.1329 82.402 18.5331 82.3296 18.9197C82.2573 19.3063 82.0759 19.6618 81.8085 19.9411C81.5411 20.2204 81.1998 20.4109 80.8279 20.4883C80.456 20.5657 80.0704 20.5266 79.7199 20.3759C79.3695 20.2252 79.0702 19.9697 78.8599 19.642C78.6496 19.3142 78.538 18.9289 78.5391 18.5351C78.5435 18.0133 78.7442 17.514 79.0985 17.1439C79.4528 16.7739 79.9325 16.5624 80.4349 16.5548Z" fill="#252525"/>
</svg>
