<svg width="22" height="15" viewBox="0 0 22 15" fill="none" xmlns="http://www.w3.org/2000/svg">
<path d="M21.9231 14.5086C19.6186 12.9144 17.3221 11.3256 15.005 9.72339C15.005 9.79781 15.005 9.84623 15.005 9.89375C14.9979 10.7509 14.9925 11.6081 14.9818 12.4652C14.9701 13.4013 14.5438 14.1105 13.7726 14.6144C13.4314 14.8376 13.0552 14.9739 12.6351 14.9838C12.0386 14.9981 11.443 14.9981 10.8465 14.999C8.08253 15.0008 5.31943 14.9999 2.55544 14.9981C1.69203 14.9972 1.00775 14.6296 0.495434 13.9464C0.178372 13.5241 0.013572 13.0471 0.00998934 12.5083C-0.00792375 9.17557 0.00371976 5.84288 0.00371976 2.5093C0.00371976 1.52573 0.745322 0.295582 2.09418 0.0382566C2.40407 -0.0209194 2.72741 0.00956517 3.04447 0.00777195C6.1291 -0.00478053 9.21374 0.000599106 12.2984 0.00508214C12.9656 0.00597874 13.5559 0.169161 14.0664 0.599532C14.5357 0.994935 14.8313 1.49703 14.9486 2.09955C14.9782 2.25198 14.98 2.41157 14.9809 2.56848C14.9835 3.43281 14.9818 4.29803 14.9818 5.16236C14.9818 5.20271 14.9818 5.24395 14.9818 5.29775C17.2979 3.68924 19.5998 2.08969 21.9222 0.477593C21.9231 5.16864 21.9231 9.83009 21.9231 14.5086Z" fill="#303030"/>
</svg>
