<svg width="20" height="21" viewBox="0 0 20 21" fill="none" xmlns="http://www.w3.org/2000/svg">
<path d="M19.1725 6.65651C18.9395 6.95668 18.6504 7.15004 18.2637 7.00456C17.8567 6.85079 17.7895 6.49813 17.7922 6.10312C17.8014 4.81956 17.7978 3.53692 17.7922 2.25336C17.7922 1.61526 17.6081 1.42466 16.9829 1.42466H2.23664C1.60315 1.42466 1.40794 1.60881 1.40794 2.2377C1.40794 7.75131 1.40794 13.2652 1.40794 18.7794C1.40794 19.3816 1.60683 19.5778 2.20073 19.5805C2.94932 19.5851 3.69699 19.5805 4.44559 19.5805C4.96582 19.5805 5.28718 19.8568 5.2881 20.2794C5.28902 20.702 4.98056 20.9801 4.45019 20.9856C3.59479 20.9958 2.73939 21.0059 1.88491 20.9856C0.741302 20.9534 0.0184922 20.1901 0.0184922 19.052C0.0194129 13.403 0.0442739 7.75131 7.66214e-05 2.10051C-0.00913114 0.947694 0.812201 -0.00991327 2.11142 0.00205682C5.68403 0.0407294 9.25664 0.0149477 12.8293 0.0149477C14.1727 0.0149477 15.5179 0.0536203 16.8595 0.0029776C17.9414 -0.0375366 18.7241 0.331695 19.1725 1.33718V6.65651Z" fill="#252525"/>
<path d="M19.1724 20.5923C18.9782 20.9339 18.6798 21.0324 18.3161 20.9339C17.9524 20.8354 17.8557 20.5278 17.8428 20.1853C17.8088 18.8281 17.4322 17.6117 16.3005 16.7646C15.0906 15.8595 13.6957 15.7103 12.2436 15.9055C10.9545 16.0786 9.88365 16.6127 9.16913 17.7471C8.75847 18.3916 8.58076 19.1154 8.5338 19.8732C8.5333 20.041 8.52161 20.2087 8.49881 20.375C8.42054 20.7672 8.11945 20.9974 7.74745 20.9615C7.3285 20.921 7.17197 20.6402 7.17841 20.2645C7.21432 18.2259 8.05131 16.6118 9.76211 15.4811C10.1166 15.2472 10.5098 15.0722 10.9158 14.8531C9.91404 13.948 9.41498 12.8274 9.56322 11.4711C9.65913 10.5486 10.1042 9.69767 10.8072 9.0927C11.5118 8.46857 12.4246 8.131 13.3657 8.14651C14.3069 8.16202 15.2081 8.52949 15.8917 9.1765C17.5187 10.716 17.4331 12.6939 15.6238 14.9562C16.6707 15.4092 17.6062 16.0372 18.1752 17.0243C18.6016 17.7609 18.8465 18.6071 19.1724 19.4036V20.5923ZM13.3053 14.482C13.8149 14.482 14.3132 14.3309 14.737 14.0479C15.1609 13.7648 15.4914 13.3625 15.6866 12.8917C15.8819 12.421 15.9333 11.9029 15.8343 11.4029C15.7353 10.9029 15.4903 10.4435 15.1302 10.0827C14.7702 9.72196 14.3114 9.47598 13.8116 9.37588C13.3119 9.27577 12.7937 9.32604 12.3225 9.52033C11.8513 9.71462 11.4482 10.0442 11.1643 10.4675C10.8803 10.8907 10.7282 11.3886 10.7271 11.8983C10.7251 12.2377 10.7905 12.5741 10.9193 12.8881C11.0481 13.2021 11.2378 13.4874 11.4775 13.7276C11.7173 13.9679 12.0022 14.1582 12.3159 14.2877C12.6296 14.4172 12.9659 14.4832 13.3053 14.482Z" fill="#252525"/>
</svg>
