<svg width="20" height="23" viewBox="0 0 20 23" fill="none" xmlns="http://www.w3.org/2000/svg">
<path d="M7.88972 23C7.67275 22.6508 7.29933 22.7602 6.98938 22.6823C4.82119 22.1368 2.65743 21.5808 0.399202 21.5523C0.0626826 21.5523 0.00954793 21.3679 0.00216811 21.0787C-0.0273512 19.7823 0.25013 18.5309 0.49514 17.2691C0.55713 16.9543 0.80214 16.8539 1.0501 16.7445C2.25154 16.214 3.43526 15.64 4.65736 15.1619C5.33042 14.8841 5.94733 14.4827 6.47722 13.978C6.99381 13.5104 7.07941 12.9439 6.70747 12.3384C6.26468 11.625 5.9134 10.8937 5.12524 10.4021C4.24852 9.85511 4.04336 8.80903 3.96661 7.79293C3.94742 7.54265 4.00793 7.22943 4.21162 7.12302C4.802 6.82329 4.62193 6.37368 4.55404 5.88811C4.13339 2.82781 6.32372 0.244096 9.51771 0.0162974C12.3353 -0.186024 14.843 1.51497 15.4068 4.02975C15.5648 4.7567 15.5617 5.51019 15.3979 6.2358C15.333 6.53554 15.2651 6.78132 15.6252 6.96716C15.9559 7.13651 16.068 7.49919 16.0474 7.85587C15.9529 9.06381 15.5765 10.1219 14.4238 10.7243C13.9087 10.9971 12.9183 12.863 13.1368 13.365C13.4703 14.1143 14.1389 14.6104 14.8725 14.9461C16.1551 15.5321 17.451 16.0881 18.7528 16.6261C19.2502 16.8314 19.5218 17.1192 19.6074 17.6857C19.693 18.2522 19.7092 18.8936 20 19.4406V21.5163C18.6501 21.5381 17.3055 21.6937 15.9854 21.9809C14.595 22.3031 13.2135 22.6598 11.8276 23H7.88972ZM13.2726 4.12867C11.4306 5.29464 9.46752 5.84465 7.38937 6.06795C6.97019 6.11141 6.41966 5.73225 6.15103 6.21782C5.92521 6.62996 5.91193 7.16349 5.82042 7.64606C5.79773 7.81738 5.78983 7.99039 5.7968 8.1631C5.7968 8.31297 5.77466 8.46284 5.58131 8.47932C5.38796 8.49581 5.42191 8.32946 5.38648 8.22455C5.33778 8.08517 5.30383 7.9398 5.23889 7.80642C5.17394 7.67304 5.17985 7.42276 4.94369 7.46322C4.75772 7.49319 4.69426 7.65655 4.66621 7.84388C4.5629 8.54377 5.14443 9.77118 5.81451 9.99748C6.27797 10.1474 6.45803 10.4711 6.64253 10.8442C7.1355 11.8394 7.75836 12.7011 8.66017 13.338C9.61364 14.0124 10.3738 14.0184 11.3376 13.3485C12.3014 12.6786 12.9154 11.7644 13.432 10.7393C13.5559 10.489 13.6312 10.1998 13.9766 10.0979C14.8769 9.83263 15.1426 9.04882 15.3168 8.23804C15.3743 7.96827 15.4644 7.55464 15.085 7.4887C14.7367 7.42575 14.8061 7.86636 14.6895 8.08817C14.6522 8.17845 14.624 8.27235 14.6054 8.36842C14.5758 8.46434 14.5478 8.55875 14.4164 8.53178C14.3692 8.52265 14.3273 8.49513 14.2997 8.4551C14.2721 8.41506 14.2611 8.36568 14.2688 8.31747C14.3825 6.81879 13.4836 5.59287 13.2726 4.12867ZM14.6718 15.6025C14.5242 17.5313 14.3559 18.1967 13.7109 19.3237C13.2917 20.0566 13.2681 20.0596 12.5818 19.5201C12.3365 19.317 12.0781 19.1308 11.8084 18.9626C11.6003 18.8397 11.401 18.489 11.1413 18.7063C10.9978 18.8228 10.8936 18.9818 10.8431 19.1612C10.7926 19.3406 10.7983 19.5315 10.8594 19.7074C10.9921 20.1804 11.1005 20.6602 11.1841 21.1446C11.4025 22.2761 11.3981 22.2836 12.4873 22.0618C14.6452 21.6212 16.7573 20.9213 18.9816 20.8824C19.1292 20.8824 19.3063 20.8509 19.2989 20.6621C19.2602 19.6038 19.0982 18.5539 18.8163 17.5343C18.7956 17.4594 18.6879 17.392 18.6052 17.3545C17.3256 16.785 16.0429 16.2125 14.6718 15.6025ZM9.16938 19.4137C9.24022 19.1139 9.05278 18.8756 8.87419 18.7048C8.66607 18.513 8.48601 18.7767 8.32218 18.8861C7.95194 19.1222 7.59833 19.3841 7.26391 19.6699C6.88016 20.0146 6.64991 19.9262 6.41228 19.5036C5.82189 18.4545 5.3791 17.3785 5.39682 16.151C5.4042 15.7479 5.32154 15.6115 4.91122 15.7989C3.78211 16.3159 2.64562 16.8135 1.50618 17.2975C1.40398 17.3334 1.31345 17.3971 1.24448 17.4817C1.1755 17.5663 1.13073 17.6685 1.11504 17.7771C0.929785 18.646 0.795238 19.5253 0.712107 20.4103C0.687015 20.7745 0.80214 20.8854 1.1549 20.8899C2.02941 20.9176 2.89997 21.0214 3.75702 21.2001C5.23298 21.4788 6.67352 21.9659 8.17458 22.1383C8.37383 22.1607 8.61737 22.2971 8.69264 21.9464L9.16938 19.4137ZM7.64766 13.389C7.44988 14.7768 8.16425 15.5995 8.91551 16.3863C9.84832 17.359 10.1509 17.3455 11.097 16.3953C12.1715 15.3178 12.5036 14.5415 12.3043 13.4399C10.7752 14.9206 9.24022 14.9101 7.64766 13.389ZM9.15167 17.5343C8.17901 16.6996 7.34804 15.7869 6.95543 14.5475C6.05067 15.1469 5.9813 15.2563 6.03886 16.2155C6.08345 17.2069 6.38928 18.168 6.92444 18.9985L9.15167 17.5343ZM13.0526 18.9805C14.2851 17.2016 14.2777 15.2129 13.0246 14.5864C12.6482 15.8273 11.7863 16.716 10.8682 17.5388L13.0526 18.9805ZM11.3154 3.93234C9.96345 4.55279 8.67346 4.87051 7.33033 5.11479C8.24247 5.64533 12.2674 4.34597 12.9892 3.30739C11.4765 3.26608 9.96818 3.48966 8.53029 3.96831C9.41882 4.12117 10.2867 3.69705 11.3154 3.93234Z" fill="#252525"/>
</svg>
