<svg width="17" height="17" viewBox="0 0 17 17" fill="rgb(48, 88, 26)" xmlns="http://www.w3.org/2000/svg">
<g clip-path="url(#clip0_1482_10)">
<path d="M6.28261 6.6521C5.36561 6.6521 4.61957 7.39814 4.61957 8.31514C4.61957 9.23215 5.36561 9.97819 6.28261 9.97819C7.19962 9.97819 7.94566 9.23215 7.94566 8.31514C7.94566 7.39814 7.19962 6.6521 6.28261 6.6521ZM6.28261 8.86947C5.97695 8.86947 5.72825 8.62078 5.72825 8.31511C5.72825 8.00944 5.97695 7.76075 6.28261 7.76075C6.58828 7.76075 6.83697 8.00944 6.83697 8.31511C6.83694 8.62081 6.58828 8.86947 6.28261 8.86947Z" />
<path d="M10.7174 11.0869C9.80042 11.0869 9.05438 11.833 9.05438 12.75C9.05438 13.667 9.80042 14.413 10.7174 14.413C11.6344 14.413 12.3805 13.667 12.3805 12.75C12.3805 11.833 11.6344 11.0869 10.7174 11.0869ZM10.7174 13.3043C10.4118 13.3043 10.1631 13.0556 10.1631 12.75C10.1631 12.4443 10.4118 12.1956 10.7174 12.1956C11.0231 12.1956 11.2718 12.4443 11.2718 12.75C11.2718 13.0556 11.0231 13.3043 10.7174 13.3043Z" />
<path d="M11.2437 7.78907C11.0273 7.57259 10.6763 7.57259 10.4598 7.78907L5.75599 12.4929C5.53951 12.7093 5.53951 13.0603 5.75599 13.2768C5.86423 13.3851 6.00611 13.4392 6.14795 13.4392C6.2898 13.4392 6.43171 13.3851 6.53992 13.2768L11.2437 8.57303C11.4602 8.35655 11.4602 8.00559 11.2437 7.78907Z" />
<path d="M15.1522 0H1.84782C1.54168 0 1.29346 0.248193 1.29346 0.554359V16.4457C1.29346 16.6378 1.39293 16.8163 1.55636 16.9172C1.71982 17.0183 1.92388 17.0274 2.09571 16.9415L4.06519 15.9568L6.03466 16.9415C6.19072 17.0195 6.3744 17.0195 6.53049 16.9415L8.5 15.9568L10.4695 16.9415C10.5475 16.9805 10.6325 17 10.7174 17C10.8023 17 10.8873 16.9805 10.9653 16.9415L12.9347 15.9568L14.9042 16.9415C15.076 17.0274 15.2801 17.0183 15.4436 16.9172C15.607 16.8162 15.7065 16.6378 15.7065 16.4457V0.554359C15.7065 0.248193 15.4583 0 15.1522 0ZM14.5978 15.5487L13.1827 14.8411C13.0266 14.7631 12.8429 14.7631 12.6868 14.8411L10.7174 15.8259L8.74789 14.8411C8.66986 14.8021 8.5849 14.7826 8.5 14.7826C8.4151 14.7826 8.3301 14.8022 8.2521 14.8411L6.28263 15.8259L4.31315 14.8411C4.15709 14.7631 3.97341 14.7631 3.81733 14.8411L2.40218 15.5487V1.10869H14.5978V15.5487Z" />
<path d="M12.9348 2.21729H6.28263C5.9765 2.21729 5.72827 2.46548 5.72827 2.77164C5.72827 3.07781 5.97646 3.326 6.28263 3.326H12.9348C13.2409 3.326 13.4892 3.07781 13.4892 2.77164C13.4892 2.46548 13.2409 2.21729 12.9348 2.21729Z" />
<path d="M12.9348 4.43481H6.28263C5.9765 4.43481 5.72827 4.68301 5.72827 4.98917C5.72827 5.29534 5.97646 5.54353 6.28263 5.54353H12.9348C13.2409 5.54353 13.4892 5.29534 13.4892 4.98917C13.4892 4.68301 13.2409 4.43481 12.9348 4.43481Z" />
<path d="M4.06522 3.326C4.37139 3.326 4.61958 3.07781 4.61958 2.77164C4.61958 2.46548 4.37139 2.21729 4.06522 2.21729C3.75906 2.21729 3.51086 2.46548 3.51086 2.77164C3.51086 3.07781 3.75906 3.326 4.06522 3.326Z" />
<path d="M4.06522 5.54353C4.37139 5.54353 4.61958 5.29534 4.61958 4.98917C4.61958 4.68301 4.37139 4.43481 4.06522 4.43481C3.75906 4.43481 3.51086 4.68301 3.51086 4.98917C3.51086 5.29534 3.75906 5.54353 4.06522 5.54353Z" />
</g>
<defs>
<clipPath id="clip0_1482_10">
<rect width="17" height="17" />
</clipPath>
</defs>
</svg>
