<svg width="16" height="10" viewBox="0 0 16 10" fill="rgb(48, 88, 26)" xmlns="http://www.w3.org/2000/svg">
<path fill-rule="evenodd" clip-rule="evenodd" d="M2.63046 1.18517C2.08799 1.2581 1.80073 1.3915 1.59612 1.5961C1.39152 1.8007 1.25811 2.08797 1.18518 2.63043C1.1101 3.18884 1.10893 3.92893 1.10893 4.9901C1.10893 6.05125 1.1101 6.79134 1.18518 7.34975C1.25811 7.89221 1.39151 8.17947 1.59613 8.38409C1.80073 8.5887 2.088 8.7221 2.63046 8.79503C3.18888 8.87011 3.92898 8.87129 4.99017 8.87129C5.29639 8.87129 5.54463 9.11952 5.54463 9.42574C5.54463 9.73196 5.29639 9.9802 4.99017 9.9802H4.94962C3.93857 9.98021 3.12364 9.98023 2.4827 9.89405C1.81726 9.80459 1.25698 9.61319 0.811989 9.1682C0.367006 8.72321 0.17561 8.16294 0.0861444 7.49751C-2.71368e-05 6.85659 -1.48254e-05 6.04168 4.03333e-07 5.03067V4.94953C-1.48254e-05 3.93851 -2.71368e-05 3.12359 0.0861443 2.48267C0.17561 1.81724 0.367006 1.25696 0.811993 0.811982C1.25698 0.367001 1.81726 0.175608 2.4827 0.0861433C3.12363 -2.71365e-05 3.93856 -1.48252e-05 4.9496 4.03327e-07H5.03073C6.04176 -1.48252e-05 6.85668 -2.71365e-05 7.49761 0.0861433C8.16305 0.175608 8.72333 0.367002 9.16832 0.811978C9.61332 1.25696 9.80472 1.81724 9.89419 2.48266C9.98036 3.12359 9.98035 3.93852 9.98033 4.94955V4.9901C9.98033 5.29632 9.73209 5.54455 9.42587 5.54455C9.11965 5.54455 8.87141 5.29632 8.87141 4.9901C8.87141 3.92893 8.87023 3.18884 8.79515 2.63043C8.72221 2.08797 8.58881 1.80071 8.3842 1.59611C8.17958 1.3915 7.89231 1.2581 7.34985 1.18517C6.79143 1.11009 6.05134 1.10891 4.99017 1.10891C3.92899 1.10891 3.18888 1.11009 2.63046 1.18517Z"/>
<path fill-rule="evenodd" clip-rule="evenodd" d="M13.4781 0.0861433C14.1541 0.175608 14.7233 0.367002 15.1754 0.811978C15.6274 1.25696 15.8219 1.81724 15.9127 2.48266C16.0003 3.12359 16.0003 3.93852 16.0003 4.94955V5.03065C16.0003 6.04167 16.0003 6.85659 15.9127 7.49751C15.8219 8.16294 15.6274 8.72322 15.1754 9.1682C14.7233 9.61319 14.1541 9.80459 13.4781 9.89405C12.827 9.98023 11.9992 9.98021 10.9721 9.9802H10.8897C9.86261 9.98021 9.03475 9.98023 8.38364 9.89405C7.70764 9.80459 7.13846 9.61319 6.68641 9.1682C6.23435 8.72322 6.03991 8.16294 5.94903 7.49751C5.86148 6.85659 5.8615 6.04168 5.86151 5.03067L5.86151 4.9901C5.86151 4.68388 6.11369 4.43564 6.42478 4.43564C6.73586 4.43564 6.98804 4.68388 6.98804 4.9901C6.98804 6.05125 6.98924 6.79134 7.06551 7.34975C7.1396 7.8922 7.27512 8.17947 7.48298 8.38408C7.69085 8.5887 7.98268 8.7221 8.53375 8.79503C9.10103 8.87011 9.85287 8.87129 10.9309 8.87129C12.0089 8.87129 12.7607 8.87011 13.328 8.79503C13.8791 8.7221 14.1709 8.5887 14.3788 8.38408C14.5867 8.17947 14.7222 7.8922 14.7963 7.34975C14.8725 6.79134 14.8737 6.05125 14.8737 4.9901C14.8737 3.92893 14.8725 3.18884 14.7963 2.63043C14.7222 2.08797 14.5867 1.80071 14.3788 1.59611C14.1709 1.3915 13.8791 1.2581 13.328 1.18517C12.7607 1.11009 12.0089 1.10891 10.9309 1.10891C10.6198 1.10891 10.3676 0.860673 10.3676 0.554456C10.3676 0.248239 10.6198 8.26344e-07 10.9309 8.26344e-07L10.9721 4.03328e-07C11.9992 -1.48252e-05 12.827 -2.71365e-05 13.4781 0.0861433Z" />
</svg>
