<svg width="16" height="16" viewBox="0 0 16 16" fill="rgb(48, 88, 26)" xmlns="http://www.w3.org/2000/svg">
<path fill-rule="evenodd" clip-rule="evenodd" d="M9.84435 7.70028C9.67881 7.70028 9.54464 7.83445 9.54464 7.99999V14.4553C9.54464 14.6209 9.67881 14.755 9.84435 14.755H14.4553C14.6208 14.755 14.755 14.6209 14.755 14.4553V7.99999C14.755 7.83445 14.6208 7.70028 14.4553 7.70028H9.84435ZM8.29968 7.99999C8.29968 7.14688 8.99124 6.45532 9.84435 6.45532H14.4553C15.3084 6.45532 16 7.14688 16 7.99999V14.4553C16 15.3084 15.3084 16 14.4553 16H9.84435C8.99124 16 8.29968 15.3084 8.29968 14.4553V7.99999Z" />
<path fill-rule="evenodd" clip-rule="evenodd" d="M1.54467 1.24496C1.37915 1.24496 1.24496 1.37915 1.24496 1.54467V8C1.24496 8.16553 1.37914 8.29971 1.54467 8.29971H5.23343C5.39896 8.29971 5.53314 8.16553 5.53314 8V1.54467C5.53314 1.37915 5.39895 1.24496 5.23343 1.24496H1.54467ZM0 1.54467C0 0.691576 0.691576 0 1.54467 0H5.23343C6.08652 0 6.77809 0.691576 6.77809 1.54467V8C6.77809 8.85312 6.08651 9.54467 5.23343 9.54467H1.54467C0.691584 9.54467 0 8.85312 0 8V1.54467Z" />
<path fill-rule="evenodd" clip-rule="evenodd" d="M1.54467 12.3111C1.37914 12.3111 1.24496 12.4453 1.24496 12.6108V14.4552C1.24496 14.6207 1.37914 14.7549 1.54467 14.7549H5.23343C5.39896 14.7549 5.53314 14.6207 5.53314 14.4552V12.6108C5.53314 12.4453 5.39896 12.3111 5.23343 12.3111H1.54467ZM0 12.6108C0 11.7577 0.691584 11.0662 1.54467 11.0662H5.23343C6.08651 11.0662 6.77809 11.7577 6.77809 12.6108V14.4552C6.77809 15.3083 6.08651 15.9999 5.23343 15.9999H1.54467C0.691584 15.9999 0 15.3083 0 14.4552V12.6108Z" />
<path fill-rule="evenodd" clip-rule="evenodd" d="M9.84435 1.24496C9.67882 1.24496 9.54464 1.37914 9.54464 1.54467V3.38905C9.54464 3.55458 9.67882 3.68876 9.84435 3.68876H14.4553C14.6208 3.68876 14.755 3.55458 14.755 3.38905V1.54467C14.755 1.37914 14.6208 1.24496 14.4553 1.24496H9.84435ZM8.29968 1.54467C8.29968 0.691584 8.99123 0 9.84435 0H14.4553C15.3084 0 16 0.691584 16 1.54467V3.38905C16 4.24213 15.3084 4.93372 14.4553 4.93372H9.84435C8.99123 4.93372 8.29968 4.24213 8.29968 3.38905V1.54467Z" />
</svg>
