<svg width="18" height="18" viewBox="0 0 18 18" fill="rgb(48, 88, 26)" xmlns="http://www.w3.org/2000/svg">
<path d="M2.23077 13.9231V4.07692C2.23077 3.03077 3.03077 2.23077 4.07692 2.23077H13.9231C14.9692 2.23077 15.7692 3.03077 15.7692 4.07692V5.73846C15.7692 6.10769 16.0154 6.35385 16.3846 6.35385C16.7538 6.35385 17 6.10769 17 5.73846V3.46154C17 2.10769 15.8923 1 14.5385 1H3.46154C2.10769 1 1 2.10769 1 3.46154V14.5385C1 15.8923 2.10769 17 3.46154 17H5.73846C6.10769 17 6.35385 16.7538 6.35385 16.3846C6.35385 16.0154 6.10769 15.7692 5.73846 15.7692H4.07692C3.03077 15.7692 2.23077 14.9692 2.23077 13.9231Z"  stroke-width="0.2"/>
<path d="M12.3846 5.92315H5.00003C4.69234 5.92315 4.38464 5.677 4.38464 5.30777C4.38464 5.00008 4.6308 4.69238 5.00003 4.69238H12.3846C12.6923 4.69238 13 4.93854 13 5.30777C13 5.677 12.6923 5.92315 12.3846 5.92315ZM9.67695 9.61546H5.00003C4.69234 9.61546 4.38464 9.36931 4.38464 9.00008C4.38464 8.69238 4.6308 8.38469 5.00003 8.38469H9.67695C10.0462 8.38469 10.2923 8.63084 10.2923 9.00008C10.2923 9.36931 9.98464 9.61546 9.67695 9.61546Z"  stroke-width="0.2"/>
<path d="M15.5846 16.3232C15.8923 16.1385 16.1384 15.8924 16.3231 15.5847C16.2 15.8924 15.8923 16.2001 15.5846 16.3232ZM16.2615 12.9385C16.2 12.8155 16.1384 12.7539 16.0769 12.6924C16.2 12.6924 16.2615 12.8155 16.2615 12.9385Z"  stroke-width="0.2"/>
<path d="M12.4461 7.95361C11.9538 7.95361 11.6461 8.13823 11.3384 8.44592C11.0308 8.75361 10.8461 9.18438 10.8461 9.67669C10.8461 9.67669 10.9077 12.3228 10.9077 12.3844C10.4769 11.9536 9.9846 11.7075 9.49229 11.7075C9.1846 11.7075 8.81537 11.8305 8.56921 12.0767C8.19998 12.4459 8.0769 12.8767 8.0769 13.3075C8.0769 13.6767 8.26152 14.169 8.63075 14.4767L9.36921 15.2152L10.5384 16.4459C10.8461 16.7536 11.2154 16.9382 11.5846 16.9382H15.1538C16.2 16.9382 17 16.1382 17 15.0921V13.6152C17 12.569 16.6923 11.769 15.1538 11.769H14.2308V9.61515C14.2308 8.69208 13.4308 7.95361 12.4461 7.95361ZM11.2154 13.4921C11.5846 13.4921 11.9538 13.1844 11.9538 12.6921V9.55361C11.9538 9.24592 12.2 8.99977 12.5077 8.99977C12.8154 8.99977 13.1231 9.24592 13.1231 9.55361V12.0152C13.1231 12.569 13.4923 12.8767 14.0461 12.8767H15.0308C15.8923 12.8767 15.8923 13.4921 15.8923 13.9844V14.8459C15.8923 15.3382 15.4615 15.8305 14.9077 15.8305H11.5231C11.4 15.8305 11.3384 15.769 11.2769 15.7075L10.3538 14.7844L9.30767 13.7382C9.24614 13.6152 8.99998 13.4305 8.99998 13.2459C8.99998 12.9382 9.1846 12.6921 9.43075 12.6305H9.55383C9.79998 12.6305 9.9846 12.7536 10.1077 12.8767L10.7231 13.3075C10.9077 13.4305 11.0923 13.4921 11.2154 13.4921Z"  stroke-width="0.2"/>
</svg>
