<svg width="15" height="16" viewBox="0 0 15 16" fill="rgb(48, 88, 26)" xmlns="http://www.w3.org/2000/svg">
<path d="M7.10731 8.53731C9.08014 8.53731 10.7719 8.82615 12.0042 9.3946C13.4128 10.0441 14.2288 11.0693 14.2288 12.3791C14.2288 13.7116 13.3915 14.6166 11.9273 15.1075C11.0658 15.397 9.97086 15.5585 8.58213 15.6211L9.85632 14.4167C9.9002 14.3752 9.92978 14.3209 9.94078 14.2616C9.95178 14.2023 9.94363 14.141 9.9175 14.0866C10.5315 14.0104 11.048 13.9016 11.4741 13.7593C12.4111 13.4448 12.8045 13.0194 12.8045 12.3791C12.8045 11.689 12.3535 11.1227 11.4073 10.6859C10.5279 10.2803 9.2957 10.0349 7.83156 9.97442L8.32743 10.4724C8.39412 10.5391 8.43158 10.6296 8.43158 10.7239C8.43158 10.8183 8.39412 10.9087 8.32743 10.9754L7.63449 11.6669L8.52592 14.5447C8.54182 14.5956 8.54312 14.6499 8.52966 14.7015C8.5162 14.753 8.48853 14.7998 8.4498 14.8364L7.2994 15.9221C7.24654 15.9721 7.17653 16 7.10375 16C7.03097 16 6.96096 15.9721 6.9081 15.9221L5.7577 14.835C5.7191 14.7984 5.69151 14.7518 5.67806 14.7004C5.6646 14.649 5.66582 14.5948 5.68158 14.544L6.57159 11.6655L5.88007 10.9747C5.81338 10.908 5.77592 10.8175 5.77592 10.7232C5.77592 10.6289 5.81338 10.5384 5.88007 10.4717L6.37666 9.97442C4.9182 10.0356 3.69239 10.2803 2.81731 10.6859C1.87394 11.1213 1.42431 11.6876 1.42431 12.3784C1.42431 13.0194 1.8156 13.4448 2.7483 13.7586C3.17161 13.9009 3.68314 14.0083 4.29213 14.0851C4.26513 14.1393 4.2563 14.2007 4.26693 14.2603C4.27757 14.3199 4.30711 14.3745 4.35118 14.416L5.62466 15.6204C4.24233 15.5571 3.15169 15.3956 2.29369 15.1068C0.83381 14.6166 0 13.7109 0 12.3791C0 11.07 0.81389 10.0441 2.2197 9.3946C3.44836 8.82615 5.13732 8.53731 7.10731 8.53731ZM7.11442 0C8.1522 0 9.14747 0.412254 9.88128 1.14607C10.6151 1.87989 11.0274 2.87516 11.0274 3.91293C11.0274 4.95071 10.6151 5.94598 9.88128 6.67979C9.14747 7.41361 8.1522 7.82587 7.11442 7.82587C6.07665 7.82587 5.08138 7.41361 4.34756 6.67979C3.61374 5.94598 3.20149 4.95071 3.20149 3.91293C3.20149 2.87516 3.61374 1.87989 4.34756 1.14607C5.08138 0.412254 6.07665 0 7.11442 0ZM7.11442 1.42288C6.45402 1.42288 5.82067 1.68523 5.35369 2.1522C4.88672 2.61918 4.62437 3.25253 4.62437 3.91293C4.62437 4.57333 4.88672 5.20669 5.35369 5.67366C5.82067 6.14064 6.45402 6.40298 7.11442 6.40298C7.77482 6.40298 8.40818 6.14064 8.87515 5.67366C9.34213 5.20669 9.60447 4.57333 9.60447 3.91293C9.60447 3.25253 9.34213 2.61918 8.87515 2.1522C8.40818 1.68523 7.77482 1.42288 7.11442 1.42288Z"/>
</svg>
