<svg width="16" height="12" viewBox="0 0 16 12" fill="rgb(48, 88, 26)" xmlns="http://www.w3.org/2000/svg">
<path d="M14.1791 0.196864C14.008 0.087652 13.8124 0.0215813 13.6094 0.00445921C13.4064 -0.0126629 13.2023 0.0196879 13.0149 0.0986678L6.87562 2.48483C6.73027 2.5432 6.57483 2.57322 6.41791 2.5732H2.48756C2.15769 2.5732 1.84133 2.70252 1.60808 2.93271C1.37482 3.1629 1.24378 3.47511 1.24378 3.80065V3.89885H0V6.84472H1.24378V6.97237C1.25158 7.29278 1.38605 7.59747 1.61846 7.82133C1.85088 8.04519 2.1628 8.17046 2.48756 8.17036L3.9801 11.293C4.08116 11.5033 4.24028 11.6812 4.43917 11.8062C4.63805 11.9313 4.86865 11.9984 5.10448 12H5.73134C6.05949 11.9974 6.3733 11.8669 6.6044 11.637C6.83551 11.4071 6.96518 11.0964 6.96517 10.7726V8.2882L13.0149 10.6744C13.1637 10.7328 13.3224 10.7628 13.4826 10.7627C13.7311 10.7588 13.973 10.6837 14.1791 10.5467C14.3428 10.4377 14.4778 10.2917 14.5729 10.121C14.6681 9.9502 14.7207 9.75954 14.7264 9.56474V1.20828C14.7255 1.00847 14.6751 0.811895 14.5798 0.635635C14.4844 0.459376 14.3469 0.308758 14.1791 0.196864ZM5.72139 3.80065V6.97237H2.48756V3.80065H5.72139ZM5.72139 10.7726H5.09453L3.87065 8.17036H5.72139V10.7726ZM7.33333 7.11967C7.21519 7.06009 7.092 7.0108 6.96517 6.97237V3.73191C7.09079 3.70633 7.21396 3.6702 7.33333 3.6239L13.4826 1.20828V9.53528L7.33333 7.11967ZM14.7562 4.14433V6.59923C15.0861 6.59923 15.4025 6.46991 15.6357 6.23972C15.869 6.00953 16 5.69732 16 5.37178C16 5.04624 15.869 4.73404 15.6357 4.50385C15.4025 4.27365 15.0861 4.14433 14.7562 4.14433Z" />
</svg>
