<svg width="13" height="17" viewBox="0 0 13 17" fill="rgb(48, 88, 26)" xmlns="http://www.w3.org/2000/svg">
<path fill-rule="evenodd" clip-rule="evenodd" d="M2.07463 0.93078C3.24114 0.343904 4.80667 0 6.5 0C8.19333 0 9.75885 0.343904 10.9254 0.93078C12.0526 1.49788 13 2.40368 13 3.60086V13.3991C13 14.5963 12.0526 15.5021 10.9254 16.0692C9.75885 16.6561 8.19333 17 6.5 17C4.80667 17 3.24115 16.6561 2.07464 16.0692C0.947435 15.5021 0 14.5963 0 13.3991V3.60086C0 2.40368 0.94744 1.49788 2.07463 0.93078ZM1.31461 5.81195V8.5C1.31461 8.92627 1.6751 9.4902 2.66254 9.98698C3.61067 10.464 4.9665 10.7781 6.5 10.7781C8.0335 10.7781 9.38932 10.464 10.3375 9.98698C11.3249 9.4902 11.6854 8.92627 11.6854 8.5V5.81195C11.4489 5.98351 11.1922 6.13672 10.9254 6.27095C9.75885 6.85783 8.19333 7.20173 6.5 7.20173C4.80667 7.20173 3.24114 6.85783 2.07463 6.27095C1.80783 6.13672 1.55109 5.98351 1.31461 5.81195ZM11.6854 10.7111C11.4489 10.8827 11.1922 11.0359 10.9254 11.1701C9.75885 11.757 8.19333 12.1009 6.5 12.1009C4.80667 12.1009 3.24115 11.757 2.07464 11.1701C1.80783 11.0359 1.55109 10.8827 1.31461 10.7111V13.3991C1.31461 13.8254 1.6751 14.3893 2.66254 14.8861C3.61067 15.3631 4.9665 15.6772 6.5 15.6772C8.0335 15.6772 9.38932 15.3631 10.3375 14.8861C11.3249 14.3893 11.6854 13.8254 11.6854 13.3991V10.7111ZM11.6854 3.60086C11.6854 4.0271 11.3249 4.59104 10.3375 5.08783C9.38932 5.56484 8.03349 5.87896 6.5 5.87896C4.9665 5.87896 3.61067 5.56484 2.66254 5.08783C1.6751 4.59104 1.31461 4.0271 1.31461 3.60086C1.31461 3.17462 1.6751 2.61069 2.66254 2.1139C3.61067 1.63689 4.9665 1.32277 6.5 1.32277C8.03349 1.32277 9.38932 1.63689 10.3375 2.1139C11.3249 2.61069 11.6854 3.17463 11.6854 3.60086Z" />
</svg>
