<svg width="16" height="12" viewBox="0 0 16 12" fill="rgb(48, 88, 26)" xmlns="http://www.w3.org/2000/svg">
<path d="M13.7976 0C14.9689 0 15.9266 0.914377 15.996 2.06827L16 2.20244V9.01406C16 10.1854 15.0856 11.1431 13.9317 11.2125L13.7976 11.2165H2.20244C1.03112 11.2165 0.073358 10.3021 0.00401961 9.14822L0 9.01406V2.20244C0 1.03112 0.914377 0.0733578 2.06827 0.00401942L2.20244 0H13.7976ZM14.798 4.7845H1.20053L1.20133 9.01406C1.20133 9.5324 1.59527 9.95873 2.10008 10.01L2.20244 10.0152H13.7976C14.3159 10.0152 14.7422 9.62123 14.7935 9.11642L14.7987 9.01406L14.798 4.7845ZM13.0079 7.59185C13.3396 7.59185 13.6086 7.86077 13.6086 8.19251C13.6086 8.49661 13.3826 8.74792 13.0894 8.7877L13.0079 8.79318H11.0057C10.6739 8.79318 10.405 8.52425 10.405 8.19251C10.405 7.88842 10.631 7.63711 10.9242 7.59733L11.0057 7.59185H13.0079ZM13.7976 1.20133H2.20244C1.6841 1.20133 1.25777 1.59527 1.2065 2.10008L1.20133 2.20244L1.20053 3.58317H14.798L14.7987 2.20244C14.7987 1.6841 14.4047 1.25777 13.8999 1.2065L13.7976 1.20133Z" />
</svg>
