<svg width="17" height="19" viewBox="0 0 17 19" fill="rgb(48, 88, 26)"  xmlns="http://www.w3.org/2000/svg">
<path d="M8.45951 8.37955C8.1111 8.37955 7.76459 8.30149 7.49423 8.18726L2.16138 5.55986C1.81297 5.36757 1.5826 5.09531 1.5826 4.78687C1.5826 4.47844 1.77679 4.1681 2.16138 3.97581L7.53231 1.23228C7.84074 1.07806 8.18916 1 8.57565 1C8.92407 1 9.27058 1.07806 9.54094 1.19229L14.8738 3.81969C15.2222 4.01198 15.4526 4.28424 15.4526 4.59268C15.4526 4.90111 15.2603 5.21145 14.8738 5.40374L9.50286 8.14727C9.19252 8.30149 8.84601 8.37955 8.45951 8.37955ZM2.54788 4.74689L7.88073 7.37429C8.03494 7.45235 8.22914 7.49042 8.45951 7.49042C8.69179 7.49042 8.92407 7.45235 9.07828 7.37429L14.4873 4.63075L9.15444 2.00336C9.00022 1.9253 8.80603 1.88722 8.57565 1.88722C8.34338 1.88722 8.1111 1.9253 7.95688 2.00336L2.54788 4.74689ZM7.37619 18C7.1839 18 6.9897 17.9619 6.7974 17.8458L2.00526 15.3345C1.42648 15.0642 1 14.4454 1 13.9428V7.22007C1 6.75552 1.34842 6.409 1.84914 6.409C2.04144 6.409 2.23564 6.44708 2.42793 6.56322L7.1839 9.07448C7.76268 9.34483 8.18916 9.9636 8.18916 10.4662V17.1889C8.18916 17.6535 7.84074 18 7.37619 18ZM7.1839 17.0728C7.22197 17.1109 7.26196 17.1109 7.30003 17.1109V10.4662C7.30003 10.312 7.10774 10.0017 6.7974 9.84746L2.00526 7.33621C1.96719 7.29813 1.9272 7.29813 1.88913 7.29813V13.9447C1.88913 14.0989 2.08332 14.4092 2.39176 14.5634L7.1839 17.0728ZM9.92743 18C9.46287 18 9.11636 17.6516 9.11636 17.1889V10.4662C9.11636 9.9636 9.54093 9.34483 10.1216 9.07448L14.8738 6.56322C15.0661 6.48516 15.2603 6.409 15.4526 6.409C15.9171 6.409 16.2636 6.75742 16.2636 7.22007V13.9428C16.2636 14.4454 15.8391 15.0642 15.2584 15.3345L10.5062 17.8458C10.2739 17.9619 10.1197 18 9.92743 18ZM15.2584 7.33621L10.5062 9.84746C10.1978 10.0017 10.0036 10.312 10.0036 10.4662V17.1128C10.0417 17.1128 10.0816 17.0747 10.1197 17.0747L14.8719 14.5634C15.1803 14.4092 15.3745 14.0989 15.3745 13.9447V7.29813C15.3364 7.29813 15.2984 7.33621 15.2584 7.33621Z"  stroke-width="0.4"/>
</svg>
