<svg width="15" height="17" viewBox="0 0 15 17" fill="rgb(48, 88, 26)" xmlns="http://www.w3.org/2000/svg">
<g clip-path="url(#clip0_1482_18)">
<path fill-rule="evenodd" clip-rule="evenodd" d="M5.56148 8.93441C5.35654 8.93441 5.1909 8.73934 5.1909 8.5C5.1909 8.25928 5.35654 8.06559 5.56148 8.06559H10.459C10.664 8.06559 10.8296 8.26066 10.8296 8.5C10.8296 8.74072 10.664 8.93441 10.459 8.93441H5.56148ZM6.56513 16.1284C6.80938 16.1284 7.0073 16.3235 7.0073 16.5642C7.0073 16.8049 6.80938 17 6.56513 17H1.02892C0.745368 17 0.48849 16.8866 0.301797 16.7026C0.115104 16.5186 0 16.2654 0 15.9859V1.01408C0 0.734619 0.115104 0.481445 0.301797 0.297445C0.48849 0.113444 0.745368 0 1.02892 0H13.6651C13.9486 0 14.2055 0.114827 14.3922 0.297445C14.5789 0.481445 14.694 0.734619 14.694 1.01408V7.95077C14.694 8.19149 14.4961 8.38656 14.2518 8.38656C14.0076 8.38656 13.8097 8.19149 13.8097 7.95077V1.01408C13.8097 0.975342 13.7928 0.939372 13.7661 0.914469C13.7395 0.888184 13.7044 0.871582 13.6651 0.871582H1.02892C0.989613 0.871582 0.953116 0.888184 0.926446 0.913086C0.901179 0.940755 0.884335 0.975342 0.884335 1.01408V15.9845C0.884335 16.0233 0.901179 16.0592 0.926446 16.0841C0.953116 16.1104 0.989613 16.127 1.02892 16.127H6.56513V16.1284ZM13.8546 10.2847C13.783 10.2169 13.7002 10.1851 13.6047 10.1864C13.5093 10.1878 13.4278 10.2238 13.3605 10.2944L12.8116 10.8574L14.3515 12.3225L14.906 11.7539C14.9719 11.6875 15 11.6017 14.9986 11.5077C14.9972 11.415 14.9635 11.3306 14.8961 11.2669L13.8546 10.2847ZM10.9784 15.7729C10.7748 15.8365 10.5727 15.9029 10.3706 15.9679C10.167 16.0343 9.96491 16.1021 9.76277 16.1685C9.28411 16.3235 9.016 16.4093 8.95985 16.4245C8.90511 16.4411 8.93739 16.2197 9.05811 15.759L9.43852 14.3133L12.3231 11.3555L13.8616 12.815L10.9784 15.7729ZM5.56148 12.0292C5.35654 12.0292 5.1895 11.8314 5.1895 11.5879C5.1895 11.3444 5.35654 11.1466 5.56148 11.1466H7.97445C8.17939 11.1466 8.34643 11.3444 8.34643 11.5879C8.34643 11.8314 8.17939 12.0292 7.97445 12.0292H5.56148ZM5.56148 5.84652C5.35654 5.84652 5.1909 5.65145 5.1909 5.41211C5.1909 5.17139 5.35654 4.9777 5.56148 4.9777H10.459C10.664 4.9777 10.8296 5.17277 10.8296 5.41211C10.8296 5.65283 10.664 5.84652 10.459 5.84652H5.56148ZM3.43627 10.993C3.72544 10.993 3.95845 11.224 3.95845 11.5077C3.95845 11.7926 3.72403 12.0223 3.43627 12.0223C3.14711 12.0223 2.91409 11.7913 2.91409 11.5077C2.91409 11.224 3.14851 10.993 3.43627 10.993ZM3.43627 7.94661C3.72544 7.94661 3.95845 8.17765 3.95845 8.46126C3.95845 8.74626 3.72403 8.97591 3.43627 8.97591C3.14711 8.97591 2.91409 8.74487 2.91409 8.46126C2.91409 8.17765 3.14851 7.94661 3.43627 7.94661ZM3.43627 4.90023C3.72544 4.90023 3.95845 5.13127 3.95845 5.41488C3.95845 5.69987 3.72403 5.92952 3.43627 5.92952C3.14711 5.92952 2.91409 5.69849 2.91409 5.41488C2.91409 5.12988 3.14851 4.90023 3.43627 4.90023Z" />
</g>
<defs>
<clipPath id="clip0_1482_18">
<rect width="15" height="17" />
</clipPath>
</defs>
</svg>
