<svg width="16" height="15" viewBox="0 0 16 15" fill="rgb(48, 88, 26)" xmlns="http://www.w3.org/2000/svg">
<path fill-rule="evenodd" clip-rule="evenodd" d="M7.17949 1.21622C6.61304 1.21622 6.15385 1.66998 6.15385 2.22973V3.24324H9.84615V2.22973C9.84615 1.66998 9.38698 1.21622 8.82051 1.21622H7.17949ZM11.0769 3.24324V2.22973C11.0769 0.998289 10.0667 0 8.82051 0H7.17949C5.93331 0 4.92308 0.998284 4.92308 2.22973V3.24324H2.25641C1.01023 3.24324 0 4.24153 0 5.47297V12.7703C0 14.0017 1.01023 15 2.25641 15H13.7436C14.9898 15 16 14.0017 16 12.7703V5.47297C16 4.24153 14.9898 3.24324 13.7436 3.24324H11.0769ZM2.25641 4.45946C1.68996 4.45946 1.23077 4.91322 1.23077 5.47297V12.7703C1.23077 13.33 1.68996 13.7838 2.25641 13.7838H13.7436C14.3101 13.7838 14.7692 13.33 14.7692 12.7703V5.47297C14.7692 4.91322 14.3101 4.45946 13.7436 4.45946H2.25641Z" />
</svg>
