<svg width="15" height="16" viewBox="0 0 15 16" fill="rgb(48, 88, 26)" xmlns="http://www.w3.org/2000/svg">
<path d="M12.8249 14.7381H1.88837C1.5396 14.7381 1.2574 15.0203 1.2574 15.369C1.2574 15.7178 1.53962 16 1.88837 16H12.8249C13.1737 16 13.4563 15.7178 13.4563 15.369C13.4563 15.0203 13.1737 14.7381 12.8249 14.7381ZM14.3498 9.62573C15.2609 6.98929 14.5757 4.3602 12.8192 3.75345C12.2465 3.55586 11.6312 3.59693 11.0298 3.83397L11.3568 5.03184C11.7187 4.87041 12.0789 4.83343 12.4088 4.94721C13.5068 5.32638 13.8424 7.23614 13.1585 9.2133C12.6431 10.7024 11.6966 11.8049 10.7916 12.0966C11.4116 11.1672 11.7733 10.0515 11.7733 8.84893C11.7733 6.34021 10.202 4.20362 7.99132 3.35603L9.14178 2.20556C9.30568 2.04123 9.30568 1.77505 9.14178 1.61072L7.65429 0.123248C7.48996 -0.0410826 7.22339 -0.0410826 7.05905 0.123248L5.57199 1.61072C5.40766 1.77505 5.40766 2.04123 5.57199 2.20556L6.72199 3.35594C4.51145 4.20344 2.94001 6.34011 2.94001 8.84895C2.94001 10.0089 3.27678 11.0881 3.85712 11.9972C2.97264 11.7325 2.03884 10.6328 1.5347 9.13855C0.876194 7.1877 1.19907 5.3034 2.25603 4.92956C2.57316 4.81741 2.91988 4.85398 3.26864 5.01254L3.58291 3.8311C3.0045 3.59736 2.41215 3.55669 1.86086 3.7514C0.170446 4.35036 -0.488882 6.94409 0.388163 9.54525C0.844238 10.8979 1.6262 11.9859 2.50944 12.6348H1.88837C1.5396 12.6348 1.2574 12.917 1.2574 13.2658C1.2574 13.6145 1.53962 13.8968 1.88837 13.8968H12.8249C13.1737 13.8968 13.4563 13.6145 13.4563 13.2658C13.4563 12.917 13.1737 12.6348 12.8249 12.6348H12.3089C13.1592 11.967 13.9041 10.915 14.3498 9.62573ZM8.53936 12.6348H6.17384C4.98183 11.7987 4.20198 10.4161 4.20198 8.84893C4.20198 6.80852 5.52392 5.08072 7.35647 4.46494C9.18941 5.08072 10.5118 6.80852 10.5118 8.84893C10.5118 10.4161 9.73165 11.7987 8.53936 12.6348Z"/>
</svg>
