<svg width="18" height="16" viewBox="0 0 18 16" fill="rgb(48, 88, 26)" xmlns="http://www.w3.org/2000/svg">
<path fill-rule="evenodd" clip-rule="evenodd" d="M6.82838 1.2977C5.05369 1.2977 3.61502 2.73637 3.61502 4.51106C3.61502 6.28574 5.05369 7.72441 6.82838 7.72441C8.60306 7.72441 10.0417 6.28574 10.0417 4.51106C10.0417 2.73637 8.60306 1.2977 6.82838 1.2977ZM2.31732 4.51106C2.31732 2.01967 4.33699 0 6.82838 0C9.31976 0 11.3394 2.01967 11.3394 4.51106C11.3394 7.00244 9.31976 9.02211 6.82838 9.02211C4.33699 9.02211 2.31732 7.00244 2.31732 4.51106Z" />
<path fill-rule="evenodd" clip-rule="evenodd" d="M0 14.5527C0 10.7815 3.05717 7.72437 6.82838 7.72437C10.5996 7.72437 13.6568 10.7815 13.6568 14.5527C13.6568 14.9111 13.3663 15.2016 13.0079 15.2016C12.6496 15.2016 12.3591 14.9111 12.3591 14.5527C12.3591 11.4982 9.8829 9.02207 6.82838 9.02207C3.77387 9.02207 1.2977 11.4982 1.2977 14.5527C1.2977 14.9111 1.0072 15.2016 0.64885 15.2016C0.2905 15.2016 0 14.9111 0 14.5527Z" />
<path fill-rule="evenodd" clip-rule="evenodd" d="M0 14.5527C0 10.7815 3.05717 7.72437 6.82838 7.72437C10.5996 7.72437 13.6568 10.7815 13.6568 14.5527C13.6568 14.9111 13.3663 15.2016 13.0079 15.2016C12.6496 15.2016 12.3591 14.9111 12.3591 14.5527C12.3591 11.4982 9.8829 9.02207 6.82838 9.02207C3.77387 9.02207 1.2977 11.4982 1.2977 14.5527C1.2977 14.9111 1.0072 15.2016 0.64885 15.2016C0.2905 15.2016 0 14.9111 0 14.5527Z" />
<mask id="mask0_1490_20" style="mask-type:alpha" maskUnits="userSpaceOnUse" x="7" y="0" width="11" height="13">
<path fill-rule="evenodd" clip-rule="evenodd" d="M12.615 1.82661C14.0145 1.82661 15.1491 2.96117 15.1491 4.36072C15.1491 5.76027 14.0145 6.89483 12.615 6.89483C11.2154 6.89483 10.0809 5.76027 10.0809 4.36072C10.0809 2.96117 11.2154 1.82661 12.615 1.82661ZM16.1725 4.36072C16.1725 2.39597 14.5797 0.803223 12.615 0.803223C10.6502 0.803223 9.05749 2.39597 9.05749 4.36072C9.05749 6.32547 10.6502 7.91822 12.615 7.91822C14.5797 7.91822 16.1725 6.32547 16.1725 4.36072Z" />
<path fill-rule="evenodd" clip-rule="evenodd" d="M18 12.28C18 9.30594 15.5891 6.89502 12.615 6.89502C9.64096 6.89502 7.23004 9.30594 7.23004 12.28C7.23004 12.5626 7.45913 12.7917 7.74173 12.7917C8.02434 12.7917 8.25343 12.5626 8.25343 12.28C8.25343 9.87115 10.2062 7.91841 12.615 7.91841C15.0239 7.91841 16.9766 9.87115 16.9766 12.28C16.9766 12.5626 17.2057 12.7917 17.4883 12.7917C17.7709 12.7917 18 12.5626 18 12.28Z" />
<path fill-rule="evenodd" clip-rule="evenodd" d="M18 12.28C18 9.30594 15.5891 6.89502 12.615 6.89502C9.64096 6.89502 7.23004 9.30594 7.23004 12.28C7.23004 12.5626 7.45913 12.7917 7.74173 12.7917C8.02434 12.7917 8.25343 12.5626 8.25343 12.28C8.25343 9.87115 10.2062 7.91841 12.615 7.91841C15.0239 7.91841 16.9766 9.87115 16.9766 12.28C16.9766 12.5626 17.2057 12.7917 17.4883 12.7917C17.7709 12.7917 18 12.5626 18 12.28Z" />
</mask>
<g mask="url(#mask0_1490_20)">
<rect width="10.77" height="15.8382" transform="matrix(-1 0 0 1 23.0682 -2.36426)" />
</g>
</svg>
