<svg width="20" height="21" viewBox="0 0 20 21" fill="none" xmlns="http://www.w3.org/2000/svg">
<g id="Group 1000007267">
<g id="Group">
<g id="Group 1000007434">
<path id="Vector" d="M3.57082 2.42418C3.57082 1.8817 3.57082 1.35528 3.57082 0.828855C3.57082 0.414777 3.80074 0.100207 4.15839 0.0167495C4.58132 -0.0827574 5.00142 0.302431 5.00142 0.793546C5.00142 1.33281 5.00142 1.86886 5.00142 2.41776C6.42634 2.41776 7.84842 2.41776 9.2847 2.41776C9.2847 2.37924 9.2847 2.33751 9.2847 2.29899C9.2847 1.80145 9.28186 1.30392 9.2847 0.806385C9.28754 0.430827 9.51178 0.109837 9.83253 0.0231693C10.1561 -0.063498 10.4854 0.0969971 10.633 0.437247C10.6812 0.549593 10.7096 0.687619 10.7125 0.812805C10.721 1.34244 10.7153 1.87528 10.7153 2.41455C12.1402 2.41455 13.5623 2.41455 14.9986 2.41455C14.9986 2.37924 14.9986 2.33751 14.9986 2.29899C14.9986 1.80466 14.9986 1.31355 14.9986 0.819225C14.9986 0.392308 15.2796 0.0424288 15.6429 0.00390994C16.0176 -0.0346089 16.3469 0.244652 16.4207 0.668359C16.4292 0.719718 16.4292 0.771076 16.4292 0.825645C16.4292 1.31997 16.4292 1.81108 16.4292 2.30541C16.4292 2.34072 16.4292 2.37924 16.4292 2.42739C16.4973 2.42739 16.5541 2.42739 16.6137 2.42739C17.0309 2.42739 17.4454 2.42739 17.8626 2.42739C19.0434 2.4306 20 3.51233 20 4.84444C20 8.66422 20 12.484 20 16.307C20 17.0774 20 17.8478 20 18.6181C20 19.7897 19.1797 20.8426 18.1493 20.9774C17.9506 21.0031 17.7462 20.9999 17.5447 20.9999C14.1101 20.9999 10.6756 20.9999 7.24099 20.9999C5.53789 20.9999 3.8348 20.9999 2.13454 20.9999C1.0616 20.9999 0.147601 20.0818 0.0227079 18.8781C0.00567698 18.7497 0 18.6181 0 18.4865C0 15.2798 0 12.0731 0 8.86324C0 7.50866 0 6.15729 0 4.80271C0 3.68246 0.760715 2.64245 1.73999 2.47553C2.10616 2.41134 2.48368 2.43381 2.85552 2.42418C3.08828 2.42097 3.32387 2.42418 3.57082 2.42418ZM18.5666 8.89213C12.847 8.89213 7.14164 8.89213 1.4306 8.89213C1.4306 8.94028 1.4306 8.982 1.4306 9.02373C1.4306 12.208 1.4306 15.3922 1.4306 18.5796C1.4306 18.9423 1.65484 19.2794 1.96991 19.3564C2.11751 19.3917 2.27079 19.3821 2.42407 19.3821C7.55322 19.3821 12.6852 19.3821 17.8144 19.3821C18.2628 19.3821 18.5666 19.0418 18.5694 18.5347C18.5694 17.225 18.5722 15.9186 18.5722 14.609C18.5722 12.744 18.5722 10.8791 18.5694 9.0141C18.5666 8.97558 18.5666 8.94028 18.5666 8.89213ZM10.7125 4.04197C10.7125 4.08369 10.7125 4.119 10.7125 4.1511C10.7125 4.64864 10.7125 5.14617 10.7125 5.64371C10.7125 5.69506 10.7125 5.74963 10.7039 5.80099C10.6301 6.23112 10.298 6.50717 9.91768 6.46223C9.56003 6.4205 9.28754 6.07062 9.2847 5.64692C9.28186 5.15259 9.2847 4.66148 9.2847 4.16715C9.2847 4.12863 9.2847 4.0869 9.2847 4.0516C7.84842 4.0516 6.42634 4.0516 5.00142 4.0516C5.00142 4.59086 5.00142 5.12049 5.00142 5.65334C5.00142 5.71111 4.99858 5.7721 4.98723 5.82988C4.90207 6.24717 4.56997 6.51359 4.20097 6.46223C3.84332 6.41408 3.5765 6.07062 3.57366 5.65334C3.57082 5.23926 3.57366 4.82197 3.57366 4.40789C3.57366 4.28913 3.57366 4.17036 3.57366 4.04197C3.53676 4.04197 3.50837 4.04197 3.47715 4.04197C3.04286 4.04197 2.61141 4.04197 2.17712 4.04197C1.73999 4.04197 1.4306 4.39505 1.4306 4.88938C1.4306 5.55704 1.4306 6.22791 1.4306 6.89557C1.4306 7.01754 1.4306 7.13952 1.4306 7.2615C7.15016 7.2615 12.8555 7.2615 18.5694 7.2615C18.5694 7.21977 18.5694 7.18767 18.5694 7.15236C18.5694 6.3884 18.5694 5.62766 18.5694 4.8637C18.5694 4.38863 18.26 4.03876 17.8342 4.03555C17.3999 4.03555 16.9685 4.03555 16.5342 4.03234C16.5001 4.03234 16.4661 4.03234 16.4263 4.03234C16.4263 4.57481 16.4263 5.10123 16.4263 5.62766C16.4263 5.68864 16.4263 5.74963 16.415 5.8042C16.3355 6.22791 16.0006 6.50075 15.6287 6.44939C15.2682 6.40124 15.0014 6.05457 14.9986 5.63087C14.9986 5.13654 14.9986 4.64543 14.9986 4.1511C14.9986 4.11258 14.9986 4.07406 14.9986 4.03234C13.5623 4.04197 12.1431 4.04197 10.7125 4.04197Z" fill="#303030"/>
<path id="Vector_2" d="M9.19273 15.3591C9.50658 14.9586 9.81473 14.5612 10.1229 14.1668C10.8676 13.21 11.6094 12.2531 12.3541 11.2963C12.551 11.0425 12.8049 10.9447 13.1017 11.0303C13.3899 11.1129 13.5696 11.3238 13.6267 11.6387C13.6723 11.8832 13.6038 12.1003 13.4555 12.2929C12.7279 13.2253 12.006 14.1577 11.2784 15.0901C10.8248 15.674 10.3683 16.2609 9.9146 16.8448C9.63498 17.2025 9.24979 17.2575 8.88458 16.9977C8.19124 16.4994 7.4979 16.0041 6.80456 15.5089C6.54492 15.3224 6.41081 15.0167 6.46502 14.7232C6.53065 14.3778 6.7475 14.1455 7.06991 14.0874C7.25823 14.0537 7.43227 14.1027 7.5892 14.2158C8.10279 14.5857 8.61637 14.9495 9.12996 15.3163C9.14993 15.3285 9.16705 15.3408 9.19273 15.3591Z" fill="#303030"/>
</g>
</g>
</g>
</svg>
