<svg width="24" height="17" viewBox="0 0 24 21" fill="white" xmlns="http://www.w3.org/2000/svg">
<path d="M11.6637 20.9997H2.96334C1.22465 20.9997 -0.000488281 19.7251 -0.000488281 17.9174V6.30803C-0.000488281 4.50505 1.22696 3.23532 2.97025 3.23292C3.9674 3.23292 4.96456 3.23292 5.96402 3.23292C6.12982 3.23292 6.20812 3.18988 6.25648 3.02011C6.36242 2.64947 6.48677 2.28361 6.61113 1.92254C6.80655 1.36108 7.16341 0.875549 7.6334 0.531675C8.10339 0.1878 8.66379 0.00219807 9.23874 0C10.8584 0 12.4781 0 14.0978 0C14.6741 0.00187448 15.2358 0.188471 15.7061 0.534291C16.1764 0.880111 16.5324 1.36828 16.7255 1.9321C16.8498 2.27644 16.9557 2.62795 17.064 2.98185C17.069 3.02206 17.0818 3.0608 17.1016 3.09575C17.1214 3.1307 17.1478 3.16115 17.1792 3.18526C17.2106 3.20938 17.2463 3.22666 17.2843 3.23608C17.3223 3.24551 17.3617 3.24687 17.4002 3.2401C18.4043 3.22575 19.4083 3.2401 20.4124 3.2401C20.7984 3.22923 21.1825 3.30016 21.5412 3.44857C21.9 3.59698 22.2258 3.81974 22.4989 4.10327C22.7719 4.3868 22.9865 4.72513 23.1294 5.09763C23.2723 5.47012 23.3406 5.86895 23.3302 6.26977C23.3302 10.1722 23.3302 14.0779 23.3302 17.9867C23.3387 18.3862 23.269 18.7834 23.1252 19.1541C22.9814 19.5248 22.7665 19.8612 22.4936 20.143C22.2207 20.4248 21.8955 20.646 21.5378 20.7933C21.18 20.9406 20.7971 21.0108 20.4124 20.9997C17.4969 21.0028 14.5807 21.0028 11.6637 20.9997ZM11.6637 19.3856H20.3525C21.2483 19.3856 21.7757 18.8428 21.7757 17.9174V6.31281C21.7757 5.39937 21.2506 4.84939 20.3755 4.84939H16.6564C16.4724 4.86621 16.2887 4.81392 16.1386 4.70202C15.9886 4.59013 15.8822 4.42605 15.8388 4.23963C15.6569 3.69204 15.4865 3.14206 15.3069 2.59208C15.2285 2.30177 15.0576 2.04767 14.8221 1.87132C14.5865 1.69497 14.3004 1.6068 14.0103 1.62124H9.31934C9.0293 1.60706 8.74323 1.69565 8.50806 1.87249C8.2729 2.04933 8.1026 2.30391 8.02511 2.59447C7.85009 3.12771 7.68428 3.66334 7.50926 4.19419C7.35497 4.67244 7.11546 4.84939 6.62495 4.85178H2.97946C2.07212 4.85178 1.55627 5.39219 1.55627 6.34151C1.55627 10.1834 1.55627 14.0269 1.55627 17.8719C1.55627 18.8643 2.06291 19.388 3.02782 19.388L11.6637 19.3856Z" />
<path d="M5.83252 11.7179C5.83116 10.5194 6.17228 9.34733 6.81272 8.35017C7.45316 7.35301 8.36412 6.57557 9.43029 6.11624C10.4965 5.65692 11.6699 5.53636 12.8021 5.76984C13.9343 6.00332 14.9743 6.58034 15.7905 7.42785C16.6067 8.27536 17.1624 9.35527 17.3872 10.5309C17.6121 11.7065 17.496 12.9249 17.0536 14.032C16.6113 15.139 15.8626 16.0849 14.9022 16.7499C13.9419 17.4149 12.8131 17.7691 11.6589 17.7677C10.1142 17.7658 8.63329 17.1278 7.54104 15.9937C6.44878 14.8595 5.83435 13.3218 5.83252 11.7179ZM11.6704 16.156C12.5167 16.1556 13.3439 15.8945 14.0474 15.4058C14.7508 14.9171 15.2989 14.2228 15.6222 13.4106C15.9456 12.5985 16.0297 11.705 15.864 10.8432C15.6983 9.98135 15.2901 9.18994 14.6912 8.56902C14.0922 7.9481 13.3294 7.52558 12.4991 7.35488C11.6689 7.18419 10.8086 7.27299 10.0269 7.61007C9.24529 7.94714 8.57749 8.51734 8.10799 9.24855C7.63849 9.97975 7.38837 10.8391 7.38928 11.7179C7.39354 12.8949 7.84617 14.0222 8.6483 14.8538C9.45044 15.6853 10.5369 16.1535 11.6704 16.156Z"/>
<path d="M19.4385 6.45462C19.5928 6.4532 19.7441 6.49945 19.873 6.5875C20.002 6.67554 20.1028 6.80141 20.1627 6.94911C20.2226 7.0968 20.2389 7.25965 20.2095 7.41697C20.18 7.57429 20.1062 7.71897 19.9974 7.83262C19.8886 7.94628 19.7497 8.02378 19.5984 8.05528C19.447 8.08679 19.2901 8.07086 19.1475 8.00954C19.0049 7.94821 18.8831 7.84426 18.7975 7.71088C18.712 7.5775 18.6665 7.42072 18.667 7.26046C18.6688 7.04814 18.7505 6.84496 18.8947 6.69437C19.0388 6.54379 19.234 6.45774 19.4385 6.45462Z" />
</svg>
