<svg width="23" height="20" viewBox="0 0 23 20" fill="none" xmlns="http://www.w3.org/2000/svg">
<path id="Vector" d="M3.17397 3.33447C3.17397 3.05362 3.17397 2.77616 3.17397 2.4987C3.17397 1.3381 3.98253 0.745961 5.06944 1.11816C7.13392 1.82873 9.19508 2.54607 11.2629 3.24649C11.412 3.29725 11.6075 3.29725 11.7566 3.24649C13.8244 2.54269 15.8856 1.82873 17.95 1.11478C18.3444 0.979434 18.7354 0.93883 19.1198 1.1317C19.6069 1.37194 19.819 1.79828 19.8389 2.32952C19.8521 2.6645 19.8389 2.99948 19.8389 3.32093C20.1305 3.36154 20.3989 3.37169 20.6508 3.43936C21.4295 3.65253 21.9498 4.33265 21.9928 5.1515C22.0028 5.37482 21.9995 5.59814 21.9995 5.82485C21.9995 9.54011 21.9995 13.2554 21.9995 16.974C21.9995 17.9654 21.4925 18.6895 20.6309 18.923C20.4321 18.9772 20.2167 18.9975 20.0079 18.9975C14.3414 19.0008 8.67151 19.0008 3.00497 18.9975C1.78882 18.9975 1.0134 18.2091 1.0134 16.9706C1.0134 13.1437 1.03659 9.31679 1.00014 5.48986C0.986885 4.16008 1.91474 3.29386 3.0116 3.35815C3.05467 3.35815 3.10107 3.348 3.17397 3.33785V3.33447ZM11.9952 17.7963C12.0714 17.7793 12.1079 17.776 12.141 17.7624C14.0862 17.0925 16.0281 16.4259 17.9699 15.7525C18.5333 15.5563 18.8613 15.0656 18.8613 14.4498C18.8613 10.4706 18.8613 6.49481 18.8613 2.51562C18.8613 2.44118 18.8646 2.36674 18.858 2.2923C18.8315 2.06221 18.6923 1.96747 18.4769 1.99453C18.3775 2.00807 18.2847 2.04867 18.1886 2.07913C16.2103 2.75924 14.232 3.44274 12.2537 4.11609C12.0416 4.18715 11.9886 4.29543 11.9886 4.51537C11.9952 8.83969 11.9952 13.1606 11.9952 17.485C11.9952 17.5763 11.9952 17.6711 11.9952 17.7963ZM11.0044 17.8064C11.011 17.6947 11.0177 17.6135 11.0177 17.5323C11.0177 13.1809 11.0177 8.82954 11.0243 4.48153C11.0243 4.27851 10.9646 4.19053 10.7757 4.12624C8.77755 3.44613 6.78597 2.75586 4.79109 2.06898C4.29071 1.89641 4.15484 1.99792 4.15484 2.52915C4.15484 6.48804 4.15484 10.4469 4.15484 14.4058C4.15484 15.0893 4.47959 15.5563 5.10921 15.7728C6.39495 16.2195 7.68069 16.6627 8.96643 17.1094C9.63913 17.3395 10.3118 17.5696 11.0044 17.8064ZM3.17397 4.36648C2.41512 4.28189 1.9777 4.64395 1.9777 5.34437C1.97439 9.22882 1.97439 13.1133 1.9777 17.0011C1.9777 17.6406 2.34553 18.006 2.97183 18.006C4.70824 18.006 6.44797 18.006 8.18438 18.006C8.24734 18.006 8.31031 17.9959 8.44948 17.9824C8.31362 17.9316 8.25397 17.9079 8.19432 17.8876C7.06433 17.4951 5.93102 17.106 4.80103 16.7135C3.7837 16.3616 3.17728 15.5021 3.17728 14.4092C3.17728 11.1778 3.17728 7.9464 3.17728 4.715V4.36648H3.17397ZM19.8422 4.36648C19.8422 4.49506 19.8422 4.60334 19.8422 4.715C19.8422 7.93625 19.8422 11.1575 19.8422 14.3821C19.8422 15.5191 19.2524 16.3582 18.192 16.7203C17.1547 17.0789 16.1175 17.4342 15.0803 17.7929C14.9312 17.8436 14.7821 17.9045 14.6363 17.9587C14.6396 17.9756 14.6429 17.9891 14.6462 18.006C14.7258 18.006 14.8053 18.006 14.8848 18.006C16.5848 18.006 18.2881 18.006 19.988 18.006C20.6905 18.006 21.0352 17.6575 21.0352 16.9436C21.0352 13.0963 21.0352 9.24912 21.0352 5.40189C21.0352 4.65071 20.6143 4.27851 19.8389 4.36987L19.8422 4.36648Z" fill="#252525" stroke="white" stroke-width="0.2"/>
</svg>
