<svg width="19" height="19" viewBox="0 0 19 19" fill="none" xmlns="http://www.w3.org/2000/svg">
<g clip-path="url(#clip0_1646_3535)">
<path d="M0 18.9998C0.146057 18.4668 0.284127 17.961 0.423338 17.4541C0.710888 16.4052 1.00186 15.3584 1.28142 14.3072C1.30881 14.206 1.29626 14.0685 1.24605 13.9776C-1.3225 9.31794 0.47811 3.45361 5.22725 1.03968C10.475 -1.62996 16.8548 1.05446 18.5847 6.65967C20.1114 11.6069 17.3044 16.9052 12.3316 18.4236C9.86229 19.1771 7.46604 18.9407 5.15879 17.7849C5.06979 17.7405 4.94084 17.728 4.84499 17.753C3.30112 18.1485 1.75839 18.5531 0.215663 18.9543C0.154045 18.9691 0.0912858 18.9805 0 18.9998ZM2.26845 16.7734C3.21668 16.5256 4.12612 16.2915 5.03327 16.0483C5.18732 16.0074 5.30485 16.0278 5.44063 16.1085C7.19104 17.1541 9.07723 17.4985 11.0764 17.103C15.3143 16.2631 18.0609 12.1808 17.2621 7.94392C16.4691 3.73546 12.3236 0.923758 8.09135 1.72499C2.79677 2.72511 0.0387965 8.60308 2.70092 13.2627C2.97706 13.7457 3.03297 14.1424 2.86067 14.6504C2.63017 15.3346 2.46928 16.0415 2.26845 16.7734Z" fill="black"/>
<path d="M6.47204 5.08578C6.88169 4.98463 7.07795 5.22443 7.2183 5.58584C7.43283 6.13818 7.66675 6.6837 7.90181 7.22808C7.98396 7.41788 7.97712 7.58494 7.85388 7.74746C7.66675 7.99522 7.4876 8.24866 7.29019 8.48846C7.15669 8.64984 7.14413 8.79418 7.2514 8.97261C8.0239 10.2637 9.10107 11.1979 10.5057 11.7559C10.6986 11.832 10.8515 11.7979 10.9816 11.6366C11.2132 11.3479 11.4505 11.0638 11.6799 10.774C11.8488 10.5603 11.9458 10.508 12.1888 10.6183C12.8563 10.9217 13.5182 11.2377 14.1731 11.5672C14.2542 11.6081 14.3272 11.757 14.3249 11.8536C14.3101 12.8572 14.0134 13.3379 12.9396 13.788C12.3303 14.0425 11.6982 13.9834 11.0694 13.8084C8.78956 13.1765 7.1099 11.7491 5.76686 9.86703C5.34923 9.28287 4.97267 8.68053 4.81292 7.97135C4.58243 6.95191 4.83346 6.06658 5.58771 5.33013C5.83076 5.0926 6.1263 5.03918 6.47204 5.08578Z" fill="black"/>
</g>
<defs>
<clipPath id="clip0_1646_3535">
<rect width="19" height="19" fill="white"/>
</clipPath>
</defs>
</svg>
