<svg width="30" height="30" viewBox="0 0 8 8" fill="none" xmlns="http://www.w3.org/2000/svg">
<circle cx="4.31352" cy="3.68657" r="3.68657" fill="#FFECEB"/>
<path d="M5.80697 4.35499C5.80697 4.68687 5.80941 5.01875 5.80627 5.3504C5.80279 5.70313 5.54995 5.95326 5.20196 5.9535C4.59265 5.9535 3.98358 5.94788 3.37427 5.95619C3.00435 5.96123 2.74106 5.66858 2.74617 5.31784C2.75591 4.65034 2.74895 3.98283 2.74953 3.31532C2.74806 3.28624 2.75156 3.25713 2.75986 3.22925C2.76961 3.2044 2.78781 3.18386 2.8112 3.17133C2.83459 3.1588 2.86164 3.15508 2.8875 3.16086C2.94552 3.17257 2.98276 3.21355 2.98369 3.27562C2.9859 3.41228 2.98532 3.54895 2.98532 3.68549C2.98532 4.23016 2.98532 4.77459 2.98416 5.31937C2.98416 5.44818 3.01734 5.55803 3.11957 5.64024C3.18202 5.69089 3.25992 5.71816 3.34004 5.71741C3.96285 5.71827 4.58557 5.71827 5.20822 5.71741C5.42057 5.71741 5.57176 5.55955 5.57176 5.34478C5.57176 4.66939 5.57157 3.99407 5.57118 3.31883C5.57118 3.309 5.57118 3.29928 5.57118 3.28944C5.57351 3.21098 5.62131 3.15734 5.68919 3.15723C5.75707 3.15711 5.80697 3.21039 5.8072 3.28897C5.80801 3.56042 5.8072 3.83176 5.8072 4.1031V4.35488L5.80697 4.35499Z" fill="#EE5D50"/>
<path d="M5.55013 2.47515C5.73961 2.47515 5.91924 2.47445 6.09886 2.47515C6.19169 2.47515 6.24542 2.54459 6.22233 2.62891C6.20759 2.68208 6.16291 2.71182 6.09144 2.71206C5.86138 2.71276 5.63135 2.71299 5.40137 2.71276H2.83871C2.71501 2.71276 2.5912 2.71358 2.46739 2.71194C2.37723 2.71124 2.32687 2.66568 2.32815 2.59167C2.32943 2.51942 2.37897 2.4762 2.46577 2.47562C2.61847 2.47456 2.77118 2.47562 2.92388 2.47562H3.0051C3.0051 2.41461 3.0051 2.36062 3.0051 2.30663C3.00708 1.96281 3.26572 1.70166 3.60455 1.70166H4.9443C5.29171 1.70166 5.54769 1.95929 5.55013 2.31061C5.55036 2.36296 5.55013 2.41507 5.55013 2.47515ZM3.24565 2.46941H5.31457C5.31457 2.40922 5.31527 2.35465 5.31457 2.30019C5.3119 2.09771 5.16442 1.94126 4.96345 1.93986C4.50704 1.93658 4.05063 1.93634 3.59422 1.93915C3.41506 1.94009 3.27431 2.06235 3.2475 2.24035C3.23625 2.31354 3.24565 2.39048 3.24565 2.46941Z" fill="#EE5D50"/>
<path d="M4.62312 4.12398C4.62312 3.8491 4.62312 3.57421 4.62312 3.29932C4.62312 3.24768 4.63368 3.202 4.67998 3.17284C4.76306 3.12038 4.86042 3.18186 4.86158 3.28995C4.86332 3.44219 4.86158 3.59443 4.86158 3.74667C4.86158 4.15022 4.86158 4.5538 4.86158 4.95743C4.86158 5.012 4.84649 5.05791 4.79636 5.08496C4.75308 5.10838 4.70354 5.1092 4.6729 5.07325C4.64511 5.04035 4.62855 4.99929 4.62567 4.95614C4.62161 4.6793 4.62347 4.40246 4.62347 4.12551L4.62312 4.12398Z" fill="#EE5D50"/>
<path d="M3.93787 4.12909C3.93787 4.40624 3.93787 4.68339 3.93787 4.96054C3.93787 5.00739 3.93218 5.05739 3.88588 5.07531C3.84756 5.08971 3.80573 5.09168 3.76625 5.08093C3.72099 5.06699 3.70324 5.02097 3.70312 4.97225C3.70312 4.8044 3.70312 4.63655 3.70312 4.4687C3.70312 4.07639 3.70312 3.68408 3.70312 3.29177C3.70312 3.1824 3.79595 3.12115 3.88124 3.17186C3.92696 3.19879 3.93787 3.24212 3.93775 3.29177C3.93705 3.57096 3.93775 3.85002 3.93775 4.12909H3.93787Z" fill="#EE5D50"/>
</svg>
