<svg width="35" height="35" viewBox="0 0 26 26" fill="none" xmlns="http://www.w3.org/2000/svg">
<circle cx="13" cy="13" r="13" fill="#FFECEB"/>
<path fill-rule="evenodd" clip-rule="evenodd" d="M17.8902 7.93962L18.8706 10.6624C19.084 11.1896 19.0312 11.7871 18.7289 12.2688C18.4716 12.6339 18.0994 12.9022 17.6717 13.0307V17.0469C17.6624 17.4981 17.4742 17.9271 17.1485 18.2395C16.8229 18.5518 16.3864 18.722 15.9353 18.7125H10.2299C9.77315 18.73 9.32845 18.5636 8.9954 18.2505C8.66236 17.9375 8.46879 17.5039 8.45805 17.0469V13.0898C8.04223 12.9946 7.66769 12.769 7.38903 12.446C6.98835 11.9459 6.88898 11.2683 7.12916 10.6742L8.10368 7.94553C8.33351 7.3636 8.90156 6.98647 9.52707 7.00054H16.4668C17.0914 6.9838 17.6599 7.35887 17.8902 7.93962ZM13.7981 17.7498H13.8031V17.7675C13.8014 17.7616 13.7997 17.7557 13.7981 17.7498ZM13.7981 17.7498H12.2971C12.3027 17.7047 12.3027 17.659 12.2971 17.6139V16.3677C12.3074 16.1803 12.3941 16.0054 12.537 15.8837C12.6799 15.762 12.8664 15.7043 13.0531 15.724C13.4242 15.6967 13.7482 15.9733 13.7795 16.3441V17.608C13.7795 17.6559 13.7858 17.7036 13.7981 17.7498ZM15.9057 17.7498H14.6595C14.6652 17.7047 14.6652 17.659 14.6595 17.6139V16.3677C14.6275 15.498 13.8993 14.8174 13.0294 14.8439C12.1573 14.814 11.4255 15.4957 11.3934 16.3677V17.6317C11.3878 17.6768 11.3878 17.7224 11.3934 17.7675H10.2004C9.76532 17.7876 9.3958 17.4524 9.37351 17.0174V13.078C10.1604 12.9592 10.7924 12.3671 10.9623 11.5896C11.1703 12.5329 12.0361 13.1829 12.9999 13.1193C13.9464 13.159 14.7851 12.5144 14.9903 11.5896C15.1565 12.4161 15.8409 13.0384 16.6795 13.1252V17.0469C16.6433 17.4494 16.3098 17.7601 15.9057 17.7675V17.7498ZM17.087 12.0858C17.4001 12.0775 17.6902 11.9193 17.8666 11.6605V11.6782C17.9891 11.4718 18.0045 11.2188 17.9079 10.999L16.9334 8.31171C16.847 8.13595 16.6621 8.03065 16.4668 8.04593H9.52707C9.3392 8.02875 9.15877 8.12359 9.06639 8.28808L8.09187 10.999C7.96522 11.2497 7.98796 11.5499 8.15093 11.7786C8.29814 11.9595 8.50996 12.076 8.74155 12.1035C8.81611 12.1122 8.89143 12.1122 8.96598 12.1035C9.42044 12.1283 9.83088 11.8334 9.95232 11.3947C10.0424 10.8955 10.4727 10.5295 10.98 10.5206C11.4927 10.5204 11.929 10.894 12.0077 11.4006C12.1279 11.842 12.5437 12.1365 12.9999 12.1035C13.4599 12.1341 13.8756 11.8304 13.9862 11.3829C14.0717 10.8801 14.5039 10.5099 15.0139 10.5029C15.5247 10.5022 15.9603 10.8727 16.0416 11.377C16.1619 11.8216 16.5803 12.1187 17.0397 12.0858H17.087Z" fill="#EE5D50"/>
</svg>
