<svg width="35" height="35" viewBox="0 0 26 26" fill="none" xmlns="http://www.w3.org/2000/svg">
<circle cx="13" cy="13" r="13" fill="#E1FFFF"/>
<path fill-rule="evenodd" clip-rule="evenodd" d="M18.5479 11.8967L17.9619 11.3107C17.6826 11.0283 17.3041 10.8661 16.907 10.8586H14.6744V10.5349C14.6744 9.68719 13.9872 9 13.1395 9H8.53488C8.30369 9 8.11628 9.18742 8.11628 9.4186C8.11628 9.64979 8.30369 9.83721 8.53488 9.83721H13.1228C13.5081 9.83721 13.8205 10.1496 13.8205 10.5349V14.0679C13.8205 14.2991 14.0079 14.4865 14.2391 14.4865C14.4703 14.4865 14.6577 14.2991 14.6577 14.0679V11.6958H16.8902C17.0752 11.6951 17.2525 11.7696 17.3814 11.9023L17.9674 12.4605C18.0474 12.5433 18.105 12.6451 18.1349 12.7563H15.7907C15.5595 12.7563 15.3721 12.9437 15.3721 13.1749C15.3721 13.4061 15.5595 13.5935 15.7907 13.5935H18.1628V15.9656C18.1704 16.1554 18.1003 16.3401 17.9686 16.4771C17.8369 16.614 17.6551 16.6913 17.4651 16.6912H16.8456C16.7082 16.0472 16.1394 15.5869 15.4809 15.5869C14.8225 15.5869 14.2536 16.0472 14.1163 16.6912H11.1358C10.9856 16.0255 10.3727 15.5687 9.69187 15.6149C9.01106 15.6611 8.46549 16.1965 8.40657 16.8764C8.34765 17.5562 8.79296 18.1775 9.45567 18.3402C10.1184 18.5028 10.8008 18.1582 11.0633 17.5284H14.1944C14.412 18.0464 14.919 18.3835 15.4809 18.3835C16.0428 18.3835 16.5499 18.0464 16.7674 17.5284H17.4651C18.3128 17.5284 19 16.8412 19 15.9935V12.9851C19.0008 12.5765 18.838 12.1846 18.5479 11.8967ZM9.77395 17.4391C9.58657 17.4482 9.41259 17.3421 9.33498 17.1713C9.25737 17.0005 9.29185 16.7996 9.42198 16.6645C9.55211 16.5293 9.75153 16.4873 9.92514 16.5584C10.0987 16.6295 10.2114 16.7994 10.2093 16.987C10.2095 17.2303 10.0171 17.4301 9.77395 17.4391ZM15.0548 17.1552C15.1253 17.3269 15.2925 17.4391 15.4781 17.4391C15.7287 17.4391 15.9328 17.2376 15.9358 16.987C15.9381 16.8014 15.828 16.6328 15.6572 16.5602C15.4864 16.4876 15.2886 16.5253 15.1565 16.6558C15.0245 16.7862 14.9843 16.9835 15.0548 17.1552Z" fill="#12A0A0"/>
<path d="M12.3023 12.1479C12.2993 11.918 12.1137 11.7323 11.8837 11.7293H7.4186C7.18742 11.7293 7 11.9167 7 12.1479C7 12.3791 7.18742 12.5665 7.4186 12.5665H11.8837C12.1137 12.5635 12.2993 12.3778 12.3023 12.1479Z" fill="#12A0A0"/>
<path d="M11.8837 13.4037H9.09302C8.86183 13.4037 8.67442 13.5911 8.67442 13.8223C8.67442 14.0535 8.86183 14.2409 9.09302 14.2409H11.8837C12.1149 14.2409 12.3023 14.0535 12.3023 13.8223C12.3023 13.5911 12.1149 13.4037 11.8837 13.4037Z" fill="#12A0A0"/>
</svg>
