<svg width="30" height="31" viewBox="0 0 30 31" fill="none" xmlns="http://www.w3.org/2000/svg">
<path id="Icon" fill-rule="evenodd" clip-rule="evenodd" d="M25.125 9.86158V4.06508C25.0841 1.80787 23.2492 -0.000373011 21 5.77169e-08H9C6.7508 -0.000373011 4.91589 1.80787 4.875 4.06508V4.74259C2.01652 5.45951 0.00826561 8.03344 0 10.9908V24.541C0.00824749 28.1048 2.88447 30.9917 6.435 31H23.595C27.1338 30.9752 29.9919 28.0931 30 24.541V16.1098C29.9917 13.1524 27.9835 10.5785 25.125 9.86158ZM9 2.1831H21C22.0355 2.1831 22.875 3.02569 22.875 4.06508V9.6508H17.55C17.2103 9.6508 16.935 9.37443 16.935 9.03351C16.935 6.53898 14.9203 4.51676 12.435 4.51676H7.125V4.06508C7.125 3.02569 7.96447 2.1831 9 2.1831ZM23.595 29.0578C26.0803 29.0578 28.095 27.0356 28.095 24.541L28.05 16.1098C28.05 13.6152 26.0353 11.593 23.55 11.593H17.55C16.1417 11.593 15 10.4471 15 9.03351C15.0001 8.34679 14.7253 7.68884 14.2373 7.20752C13.7493 6.7262 13.0891 6.4619 12.405 6.47402H6.405C3.91972 6.47402 1.905 8.49624 1.905 10.9908V24.541C1.905 27.0356 3.91972 29.0578 6.405 29.0578H23.595Z" fill="#00577B"/>
</svg>
