<svg width="35" height="35" viewBox="0 0 26 26" fill="none" xmlns="http://www.w3.org/2000/svg">
<circle cx="13" cy="13" r="13" fill="#FFEDAF"/>
<path fill-rule="evenodd" clip-rule="evenodd" d="M13.9733 7.25282L17.9733 9.47282C18.609 9.82697 19.0022 10.4985 19 11.2262V15.5328C19.0022 16.2605 18.609 16.932 17.9733 17.2861L13.9733 19.5061C13.3682 19.8432 12.6318 19.8432 12.0267 19.5061L8.02667 17.2861C7.39096 16.932 6.99777 16.2605 7.00001 15.5328V11.2262C6.99777 10.4985 7.39096 9.82697 8.02667 9.47282L12.0267 7.25282C12.6318 6.91573 13.3682 6.91573 13.9733 7.25282ZM17.46 16.4128C17.7758 16.2321 17.9714 15.8967 17.9733 15.5328V11.2262C17.9714 10.8622 17.7758 10.5269 17.46 10.3462L13.46 8.12616C13.1574 7.95761 12.7892 7.95761 12.4867 8.12616L8.48667 10.3462C8.17083 10.5269 7.97522 10.8622 7.97334 11.2262V15.5328C7.97522 15.8967 8.17083 16.2321 8.48667 16.4128L12.4867 18.6328C12.7892 18.8014 13.1574 18.8014 13.46 18.6328L17.46 16.4128Z" fill="#FFB13B"/>
<path d="M16.12 10.8462L13.3 12.4128C13.1144 12.52 12.8857 12.52 12.7 12.4128L9.88001 10.8462C9.72367 10.7547 9.53007 10.7549 9.37394 10.8467C9.21781 10.9386 9.12357 11.1077 9.1276 11.2888C9.13163 11.4699 9.23329 11.6347 9.39335 11.7195L12.2133 13.2861C12.3069 13.3358 12.4052 13.376 12.5067 13.4061V16.3795C12.5067 16.6556 12.7305 16.8795 13.0067 16.8795C13.2828 16.8795 13.5067 16.6556 13.5067 16.3795V13.3795C13.6041 13.3528 13.6981 13.3147 13.7867 13.2661L16.6067 11.6995C16.8415 11.5621 16.9233 11.2622 16.7909 11.0246C16.6585 10.7869 16.3604 10.6988 16.12 10.8262V10.8462Z" fill="#FFB13B"/>
</svg>
