<svg width="35" height="35" viewBox="0 0 26 26" fill="none" xmlns="http://www.w3.org/2000/svg">
<circle cx="13" cy="13" r="13" fill="#CBECFF"/>
<path fill-rule="evenodd" clip-rule="evenodd" d="M8.25581 8.96465C8.49571 7.82709 9.49882 7.01251 10.6614 7.01116L10.6781 7C11.8326 6.99959 12.8315 7.80335 13.0781 8.93116H13.1395C13.9872 8.93116 14.6744 9.61835 14.6744 10.466V10.7898H16.907C17.3081 10.8046 17.6872 10.9771 17.9619 11.2698L18.5479 11.8279C18.8371 12.114 18.9999 12.5039 19 12.9107V15.9247C19 16.7723 18.3128 17.4595 17.4651 17.4595H16.7005C16.5216 18.04 15.9851 18.436 15.3777 18.436C14.7702 18.436 14.2338 18.04 14.0549 17.4595H11.3702C11.3443 17.4621 11.3181 17.4621 11.2921 17.4595C11.1414 18.0802 10.5857 18.5172 9.94698 18.5172C9.3083 18.5172 8.75253 18.0802 8.60186 17.4595H7.4186C7.18867 17.4565 7.00301 17.2709 7 17.0409V11.0242C7 9.52279 7.69767 9.08186 8.25581 8.96465ZM15.3777 16.3712C15.6677 16.373 15.9231 16.5628 16.0084 16.84C16.0305 16.9121 16.0645 16.98 16.1088 17.0409C16.0634 17.0992 16.0294 17.1655 16.0084 17.2363C15.9247 17.5146 15.6684 17.7052 15.3777 17.7052C15.087 17.7052 14.8307 17.5146 14.747 17.2363C14.726 17.1655 14.6919 17.0992 14.6465 17.0409C14.6909 16.98 14.7248 16.9121 14.747 16.84C14.8323 16.5628 15.0876 16.373 15.3777 16.3712ZM9.94698 16.427C10.2299 16.4305 10.4801 16.6114 10.5721 16.8791C10.5943 16.946 10.6284 17.0083 10.6726 17.0633C10.6343 17.1235 10.6061 17.1894 10.5888 17.2586C10.5201 17.5577 10.2539 17.7696 9.94698 17.7696C9.64009 17.7696 9.37388 17.5577 9.30512 17.2586C9.28998 17.1887 9.26156 17.1224 9.2214 17.0633C9.26146 17.0037 9.29513 16.9401 9.32186 16.8735C9.41381 16.6059 9.66402 16.4249 9.94698 16.4214V16.427ZM10.6614 11.0967C9.76438 11.0967 9.03721 10.3696 9.03721 9.47256C9.03721 8.57555 9.76438 7.84837 10.6614 7.84837C11.5584 7.84837 12.2856 8.57555 12.2856 9.47256C12.2856 9.90332 12.1145 10.3164 11.8099 10.621C11.5053 10.9256 11.0922 11.0967 10.6614 11.0967ZM13.0949 9.76279C12.9507 10.9984 11.9054 11.931 10.6614 11.934C9.45038 11.9288 8.42305 11.0435 8.23907 9.84651C8.03256 9.96372 7.83721 10.2595 7.83721 11.0242V16.6223H8.53488C8.56832 16.6197 8.60191 16.6197 8.63535 16.6223C8.82515 16.0594 9.35295 15.6804 9.94698 15.6804C10.541 15.6804 11.0688 16.0594 11.2586 16.6223C11.2958 16.6196 11.3331 16.6196 11.3702 16.6223H14.0549C14.2338 16.0418 14.7702 15.6458 15.3777 15.6458C15.9851 15.6458 16.5216 16.0418 16.7005 16.6223H17.4651C17.6546 16.6209 17.8355 16.5431 17.9668 16.4065C18.0982 16.2699 18.1688 16.0861 18.1628 15.8967V13.5247H15.7907C15.5595 13.5247 15.3721 13.3372 15.3721 13.106C15.3721 12.8749 15.5595 12.6874 15.7907 12.6874H18.1349C18.1062 12.5758 18.0484 12.4737 17.9674 12.3916L17.3814 11.8335C17.2525 11.7008 17.0752 11.6262 16.8902 11.627H14.6577V13.9991C14.6577 14.2303 14.4703 14.4177 14.2391 14.4177C14.0079 14.4177 13.8205 14.2303 13.8205 13.9991V10.466C13.822 10.28 13.7491 10.1012 13.6181 9.9691C13.4871 9.83706 13.3088 9.76279 13.1228 9.76279H13.0949Z" fill="#27B8F6"/>
<path d="M10.0251 8.41209C9.91413 8.41219 9.80773 8.45636 9.7293 8.53488C9.64952 8.61263 9.60452 8.7193 9.60452 8.8307C9.60452 8.9421 9.64952 9.04877 9.7293 9.12651L10.2428 9.64558V10.1144C10.2428 10.3456 10.4302 10.533 10.6614 10.533C10.8926 10.533 11.08 10.3456 11.08 10.1144V9.55628C11.0823 9.37811 11.0118 9.20673 10.8847 9.08186L10.3265 8.52372C10.2468 8.44716 10.1412 8.40334 10.0307 8.40093L10.0251 8.41209Z" fill="#27B8F6"/>
</svg>
