<svg width="27" height="29" viewBox="0 0 27 29" fill="none" xmlns="http://www.w3.org/2000/svg">
<g id="Group">
<path id="Vector" d="M18.8812 0.919434C19.088 1.02759 19.3153 1.11017 19.498 1.24974C19.9292 1.5786 20.0746 2.04484 20.0739 2.57539C20.0709 5.97645 20.0724 9.37679 20.0724 12.7779C20.0724 12.8853 20.0724 12.9934 20.0724 13.106C21.2278 12.9036 21.7547 13.1469 22.2962 14.132C22.837 13.953 23.3777 13.9435 23.8856 14.2599C24.395 14.577 24.6486 15.0484 24.6924 15.6126C25.0432 15.6126 25.3954 15.5556 25.7214 15.6235C26.4989 15.7858 26.99 16.4537 26.9966 17.2795C27.0024 18.0183 26.9973 18.7564 26.9973 19.4952C26.9973 20.5256 26.9885 21.556 27.0002 22.5857C27.009 23.3611 26.8278 24.0845 26.458 24.7591C26.219 25.1953 26.1131 25.6535 26.1196 26.1468C26.1269 26.6752 26.1262 27.2043 26.1196 27.7333C26.1101 28.489 25.6578 28.9296 24.9007 28.9304C22.6849 28.9311 20.4685 28.9311 18.2527 28.9304C17.4467 28.9304 16.9775 28.402 17.0411 27.596C17.101 26.8323 16.8898 26.1344 16.4543 25.511C16.3944 25.4255 16.2263 25.3758 16.1079 25.3758C12.7974 25.3685 9.487 25.3707 6.17728 25.3685C6.02308 25.3685 5.86597 25.3641 5.71542 25.3349C4.96491 25.1873 4.49063 24.6129 4.4899 23.8485C4.48698 21.5962 4.48917 19.3447 4.48844 17.0924C4.48844 16.9857 4.48844 16.8783 4.48844 16.7752C4.24728 16.7424 4.02731 16.7343 3.81977 16.6795C3.01445 16.4676 2.47075 15.7573 2.46709 14.9351C2.46271 14.1108 2.99545 13.3895 3.79931 13.1791C4.01854 13.1213 4.09016 13.0037 4.16616 12.8137C4.33059 12.403 4.30209 12.023 4.16251 11.6049C3.61881 9.9753 3.10287 8.33689 2.5884 6.69774C2.53067 6.51431 2.4364 6.43466 2.2632 6.39081C1.87589 6.29142 1.4915 6.18108 1.10783 6.06707C0.865945 5.99546 0.724173 5.82737 0.70225 5.57306C0.681057 5.3319 0.770213 5.12582 0.994563 5.0374C1.13707 4.98113 1.32122 4.96359 1.46884 5.00013C2.00597 5.13532 2.53505 5.30413 3.06853 5.45468C3.30018 5.51972 3.44196 5.66222 3.51211 5.89168C3.59469 6.16134 3.70285 6.42296 3.773 6.69554C3.83146 6.92428 3.9367 7.04194 4.18589 6.99809C4.27286 6.98274 4.36567 6.9959 4.49136 6.9959C4.49136 6.88262 4.49136 6.78616 4.49136 6.6897C4.49136 5.37648 4.49136 4.06399 4.49136 2.75078C4.49136 1.6831 4.7201 1.33525 5.6935 0.920165C10.0892 0.919434 14.4856 0.919434 18.8812 0.919434ZM5.589 6.99517C5.72712 6.99517 5.83454 6.99517 5.94124 6.99517C8.62248 6.99517 11.303 6.99517 13.9842 6.99517C14.6127 6.99517 14.8327 7.27506 14.6719 7.87503C14.3876 8.93759 14.099 9.99869 13.8147 11.0612C13.7277 11.3857 13.6473 11.7124 13.5648 12.0383C13.4464 12.506 13.0708 12.7589 12.4788 12.7596C10.2083 12.761 7.93774 12.7596 5.66719 12.7625C5.52615 12.7625 5.3493 12.6953 5.30034 12.9335C5.25868 13.1352 5.12787 13.3026 5.39753 13.4889C5.62554 13.6468 5.79143 13.912 5.94051 14.1568C6.02674 14.2986 6.09178 14.3688 6.26497 14.3666C7.2318 14.3578 8.1979 14.3593 9.16472 14.3651C9.31892 14.3658 9.40296 14.3249 9.47384 14.1737C9.84143 13.3895 10.5927 12.9942 11.4389 13.1191C12.4284 13.2653 13.1329 14.2672 12.9334 15.2435C12.7171 16.3002 11.7144 16.9536 10.7089 16.6941C10.0497 16.5239 9.62585 16.0949 9.37884 15.4715C8.48071 15.4715 7.59573 15.492 6.71294 15.4628C6.28544 15.4481 5.9712 15.4839 5.77827 15.9487C5.684 16.176 5.58461 16.374 5.58534 16.6276C5.59265 18.1498 5.589 19.6728 5.589 21.195C5.589 21.2915 5.589 21.3872 5.589 21.4756C8.46171 21.4756 11.2928 21.4756 14.1362 21.4756C14.1362 20.5139 14.1267 19.5749 14.1392 18.6365C14.1516 17.6624 14.9255 17.0544 15.8755 17.2722C16.1349 17.3314 16.3805 17.4483 16.6582 17.5477C16.6582 17.422 16.6582 17.3138 16.6582 17.2049C16.6582 15.4635 16.6538 13.722 16.6604 11.9806C16.664 11.0298 17.2172 10.3385 18.1 10.1953C18.3799 10.15 18.6729 10.188 18.9806 10.188C18.9806 10.1405 18.9806 10.0506 18.9806 9.95995C18.9806 7.51694 18.9806 5.0732 18.9806 2.6302C18.9806 2.13399 18.8622 2.01561 18.3697 2.01561C15.7162 2.01561 13.0627 2.01561 10.4092 2.01561C8.97764 2.01561 7.54604 2.01488 6.11443 2.01634C5.75635 2.01707 5.59338 2.14642 5.59192 2.46504C5.58535 3.95949 5.589 5.45395 5.589 6.99517ZM25.0169 27.8254C25.0169 27.2598 25.0264 26.7234 25.0147 26.1863C25.0001 25.4964 25.1521 24.8548 25.489 24.249C25.744 23.79 25.8909 23.2931 25.8916 22.7626C25.8931 20.9663 25.8931 19.17 25.8916 17.3738C25.8916 16.9397 25.6658 16.6759 25.3012 16.6737C24.9211 16.6707 24.6873 16.9404 24.6866 17.3833C24.6851 18.0673 24.6924 18.7513 24.6814 19.4346C24.6749 19.827 24.3248 20.0674 23.9624 19.952C23.7227 19.876 23.5897 19.6662 23.5897 19.3505C23.5882 18.1652 23.5911 16.9799 23.5882 15.7945C23.5875 15.3729 23.3383 15.0981 22.9758 15.1047C22.625 15.1105 22.3824 15.3692 22.3817 15.7514C22.3795 16.7635 22.3831 17.7757 22.3795 18.7878C22.378 19.1839 22.0799 19.4565 21.74 19.3856C21.4543 19.3257 21.2913 19.1159 21.2913 18.7885C21.2892 17.4666 21.2928 16.1446 21.2892 14.8219C21.2877 14.4068 21.0348 14.1291 20.676 14.1276C20.3062 14.1262 20.0775 14.3878 20.0775 14.8175C20.0768 15.9115 20.0782 17.0062 20.076 18.1002C20.076 18.2083 20.0687 18.3201 20.038 18.4232C19.9591 18.6877 19.7143 18.8397 19.4505 18.8054C19.1969 18.7725 19.012 18.5766 18.9886 18.3084C18.9799 18.209 18.9821 18.1082 18.9821 18.0081C18.9821 16.0569 18.9821 14.1057 18.9806 12.1545C18.9806 12.0186 18.9711 11.8812 18.9477 11.7475C18.9083 11.5224 18.7774 11.3718 18.5509 11.3097C18.1102 11.1891 17.7785 11.4646 17.7785 11.9543C17.7785 14.9994 17.7785 18.0453 17.7785 21.0905C17.7785 21.1906 17.7843 21.2922 17.7712 21.3909C17.7419 21.613 17.633 21.7848 17.416 21.8703C17.028 22.023 16.6713 21.7504 16.6611 21.2791C16.6487 20.6864 16.6662 20.0937 16.6458 19.5018C16.6275 18.9778 16.246 18.5218 15.7484 18.3808C15.3866 18.2777 15.258 18.3705 15.258 18.7462C15.2558 20.0133 15.2616 21.2813 15.2536 22.5484C15.2521 22.8261 15.3384 23.0519 15.5452 23.2244C15.8317 23.4641 16.1232 23.698 16.4236 23.9194C17.3999 24.6392 17.9634 25.6016 18.1205 26.7994C18.1651 27.137 18.1665 27.4805 18.1884 27.8269C20.4604 27.8254 22.7193 27.8254 25.0169 27.8254ZM4.36932 8.14469C4.37224 8.19438 4.36786 8.23165 4.37809 8.26454C4.6894 9.33733 5.00437 10.4094 5.31276 11.4836C5.35734 11.6393 5.45965 11.6378 5.58315 11.6378C7.80693 11.6364 10.0307 11.6334 12.2545 11.6415C12.4518 11.6422 12.5197 11.5735 12.5629 11.393C12.6696 10.9421 12.7989 10.4971 12.9173 10.0491C13.0839 9.41991 13.2498 8.7907 13.4201 8.14396C10.3851 8.14469 7.38161 8.14469 4.36932 8.14469ZM14.1304 22.642C11.2599 22.642 8.43321 22.642 5.58827 22.642C5.58827 22.9949 5.58827 23.3216 5.58827 23.6483C5.589 24.1598 5.70373 24.2753 6.21455 24.2753C9.03976 24.2753 11.8642 24.2753 14.6894 24.2753C14.7764 24.2753 14.8626 24.2753 15.0417 24.2753C14.4622 23.8215 14.1918 23.2843 14.1304 22.642ZM4.99122 14.9264C4.99268 14.5398 4.6916 14.2241 4.31305 14.2153C3.92574 14.2065 3.60419 14.5303 3.60711 14.9264C3.61004 15.3122 3.91697 15.6199 4.30063 15.6213C4.68429 15.6228 4.98976 15.3151 4.99122 14.9264ZM10.4472 14.9081C10.4414 15.3034 10.7286 15.6089 11.1166 15.6199C11.4967 15.6308 11.8182 15.3261 11.8284 14.9454C11.8394 14.5478 11.531 14.2197 11.1422 14.2153C10.7659 14.2102 10.4531 14.523 10.4472 14.9081Z" fill="#146A8E"/>
<path id="Vector_2" d="M12.4883 4.02264C12.2881 4.02264 12.0879 4.03215 11.8884 4.02045C11.5369 3.99926 11.311 3.77126 11.3125 3.45483C11.314 3.12744 11.5529 2.90162 11.9198 2.89578C12.3013 2.88993 12.6835 2.8892 13.0649 2.89578C13.4208 2.90162 13.6766 3.14424 13.6751 3.45921C13.6737 3.76541 13.4347 4.00072 13.0883 4.02045C12.8888 4.03215 12.6886 4.02337 12.4883 4.02264Z" fill="#146A8E"/>
</g>
</svg>
