<svg width="26" height="27" viewBox="0 0 26 27" fill="none" xmlns="http://www.w3.org/2000/svg">
<g id="Group">
<path id="Vector" d="M19.5888 23.2379C19.7287 23.2379 19.8383 23.2379 19.9472 23.2379C20.8758 23.2379 21.8052 23.237 22.7339 23.2387C23.1724 23.2396 23.3197 23.3903 23.3124 23.8542C23.3066 24.2569 23.3238 24.6681 23.2559 25.0614C23.062 26.1928 22.1293 26.9956 21.0272 26.9965C14.84 27.0008 8.65368 27.0008 2.46653 26.9965C1.18771 26.9956 0.166606 25.9408 0.165787 24.6043C0.16006 16.6128 0.162522 8.62048 0.16334 0.629014C0.16334 0.216117 0.321241 0.0577674 0.726245 0.0577674C6.83157 0.0569161 12.9369 0.0569161 19.0422 0.0577674C19.4546 0.0577674 19.5871 0.208455 19.5871 0.67158C19.588 3.94921 19.588 7.22684 19.588 10.5045C19.588 14.6122 19.588 18.7198 19.588 22.8275C19.5888 22.9527 19.5888 23.0778 19.5888 23.2379ZM1.03062 0.977208C1.03062 1.12279 1.03062 1.22835 1.03062 1.33392C1.03062 9.02741 1.03062 16.7209 1.03226 24.4144C1.03226 24.5625 1.04289 24.7124 1.0658 24.8588C1.17298 25.556 1.73998 26.0677 2.42563 26.0949C3.08918 26.1213 3.71755 25.6207 3.837 24.9278C3.89427 24.5966 3.88446 24.2509 3.89019 23.9121C3.89837 23.3545 4.00228 23.2387 4.5341 23.2387C9.13805 23.2387 13.7428 23.2387 18.3468 23.2387C18.4654 23.2387 18.584 23.2387 18.7109 23.2387C18.7109 15.7989 18.7109 8.39742 18.7109 0.978058C12.8207 0.977207 6.94694 0.977208 1.03062 0.977208ZM22.4312 24.159C16.5312 24.159 10.6501 24.159 4.7452 24.159C4.79838 24.8537 4.68874 25.4896 4.25919 26.0958C4.43592 26.0958 4.54392 26.0958 4.6511 26.0958C10.0291 26.0958 15.4062 26.0958 20.7842 26.0958C21.9501 26.0958 22.5441 25.4088 22.4312 24.159Z" fill="#146A8E"/>
<path id="Vector_2" d="M21.2314 9.56386C21.2314 7.03114 21.26 4.49757 21.2191 1.96486C21.1994 0.741493 22.0765 -0.0323678 23.0666 0.0527655C23.4012 0.0817108 23.7432 0.0323336 24.0762 0.0714949C24.9279 0.171101 25.5178 0.904098 25.5187 1.84056C25.5211 5.97038 25.5195 10.0993 25.5195 14.2292C25.5195 15.272 25.5244 16.3149 25.5146 17.3578C25.5129 17.5323 25.4753 17.7188 25.4058 17.8771C24.8862 19.0656 24.3536 20.2481 23.8283 21.434C23.7342 21.646 23.6303 21.8316 23.3685 21.8316C23.1058 21.8316 23.0019 21.6417 22.9086 21.4323C22.3948 20.2762 21.8745 19.1235 21.3713 17.9623C21.2862 17.7665 21.2379 17.5366 21.2371 17.3221C21.2281 14.7357 21.2314 12.1502 21.2314 9.56386ZM22.115 3.92463C22.115 8.32857 22.115 12.7061 22.115 17.0769C22.3989 17.0769 22.6591 17.0769 22.9275 17.0769C22.9275 12.6848 22.9275 8.3158 22.9275 3.92463C22.6526 3.92463 22.3932 3.92463 22.115 3.92463ZM24.6285 17.0896C24.6285 12.6823 24.6285 8.30729 24.6285 3.92548C24.3438 3.92548 24.0844 3.92548 23.8267 3.92548C23.8267 8.32517 23.8267 12.7019 23.8267 17.0896C24.0999 17.0896 24.3528 17.0896 24.6285 17.0896ZM22.0929 2.97539C22.9618 2.97539 23.7923 2.97539 24.6391 2.97539C24.6391 2.5327 24.6645 2.10788 24.6326 1.68818C24.599 1.24889 24.3094 0.985828 23.8774 0.963693C23.5419 0.946666 23.204 0.946666 22.8686 0.963693C22.4243 0.986679 22.1183 1.27869 22.0978 1.71116C22.0774 2.12406 22.0929 2.53781 22.0929 2.97539ZM22.3457 18.0082C22.6845 18.771 23.0109 19.5057 23.3701 20.3128C23.726 19.5117 24.0549 18.7727 24.3945 18.0082C23.6884 18.0082 23.0387 18.0082 22.3457 18.0082Z" fill="#146A8E"/>
<path id="Vector_3" d="M16.4828 3.86082C16.2848 4.11537 16.0901 4.37247 15.8888 4.62362C15.6057 4.97607 15.3439 4.97607 15.0567 4.62191C14.8497 4.36651 14.6493 4.10515 14.3817 3.87019C14.3817 4.18348 14.3817 4.49762 14.3817 4.81091C14.3817 5.21529 14.3825 5.61882 14.3817 6.02321C14.3801 6.45483 14.2393 6.65319 13.9432 6.64553C13.6609 6.63787 13.521 6.43695 13.5202 6.03342C13.5193 5.52262 13.5202 5.01268 13.5202 4.50188C13.5202 3.87444 13.5259 3.24701 13.5177 2.61958C13.5144 2.36077 13.5758 2.14794 13.8245 2.0577C14.0659 1.97001 14.2271 2.11304 14.3711 2.30033C14.7262 2.7643 15.0886 3.22318 15.4723 3.71525C15.8446 3.23765 16.2063 2.78218 16.5589 2.31906C16.7086 2.1224 16.8706 1.96576 17.1267 2.06025C17.3763 2.1522 17.4327 2.37014 17.4319 2.62554C17.4278 3.77399 17.4319 4.92243 17.4295 6.07088C17.4286 6.43781 17.2699 6.64127 16.995 6.64468C16.7176 6.64809 16.5614 6.45483 16.5589 6.0794C16.554 5.34895 16.5573 4.61766 16.5573 3.88721C16.5319 3.87955 16.5074 3.87019 16.4828 3.86082Z" fill="#146A8E"/>
<path id="Vector_4" d="M12.0888 4.80934C11.656 4.80934 11.2624 4.80934 10.8157 4.80934C10.8157 5.16264 10.8157 5.51765 10.8157 5.8735C10.8157 5.99013 10.8231 6.10847 10.8124 6.22425C10.7887 6.48902 10.6063 6.66269 10.3641 6.64396C10.1153 6.62523 9.97135 6.4805 9.9599 6.21574C9.95253 6.05654 9.9558 5.89649 9.9558 5.73729C9.9558 4.69526 9.95417 3.65323 9.95662 2.6112C9.95744 2.18298 10.0982 2.03655 10.504 2.03484C11.1463 2.03229 11.7894 2.03144 12.4316 2.03569C12.7925 2.03825 12.9536 2.20341 12.9553 2.58225C12.9594 3.7622 12.9594 4.943 12.9553 6.12294C12.9545 6.45582 12.7736 6.65417 12.5053 6.64736C12.2484 6.64055 12.0954 6.45752 12.0905 6.12635C12.0839 5.69387 12.0888 5.26054 12.0888 4.80934ZM10.8337 3.86776C11.2567 3.86776 11.6576 3.86776 12.0602 3.86776C12.0602 3.54766 12.0602 3.24799 12.0602 2.94918C11.638 2.94918 11.2444 2.94918 10.8337 2.94918C10.8337 3.25736 10.8337 3.55022 10.8337 3.86776Z" fill="#146A8E"/>
<path id="Vector_5" d="M11.8522 15.4265C10.3925 15.4265 8.93204 15.4282 7.47239 15.424C7.34229 15.424 7.17538 15.4367 7.09029 15.3627C6.97329 15.2605 6.85547 15.0817 6.85547 14.9361C6.85547 14.8076 6.99375 14.639 7.11402 14.5616C7.22202 14.4917 7.38975 14.5079 7.53129 14.5071C10.4203 14.5045 13.3094 14.5054 16.1992 14.5062C16.3113 14.5062 16.425 14.5037 16.5346 14.525C16.7629 14.5692 16.8971 14.7157 16.8987 14.9651C16.9004 15.2162 16.7605 15.3584 16.5379 15.4103C16.4397 15.4333 16.335 15.4265 16.2336 15.4265C14.7714 15.4274 13.3118 15.4265 11.8522 15.4265Z" fill="#146A8E"/>
<path id="Vector_6" d="M3.2323 5.74559C3.78949 5.74559 4.31886 5.73793 4.84823 5.74814C5.23605 5.75581 5.4725 6.10826 5.28022 6.40537C5.2025 6.52541 5.0225 6.63779 4.88504 6.64204C4.19204 6.66588 3.49821 6.65737 2.80438 6.65056C2.51229 6.648 2.3462 6.47774 2.34538 6.17126C2.34129 4.94874 2.33884 3.72538 2.34866 2.50286C2.35111 2.19213 2.5172 2.03974 2.81666 2.03718C3.49985 2.03123 4.18386 2.03123 4.86704 2.03718C5.15832 2.03974 5.35468 2.24065 5.34486 2.50031C5.33586 2.74805 5.1485 2.92598 4.86704 2.92938C4.32868 2.93619 3.7903 2.93108 3.23311 2.93108C3.23311 3.25544 3.23311 3.5483 3.23311 3.88798C3.56284 3.88798 3.89503 3.88798 4.22803 3.88798C4.45222 3.88798 4.67722 3.87947 4.9014 3.89224C5.16813 3.90756 5.37022 4.11869 5.34159 4.36217C5.31131 4.62609 5.16486 4.78699 4.89404 4.78784C4.45549 4.78954 4.01694 4.78955 3.57758 4.78955C3.46794 4.78955 3.3583 4.78955 3.2323 4.78955C3.2323 5.11816 3.2323 5.41017 3.2323 5.74559Z" fill="#146A8E"/>
<path id="Vector_7" d="M11.8422 19.8489C10.3416 19.8489 8.84108 19.8498 7.34052 19.8481C7.00506 19.8472 6.82996 19.6855 6.83405 19.3943C6.83733 19.1134 7.00424 18.9593 7.32333 18.9584C8.23152 18.9559 9.14053 18.9576 10.0487 18.9576C12.1515 18.9576 14.2542 18.9576 16.357 18.9576C16.7211 18.9576 16.8994 19.1091 16.8953 19.4079C16.8912 19.6931 16.7145 19.8481 16.375 19.8481C14.8638 19.8498 13.3534 19.8489 11.8422 19.8489Z" fill="#146A8E"/>
<path id="Vector_8" d="M11.8611 10.0824C13.3314 10.0824 14.8009 10.0824 16.2712 10.0824C16.3628 10.0824 16.4585 10.0713 16.5461 10.0926C16.7711 10.1471 16.9028 10.2969 16.8954 10.5455C16.8881 10.7916 16.7621 10.9405 16.524 10.972C16.4438 10.9831 16.3612 10.9788 16.2793 10.9788C13.3396 10.9788 10.3998 10.9788 7.46009 10.9788C7.37827 10.9788 7.29563 10.9823 7.21545 10.972C6.97899 10.9422 6.8489 10.8001 6.83663 10.5523C6.82517 10.302 6.95691 10.1531 7.17864 10.0926C7.26536 10.0688 7.36109 10.0815 7.45273 10.0815C8.92056 10.0815 10.3908 10.0824 11.8611 10.0824Z" fill="#146A8E"/>
<path id="Vector_9" d="M7.64748 3.57584C7.96166 3.12804 8.24885 2.716 8.5393 2.3065C8.73894 2.02557 8.96967 1.96001 9.18976 2.11496C9.41394 2.2733 9.43603 2.54913 9.23639 2.83859C8.89275 3.33917 8.54257 3.83465 8.18584 4.3463C8.54994 4.86646 8.91075 5.37897 9.2683 5.89317C9.40903 6.09579 9.44995 6.33501 9.2544 6.49336C9.13331 6.59126 8.92221 6.6117 8.75857 6.59382C8.6653 6.5836 8.5753 6.43632 8.5033 6.33587C8.22266 5.9451 7.95021 5.54838 7.64666 5.1142C7.33738 5.55349 7.05674 5.98001 6.74501 6.38013C6.64765 6.50443 6.47255 6.62191 6.32528 6.63298C5.9751 6.65937 5.79428 6.24732 6.00782 5.92382C6.30892 5.46921 6.61901 5.02056 6.9471 4.58723C7.08865 4.39993 7.07474 4.27393 6.9422 4.09601C6.63538 3.68566 6.34656 3.26 6.05446 2.83774C5.85974 2.5568 5.87282 2.3048 6.08146 2.13368C6.29992 1.9549 6.54456 2.01365 6.75565 2.30906C7.04938 2.716 7.33411 3.12889 7.64748 3.57584Z" fill="#146A8E"/>
<path id="Vector_10" d="M2.85759 19.4004C2.85759 19.0599 2.85186 18.7202 2.85923 18.3796C2.86577 18.0757 3.01959 17.8944 3.31005 17.8884C3.97278 17.8748 4.63633 17.8757 5.29906 17.8876C5.58707 17.8927 5.74335 18.0715 5.74744 18.3805C5.75562 19.0607 5.75644 19.7418 5.74744 20.422C5.74335 20.7446 5.58297 20.9107 5.26797 20.9158C4.62569 20.926 3.9826 20.9268 3.34032 20.9158C3.01468 20.9098 2.86414 20.7327 2.85923 20.3896C2.8535 20.0593 2.85759 19.7299 2.85759 19.4004ZM3.73387 19.9767C4.11923 19.9767 4.48742 19.9767 4.86297 19.9767C4.86297 19.5792 4.86297 19.2029 4.86297 18.83C4.47433 18.83 4.10532 18.83 3.73387 18.83C3.73387 19.2259 3.73387 19.5928 3.73387 19.9767Z" fill="#146A8E"/>
<path id="Vector_11" d="M4.30469 16.471C3.97823 16.471 3.65177 16.477 3.32613 16.4685C3.0144 16.4599 2.86222 16.2982 2.85976 15.9704C2.85404 15.3013 2.85404 14.6313 2.85976 13.9621C2.86304 13.6225 3.02176 13.4667 3.35722 13.465C3.98886 13.4616 4.62133 13.4616 5.25297 13.465C5.5917 13.4667 5.74307 13.6114 5.74798 13.9621C5.75616 14.6313 5.75616 15.3013 5.74798 15.9704C5.74307 16.322 5.59661 16.4625 5.25297 16.4693C4.93633 16.477 4.62051 16.4719 4.30469 16.471ZM4.87005 14.3818C4.47241 14.3818 4.10342 14.3818 3.73278 14.3818C3.73278 14.7845 3.73278 15.1625 3.73278 15.5558C4.11814 15.5558 4.48796 15.5558 4.87005 15.5558C4.87005 15.1583 4.87005 14.7794 4.87005 14.3818Z" fill="#146A8E"/>
<path id="Vector_12" d="M4.29569 10.7723C4.74733 10.2981 5.13269 9.8895 5.52215 9.48511C5.78888 9.20843 6.04007 9.17863 6.23562 9.39232C6.41889 9.59238 6.38698 9.8597 6.14071 10.1177C5.67352 10.608 5.20551 11.0975 4.73423 11.5836C4.43069 11.8969 4.2335 11.8944 3.92668 11.5794C3.66486 11.3112 3.40222 11.0431 3.1494 10.7664C2.9334 10.5305 2.92768 10.2862 3.11423 10.0921C3.29996 9.89971 3.5405 9.90312 3.7606 10.133C3.94633 10.3271 4.10832 10.5459 4.29569 10.7723Z" fill="#146A8E"/>
</g>
</svg>
