<svg width="30" height="30" viewBox="0 0 8 8" fill="none" xmlns="http://www.w3.org/2000/svg">
<circle cx="3.68657" cy="3.68657" r="3.68657" fill="#CBECFF"/>
<path d="M2.45496 2.31947C2.43882 2.30333 2.41965 2.29052 2.39856 2.28179C2.37747 2.27305 2.35487 2.26855 2.33204 2.26855C2.30921 2.26855 2.28661 2.27305 2.26551 2.28179C2.24442 2.29052 2.22526 2.30333 2.20912 2.31947C2.17652 2.35207 2.1582 2.39629 2.1582 2.44239C2.1582 2.48849 2.17652 2.53271 2.20912 2.56531L3.18382 3.54002C3.12216 3.65473 3.09909 3.78627 3.11805 3.91512C3.13701 4.04398 3.19698 4.16329 3.28907 4.25539C3.38117 4.34748 3.50049 4.40745 3.62934 4.42641C3.7582 4.44537 3.88973 4.42231 4.00445 4.36064L4.97915 5.33534C4.99525 5.35157 5.01439 5.36445 5.03549 5.37324C5.05659 5.38203 5.07922 5.38656 5.10207 5.38656C5.12493 5.38656 5.14756 5.38203 5.16865 5.37324C5.18975 5.36445 5.2089 5.35157 5.22499 5.33534C5.24122 5.31925 5.2541 5.3001 5.26289 5.27901C5.27168 5.25791 5.2762 5.23528 5.2762 5.21242C5.2762 5.18957 5.27168 5.16694 5.26289 5.14584C5.2541 5.12475 5.24122 5.1056 5.22499 5.0895L2.45496 2.31947ZM3.71706 4.0871C3.64818 4.0871 3.58213 4.05974 3.53343 4.01104C3.48473 3.96234 3.45737 3.89628 3.45737 3.82741C3.45737 3.82741 3.45737 3.81875 3.45737 3.81529L3.72744 4.08537L3.71706 4.0871Z" fill="#27B8F7"/>
<path d="M3.75638 4.69344C3.01193 4.71076 2.52371 4.07192 2.37136 3.82781C2.47982 3.6548 2.61016 3.49652 2.75916 3.3569L2.5064 3.11279C2.31099 3.29691 2.14359 3.50864 2.00952 3.74124C1.99433 3.76756 1.98633 3.79742 1.98633 3.82781C1.98633 3.8582 1.99433 3.88805 2.00952 3.91437C2.11859 4.10308 2.70203 5.0397 3.72175 5.0397H3.76503C3.95678 5.03401 4.14604 4.99475 4.32423 4.9237L4.05069 4.65016C3.9545 4.67547 3.85578 4.68998 3.75638 4.69344Z" fill="#27B8F7"/>
<path d="M5.42799 3.74032C5.31719 3.54815 4.70605 2.58383 3.67248 2.615C3.48074 2.62068 3.29147 2.65994 3.11328 2.73099L3.38682 3.00453C3.48302 2.97923 3.58173 2.96471 3.68114 2.96125C4.42385 2.94221 4.91207 3.58278 5.06616 3.82689C4.95502 4.00041 4.82174 4.15871 4.66969 4.29779L4.93112 4.5419C5.12897 4.35827 5.29873 4.14652 5.43492 3.91345C5.44907 3.88653 5.45589 3.85635 5.45467 3.82596C5.45345 3.79556 5.44425 3.76603 5.42799 3.74032Z" fill="#27B8F7"/>
</svg>
