<svg width="29" height="29" viewBox="0 0 29 29" fill="none" xmlns="http://www.w3.org/2000/svg">
<g id="Group">
<path id="Vector" d="M0 29.0002C0.222941 28.1866 0.433691 27.4147 0.646181 26.641C1.0851 25.0398 1.52924 23.4421 1.95596 21.8374C1.99776 21.683 1.9786 21.4731 1.90197 21.3344C-2.01866 14.2219 0.729785 5.27059 7.97886 1.58599C15.9891 -2.48894 25.7271 1.60854 28.3675 10.1643C30.698 17.7157 26.4133 25.8031 18.8229 28.1207C15.0538 29.2708 11.3961 28.91 7.87436 27.1458C7.7385 27.0781 7.54169 27.059 7.39538 27.0972C5.03882 27.7009 2.684 28.3185 0.329187 28.9308C0.235133 28.9534 0.139338 28.9707 0 29.0002ZM3.46256 25.6018C4.90993 25.2237 6.29809 24.8663 7.68277 24.4951C7.9179 24.4326 8.0973 24.4639 8.30456 24.587C10.9764 26.183 13.8555 26.7086 16.907 26.1049C23.3757 24.8229 27.5681 18.5917 26.3489 12.1246C25.1384 5.70081 18.8107 1.40904 12.3506 2.63204C4.26898 4.15862 0.0592188 13.1307 4.12267 20.2432C4.54417 20.9805 4.62952 21.5859 4.36651 22.3613C4.01469 23.4057 3.7691 24.4847 3.46256 25.6018Z" fill="#00577B"/>
<path id="Vector_2" d="M9.87904 7.76112C10.5043 7.60673 10.8039 7.97276 11.0181 8.52441C11.3456 9.36749 11.7026 10.2002 12.0614 11.0311C12.1868 11.3208 12.1764 11.5758 11.9883 11.8239C11.7026 12.2021 11.4292 12.5889 11.1279 12.955C10.9241 13.2013 10.9049 13.4216 11.0686 13.694C12.2478 15.6646 13.892 17.0906 16.036 17.9424C16.3304 18.0586 16.5638 18.0065 16.7623 17.7602C17.1159 17.3196 17.4782 16.8859 17.8283 16.4435C18.0861 16.1174 18.2341 16.0376 18.6051 16.2059C19.624 16.6691 20.6342 17.1513 21.634 17.6544C21.7576 17.7168 21.8691 17.9441 21.8656 18.0915C21.843 19.6233 21.3901 20.3571 19.7512 21.0441C18.8211 21.4327 17.8562 21.3425 16.8965 21.0753C13.4165 20.1108 10.8527 17.9319 8.80265 15.0592C8.16517 14.1675 7.5904 13.2481 7.34656 12.1656C6.99473 10.6096 7.37791 9.25821 8.5292 8.13409C8.90018 7.77153 9.35129 7.68999 9.87904 7.76112Z" fill="#00577B"/>
</g>
</svg>
