<svg width="17" height="20" viewBox="0 0 17 20" fill="none" xmlns="http://www.w3.org/2000/svg">
<path fill-rule="evenodd" clip-rule="evenodd" d="M2.93914 9.29C3.55237 9.56399 4.05591 10.0358 4.36914 10.63L7.00914 15.44C7.20676 15.7978 7.30677 16.2013 7.29914 16.61L7.24914 18.61C7.2475 19.0228 7.02663 19.4036 6.66914 19.61C6.50589 19.6964 6.32382 19.741 6.13914 19.74C5.91658 19.7391 5.69859 19.6768 5.50914 19.56L3.82914 18.56C3.48012 18.3445 3.19389 18.041 2.99914 17.68L0.369138 12.87C0.0377836 12.2556 -0.0750467 11.5469 0.0491377 10.86C0.125491 10.2115 0.493737 9.63336 1.04914 9.29C1.64428 8.99364 2.34399 8.99364 2.93914 9.29ZM4.59914 17.23L5.75914 17.93L5.74914 16.55C5.74575 16.4033 5.70808 16.2595 5.63914 16.13L3.00914 11.32C2.85611 11.0172 2.60618 10.7743 2.29914 10.63C2.19658 10.5788 2.08376 10.5514 1.96914 10.55C1.88552 10.5508 1.80328 10.5713 1.72914 10.61C1.56336 10.7211 1.45676 10.9012 1.43914 11.1C1.39344 11.4463 1.46377 11.7979 1.63914 12.1L4.26914 16.87C4.34002 17.0207 4.45513 17.1463 4.59914 17.23Z" fill="#848484"/>
<path fill-rule="evenodd" clip-rule="evenodd" d="M9.58905 0.22L16.589 7.22C16.7373 7.36778 16.8171 7.57081 16.809 7.78V14.78C16.809 16.0398 16.3086 17.248 15.4178 18.1388C14.527 19.0296 13.3188 19.53 12.059 19.53H9.18904C8.77483 19.53 8.43904 19.1942 8.43904 18.78C8.43904 18.3658 8.77483 18.03 9.18904 18.03H12.059C13.8517 18.0245 15.3036 16.5726 15.309 14.78V8.53H11.059C9.54254 8.52452 8.31453 7.29651 8.30904 5.78V1.53H6.05904C4.26412 1.53 2.80905 2.98507 2.80905 4.78V7.43C2.80905 7.84421 2.47326 8.18 2.05905 8.18C1.64483 8.18 1.30905 7.84421 1.30905 7.43V4.78C1.30106 3.51503 1.79797 2.29913 2.68964 1.40183C3.5813 0.504536 4.79405 -2.52291e-05 6.05904 9.45874e-10H9.05904C9.25789 0.000175053 9.44853 0.0793075 9.58905 0.22ZM9.80905 2.56V5.78C9.80905 6.47036 10.3687 7.03 11.059 7.03H14.279L9.80905 2.56Z" fill="#848484"/>
</svg>
