<svg width="21" height="21" viewBox="0 0 21 21" fill="none" xmlns="http://www.w3.org/2000/svg">
<path d="M6.12 8.08C7.22457 8.08 8.12 7.18457 8.12 6.08C8.12 4.97543 7.22457 4.08 6.12 4.08C5.01543 4.08 4.12 4.97543 4.12 6.08C4.12 7.18457 5.01543 8.08 6.12 8.08Z" fill="#848484"/>
<path fill-rule="evenodd" clip-rule="evenodd" d="M12.24 0H8C3.58172 0 0 3.58172 0 8V12.24C0 16.6583 3.58172 20.24 8 20.24H12.24C16.6583 20.24 20.24 16.6583 20.24 12.24V8C20.24 5.87827 19.3971 3.84344 17.8969 2.34315C16.3966 0.842855 14.3617 0 12.24 0ZM8 1.5H12.24C15.4859 1.50507 18.2306 3.90396 18.67 7.12H17.12C12.9468 7.1234 9.08791 9.33824 6.98 12.94C5.66362 11.8943 4.03116 11.3267 2.35 11.33H1.5V8C1.50551 4.41243 4.41243 1.50551 8 1.5ZM2.35 12.83H1.53C1.74723 15.1883 3.22988 17.2418 5.4 18.19C5.47167 16.8552 5.77274 15.5426 6.29 14.31C5.19845 13.3571 3.79895 12.8314 2.35 12.83ZM12.24 18.74H8C7.62404 18.7385 7.24906 18.7017 6.88 18.63C7.00486 13.0613 11.55 8.60946 17.12 8.6H18.74V12.24C18.7345 15.8276 15.8276 18.7345 12.24 18.74Z" fill="#848484"/>
</svg>
