<svg width="16" height="15" viewBox="0 0 16 15" fill="none" xmlns="http://www.w3.org/2000/svg">
<g id="Icon">
<path fill-rule="evenodd" clip-rule="evenodd" d="M3.98669 0.0016171H11.9753C13.019 -0.0277506 14.0316 0.343899 14.7876 1.03378C15.5436 1.72366 15.9801 2.67448 16 3.67443V9.20551C15.9378 11.2611 14.16 12.886 12.0133 12.8492H10.7808C10.471 12.8499 10.1778 12.9837 9.98193 13.2135L8.81788 14.6346C8.62288 14.8657 8.32926 15 8.01902 15C7.70878 15 7.41516 14.8657 7.22016 14.6346L6.01807 13.1844C5.82216 12.9545 5.52902 12.8208 5.21921 12.82H3.98669C1.83999 12.8568 0.0621914 11.232 0 9.17636V3.64528C0.058104 1.5879 1.83836 -0.0391769 3.98669 0.0016171ZM11.9829 11.7561C13.511 11.7928 14.7828 10.6398 14.8283 9.17636V3.67443C14.7828 2.20805 13.5063 1.05387 11.9753 1.09472H3.98669C2.45566 1.05387 1.17918 2.20805 1.13362 3.67443V9.17636C1.17918 10.6427 2.45566 11.7969 3.98669 11.7561H5.21921C5.87892 11.7562 6.50294 12.043 6.91583 12.5358L7.98098 13.833L9.04612 12.5358C9.45902 12.043 10.083 11.7562 10.7427 11.7561H11.9829Z" fill="#303030"/>
<path d="M5.12791 5.07359C4.81277 5.07359 4.5573 5.31829 4.5573 5.62014V7.3691C4.5573 7.67095 4.81277 7.91565 5.12791 7.91565C5.44305 7.91565 5.69853 7.67095 5.69853 7.3691V5.62014C5.69853 5.31829 5.44305 5.07359 5.12791 5.07359Z" fill="#303030"/>
<path d="M7.98098 5.07359C7.66584 5.07359 7.41037 5.31829 7.41037 5.62014V7.3691C7.41037 7.67095 7.66584 7.91565 7.98098 7.91565C8.29612 7.91565 8.55159 7.67095 8.55159 7.3691V5.62014C8.55159 5.31829 8.29612 5.07359 7.98098 5.07359Z" fill="#303030"/>
<path d="M10.834 5.07359C10.5189 5.07359 10.2634 5.31829 10.2634 5.62014V7.3691C10.2634 7.67095 10.5189 7.91565 10.834 7.91565C11.1492 7.91565 11.4047 7.67095 11.4047 7.3691V5.62014C11.4047 5.31829 11.1492 5.07359 10.834 5.07359Z" fill="#303030"/>
</g>
</svg>
