<svg width="14" height="14" viewBox="0 0 14 14" fill="none" xmlns="http://www.w3.org/2000/svg">
<path d="M0.000804644 1.77959C0.0410368 1.63535 0.0744296 1.4886 0.125122 1.34685C0.265179 0.950529 0.520475 0.608689 0.855993 0.368218C1.19151 0.127748 1.59082 0.000424486 1.99914 0.00371366C3.58751 -0.00293758 5.17748 0.000803739 6.76464 0.00371366C7.0865 0.00371366 7.29209 0.185791 7.2945 0.468053C7.29691 0.761955 7.09334 0.94528 6.7566 0.94528C5.19478 0.94528 3.6331 0.94528 2.07156 0.94528C1.351 0.94528 0.902408 1.40006 0.902006 2.14333C0.900128 5.3775 0.900128 8.6118 0.902006 11.8462C0.902006 12.6053 1.34456 13.0597 2.0796 13.0601C5.35745 13.0601 8.63504 13.0601 11.9124 13.0601C12.6599 13.0601 13.1 12.6078 13.1008 11.8363C13.1008 10.3397 13.1008 8.84321 13.1048 7.34876C13.1048 7.22405 13.1233 7.07606 13.1853 6.97463C13.3913 6.6483 13.7658 6.71274 14 7.09934V12.2125C13.9865 12.2354 13.9758 12.26 13.9682 12.2856C13.891 12.7845 13.6528 13.1836 13.2903 13.5153C12.9958 13.7842 12.6381 13.9015 12.27 14H1.73079C1.70187 13.9846 1.67155 13.9722 1.64027 13.963C1.17599 13.8778 0.795391 13.6454 0.482786 13.2821C0.216852 12.9732 0.0965573 12.6003 0 12.2125L0.000804644 1.77959Z" fill="black" fill-opacity="0.54"/>
<path d="M14 2.14635C13.9093 2.2851 13.8498 2.41907 13.7539 2.51635C12.4834 3.80231 11.2096 5.08495 9.93253 6.36426C8.7516 7.55214 7.56908 8.73843 6.38498 9.92312C6.25875 10.0472 6.10735 10.1424 5.94114 10.2022C5.18265 10.4689 4.4198 10.7205 3.65458 10.9669C3.53129 11.0075 3.39889 11.0108 3.27375 10.9765C3.05381 10.9059 2.94959 10.6695 3.02369 10.4418C3.29792 9.59897 3.57717 8.75783 3.86144 7.91842C3.89745 7.82639 3.9532 7.74348 4.02471 7.67561C6.50202 5.17944 8.98065 2.6854 11.4606 0.193489C11.7146 -0.0620815 11.9461 -0.0644738 12.1961 0.186312C12.7244 0.717788 13.2546 1.24408 13.7765 1.78074C13.8665 1.87404 13.9164 2.00681 14 2.14635ZM4.14874 9.86291C4.64014 9.69984 5.09547 9.55391 5.54684 9.39523C5.65717 9.35646 5.75788 9.29417 5.84207 9.21262C7.59154 7.45991 9.3381 5.7048 11.0818 3.94731C11.1214 3.90744 11.1578 3.86159 11.1741 3.84325L10.1437 2.79505C10.1271 2.8094 10.1009 2.82973 10.0784 2.85246C8.30353 4.63627 6.52949 6.42048 4.75625 8.20509C4.70651 8.25666 4.66863 8.31859 4.64529 8.3865C4.48044 8.86336 4.32271 9.3418 4.14874 9.86291ZM12.8254 2.15672L11.8177 1.1456L10.8226 2.14675L11.8272 3.15986L12.8254 2.15672Z" fill="black" fill-opacity="0.54"/>
</svg>
