<svg width="14" height="14" viewBox="0 0 14 14" fill="black" xmlns="http://www.w3.org/2000/svg">
<g clip-path="url(#clip0_323_7288)">
<path d="M6.98853 13.9978C5.24695 13.9978 3.50504 14.0045 1.76515 13.9947C1.03455 13.9907 0.478851 13.6629 0.175221 12.9832C0.0738684 12.7652 0.0178062 12.5289 0.0104319 12.2886C-1.48598e-05 8.74203 -0.00641771 5.1955 0.0100949 1.6493C0.0138018 0.896028 0.549282 0.230758 1.34357 0.0598045C1.5243 0.0225649 1.70835 0.00392259 1.89287 0.0041687C2.82533 -0.000889108 3.75812 0.000796827 4.6899 0.0041687C4.94501 0.0041687 5.17012 0.181866 5.2264 0.410479C5.29582 0.691356 5.20483 0.969872 4.97331 1.08249C4.84061 1.14133 4.69688 1.17111 4.55174 1.16982C3.6304 1.17724 2.70906 1.17488 1.7884 1.1732C1.53869 1.1732 1.33144 1.24637 1.22697 1.48914C1.19182 1.57748 1.17453 1.67191 1.17609 1.76698C1.17339 5.23461 1.17227 8.70235 1.17272 12.1702C1.17272 12.2714 1.20642 12.3213 1.29943 12.3762C1.4194 12.446 1.54779 12.5489 1.60272 12.6696C1.67012 12.8139 1.75302 12.8335 1.88781 12.8331C3.9547 12.8304 6.02226 12.8297 8.09049 12.8311C9.46138 12.8311 10.8323 12.8291 12.2018 12.8331C12.4684 12.8331 12.6823 12.7525 12.7828 12.4959C12.8242 12.3904 12.8259 12.265 12.8262 12.1486C12.8293 11.047 12.8262 9.94545 12.8316 8.8442C12.8286 8.70442 12.8583 8.56586 12.9182 8.43957C13.0466 8.19916 13.3098 8.12397 13.6081 8.2059C13.8352 8.26828 13.9902 8.47295 13.9919 8.73933C13.9963 9.39685 13.9936 10.0544 13.9939 10.7122C13.9939 11.218 13.9963 11.7238 13.9939 12.2296C13.9882 13.2472 13.2465 13.9944 12.2281 13.9968C10.4831 14.0011 8.73583 13.9978 6.98853 13.9978ZM0.772371 12.9019L0.80607 12.8925C0.853923 12.8453 0.901776 12.7576 0.949966 12.7576C1.10903 12.7576 1.33414 12.649 1.37592 12.9569C1.37592 12.8584 1.36952 12.7603 1.31729 12.7111C1.21619 12.6133 0.946596 12.6183 0.845498 12.7138C0.800678 12.7556 0.795287 12.8382 0.772371 12.9019ZM1.07566 12.8159C1.03388 12.8803 0.986024 12.9221 0.991079 12.9555C0.996134 12.9889 1.05376 13.0442 1.08577 13.0425C1.11779 13.0408 1.17204 12.9818 1.17407 12.9481C1.17609 12.9144 1.12453 12.8766 1.07836 12.8159H1.07566Z" fill="white"/>
<path d="M11.9697 2.87992C11.9333 2.83979 11.8979 2.79798 11.8598 2.75954C11.2808 2.17958 10.6995 1.60232 10.1236 1.01966C9.78663 0.678424 9.8921 0.202316 10.3393 0.0337229C10.593 -0.0623753 10.7865 0.0623838 10.956 0.23064C11.4898 0.759686 12.0195 1.29278 12.5506 1.82419C12.955 2.22881 13.3594 2.63343 13.7638 3.03806C14.0779 3.35434 14.0813 3.6396 13.7665 3.95588C12.8229 4.90383 11.8784 5.84975 10.9331 6.79365C10.6298 7.09711 10.1991 7.0435 9.99354 6.68642C9.87256 6.47635 9.91772 6.1921 10.1125 5.99249C10.344 5.75646 10.5809 5.52414 10.8155 5.29013C11.1648 4.9408 11.5139 4.59114 11.8628 4.24114C11.8965 4.20742 11.9279 4.16763 11.9868 4.09986C11.8996 4.08974 11.844 4.07761 11.788 4.07761C10.6085 4.07761 9.42908 4.06918 8.2496 4.07761C7.0061 4.08772 6.08039 4.63262 5.51997 5.75781C5.34521 6.1179 5.25179 6.51207 5.24633 6.91234C5.2342 7.35068 5.24633 7.78902 5.23757 8.22736C5.23877 8.34635 5.19741 8.46183 5.12097 8.55298C5.04452 8.64412 4.93803 8.70492 4.82071 8.72438C4.50394 8.78339 4.24782 8.67178 4.14336 8.42327C4.12031 8.37234 4.1077 8.31731 4.10629 8.26142C4.10629 7.68247 4.06618 7.09947 4.12415 6.52626C4.22861 5.49514 4.68355 4.62048 5.46942 3.93363C6.24888 3.25183 7.16483 2.92578 8.19737 2.92443C9.38808 2.92263 10.5788 2.92263 11.7695 2.92443H11.9494L11.9697 2.87992Z" fill="white"/>
<path d="M0.772461 12.9018C0.795376 12.8381 0.800768 12.7555 0.844914 12.714C0.946012 12.6186 1.21561 12.6128 1.3167 12.7113C1.36894 12.7605 1.37467 12.8586 1.37534 12.9571C1.33355 12.6492 1.10844 12.7578 0.949382 12.7578C0.901192 12.7578 0.853339 12.8451 0.805486 12.8927L0.772461 12.9018Z" fill="white"/>
<path d="M1.07842 12.8159C1.12627 12.8766 1.17783 12.9137 1.17581 12.9478C1.17379 12.9818 1.12156 13.0408 1.08853 13.0425C1.05551 13.0442 0.999228 12.9909 0.993836 12.9555C0.988445 12.9201 1.03495 12.8807 1.07842 12.8159Z" fill="white"/>
</g>
<defs>
<clipPath id="clip0_323_7288">
<rect width="14" height="14" fill="white"/>
</clipPath>
</defs>
</svg>
