<svg width="15" height="15" viewBox="0 0 15 15" fill="none" xmlns="http://www.w3.org/2000/svg">
<g clip-path="url(#clip0_281_3107)">
<path d="M7.50469 15H2.55842C1.01228 15 0 13.9766 0 12.4313C0.00511683 9.13383 0.00511683 5.83632 0 2.5388C0 1.03701 1.00972 0.00767525 2.49957 0.00426403C4.07726 0.00142134 5.65495 0 7.23265 0C7.28893 0 7.34607 0 7.40321 0C7.86457 0.0153505 8.17073 0.283984 8.17073 0.682245C8.17073 1.0805 7.87481 1.35084 7.40321 1.3534C5.86816 1.35937 4.33311 1.35767 2.79806 1.35852C2.68463 1.35852 2.57121 1.35852 2.45693 1.35852C1.77469 1.37643 1.35852 1.76275 1.35681 2.4467C1.34999 5.81528 1.34999 9.18358 1.35681 12.5516C1.35681 13.2338 1.76957 13.6381 2.45182 13.6389C5.80619 13.6457 9.16055 13.6477 12.5149 13.6449C13.233 13.6449 13.6381 13.2245 13.6398 12.4902C13.6449 10.8844 13.6398 9.27853 13.6398 7.67269C13.6398 7.12946 13.8999 6.81989 14.322 6.82927C14.7442 6.83865 14.9838 7.14737 14.9855 7.69487C14.9855 9.30155 14.9949 10.9074 14.9855 12.5132C14.9753 13.998 13.969 14.9906 12.4817 14.9957C10.8187 15.0009 9.15572 14.9957 7.49275 14.9957L7.50469 15Z" fill="#303030"/>
<path d="M7.24874 6.80813C8.59503 5.46013 9.93962 4.11156 11.2825 2.76242C11.7643 2.27973 12.2445 1.79534 12.7323 1.31776C13.0998 0.957027 13.4879 0.926326 13.7795 1.22225C14.0712 1.51817 14.0439 1.90449 13.6797 2.27035C11.9639 3.99131 10.2466 5.71 8.52794 7.42641C8.41031 7.52932 8.28611 7.62447 8.15612 7.71125L8.21326 7.81444C8.31645 7.82467 8.41878 7.84258 8.52197 7.84343C9.2895 7.84343 10.057 7.84343 10.8245 7.84343C11.2851 7.84343 11.5921 8.13424 11.5921 8.52568C11.5861 8.90177 11.2876 9.19257 10.8578 9.19513C9.42282 9.20309 7.98755 9.20309 6.55199 9.19513C6.05395 9.19513 5.81346 8.92906 5.8109 8.40884C5.80522 7.00228 5.80522 5.59544 5.8109 4.18831C5.8109 3.7312 6.09489 3.42078 6.48633 3.41652C6.87776 3.41225 7.1609 3.72694 7.16345 4.18404C7.16772 5.04538 7.16345 5.90756 7.16345 6.7689L7.24874 6.80813Z" fill="#303030"/>
</g>
<defs>
<clipPath id="clip0_281_3107">
<rect width="15" height="15" fill="white"/>
</clipPath>
</defs>
</svg>
