<svg width="21" height="18" viewBox="0 0 19 16" fill="#252525" xmlns="http://www.w3.org/2000/svg">
<path d="M2.75988 2.81311C2.75988 2.59498 2.75988 2.37949 2.75988 2.16399C2.75988 1.26259 3.41443 0.802696 4.29431 1.09177C5.96555 1.64365 7.63411 2.20079 9.30804 2.74478C9.42875 2.7842 9.58702 2.7842 9.70774 2.74478C11.3817 2.19816 13.0502 1.64365 14.7215 1.08915C15.0407 0.984027 15.3572 0.952492 15.6684 1.10229C16.0628 1.28887 16.2344 1.62 16.2505 2.03259C16.2613 2.29276 16.2505 2.55294 16.2505 2.80259C16.4866 2.83413 16.7039 2.84201 16.9078 2.89457C17.5382 3.06014 17.9593 3.58836 17.9942 4.22434C18.0023 4.39778 17.9996 4.57123 17.9996 4.7473C17.9996 7.63283 17.9996 10.5184 17.9996 13.4065C17.9996 14.1765 17.5891 14.7389 16.8917 14.9202C16.7307 14.9623 16.5563 14.9781 16.3873 14.9781C11.8001 14.9807 7.21027 14.9807 2.62307 14.9781C1.63857 14.9781 1.01084 14.3657 1.01084 13.4039C1.01084 10.4316 1.02962 7.45939 1.00011 4.48713C0.989383 3.45434 1.7405 2.78157 2.62843 2.8315C2.66331 2.8315 2.70086 2.82362 2.75988 2.81573V2.81311ZM9.90089 14.0451C9.96259 14.032 9.99209 14.0294 10.0189 14.0188C11.5936 13.4985 13.1656 12.9808 14.7376 12.4578C15.1936 12.3054 15.4592 11.9243 15.4592 11.446C15.4592 8.35553 15.4592 5.26765 15.4592 2.17713C15.4592 2.11932 15.4619 2.0615 15.4565 2.00369C15.435 1.82498 15.3224 1.7514 15.148 1.77242C15.0675 1.78294 14.9924 1.81447 14.9146 1.83812C13.3131 2.36635 11.7116 2.8972 10.1101 3.42017C9.93844 3.47536 9.89552 3.55945 9.89552 3.73027C9.90089 7.08884 9.90089 10.4448 9.90089 13.8033C9.90089 13.8743 9.90089 13.9479 9.90089 14.0451ZM9.0988 14.053C9.10416 13.9663 9.10953 13.9032 9.10953 13.8401C9.10953 10.4605 9.10953 7.08096 9.11489 3.70399C9.11489 3.54631 9.06661 3.47799 8.9137 3.42806C7.29611 2.89983 5.68388 2.36372 4.06898 1.83024C3.66391 1.69621 3.55392 1.77505 3.55392 2.18765C3.55392 5.26239 3.55392 8.33713 3.55392 11.4119C3.55392 11.9427 3.81681 12.3054 4.3265 12.4736C5.36734 12.8205 6.40818 13.1647 7.44902 13.5116C7.99358 13.6903 8.53814 13.869 9.0988 14.053ZM2.75988 3.61464C2.14557 3.54894 1.79147 3.83014 1.79147 4.37413C1.78879 7.39106 1.78879 10.408 1.79147 13.4275C1.79147 13.9242 2.08924 14.2081 2.59624 14.2081C4.00191 14.2081 5.41026 14.2081 6.81593 14.2081C6.8669 14.2081 6.91787 14.2002 7.03053 14.1897C6.92055 14.1502 6.87226 14.1318 6.82398 14.1161C5.90922 13.8112 4.99178 13.509 4.07702 13.2042C3.25347 12.9309 2.76256 12.2633 2.76256 11.4145C2.76256 8.90478 2.76256 6.39505 2.76256 3.88533V3.61464H2.75988ZM16.2532 3.61464C16.2532 3.71451 16.2532 3.7986 16.2532 3.88533C16.2532 6.38717 16.2532 8.88901 16.2532 11.3935C16.2532 12.2765 15.7757 12.9282 14.9173 13.2094C14.0777 13.488 13.238 13.7639 12.3984 14.0425C12.2776 14.0819 12.1569 14.1292 12.0389 14.1713C12.0416 14.1844 12.0443 14.1949 12.0469 14.2081C12.1113 14.2081 12.1757 14.2081 12.2401 14.2081C13.6162 14.2081 14.9951 14.2081 16.3712 14.2081C16.94 14.2081 17.2189 13.9374 17.2189 13.3829C17.2189 10.3948 17.2189 7.40683 17.2189 4.41881C17.2189 3.83539 16.8783 3.54631 16.2505 3.61727L16.2532 3.61464Z" stroke-width="0.2"/>
</svg>
