<svg width="18" height="18" viewBox="0 0 17 15" fill="none" xmlns="http://www.w3.org/2000/svg">
<g clip-path="url(#clip0_310_6115)">
<path d="M12.6453 0C13.6724 0.467686 13.9921 1.2669 13.9551 2.37839C13.8855 4.48298 13.9373 6.59201 13.9329 8.69956C13.9329 9.87469 13.2432 10.5792 12.0681 10.5881C10.4253 10.5999 8.78096 10.5659 7.13813 10.6088C6.70672 10.6277 6.28801 10.7605 5.92452 10.9936C4.88406 11.67 3.90873 12.4322 2.88604 13.1204C2.69068 13.2536 2.33547 13.3661 2.16971 13.2684C2.00395 13.1707 1.91071 12.8244 1.89739 12.5831C1.86038 11.9482 1.88406 11.3103 1.88406 10.6043C0.963493 10.6354 0.423286 10.0997 0 9.39665V1.27578C0.262683 0.714202 0.714202 0.262683 1.27578 0H12.6453ZM2.87716 11.9304C3.88061 11.22 4.74346 10.5718 5.64628 9.98865C5.9776 9.77666 6.35891 9.65568 6.75185 9.63789C8.44943 9.60089 10.1559 9.62309 11.849 9.62161C12.706 9.62161 12.965 9.36852 12.9665 8.52787C12.9665 6.3848 12.9665 4.24174 12.9665 2.09867C12.9665 1.24026 12.7252 0.999013 11.8653 0.999013C8.60237 0.999013 5.33892 0.999013 2.07499 0.999013C1.18402 0.999013 0.962013 1.2225 0.962013 2.13567C0.962013 4.22151 0.962013 6.30686 0.962013 8.39171C0.962013 9.40405 1.15294 9.61421 2.17563 9.61421C2.71436 9.61421 2.89936 9.86137 2.88752 10.3542C2.87568 10.8471 2.88308 11.3133 2.88308 11.9304H2.87716Z" fill="#252525"/>
<path d="M14.824 12.3355C14.824 13.0089 14.8477 13.6453 14.8121 14.2788C14.7973 14.523 14.7085 14.8708 14.5369 14.967C14.3652 15.0632 14.0292 14.9433 13.8368 14.819C12.783 14.1026 11.7648 13.339 10.7066 12.63C10.406 12.4386 10.0605 12.3294 9.7046 12.3133C8.70263 12.2645 7.69621 12.2837 6.69276 12.2926C6.32276 12.2926 6.00899 12.2141 6.02083 11.7746C6.03119 11.3617 6.35384 11.3025 6.68388 11.301C7.8679 11.301 9.04155 11.2832 10.2182 11.3128C10.484 11.3374 10.738 11.4347 10.9523 11.594C11.8832 12.2304 12.7978 12.8935 13.8235 13.6157C13.8235 13.0148 13.8353 12.5397 13.8235 12.0647C13.8072 11.5304 14.0366 11.2951 14.5813 11.2891C15.567 11.2803 15.7505 11.076 15.7505 10.0844C15.7505 7.99954 15.7505 5.9137 15.7505 3.82687C15.7505 3.00842 15.6469 2.90482 14.8862 2.64286C14.7219 2.58514 14.4984 2.29061 14.5309 2.16481C14.5697 2.05981 14.6331 1.96564 14.7157 1.89019C14.7984 1.81474 14.8979 1.7602 15.006 1.73116C15.8186 1.632 16.6888 2.41493 16.6962 3.28518C16.7199 5.75188 16.7199 8.22401 16.6962 10.7016C16.6829 11.5807 15.9962 12.1564 14.824 12.3355Z" fill="#252525"/>
<path d="M3.70044 6.02482C3.47715 6.01753 3.26544 5.92377 3.10997 5.76333C2.9545 5.6029 2.86745 5.38834 2.86719 5.16493C2.8775 4.9417 2.9716 4.73056 3.13071 4.57364C3.28982 4.41673 3.50224 4.32557 3.7256 4.31836C3.94924 4.32647 4.16068 4.42235 4.31415 4.58523C4.46761 4.74811 4.55074 4.96488 4.54553 5.18861C4.54593 5.29929 4.52429 5.40894 4.48185 5.51115C4.43941 5.61337 4.37703 5.70611 4.29836 5.78396C4.21969 5.8618 4.1263 5.9232 4.02364 5.96455C3.92097 6.00591 3.8111 6.0264 3.70044 6.02482Z" fill="#252525"/>
<path d="M6.96909 6.02435C6.85847 6.02455 6.74891 6.00277 6.64678 5.96026C6.54466 5.91775 6.452 5.85537 6.37419 5.77674C6.29638 5.69811 6.23498 5.60479 6.19356 5.50222C6.15213 5.39965 6.1315 5.28987 6.13288 5.17926C6.13197 4.95573 6.21815 4.74063 6.37315 4.57956C6.52814 4.41848 6.73977 4.3241 6.96317 4.31641C7.18807 4.32364 7.4015 4.41741 7.55895 4.57817C7.71639 4.73892 7.80571 4.95426 7.80826 5.17926C7.80635 5.40178 7.71752 5.61474 7.56072 5.77264C7.40392 5.93055 7.19159 6.02088 6.96909 6.02435Z" fill="#252525"/>
<path d="M11.0525 5.22357C11.0499 5.33438 11.025 5.44353 10.9792 5.54447C10.9334 5.6454 10.8677 5.73605 10.786 5.81096C10.7043 5.88588 10.6084 5.94352 10.5038 5.98043C10.3993 6.01734 10.2884 6.03275 10.1778 6.02574C10.0676 6.01971 9.9597 5.99189 9.86031 5.94388C9.76093 5.89587 9.67205 5.82863 9.59883 5.74604C9.5256 5.66346 9.46948 5.56717 9.43372 5.46276C9.39795 5.35834 9.38324 5.24786 9.39045 5.13773C9.39128 5.02495 9.41498 4.91351 9.46014 4.81017C9.5053 4.70682 9.57097 4.61372 9.65316 4.5365C9.73536 4.45928 9.83238 4.39955 9.93834 4.36093C10.0443 4.3223 10.157 4.3056 10.2696 4.31181C10.3822 4.31803 10.4924 4.34704 10.5935 4.39709C10.6945 4.44715 10.7844 4.51719 10.8576 4.60299C10.9308 4.68879 10.9858 4.78856 11.0193 4.89625C11.0528 5.00394 11.0641 5.11731 11.0525 5.22949V5.22357Z" fill="#252525"/>
</g>
<defs>
<clipPath id="clip0_310_6115">
<rect width="16.7094" height="15" fill="white"/>
</clipPath>
</defs>
</svg>
