<svg width="18" height="18" viewBox="0 0 15 15" fill="#252525" xmlns="http://www.w3.org/2000/svg">
<path d="M7.46928 4.13849C7.22154 4.12393 7.01941 3.90847 7.03612 3.67554C7.05284 3.43678 7.2717 3.24753 7.51943 3.25772C7.76717 3.26791 7.97386 3.479 7.96626 3.71339C7.95714 3.95942 7.73069 4.15304 7.46928 4.13849Z" />
<path d="M0.341503 4.13743C1.16829 4.52322 1.99205 4.91047 2.82492 5.28461C2.97082 5.35012 3.01034 5.42291 3.00882 5.56995C3.00122 6.38521 3.00122 7.20192 3.00882 8.01718C3.01034 8.16713 2.9769 8.21517 2.81124 8.2239C1.99357 8.26467 1.39779 8.8368 1.32484 9.63022C1.26252 10.3174 1.78535 10.9827 2.53007 11.1647C2.54527 11.169 2.56047 11.1778 2.57566 11.1763C2.98146 11.121 3.05441 11.3379 3.12736 11.6756C3.3447 12.6831 3.904 13.5056 4.75511 14.1418C4.80222 14.1767 4.84782 14.2117 4.90405 14.2539C4.90405 14.2539 5.80076 15.107 8.00452 14.9905C8.07899 14.9862 8.15043 14.9833 8.22034 14.9818C9.81617 14.7212 10.9576 13.855 11.6461 12.4021C11.795 12.0876 11.8999 11.7557 11.9333 11.4136C11.9531 11.2112 12.061 11.204 12.219 11.1909C12.9941 11.1253 13.5534 10.6304 13.6598 9.92138C13.7905 9.05663 13.1325 8.2734 12.2175 8.22681C12.029 8.21662 11.9941 8.1613 11.9956 7.99534C12.0047 7.18008 11.9987 6.36337 12.0002 5.54811C12.0002 5.46513 11.9728 5.3807 12.0944 5.32537C12.7403 5.03421 13.3817 4.73286 14.0641 4.41694C14.0641 4.72703 14.0641 5.00655 14.0641 5.28607C14.0641 5.62964 14.0687 5.97467 14.0626 6.31824C14.058 6.55699 14.1006 6.77245 14.359 6.87436C14.6204 6.97773 14.8088 6.86272 14.9608 6.66327C14.9684 6.65308 14.9882 6.65308 15.0019 6.64725C15.0019 5.62964 15.0019 4.61202 15.0019 3.59441C14.9213 3.40661 14.7617 3.30761 14.5763 3.22172C12.2783 2.16334 9.98487 1.10205 7.68991 0.0407628C7.67168 0.0320279 7.658 0.0145582 7.64128 0C7.54705 0 7.45434 0 7.36011 0C6.40413 0.446935 5.44816 0.896783 4.49066 1.34226C3.12432 1.97554 1.75647 2.60737 0.387098 3.23628C0.204718 3.32072 0.0466549 3.42117 0.00713915 3.62935C-0.0308568 3.83753 0.083131 4.0166 0.341503 4.13743ZM3.0073 9.24152C2.99666 9.39729 3.00426 9.55597 3.00426 9.71175C3.00426 9.83112 3.00426 9.9505 3.00426 10.0699C3.00426 10.3232 2.96778 10.3494 2.70941 10.2795C2.43584 10.2053 2.2261 9.91119 2.25954 9.64478C2.29449 9.36235 2.56806 9.12214 2.85835 9.10904C2.96474 9.10613 3.0149 9.1236 3.0073 9.24152ZM11.9971 9.68263C11.9971 9.56325 11.9971 9.44388 11.9971 9.3245C11.9971 9.1003 12.0397 9.06973 12.2661 9.12651C12.5519 9.19639 12.7738 9.49483 12.7419 9.76707C12.7084 10.051 12.447 10.281 12.1446 10.3043C12.0336 10.313 11.988 10.2912 11.9941 10.1762C12.0047 10.0116 11.9971 9.84714 11.9971 9.68263ZM10.9256 11.6494C10.5047 13.197 8.94834 14.2422 7.21725 14.1389C5.5971 14.0428 4.18061 12.7617 3.98455 11.204C3.88728 10.4295 3.96935 9.6506 3.9344 8.83243C4.80222 9.19784 5.63358 9.54869 6.46493 9.89809C6.70658 10 6.95279 10.0932 7.19141 10.2053C7.40571 10.3057 7.60176 10.2955 7.81758 10.2038C8.79788 9.78454 9.78121 9.374 10.7645 8.96055C10.8557 8.92269 10.9469 8.88775 11.0716 8.83826C11.0047 9.79327 11.1764 10.7294 10.9256 11.6494ZM11.0624 7.74785C11.0624 7.84394 11.0138 7.87451 10.9363 7.90654C9.82528 8.3724 8.71428 8.83971 7.6048 9.3114C7.51209 9.3507 7.4437 9.33032 7.36315 9.29538C6.27495 8.83535 5.18522 8.37385 4.09398 7.91964C3.97543 7.87014 3.93592 7.81336 3.93744 7.68816C3.94504 7.12767 3.94808 6.56718 3.93744 6.0067C3.93288 5.81453 3.98911 5.82035 4.1411 5.89023C5.14115 6.35755 6.14728 6.81176 7.14429 7.2849C7.39051 7.40137 7.60024 7.40719 7.8495 7.28927C8.83283 6.82341 9.82377 6.37356 10.8117 5.91789C10.8801 5.88586 10.95 5.85675 11.0594 5.80725C11.0594 6.47984 11.0579 7.11457 11.0624 7.74785ZM1.72152 3.62061C3.60003 2.75149 5.47855 1.88528 7.35555 1.01325C7.45586 0.966662 7.53337 0.959383 7.6352 1.00742C9.18239 1.7266 10.7326 2.4414 12.2813 3.15766C12.3133 3.17222 12.3452 3.18969 12.3756 3.20716C12.3695 3.22172 12.3634 3.23482 12.3573 3.24938C11.2494 3.24938 10.1399 3.24792 9.03193 3.25084C8.92402 3.25084 8.81307 3.25666 8.70669 3.2785C8.49239 3.32217 8.34041 3.51871 8.35256 3.71961C8.36472 3.92488 8.52734 4.10103 8.74316 4.13306C8.83587 4.14616 8.9301 4.14762 9.02281 4.14762C10.1384 4.14908 11.2539 4.14762 12.371 4.14762C12.3908 4.23497 12.3087 4.22914 12.2707 4.24661C10.7372 4.95851 9.20063 5.66604 7.66712 6.37793C7.56377 6.42597 7.47866 6.44635 7.36315 6.39249C5.46487 5.51026 3.56508 4.63532 1.66528 3.75746C1.63792 3.74436 1.61361 3.72543 1.57561 3.70214C1.63032 3.67157 1.6744 3.64245 1.72152 3.62061Z" />
</svg>
