<svg width="18" height="19" viewBox="0 0 11 12" fill="#252525" xmlns="http://www.w3.org/2000/svg">
<path d="M4.94676 8.36901C4.87046 8.36901 4.80557 8.36901 4.73979 8.36901C3.35241 8.36901 1.96502 8.36901 0.577631 8.36901C0.201405 8.36901 0.00145303 8.15542 0.00145303 7.74541C-0.000300933 5.3702 -0.000300933 2.99499 0.00057605 0.618832C0.00057605 0.203099 0.190881 0 0.575 0C3.86106 0 7.14623 0 10.4323 0C10.8041 0 10.9979 0.205959 10.9979 0.611204C10.9988 2.99309 10.9988 5.37402 10.9979 7.7559C10.9979 8.15352 10.7954 8.36901 10.4297 8.36901C9.02561 8.36901 7.62156 8.36901 6.21751 8.36901C6.15174 8.36901 6.08508 8.36901 6.00616 8.36901C6.00616 9.20334 6.00616 10.0281 6.00616 10.872C6.06404 10.8749 6.1228 10.8806 6.18155 10.8806C6.77527 10.8815 7.36899 10.8806 7.96271 10.8815C8.28281 10.8825 8.49679 11.1037 8.49942 11.4327C8.50205 11.7578 8.28544 11.9971 7.96972 11.9981C6.31573 12.001 4.66174 12.001 3.00775 11.9981C2.69379 11.9971 2.47367 11.7549 2.47455 11.4336C2.47542 11.1066 2.69379 10.8815 3.01214 10.8806C3.61112 10.8796 4.21097 10.8787 4.80995 10.8815C4.90905 10.8825 4.96342 10.8625 4.96255 10.7347C4.95816 9.9795 4.95992 9.22336 4.95904 8.46818C4.95992 8.44529 4.95378 8.42241 4.94676 8.36901ZM1.04243 1.12801C1.04243 3.17139 1.04243 5.19762 1.04243 7.23242C4.01979 7.23242 6.98575 7.23242 9.95609 7.23242C9.95609 5.1919 9.95609 3.16472 9.95609 1.12801C6.98312 1.12801 4.02154 1.12801 1.04243 1.12801Z"/>
<path d="M4.85012 5.25972C4.01786 5.25972 3.1856 5.26068 2.35247 5.25972C2.00431 5.25972 1.77804 5.04232 1.77541 4.7105C1.77278 4.37009 2.00518 4.13743 2.3551 4.13743C4.02575 4.13648 5.6964 4.13648 7.36618 4.13743C7.65558 4.13743 7.87571 4.3167 7.92219 4.57891C7.97218 4.85639 7.85554 5.11574 7.62226 5.21586C7.54245 5.25019 7.44949 5.25782 7.36267 5.25877C6.52603 5.26068 5.68763 5.25972 4.85012 5.25972Z" />
<path d="M3.88476 2.24652C4.40042 2.24652 4.91521 2.24556 5.43088 2.24652C5.74922 2.24747 5.96671 2.47155 5.96935 2.79765C5.97198 3.12852 5.74922 3.36404 5.42649 3.36499C4.3899 3.3669 3.35418 3.3669 2.31759 3.36499C1.99661 3.36404 1.77035 3.11994 1.77649 2.79288C1.78263 2.47345 2.00714 2.24747 2.32197 2.24652C2.8429 2.24556 3.36383 2.24652 3.88476 2.24652Z" />
</svg>
