<svg width="18" height="18" viewBox="0 0 15 15" fill="#252525" xmlns="http://www.w3.org/2000/svg">
<path d="M11.4339 6.04656C11.9038 5.57291 12.3177 5.1413 12.7457 4.72369C13.4449 4.04544 14.5665 4.28647 14.9077 5.20015C15.1035 5.72706 14.986 6.20912 14.5861 6.61271C13.5987 7.60486 12.6142 8.59701 11.6185 9.58076C11.4675 9.7293 11.4115 9.88064 11.4143 10.0852C11.4227 11.2708 11.4227 12.4535 11.4199 13.6391C11.4171 14.4574 10.8605 15.004 10.0438 15.004C7.19933 15.004 4.35764 15.0068 1.51315 14.9984C1.24744 14.9984 0.962148 14.9619 0.724408 14.8526C0.218161 14.6172 0.00279694 14.1688 0 13.6222C0 11.6211 0 9.62 0 7.61887C0 5.55329 0.00279694 3.49051 0 1.42493C0 0.575713 0.550998 0.0039636 1.40127 0.00116091C3.88495 -0.00164178 6.36864 0.00116091 8.85232 0.0039636C9.21872 0.0039636 9.54037 0.13569 9.80048 0.39634C10.2088 0.80273 10.6172 1.20912 11.0227 1.61831C11.2885 1.88737 11.4171 2.20968 11.4171 2.59085C11.4143 3.64746 11.4171 4.70408 11.4199 5.76069C11.4199 5.82795 11.4255 5.89802 11.4339 6.04656ZM10.5473 3.51013C9.82566 3.51013 9.14041 3.51013 8.45516 3.51013C8.05519 3.51013 7.90975 3.36439 7.90975 2.9608C7.90975 2.35262 7.89856 1.74443 7.91535 1.13625C7.92094 0.917641 7.84822 0.869995 7.64404 0.872798C5.58829 0.881206 3.53813 0.878403 1.48518 0.881206C1.02088 0.881206 0.872646 1.02695 0.872646 1.5006C0.872646 5.52526 0.872646 9.54993 0.875443 13.5746C0.875443 13.9726 1.03487 14.1295 1.42364 14.1323C2.19001 14.1351 2.95637 14.1351 3.72273 14.1351C5.81484 14.1351 7.90696 14.1351 9.99907 14.1323C10.4046 14.1323 10.5445 13.9838 10.5445 13.5802C10.5445 12.7254 10.5473 11.8678 10.5473 11.0129C10.5473 10.9232 10.5473 10.8308 10.5473 10.7439C9.86202 10.9737 9.21313 11.1895 8.56144 11.4081C8.36006 11.4754 8.16707 11.495 8.00485 11.3296C7.84263 11.1643 7.8678 10.9709 7.93772 10.7691C8.12232 10.231 8.29014 9.69006 8.48312 9.15475C8.53627 9.00901 8.62018 8.86327 8.72646 8.75396C9.27746 8.18782 9.84803 7.63569 10.399 7.06955C10.4773 6.98827 10.5333 6.85374 10.5389 6.74163C10.5557 6.34365 10.5473 5.94287 10.5473 5.54208C10.5473 4.87504 10.5473 4.2136 10.5473 3.51013ZM12.3233 6.48659C11.6157 7.18726 10.9221 7.87672 10.2564 8.53816C10.4354 8.72313 10.6284 8.91932 10.7962 9.09589C11.4842 8.41484 12.1807 7.72538 12.8687 7.04152C12.6813 6.84813 12.4883 6.65195 12.3233 6.48659ZM10.6088 2.63569C10.5165 2.46192 10.4745 2.32459 10.385 2.2293C9.99907 1.82571 9.6047 1.42773 9.20194 1.04376C9.10405 0.951273 8.95581 0.914838 8.79638 0.836363C8.79638 1.48098 8.79638 2.05273 8.79638 2.63569C9.37815 2.63569 9.94872 2.63569 10.6088 2.63569ZM12.9415 5.75789C13.1596 5.9793 13.3554 6.1839 13.5568 6.3913C13.5736 6.37728 13.5987 6.36047 13.6211 6.33804C13.7414 6.22033 13.8616 6.10262 13.9763 5.9821C14.1581 5.78591 14.1609 5.53648 13.9903 5.35991C13.8113 5.17213 13.582 5.16091 13.375 5.34309C13.2183 5.47201 13.0757 5.62616 12.9415 5.75789ZM9.54596 9.17437C9.17397 9.45744 9.19635 9.91148 8.99217 10.3431C9.43409 10.1497 9.88719 10.1609 10.1445 9.81618C9.94033 9.59757 9.74734 9.39017 9.54596 9.17437Z"/>
<path d="M5.27264 4.39483C6.26275 4.39483 7.25007 4.38642 8.24019 4.40324C8.39682 4.40604 8.5982 4.48451 8.6933 4.59662C8.92265 4.86848 8.71847 5.24685 8.33808 5.26927C8.02762 5.28889 7.71716 5.27487 7.40391 5.27487C5.73693 5.27487 4.06995 5.27487 2.40297 5.27487C2.33025 5.27487 2.26033 5.27487 2.18761 5.26647C1.90232 5.23564 1.76247 5.08149 1.77086 4.81243C1.77925 4.5742 1.94427 4.40324 2.20719 4.39763C2.66029 4.38642 3.11619 4.39203 3.57209 4.39203C4.13987 4.39203 4.70765 4.39483 5.27264 4.39483Z" />
<path d="M4.4027 10.5602C3.70067 10.5602 2.99864 10.5602 2.2966 10.5602C1.96936 10.5602 1.77917 10.4033 1.77078 10.1314C1.76239 9.84554 1.94978 9.66616 2.28542 9.66616C3.68948 9.66336 5.09355 9.66336 6.49761 9.66616C6.83045 9.66616 7.03462 9.84834 7.03183 10.1174C7.02623 10.3893 6.81926 10.5546 6.48642 10.5574C5.78998 10.5574 5.09634 10.5574 4.4027 10.5602Z" />
<path d="M4.3661 8.79751C3.68085 8.79751 2.9956 8.79751 2.30755 8.79751C1.96632 8.79751 1.77334 8.63775 1.77054 8.35748C1.76774 8.07161 1.95793 7.90625 2.29916 7.90625C3.68644 7.90625 5.07373 7.90905 6.46101 7.90625C6.66239 7.90625 6.86657 7.92587 6.95327 8.12486C7.00641 8.25098 7.0176 8.42755 6.97285 8.55367C6.90572 8.74425 6.71553 8.79751 6.51975 8.79751C5.80093 8.7947 5.08212 8.7947 4.3661 8.79751Z"/>
<path d="M4.39407 7.0419C3.70043 7.0419 3.00679 7.0419 2.31315 7.0419C1.95514 7.0419 1.76774 6.88215 1.77054 6.58506C1.77334 6.3104 1.97192 6.15625 2.31594 6.15625C3.71162 6.15625 5.10729 6.15625 6.50296 6.15625C6.84139 6.15625 7.05117 6.35244 7.02599 6.63551C7.00082 6.89336 6.81902 7.0391 6.50017 7.0391C5.79814 7.0419 5.0961 7.0419 4.39407 7.0419Z" />
<path d="M7.0319 13.2592C6.62355 13.2592 6.21799 13.262 5.80964 13.2592C5.47121 13.2564 5.27262 13.0854 5.27542 12.8108C5.27822 12.5361 5.4796 12.3651 5.81523 12.3651C6.62914 12.3623 7.44305 12.3623 8.25696 12.3679C8.6737 12.3707 8.90305 12.7099 8.72125 13.035C8.62336 13.2087 8.46114 13.262 8.27654 13.262C7.86259 13.2592 7.44585 13.2592 7.0319 13.2592Z" />
</svg>
