<svg width="18" height="18" viewBox="0 0 14 15" fill="none" xmlns="http://www.w3.org/2000/svg">
<path d="M13.6939 4.75245C13.5275 4.96685 13.321 5.10496 13.0448 5.00105C12.7541 4.89122 12.7061 4.63934 12.7081 4.3572C12.7147 3.44041 12.712 2.52429 12.7081 1.6075C12.7081 1.15174 12.5766 1.01561 12.13 1.01561H1.59752C1.14505 1.01561 1.00562 1.14714 1.00562 1.59632C1.00562 5.53442 1.00562 9.47273 1.00562 13.4113C1.00562 13.8414 1.14768 13.9815 1.57187 13.9834C2.10655 13.9867 2.64058 13.9834 3.17526 13.9834C3.54684 13.9834 3.77636 14.1807 3.77702 14.4826C3.77768 14.7845 3.55736 14.9831 3.17854 14.987C2.56757 14.9943 1.9566 15.0015 1.34629 14.987C0.529474 14.964 0.013208 14.4188 0.013208 13.6059C0.0138657 9.57116 0.0316226 5.53442 5.47268e-05 1.49833C-0.00652191 0.674937 0.580114 -0.00903367 1.50808 -0.000484042C4.05981 0.0271378 6.61155 0.00872325 9.16329 0.00872325C10.1228 0.00872325 11.0837 0.0363451 12.0419 0.000173622C12.8146 -0.0287636 13.3737 0.23496 13.6939 0.953129V4.75245Z" fill="#252525"/>
<path d="M13.6938 14.7062C13.5551 14.9502 13.342 15.0205 13.0822 14.9502C12.8224 14.8798 12.7534 14.6601 12.7442 14.4155C12.7198 13.4461 12.4508 12.5773 11.6426 11.9722C10.7784 11.3258 9.78203 11.2192 8.7449 11.3586C7.82417 11.4823 7.05931 11.8637 6.54896 12.674C6.25564 13.1343 6.12871 13.6513 6.09517 14.1925C6.09482 14.3124 6.08647 14.4322 6.07018 14.5509C6.01428 14.8311 5.79922 14.9955 5.53353 14.9699C5.23429 14.9409 5.12249 14.7404 5.12709 14.472C5.15274 13.016 5.75055 11.8631 6.97249 11.0555C7.22569 10.8884 7.50652 10.7635 7.79655 10.6069C7.08101 9.96045 6.72455 9.16008 6.83044 8.19134C6.89894 7.53244 7.21682 6.92468 7.71894 6.49259C8.2222 6.04681 8.87417 5.80569 9.54638 5.81677C10.2186 5.82785 10.8623 6.09031 11.3506 6.55244C12.5127 7.65205 12.4515 9.06472 11.1592 10.6806C11.9069 11.0042 12.5751 11.4527 12.9816 12.1577C13.2861 12.6838 13.461 13.2882 13.6938 13.8571V14.7062ZM9.50319 10.3419C9.86722 10.3419 10.2231 10.234 10.5258 10.0318C10.8286 9.82966 11.0646 9.5423 11.2041 9.20604C11.3436 8.86979 11.3803 8.49974 11.3095 8.14264C11.2388 7.78554 11.0638 7.45742 10.8067 7.19973C10.5495 6.94204 10.2218 6.76634 9.86485 6.69485C9.5079 6.62335 9.13777 6.65925 8.80122 6.79802C8.46467 6.93679 8.1768 7.1722 7.97398 7.47451C7.77117 7.77682 7.66251 8.13246 7.66173 8.49649C7.66033 8.73889 7.70699 8.97916 7.79899 9.20343C7.89099 9.4277 8.02651 9.63151 8.19773 9.8031C8.36895 9.97468 8.57248 10.1106 8.79654 10.2031C9.02061 10.2956 9.26078 10.3428 9.50319 10.3419Z" fill="#252525"/>
</svg>
