<svg width="18" height="18" viewBox="0 0 15 15" fill="#252525" xmlns="http://www.w3.org/2000/svg">
<path d="M1.93327 12.2231C1.93327 11.3878 1.93327 10.6294 1.93327 9.87092C1.93327 9.69718 1.92813 9.55352 1.76188 9.41152C-0.611843 7.37846 -0.591276 3.62974 1.84929 1.59668C3.76369 0.00130416 5.98488 -0.396287 8.36718 0.393884C10.7358 1.18071 12.3657 3.72329 12.0623 6.01696C11.7247 8.58126 9.70743 10.5124 7.09034 10.7997C6.47505 10.8666 5.8632 10.8582 5.25306 10.7797C4.83144 10.7246 4.46467 10.8215 4.10133 11.0336C3.41578 11.4362 2.75079 11.8823 1.93327 12.2231ZM2.8262 10.8198C3.27524 10.6344 3.53746 10.4423 3.78255 10.2384C4.20759 9.88429 4.68062 9.76735 5.23592 9.80243C5.90604 9.84419 6.57617 9.9461 7.25144 9.82081C8.96875 9.5034 10.2404 8.62302 10.8506 7.00091C11.4624 5.37547 11.106 3.89035 9.93024 2.60736C8.07753 0.584327 4.81602 0.397225 2.62054 2.16801C0.778115 3.65313 0.406203 6.15562 1.84415 8.01494C2.48857 8.8452 3.30095 9.54683 2.8262 10.8198Z" />
<path d="M4.62891 11.7967C5.34188 11.7282 5.92803 11.7332 6.49875 12.1091C7.32141 12.6504 8.26062 12.8241 9.2461 12.6604C9.76712 12.5735 10.2162 12.6804 10.6292 13.0062C10.9154 13.2317 11.2153 13.4455 11.6301 13.6243C11.6301 13.1649 11.6507 12.7589 11.6233 12.358C11.6027 12.0723 11.7124 11.9237 11.9557 11.7683C13.4263 10.8228 14.1547 9.50303 13.9935 7.76232C13.9301 7.07405 13.6388 6.46597 13.2172 5.92638C12.8812 5.49538 13.0406 5.0293 13.0561 4.57658C13.0629 4.3995 13.2223 4.47468 13.3166 4.54985C13.5976 4.7737 13.8085 5.0577 14.0073 5.35004C15.5823 7.64705 15.2755 10.1161 13.1469 11.9471C12.739 12.2979 12.5368 12.6504 12.5813 13.1816C12.6242 13.7045 12.5796 14.2324 12.595 14.7569C12.6036 15.0443 12.5076 15.0509 12.2917 14.919C11.685 14.5464 11.0645 14.1939 10.4681 13.8047C10.0859 13.5558 9.70028 13.4823 9.24096 13.5241C7.55621 13.6794 6.07714 13.215 4.85514 12.0439C4.79515 11.9855 4.74031 11.9187 4.62891 11.7967Z" />
<path d="M5.8291 6.37674C5.41777 6.47363 5.39035 6.2431 5.42291 5.93405C5.46747 5.52643 5.70399 5.23743 6.00049 4.97849C6.11189 4.8816 6.22501 4.78471 6.33812 4.68949C6.57292 4.49236 6.78887 4.27519 6.67918 3.94275C6.57635 3.63537 6.3107 3.48502 6.00049 3.43657C5.66114 3.38311 5.38006 3.50674 5.18811 3.78906C5.10584 3.90934 5.05614 4.04966 4.98758 4.17997C4.85219 4.43222 4.63281 4.47064 4.37744 4.39547C4.09122 4.31027 4.08951 4.09978 4.14093 3.8659C4.28147 3.24279 4.96702 2.78005 5.83595 2.74329C6.32955 2.72325 6.78716 2.84687 7.17278 3.16093C7.74693 3.62869 7.8052 4.36373 7.29961 4.89998C7.09737 5.11381 6.87285 5.30926 6.64833 5.50304C6.47523 5.65172 6.32612 5.81043 6.30899 6.04764C6.28842 6.35001 6.11874 6.44691 5.8291 6.37674Z" />
<path d="M5.84225 7.97641C5.49091 7.96972 5.22526 7.70077 5.24411 7.35496C5.26296 6.98911 5.49091 6.80201 5.84225 6.77361C6.17646 6.74521 6.46782 7.04257 6.46953 7.37835C6.47125 7.71246 6.18846 7.98309 5.84225 7.97641Z" />
</svg>
