<svg width="18" height="18" viewBox="0 0 15 15" fill="#252525" xmlns="http://www.w3.org/2000/svg">
<g clip-path="url(#clip0_322_6199)">
<path d="M10.2977 15H1.36271C1.2167 14.945 1.0707 14.8993 0.931021 14.8331C0.422926 14.5902 0.150384 14.1624 0 13.6363V1.36271C0.0150395 1.34537 0.0273479 1.32584 0.0365011 1.30479C0.256968 0.470134 0.862886 0 1.72772 0C4.46968 0 7.21132 0 9.95263 0C10.945 0 11.6687 0.697414 11.6706 1.69122C11.6771 5.56033 11.6748 9.43042 11.6638 13.3015C11.6638 13.5935 11.5626 13.9045 11.4351 14.1717C11.2122 14.6374 10.7785 14.8623 10.2977 15ZM10.8228 7.52409C10.8228 5.61241 10.8228 3.70056 10.8228 1.78855C10.8228 1.16009 10.5117 0.845527 9.88936 0.844879H1.77979C1.15343 0.844879 0.844879 1.15538 0.844879 1.78612C0.844879 5.59391 0.844879 9.40187 0.844879 13.21C0.844879 13.849 1.15441 14.1546 1.80072 14.1551H9.86308C10.5182 14.1551 10.8228 13.8475 10.8228 13.1891C10.8235 11.3007 10.8235 9.41241 10.8228 7.52409Z"/>
<path d="M13.7595 14.5259C13.4086 14.0017 13.1006 13.5117 12.7604 13.0454C12.555 12.7636 12.4947 12.4726 12.4961 12.1304C12.5068 9.48193 12.5005 6.83341 12.5029 4.18489C12.5029 3.43784 13.0655 2.88935 13.7995 2.91076C14.1201 2.92098 14.4242 3.05527 14.6477 3.28533C14.8712 3.51539 14.9967 3.82325 14.9977 4.14401C15.002 5.45221 14.9977 6.7609 14.9977 8.06958C14.9977 9.52963 14.9977 10.9843 14.9947 12.4419C14.9981 12.5496 14.9723 12.6562 14.9203 12.7505C14.5592 13.3087 14.1859 13.8596 13.817 14.413C13.8009 14.4388 13.7892 14.4685 13.7595 14.5259ZM13.7522 12.95C14.0233 12.6381 14.1708 12.3173 14.1654 11.8891C14.1411 9.97153 14.1547 8.05401 14.1547 6.13697V5.8581H13.3439V6.15595C13.3439 8.06569 13.3571 9.97543 13.3337 11.8847C13.3283 12.3125 13.467 12.6371 13.7522 12.95ZM14.1508 4.97916C14.1508 4.68033 14.1611 4.40049 14.1474 4.12162C14.1403 4.02283 14.0957 3.93048 14.0228 3.86339C13.9499 3.79629 13.8542 3.7595 13.7552 3.76051C13.5605 3.75759 13.3712 3.89337 13.3585 4.08756C13.3395 4.37957 13.3537 4.67449 13.3537 4.97916H14.1508Z" />
<path d="M3.1029 11.2523C2.78169 11.2523 2.46096 11.2553 2.14024 11.2523C1.81952 11.2494 1.66378 11.1063 1.6594 10.8022C1.64999 10.1296 1.64999 9.45665 1.6594 8.78341C1.66329 8.47826 1.82828 8.33031 2.13781 8.32885C2.79483 8.32528 3.45201 8.32528 4.10935 8.32885C4.42424 8.32885 4.5902 8.48945 4.59604 8.80531C4.60285 9.46233 4.60285 10.1195 4.59604 10.7769C4.59312 11.1 4.43689 11.248 4.11422 11.2523C3.77549 11.2557 3.43919 11.2523 3.1029 11.2523ZM2.51304 9.1893V10.3914H3.72974V9.1893H2.51304Z" />
<path d="M2.94974 6.01247C2.52243 5.59587 2.11995 5.21382 1.73741 4.81718C1.5992 4.67117 1.64495 4.42345 1.78949 4.28183C1.8645 4.20488 1.96684 4.16063 2.07429 4.15872C2.18173 4.15681 2.28559 4.19737 2.36329 4.27161C2.54482 4.44195 2.70396 4.63759 2.90837 4.8639L4.11875 3.61459C4.17277 3.55862 4.22533 3.49925 4.2847 3.44863C4.4823 3.28121 4.73196 3.28949 4.895 3.46567C5.05804 3.64184 5.0522 3.8701 4.87213 4.05552C4.46818 4.47066 4.05353 4.87509 3.64667 5.28731C3.4116 5.5253 3.18286 5.76961 2.94974 6.01247Z" />
<path d="M7.91063 11.2511C7.37869 11.2511 6.84675 11.2511 6.31481 11.2511C6.01355 11.2511 5.82812 11.0856 5.82812 10.8321C5.82812 10.5785 6.01988 10.4062 6.31481 10.4053C7.3855 10.4014 8.45718 10.4014 9.52982 10.4053C9.81891 10.4053 10.0141 10.5965 10.0068 10.8433C9.99947 11.09 9.8121 11.2492 9.52982 11.2511C8.99009 11.2535 8.45036 11.2511 7.91063 11.2511Z" />
<path d="M7.93303 3.32628C8.46497 3.32628 8.99691 3.32238 9.52885 3.32628C9.83352 3.32628 10.0297 3.52095 10.0077 3.78084C9.98877 4.00666 9.8194 4.17018 9.55854 4.17018C8.46351 4.17635 7.36831 4.17635 6.27296 4.17018C6.00528 4.17018 5.83202 3.98524 5.83008 3.75018C5.83008 3.50294 6.00723 3.32822 6.29048 3.3253C6.83605 3.32238 7.38356 3.32628 7.93303 3.32628Z" />
<path d="M7.89912 8.74755C8.43885 8.74755 8.97907 8.74755 9.5188 8.74755C9.81762 8.74755 10.0055 8.91497 10.0055 9.16707C10.0055 9.41917 9.81081 9.59 9.5188 9.59097C8.45491 9.59389 7.39087 9.59389 6.32666 9.59097C6.01907 9.59097 5.82148 9.41041 5.8283 9.15296C5.83511 8.8955 6.02297 8.74707 6.32763 8.74609C6.85081 8.74658 7.37497 8.74755 7.89912 8.74755Z" />
<path d="M7.91903 5.83999C7.39536 5.83999 6.8712 5.83999 6.34705 5.83999C6.02438 5.83999 5.83311 5.6823 5.82727 5.42582C5.82143 5.16009 6.02195 4.99267 6.3524 4.99219C7.40071 4.99219 8.44886 4.99219 9.49685 4.99219C9.81027 4.99219 10.0093 5.16399 10.0064 5.41949C10.0035 5.675 9.81173 5.83804 9.4915 5.8395C8.96734 5.83999 8.44318 5.83999 7.91903 5.83999Z" />
</g>
<defs>
<clipPath id="clip0_322_6199">
<rect width="15.0005" height="15" fill="white"/>
</clipPath>
</defs>
</svg>
