<svg width="21" height="18" viewBox="0 0 18 15" fill="#252525" xmlns="http://www.w3.org/2000/svg">
<path d="M15.0069 8.75313C15.0069 9.46061 15.0069 10.1445 15.0069 10.8284C15.0069 11.1586 15.0069 11.4927 15.0069 11.8228C15.0109 12.1097 14.893 12.3298 14.6257 12.4517C14.3741 12.5657 14.1226 12.5067 13.8986 12.2827C12.7744 11.1586 11.6503 10.0384 10.5302 8.91034C10.4122 8.79243 10.2983 8.75313 10.1371 8.75313C9.08374 8.76099 8.02645 8.75706 6.97309 8.75706C5.80574 8.75706 5 7.94738 5 6.78004C5 5.18034 5 3.57672 5 1.97702C5 0.821465 5.80967 0.00786091 6.9613 0.00786091C9.8266 0 12.684 0 15.5415 0C16.697 0 17.5067 0.809674 17.5067 1.96523C17.5067 3.57278 17.5067 5.18034 17.5067 6.7879C17.5067 7.94345 16.697 8.7492 15.5376 8.7492C15.3725 8.75313 15.2035 8.75313 15.0069 8.75313ZM13.6942 10.3568C13.7138 10.341 13.7374 10.3253 13.7571 10.3135C13.7571 9.60604 13.7571 8.89462 13.7571 8.18714C13.7571 7.75872 14.0086 7.50717 14.4331 7.50324C14.8026 7.50324 15.176 7.50324 15.5454 7.50324C16.021 7.50324 16.2568 7.26741 16.2568 6.79576C16.2568 5.18034 16.2568 3.56885 16.2568 1.95344C16.2568 1.48178 16.021 1.24989 15.5454 1.24989C12.688 1.24989 9.83053 1.24989 6.97309 1.24989C6.48571 1.24989 6.25382 1.47785 6.25382 1.96916C6.25382 3.56885 6.25382 5.17248 6.25382 6.77218C6.25382 7.27527 6.48178 7.50324 6.97702 7.50324C8.16009 7.50324 9.34708 7.50717 10.5302 7.49931C10.7738 7.49931 10.9664 7.57792 11.1394 7.75086C11.9451 8.56446 12.7587 9.37021 13.5684 10.1838C13.6195 10.2349 13.6549 10.2978 13.6942 10.3568Z" />
<path d="M2.50468 11.2703C2.17453 11.2546 1.86402 11.2625 1.5653 11.2153C0.688812 11.0817 0.012774 10.3113 0.00884353 9.42695C-0.00294784 7.729 -0.00294784 6.02711 0.00884353 4.32915C0.0167044 3.34654 0.834239 2.529 1.81292 2.50542C2.2492 2.49363 2.68548 2.49756 3.12176 2.50149C3.48337 2.50542 3.7585 2.78448 3.75457 3.13429C3.75064 3.47231 3.47944 3.74351 3.1257 3.74744C2.72086 3.7553 2.31995 3.74744 1.91511 3.75137C1.50635 3.7553 1.2548 3.99899 1.2548 4.40776C1.2548 6.05462 1.25087 7.70148 1.2548 9.34834C1.2548 9.74532 1.50635 9.99687 1.89939 10.0008C2.29637 10.0047 2.69335 10.0008 3.09032 10.0008C3.49123 10.0047 3.75064 10.2602 3.75064 10.6611C3.75457 11.3765 3.75064 12.0918 3.75064 12.8543C3.82532 12.7875 3.87248 12.7443 3.91965 12.6971C4.73325 11.8835 5.55079 11.0699 6.36046 10.2523C6.5334 10.0794 6.72206 9.99687 6.96575 9.99687C7.83831 10.0047 8.71087 9.99687 9.58344 10.0008C9.85857 10.0008 10.059 10.1344 10.1651 10.386C10.2634 10.6218 10.2241 10.8458 10.0551 11.0424C9.91752 11.1996 9.73672 11.2546 9.52841 11.2507C8.78555 11.2468 8.0427 11.2468 7.30377 11.2546C7.20944 11.2546 7.0876 11.3057 7.02078 11.3725C5.88881 12.4966 4.76077 13.6247 3.63272 14.7527C3.45585 14.9296 3.26326 15.0396 3.00778 14.9886C2.69335 14.9257 2.50468 14.682 2.50075 14.34C2.49682 13.3889 2.50075 12.4377 2.50075 11.4904C2.50468 11.4197 2.50468 11.3489 2.50468 11.2703Z" />
<path d="M9.3827 4.37054C9.38663 4.71249 9.1115 4.99548 8.76955 5.00334C8.41974 5.0112 8.13281 4.72428 8.13281 4.37447C8.13281 4.03252 8.41187 3.75346 8.75382 3.75346C9.09577 3.74953 9.37877 4.02859 9.3827 4.37054Z" />
<path d="M11.2658 4.99964C10.9238 5.00357 10.6408 4.72844 10.633 4.38649C10.6251 4.03668 10.9081 3.74976 11.2579 3.74976C11.5959 3.74976 11.8789 4.03275 11.8829 4.37077C11.8829 4.71665 11.6077 4.99571 11.2658 4.99964Z" />
<path d="M13.7647 3.75346C14.1027 3.75739 14.3857 4.04038 14.3818 4.3784C14.3818 4.72821 14.0909 5.01121 13.7411 5.00334C13.3991 4.99548 13.1279 4.70856 13.1319 4.36661C13.1397 4.02466 13.4227 3.74953 13.7647 3.75346Z" />
</svg>
