<svg width="18" height="18" viewBox="0 0 15 15" fill="none" xmlns="http://www.w3.org/2000/svg">
<g clip-path="url(#clip0_322_6145)">
<path d="M0.278809 15C0.0777645 14.7134 -0.020662 14.3665 -0.000302177 14.016C0.00924008 9.67362 0.0116256 5.33119 0.00685451 0.988773C0.00685451 0.0986367 0.107048 0 0.987321 0H11.4969C12.2698 0 12.4237 0.15397 12.4249 0.934643C12.4249 3.17442 12.4249 5.4154 12.4249 7.65517C12.4249 8.10625 12.3724 8.51403 11.8178 8.56335C11.3896 8.60064 11.1713 8.27827 11.1713 7.63352C11.1713 5.67041 11.1594 3.7073 11.1784 1.74539C11.1784 1.34603 11.0973 1.20409 10.6679 1.2077C7.67644 1.22694 4.68534 1.22694 1.69464 1.2077C1.29983 1.2077 1.21037 1.31836 1.21156 1.70449C1.22588 5.57057 1.22588 9.43665 1.21156 13.3027C1.21156 13.7033 1.33084 13.7959 1.70657 13.7899C2.98523 13.767 4.26509 13.7839 5.54375 13.7791C5.89085 13.7791 6.22363 13.7899 6.3787 14.1796C6.52779 14.5489 6.27373 14.7654 6.06619 14.9988L0.278809 15Z" fill="#252525"/>
<path d="M14.4812 9.873C14.4792 9.97206 14.457 10.0696 14.4159 10.1597C14.3749 10.2497 14.3159 10.3302 14.2426 10.3963C13.0618 11.721 11.8825 13.047 10.7048 14.3742C10.3804 14.7351 10.0262 14.7423 9.68025 14.4139C9.03614 13.804 8.39562 13.1906 7.77179 12.5651C7.48314 12.28 7.309 11.9299 7.65252 11.5823C7.98053 11.2551 8.3169 11.3538 8.62702 11.6617C9.03137 12.0659 9.46912 12.4376 9.85439 12.8646C10.0929 13.128 10.2206 13.0751 10.4317 12.8333C11.3764 11.7507 12.3401 10.6813 13.2944 9.59754C13.5329 9.3317 13.7906 9.19818 14.1293 9.31727C14.2402 9.35823 14.3348 9.4348 14.3983 9.53521C14.4619 9.63561 14.491 9.75429 14.4812 9.873Z" fill="#252525"/>
<path d="M6.27723 4.75703C5.45302 4.75703 4.62881 4.75703 3.8034 4.75703C3.35014 4.75703 3.00662 4.61509 3.00782 4.10988C3.00782 3.62872 3.3573 3.48558 3.77358 3.48438C5.46097 3.48438 7.14915 3.48438 8.83813 3.48438C9.24606 3.48438 9.60151 3.6191 9.60271 4.10747C9.60271 4.6199 9.26038 4.75944 8.80951 4.75583C7.96502 4.75222 7.12172 4.75703 6.27723 4.75703Z" fill="#222222"/>
<path d="M6.35662 6.81372C7.16175 6.81372 7.96569 6.81372 8.76962 6.81372C9.19306 6.81372 9.58906 6.90273 9.60457 7.42599C9.62007 7.99255 9.21214 8.07915 8.76008 8.07915C7.13153 8.07915 5.5014 8.07915 3.86967 8.07915C3.41999 8.07915 3.00133 8.00458 3.00491 7.44283C3.00848 6.88108 3.43669 6.81131 3.8816 6.81252L6.35662 6.81372Z" fill="#222222"/>
<path d="M4.40629 11.2992C4.13042 11.3114 3.85412 11.309 3.5785 11.292C3.22066 11.2535 3.00477 11.0394 3 10.6653C3 10.3153 3.20754 10.0771 3.52721 10.0555C4.11529 10.0128 4.70564 10.0128 5.29372 10.0555C5.36858 10.0594 5.44188 10.0785 5.50927 10.1116C5.57666 10.1447 5.63674 10.1911 5.68594 10.2481C5.73515 10.3052 5.77246 10.3716 5.79565 10.4435C5.81884 10.5154 5.82744 10.5912 5.82093 10.6665C5.81139 11.037 5.58237 11.2475 5.22454 11.2884C4.95218 11.3068 4.67903 11.3104 4.40629 11.2992Z" fill="#222222"/>
</g>
<defs>
<clipPath id="clip0_322_6145">
<rect width="14.4828" height="15" fill="white"/>
</clipPath>
</defs>
</svg>
