<svg width="18" height="18" viewBox="0 0 15 15" fill="#252525" xmlns="http://www.w3.org/2000/svg">
<g clip-path="url(#clip0_778_753)">
<path d="M0 7.50035C0 5.24299 0 2.98563 0 0.728269C0 0.261182 0.269189 0 0.749325 0C4.53715 0 8.32426 0 12.1114 0C12.5809 0 12.8529 0.26671 12.8529 0.725506C12.8529 3.12244 12.8529 5.51937 12.8529 7.9163C12.8529 8.26938 12.6363 8.53125 12.2939 8.59551C11.9082 8.66806 11.5275 8.37993 11.5048 7.99784C11.502 7.95292 11.5034 7.90732 11.5034 7.86172C11.5034 5.72113 11.5027 3.58123 11.5055 1.44065C11.5055 1.34253 11.487 1.31006 11.3762 1.31006C8.0778 1.31351 4.77935 1.31351 1.4816 1.31075C1.38146 1.31075 1.34736 1.32871 1.34808 1.43581C1.35163 5.4786 1.35092 9.5214 1.34879 13.5642C1.34879 13.6602 1.36796 13.6879 1.47237 13.6879C2.97386 13.6837 4.47606 13.6851 5.97756 13.6851C6.30925 13.6851 6.57133 13.8634 6.66083 14.1474C6.79507 14.5737 6.47545 14.9959 6.01236 14.9979C5.20905 15.0007 4.40575 14.9986 3.60244 14.9986C2.6443 14.9986 1.68545 14.9986 0.727307 14.9986C0.278422 14.9986 0.000710261 14.7285 0.000710261 14.2938C0 12.0303 0 9.7653 0 7.50035Z" />
<path d="M10.5486 14.6412C10.3383 14.6398 10.1856 14.5825 10.0599 14.465C9.33827 13.7906 8.61522 13.117 7.89644 12.4391C7.6173 12.1759 7.61304 11.7675 7.87442 11.505C8.13935 11.2396 8.56124 11.2376 8.84463 11.5022C9.36526 11.9886 9.88517 12.4751 10.4015 12.9649C10.4655 13.0258 10.4917 13.0216 10.5493 12.9587C11.6289 11.7869 12.7106 10.6171 13.7923 9.44659C14.0679 9.1481 14.482 9.11631 14.776 9.36989C15.0601 9.61518 15.0743 10.0291 14.8037 10.322C13.5423 11.6901 12.2795 13.0575 11.0173 14.4249C10.8838 14.5707 10.7126 14.6378 10.5486 14.6412Z" />
<path d="M9.40842 3.5131C9.73372 3.54972 9.98018 3.8344 9.9745 4.16606C9.9681 4.49772 9.7046 4.77963 9.37362 4.80657C9.33881 4.80934 9.30401 4.81003 9.26921 4.81003C7.44313 4.81003 5.61705 4.81072 3.79097 4.81003C3.41169 4.81003 3.13895 4.58547 3.08568 4.23722C3.03312 3.88967 3.30231 3.54765 3.65673 3.51172C3.69579 3.58289 3.76042 3.53383 3.80801 3.53383C5.62699 3.53728 7.44668 3.53728 9.26566 3.5359C9.31324 3.5359 9.36651 3.55594 9.40842 3.5131Z" />
<path d="M3.63407 8.08813C3.318 8.04736 3.07012 7.75578 3.07935 7.43448C3.08858 7.09937 3.36204 6.81608 3.69728 6.79535C3.75907 6.79189 3.82157 6.79328 3.88337 6.79328C5.68672 6.79328 7.48936 6.79258 9.29271 6.79328C9.58747 6.79328 9.8318 6.95634 9.93266 7.21545C10.03 7.46489 9.96178 7.75094 9.75865 7.93059C9.6656 8.01282 9.56119 8.07569 9.43121 8.08675C9.40422 8.05566 9.36729 8.06533 9.33391 8.06533C7.44817 8.05842 5.56242 8.07777 3.67668 8.05496C3.65324 8.05496 3.6433 8.07155 3.63407 8.08813Z" />
<path d="M4.56951 11.3054C4.30175 11.3054 4.03469 11.3067 3.76763 11.3054C3.38338 11.3026 3.08294 11.0165 3.0801 10.6524C3.07726 10.2855 3.38054 9.99391 3.77189 9.99322C4.31027 9.99184 4.84936 9.99184 5.38774 9.99322C5.77199 9.99391 6.07314 10.2814 6.07527 10.6455C6.0774 11.0096 5.77767 11.3019 5.39484 11.3054C5.11997 11.3074 4.84439 11.3054 4.56951 11.3054Z" />
<path d="M3.63379 8.08718C3.64302 8.06991 3.65297 8.05402 3.6764 8.05471C5.56215 8.07751 7.44789 8.05816 9.33363 8.06507C9.36702 8.06507 9.40466 8.0554 9.43094 8.08649C9.37625 8.11137 9.3173 8.10653 9.25906 8.10653C7.44505 8.10653 5.63033 8.10653 3.81633 8.10584C3.75595 8.10584 3.69274 8.1162 3.63379 8.08718Z" />
<path d="M9.40865 3.5115C9.36675 3.55434 9.31348 3.5343 9.26518 3.5343C7.4462 3.53568 5.62651 3.53568 3.80754 3.53223C3.75995 3.53223 3.69531 3.58129 3.65625 3.51012C3.70739 3.48455 3.76279 3.49423 3.81606 3.49423C5.62296 3.49354 7.42987 3.49354 9.23677 3.49423C9.2943 3.49423 9.35396 3.48455 9.40865 3.5115Z" />
</g>
<defs>
<clipPath id="clip0_778_753">
<rect width="15" height="15" fill="white"/>
</clipPath>
</defs>
</svg>
