<svg width="18" height="18" viewBox="0 0 18 18" fill="#252525" xmlns="http://www.w3.org/2000/svg">
<path d="M1.00042 5.40569C1.00834 5.39943 1.02001 5.39484 1.02334 5.3869C1.21799 4.93129 1.52602 4.78597 1.99868 4.92753C2.53303 5.08748 2.90775 5.54309 2.94151 6.1031C2.98152 6.76291 3.00736 7.42357 3.03529 8.0838C3.03988 8.19112 3.0478 8.24583 3.18868 8.24082C3.54922 8.22746 3.85641 8.36944 4.1115 8.62502C4.46412 8.97915 4.82091 9.3291 5.17062 9.68615C5.37694 9.89704 5.61119 10.0599 5.87628 10.191C6.57194 10.5356 7.12421 11.0296 7.45391 11.7483C7.58687 12.0381 7.62272 12.3467 7.65106 12.6578C7.70525 13.2538 7.75985 13.8497 7.8082 14.446C7.81487 14.5262 7.84655 14.5588 7.91407 14.5918C8.17458 14.7196 8.3163 14.9304 8.3188 15.2244C8.32171 15.5786 8.3238 15.9327 8.31838 16.2864C8.31213 16.6965 8.01411 16.9947 7.60396 16.9959C6.4273 16.9993 5.25065 16.9988 4.0744 16.9959C3.66593 16.9951 3.36291 16.6994 3.3529 16.2898C3.34415 15.936 3.3454 15.5815 3.35248 15.2278C3.3604 14.8569 3.59757 14.5872 3.96186 14.5295C4.04356 14.5166 4.06106 14.4874 4.06232 14.4114C4.07232 13.8664 3.89517 13.4049 3.48003 13.0383C2.68392 12.3346 2.00076 11.5328 1.41723 10.6446C1.23508 10.3673 1.09503 10.0758 1.0346 9.74796C1.03001 9.72332 1.03209 9.69492 1 9.68574C1.00042 8.26003 1.00042 6.83307 1.00042 5.40569ZM1.50184 7.53089C1.50184 8.12473 1.50434 8.71814 1.50101 9.31198C1.49892 9.67697 1.59854 10.0065 1.79778 10.3126C2.36006 11.177 3.01528 11.9625 3.79014 12.6441C4.31615 13.1072 4.57124 13.6839 4.55915 14.3805C4.55749 14.4844 4.57875 14.5241 4.69337 14.5229C5.52658 14.5137 6.35936 14.5099 7.19257 14.5087C7.28885 14.5087 7.31553 14.4869 7.30553 14.3867C7.25009 13.8221 7.20341 13.2567 7.15089 12.6921C7.1263 12.4282 7.09962 12.1659 6.98166 11.9203C6.70073 11.3357 6.24432 10.9323 5.67413 10.6525C5.33276 10.485 5.03474 10.2683 4.7709 9.99602C4.43745 9.65191 4.09649 9.31532 3.75513 8.97915C3.48128 8.70979 3.09698 8.66218 2.79813 8.85303C2.5693 8.99877 2.55471 9.13199 2.74727 9.32409C3.58673 10.1639 4.42619 11.0033 5.26565 11.8431C5.30233 11.8798 5.34318 11.9145 5.37194 11.9571C5.44821 12.0711 5.44321 12.1868 5.34401 12.2828C5.25023 12.3734 5.13811 12.3768 5.03015 12.3054C4.98305 12.2741 4.94429 12.2298 4.90386 12.1897C4.07149 11.3578 3.23911 10.5255 2.40716 9.69325C1.98034 9.26646 2.00535 8.83716 2.48135 8.46591C2.53053 8.42749 2.55721 8.39241 2.55387 8.32518C2.51511 7.59228 2.48427 6.85854 2.44217 6.12565C2.42174 5.7711 2.15832 5.47376 1.81862 5.39191C1.60063 5.33971 1.50267 5.4153 1.50267 5.64081C1.50142 6.27056 1.50184 6.90072 1.50184 7.53089ZM5.84544 15.024C5.26815 15.024 4.69087 15.0232 4.11358 15.0244C3.92685 15.0248 3.85349 15.0929 3.85141 15.2737C3.84766 15.5961 3.84724 15.9185 3.85183 16.2409C3.85433 16.4213 3.93269 16.4956 4.11317 16.4956C5.26232 16.4969 6.41188 16.4969 7.56103 16.4956C7.7461 16.4956 7.81487 16.4259 7.81612 16.2413C7.81821 15.9239 7.81779 15.607 7.81654 15.2896C7.8157 15.0787 7.76027 15.024 7.54603 15.0236C6.97916 15.0232 6.4123 15.024 5.84544 15.024Z"  />
<path d="M16.9995 9.68727C16.9428 9.71817 16.9595 9.77956 16.9495 9.8255C16.8911 10.0878 16.7865 10.3287 16.6419 10.5538C16.0471 11.4784 15.3447 12.3115 14.5203 13.0394C14.1051 13.4056 13.9267 13.8667 13.938 14.4121C13.9397 14.4868 13.9555 14.5177 14.0376 14.5307C14.4027 14.5887 14.6391 14.8568 14.6474 15.2285C14.6553 15.5822 14.6566 15.9367 14.6474 16.2905C14.637 16.7014 14.3348 16.9958 13.9263 16.997C12.7497 17 11.5734 17.0004 10.3968 16.997C9.98621 16.9958 9.68819 16.6976 9.68194 16.2879C9.67652 15.9338 9.67902 15.5801 9.68152 15.226C9.68361 14.932 9.82449 14.719 10.0862 14.5941C10.165 14.5566 10.1863 14.5135 10.1929 14.4325C10.2517 13.7431 10.3042 13.0528 10.3818 12.3654C10.4622 11.6525 10.8586 11.1146 11.39 10.6632C11.613 10.4736 11.8589 10.3166 12.1232 10.193C12.3908 10.0681 12.623 9.89983 12.8293 9.68852C13.1673 9.34191 13.5154 9.00532 13.8542 8.65954C14.131 8.37724 14.4582 8.22064 14.8575 8.24235C14.9684 8.24862 14.9588 8.18431 14.9617 8.11666C14.985 7.5863 15.008 7.05594 15.0321 6.52558C15.0413 6.31803 15.038 6.10839 15.0855 5.9046C15.2139 5.35503 15.6586 4.95329 16.2138 4.88146C16.556 4.8372 16.8715 5.04266 16.9691 5.37382C16.9757 5.39721 16.9674 5.42727 16.9999 5.43813C16.9995 6.85381 16.9995 8.27075 16.9995 9.68727ZM16.4981 7.54495C16.4981 6.90977 16.4985 6.27418 16.4976 5.639C16.4972 5.41015 16.4059 5.34166 16.1809 5.39804C15.8291 5.48574 15.5782 5.76887 15.5577 6.12885C15.5177 6.83586 15.4915 7.54328 15.451 8.25029C15.4448 8.36095 15.466 8.42652 15.5586 8.49584C15.9666 8.80195 16.0066 9.27593 15.6561 9.62839C14.7891 10.4995 13.9192 11.3673 13.0494 12.2355C12.911 12.3733 12.7622 12.3883 12.6526 12.281C12.54 12.1712 12.5546 12.0263 12.6926 11.8847C12.7142 11.8622 12.7368 11.8404 12.7588 11.8183C13.5983 10.9789 14.4382 10.1395 15.2772 9.29931C15.4352 9.14104 15.426 9.02119 15.2501 8.8863C14.9559 8.6608 14.5378 8.6917 14.2544 8.96941C13.8901 9.32646 13.5295 9.68769 13.1719 10.0518C12.9397 10.2882 12.6805 10.4841 12.3787 10.6231C12.1799 10.715 11.9927 10.8282 11.8193 10.9618C11.2787 11.3786 10.9049 11.8889 10.8561 12.6005C10.8148 13.2027 10.7515 13.8032 10.6923 14.4041C10.6815 14.5127 10.7361 14.5069 10.8094 14.5073C11.6372 14.5106 12.465 14.5135 13.2928 14.5223C13.4062 14.5236 13.4445 14.4998 13.4416 14.3782C13.4266 13.6813 13.6854 13.1062 14.2114 12.6431C14.9817 11.9649 15.6336 11.1836 16.1946 10.3241C16.3972 10.0138 16.501 9.68059 16.4989 9.31017C16.4956 8.72218 16.4981 8.13336 16.4981 7.54495ZM12.1624 16.4972C12.7347 16.4972 13.3065 16.498 13.8784 16.4968C14.0689 16.4963 14.1456 16.4237 14.1481 16.2341C14.1518 15.9167 14.1514 15.5997 14.1485 15.2824C14.1468 15.0969 14.0755 15.0251 13.8938 15.0251C12.7393 15.0239 11.5847 15.0239 10.4301 15.0251C10.2425 15.0251 10.1842 15.0882 10.1834 15.2828C10.1821 15.5947 10.1821 15.9067 10.1834 16.219C10.1842 16.4337 10.2471 16.4968 10.4618 16.4972C11.0287 16.4976 11.5955 16.4972 12.1624 16.4972Z"  />
<path d="M9.5928 1.00084C9.69575 1.08686 9.73993 1.1946 9.75952 1.33074C9.80037 1.61263 9.96376 1.81433 10.228 1.92876C10.3139 1.96592 10.4022 1.99683 10.4873 2.03608C10.7957 2.17807 11.0808 2.14466 11.3497 1.93502C11.5118 1.80849 11.6102 1.81851 11.7586 1.96509C11.9695 2.17389 12.1799 2.38311 12.3879 2.59442C12.5247 2.73348 12.5326 2.83538 12.41 2.99198C12.205 3.25465 12.1624 3.5332 12.3029 3.83847C12.3421 3.92324 12.3721 4.01219 12.4075 4.09864C12.5276 4.38887 12.7451 4.55132 13.0548 4.5935C13.2728 4.62357 13.3408 4.70082 13.3416 4.92174C13.3424 5.20821 13.3429 5.49427 13.3416 5.78075C13.3408 5.98914 13.2678 6.06932 13.059 6.09563C12.7481 6.13446 12.5305 6.2965 12.4092 6.5859C12.375 6.66733 12.3458 6.75085 12.3087 6.83103C12.1662 7.13922 12.1995 7.42445 12.4088 7.69339C12.5359 7.85667 12.5263 7.95523 12.3804 8.10264C12.172 8.31353 11.9624 8.52401 11.751 8.73197C11.6114 8.86937 11.5101 8.8773 11.3534 8.75494C11.0908 8.55073 10.812 8.50688 10.5069 8.6472C10.4223 8.68604 10.3331 8.7161 10.2468 8.75202C9.95626 8.87145 9.79453 9.09028 9.75119 9.39889C9.72034 9.61646 9.64323 9.68537 9.42315 9.6862C9.13681 9.68746 8.85046 9.68746 8.56411 9.6862C8.36237 9.68495 8.27692 9.61229 8.25108 9.41685C8.20732 9.08861 8.03767 8.8606 7.7259 8.74116C7.55167 8.67434 7.38536 8.58247 7.19488 8.56785C6.98689 8.55198 6.81016 8.63091 6.64761 8.75494C6.48963 8.87563 6.38918 8.86895 6.24955 8.73197C6.03448 8.52025 5.82065 8.30685 5.60891 8.09136C5.47678 7.9569 5.46595 7.8525 5.58224 7.70633C5.80273 7.42904 5.83399 7.13463 5.68602 6.816C5.65101 6.74083 5.62267 6.66232 5.59057 6.5859C5.4697 6.29566 5.25087 6.1353 4.94076 6.09521C4.73069 6.06806 4.659 5.98914 4.65816 5.78033C4.65691 5.48885 4.65691 5.19736 4.65816 4.90587C4.659 4.70458 4.73236 4.61981 4.92868 4.59475C5.25129 4.55341 5.47637 4.38762 5.59724 4.08318C5.6335 3.99131 5.67435 3.90153 5.71145 3.81007C5.82774 3.52568 5.79189 3.26217 5.60724 3.0162C5.45886 2.81826 5.4672 2.73766 5.64434 2.55976C5.84274 2.36056 6.04115 2.16136 6.2408 1.96383C6.38877 1.81725 6.48713 1.80765 6.64969 1.93418C6.91853 2.1434 7.20322 2.17723 7.51207 2.03483C7.5921 1.99808 7.67546 1.96801 7.75716 1.93418C8.02892 1.82101 8.1969 1.61806 8.23941 1.32949C8.25942 1.19377 8.30277 1.08561 8.40655 1C8.80127 1.00084 9.19724 1.00084 9.5928 1.00084ZM11.9057 2.83287C11.8857 2.80865 11.8673 2.78401 11.8465 2.7623C11.7736 2.68796 11.6956 2.61822 11.6268 2.54013C11.5581 2.46204 11.4972 2.42404 11.393 2.49378C11.308 2.55099 11.2021 2.57229 11.1 2.59525C10.7432 2.67585 10.426 2.55391 10.1051 2.42028C9.71784 2.25908 9.44108 2.001 9.30603 1.59926C9.29394 1.56252 9.29394 1.50614 9.24017 1.50489C9.07887 1.50113 8.91339 1.48192 8.75751 1.51157C8.65789 1.53078 8.68498 1.68112 8.62955 1.76046C8.61162 1.78593 8.60037 1.81558 8.58495 1.84273C8.31944 2.30251 7.86386 2.46329 7.39203 2.59358C7.18654 2.65038 6.96063 2.65873 6.78099 2.55683C6.51673 2.4065 6.35667 2.50004 6.2062 2.70717C6.20329 2.71135 6.19912 2.71511 6.19537 2.71803C6.11242 2.78192 6.07908 2.84665 6.1491 2.95064C6.20662 3.03541 6.23663 3.13981 6.24913 3.2438C6.32458 3.88065 6.0945 4.40307 5.63892 4.83571C5.56014 4.91088 5.46303 4.97561 5.35632 4.99649C5.17251 5.0324 5.12833 5.14056 5.15584 5.30552C5.16001 5.33099 5.16001 5.35813 5.15584 5.38361C5.12833 5.54856 5.17168 5.66299 5.35716 5.69138C5.40134 5.69807 5.4426 5.72855 5.48345 5.7511C5.95362 6.01336 6.11701 6.47356 6.2483 6.95088C6.30499 7.15635 6.31332 7.38269 6.2112 7.56226C6.06074 7.82702 6.15619 7.98613 6.36167 8.1373C6.38668 8.15568 6.40794 8.17948 6.42795 8.20328C6.46379 8.24671 6.49672 8.24379 6.54882 8.22124C7.14611 7.9594 7.89012 8.10264 8.3657 8.56493C8.47157 8.66766 8.58745 8.77791 8.61704 8.91655C8.67456 9.18925 8.84754 9.19719 9.07053 9.19343C9.22559 9.19092 9.3027 9.15417 9.34229 9.00049C9.38147 8.84807 9.48026 8.72237 9.58988 8.60836C9.87289 8.31478 10.243 8.1941 10.6215 8.09178C10.8174 8.03875 11.0341 8.02789 11.2017 8.12728C11.4868 8.29641 11.6523 8.16779 11.8144 7.9594C11.8269 7.94312 11.8423 7.92808 11.8586 7.91514C11.9028 7.88006 11.8994 7.84623 11.8769 7.79445C11.6156 7.18558 11.7556 6.45477 12.22 5.97786C12.3117 5.8839 12.4063 5.77282 12.5297 5.74734C12.8581 5.67886 12.8664 5.45711 12.846 5.19527C12.8381 5.09421 12.8093 5.0537 12.7139 5.02572C12.5263 4.9706 12.37 4.85951 12.2295 4.72212C12.0286 4.52585 11.9411 4.26985 11.8361 4.02054C11.6794 3.64846 11.6819 3.28347 11.8598 2.92015C11.8732 2.89259 11.8886 2.86545 11.9057 2.83287Z"  />
<path d="M11.1036 5.24739C11.1941 6.29433 10.3063 7.33542 9.2609 7.44107C7.99837 7.56928 7.03429 6.66224 6.90799 5.61279C6.75586 4.34912 7.68576 3.37401 8.73946 3.25165C10.0845 3.09547 11.084 4.15953 11.1036 5.24739ZM9.00414 6.95122C9.89403 6.94788 10.6105 6.22793 10.6068 5.34093C10.603 4.4506 9.88403 3.73524 8.99622 3.73858C8.10716 3.7415 7.39025 4.46187 7.39358 5.34887C7.3965 6.23795 8.11633 6.95414 9.00414 6.95122Z"  />
<path d="M9.97474 4.83488C9.98099 4.89919 9.93931 4.96267 9.88221 5.01947C9.54793 5.35355 9.21489 5.68972 8.87853 6.02214C8.74556 6.15368 8.61969 6.15118 8.48339 6.02088C8.3596 5.90228 8.2383 5.78118 8.11951 5.65715C7.99989 5.53229 7.99364 5.38946 8.09784 5.28465C8.20121 5.18024 8.34668 5.18693 8.4713 5.30177C8.6918 5.50472 8.6918 5.50472 8.90229 5.29425C9.11528 5.08127 9.32827 4.86787 9.54209 4.65531C9.62295 4.57513 9.71799 4.5459 9.82636 4.59434C9.91972 4.63652 9.97016 4.71002 9.97474 4.83488Z" />
</svg>
