<svg width="22" height="18" viewBox="0 0 16 11" fill="#252525" xmlns="http://www.w3.org/2000/svg">
<path d="M6.99702 0.0480085C6.80114 0.0925258 5.18071 0.564409 3.39112 1.09862C1.30771 1.72186 0.114643 2.12251 0.0523186 2.22045C-0.152461 2.54988 0.096836 2.64782 3.53357 3.68062C6.46281 4.56206 6.99702 4.69561 7.57574 4.70452C8.17227 4.71342 8.53732 4.62439 11.1638 3.84088C12.7754 3.369 14.1465 2.99505 14.2177 3.02176C14.28 3.04847 14.5115 3.41352 14.7163 3.82308C15.295 4.99833 15.4375 4.95381 15.8114 3.49365C16.0251 2.66563 16.0429 2.51427 15.9361 2.40743C15.7669 2.22936 8.41267 0.0569119 7.82504 0.0123946C7.56684 -0.0143158 7.19289 0.00349116 6.99702 0.0480085Z" />
<path d="M2.33157 4.53414C2.26034 4.61427 2.23363 5.37107 2.25144 7.08944L2.27815 9.52898L4.59305 10.2146C7.69145 11.1316 7.54899 11.1316 10.6474 10.2146L12.9623 9.52898L12.989 7.01821C13.0068 4.61427 13.0068 4.50743 12.8376 4.45401C12.7397 4.4273 11.7603 4.6766 10.5406 5.05054C7.64693 5.93199 7.59351 5.93199 4.70879 5.05054C3.54244 4.69441 2.55415 4.4095 2.50964 4.4095C2.46512 4.4095 2.38499 4.46292 2.33157 4.53414Z" />
</svg>
