<svg width="18" height="18" viewBox="0 0 16 18" fill="#252525" xmlns="http://www.w3.org/2000/svg">
<path d="M6.72299 3.09905C6.4083 2.69625 6.1062 2.33121 5.81668 1.96617C5.57752 1.66407 5.32577 1.36197 5.08661 1.04728C4.86003 0.745182 4.88521 0.380144 5.16213 0.153568C5.43906 -0.0730077 5.8041 -0.0226576 6.04326 0.266856C6.63487 1.00952 7.22649 1.75219 7.8181 2.48226C7.86845 2.55779 7.93139 2.62073 8.00691 2.70884C8.28384 2.36897 8.53559 2.0417 8.79993 1.71442C9.19014 1.22351 9.58036 0.732595 9.98316 0.241681C10.1468 0.0402801 10.3482 -0.0352451 10.5999 0.015105C10.8265 0.0654552 10.9902 0.203918 11.0531 0.430494C11.1286 0.657069 11.0531 0.85847 10.9146 1.0347C10.4237 1.65149 9.93281 2.26827 9.44189 2.88506C9.40413 2.93541 9.36637 2.99835 9.30343 3.07388C9.70623 3.07388 10.0713 3.07388 10.4363 3.07388C11.4055 3.07388 12.337 3.22493 13.2182 3.64032C14.7412 4.35781 15.6727 5.54103 15.9497 7.21518C15.9874 7.45434 16 7.71868 16 7.95784C16 9.20401 16 10.4628 16 11.7089C16 14.4027 14.0238 16.7062 11.3552 17.1467C11.0783 17.1971 10.7762 17.2223 10.4992 17.2223C8.83769 17.2223 7.16355 17.2223 5.50199 17.2223C2.82085 17.2223 0.504743 15.246 0.0767667 12.5901C0.0264166 12.3005 0.00124152 11.9859 0.00124152 11.6963C0.00124152 10.5131 0.0138291 9.32988 0.00124152 8.13407C-0.0491086 5.72985 1.43622 3.92983 3.68939 3.30045C4.36912 3.11164 5.07402 3.0487 5.77892 3.06129C6.08102 3.06129 6.37053 3.06129 6.7104 3.06129L6.72299 3.09905ZM8.00691 4.33263C7.20131 4.33263 6.39571 4.30746 5.59011 4.33263C5.08661 4.35781 4.5831 4.40816 4.09219 4.52144C2.53134 4.91166 1.19706 6.03195 1.23482 8.20959C1.26 9.35506 1.23482 10.4879 1.23482 11.6334C1.23482 11.9607 1.26 12.288 1.33552 12.6026C1.78867 14.6418 3.50058 16.0139 5.59011 16.0139C7.18872 16.0139 8.79993 16.0139 10.3985 16.0139C10.6125 16.0139 10.8391 16.0013 11.0531 15.9761C13.1049 15.7118 14.7161 13.9495 14.7664 11.8474C14.8042 10.5257 14.7916 9.19142 14.7664 7.86973C14.7412 6.74944 14.2881 5.83055 13.3566 5.16341C12.5007 4.54662 11.5062 4.33263 10.4741 4.32004C9.65588 4.32004 8.83769 4.32004 8.00691 4.32004V4.33263Z"/>
<path d="M6.15625 9.87016C6.15625 9.26596 6.15625 8.66175 6.15625 8.05755C6.15625 7.52887 6.64716 7.23936 7.10032 7.5037C8.11991 8.1079 9.1395 8.7121 10.1465 9.32889C10.5745 9.59323 10.5745 10.1345 10.1465 10.3988C9.1395 11.0156 8.11991 11.6198 7.10032 12.224C6.64716 12.4884 6.15625 12.1989 6.15625 11.6702C6.15625 11.066 6.15625 10.4618 6.15625 9.85757V9.87016Z"/>
</svg>
