<svg width="23" height="18" viewBox="0 0 21 15" fill="#252525" xmlns="http://www.w3.org/2000/svg">
<g clip-path="url(#clip0_310_6103)">
<path d="M18.1168 3.29586C18.0834 3.07738 17.9288 2.90489 17.7085 2.99164C17.2751 3.1622 16.7734 3.22872 16.4639 3.62582C16.3923 3.71779 16.4003 3.93321 16.5469 3.98604C17.0672 4.17355 17.4426 3.76674 17.883 3.62317C18.0213 3.578 18.1101 3.47356 18.1168 3.29586Z" />
<path d="M16.8607 8.17773C16.6159 8.19306 16.4933 8.25243 16.4533 8.40377C16.4096 8.56922 16.4299 8.7364 16.6038 8.81753C16.9556 8.98185 17.3106 9.14178 17.6735 9.27963C17.8377 9.34196 17.9943 9.27094 18.0798 9.10591C18.1501 8.97031 18.1433 8.80772 18.013 8.73803C17.6129 8.52446 17.1974 8.33919 16.8607 8.17773Z" />
<path d="M18.9183 3.18547C19.0958 3.09473 19.4556 3.09085 19.4936 2.71878C19.5129 2.53075 19.3461 2.35254 19.1413 2.38463C18.8513 2.4301 18.5232 2.51594 18.4761 2.8689C18.4528 3.04548 18.5917 3.21347 18.9183 3.18547Z" />
<path d="M19.5072 9.54027C19.4194 9.19109 19.1081 9.12253 18.8299 9.06152C18.6179 9.01502 18.4559 9.2148 18.4752 9.38852C18.5148 9.7472 18.8364 9.81904 19.134 9.8593C19.3538 9.88935 19.4604 9.74352 19.5072 9.54027Z" />
<path d="M14.7799 0C15.2468 0.367162 15.3875 0.837228 15.3827 1.43288C15.3567 4.60072 15.3724 7.76783 15.3692 10.9355C15.368 11.9646 15.0835 12.2375 14.046 12.2537C13.3464 12.2648 12.6314 12.343 12.2928 11.4968C12.2464 11.3806 12.0321 11.3215 11.8867 11.2554C10.1588 10.4686 8.36846 9.86004 6.53691 9.35911C6.04847 9.22555 6.04745 9.39528 6.15173 9.7651C6.53312 11.1176 6.89876 12.4744 7.28854 13.8246C7.34606 14.0239 7.34994 14.2806 7.64282 14.3629C7.82457 14.414 7.85772 14.6011 7.80655 14.7684C7.7515 14.948 7.59728 14.9933 7.42004 14.9933C6.67711 14.9902 5.93294 15.0167 5.19154 14.983C4.57754 14.9547 4.35496 14.4829 4.21252 13.9714C3.78081 12.4224 3.35138 10.8728 2.92425 9.32263C2.74342 8.66954 2.14519 8.20142 1.47112 8.18589C0.234321 8.15687 0.00141153 7.91488 0.0013092 6.65838C0.0013092 6.19598 -0.00206779 5.73357 0.00202553 5.27117C0.00918884 4.46818 0.343715 4.22037 1.11091 4.06249C4.82416 3.30068 8.56525 2.62062 12.0188 0.95035C12.4517 0.740967 12.5313 0.197019 12.9678 0H14.7799ZM12.2164 1.65698C12.1199 1.68151 12.0502 1.68927 11.9889 1.71625C9.07589 2.99565 6.0541 3.89572 2.8915 4.3056C2.53784 4.35148 2.35875 4.51375 2.36735 4.89481C2.38413 5.63445 2.39754 6.37593 2.36336 7.11434C2.33931 7.63632 2.45853 7.89383 3.05431 7.97201C5.03077 8.23095 6.96742 8.69754 8.85578 9.33387C10.0007 9.71953 11.1187 10.1841 12.2813 10.6255C12.2813 8.50124 12.2813 6.42048 12.2813 4.33973C12.2813 4.15477 12.2747 3.96899 12.2898 3.78505C12.3072 3.57229 12.4356 3.44027 12.6513 3.44129C12.8787 3.44241 12.9747 3.58599 12.9702 3.806C12.9668 3.96787 12.9702 4.12983 12.9702 4.2917C12.9702 6.48875 12.9937 8.68579 12.9568 10.8822C12.9448 11.5975 13.3389 11.5784 13.8421 11.5904C14.3721 11.603 14.764 11.5633 14.6844 10.8677C14.6346 10.434 14.675 9.99002 14.675 9.55061C14.675 6.82178 14.6737 4.09294 14.6712 1.36411C14.6712 1.12765 14.7664 0.840396 14.4386 0.706938C13.5917 0.362257 12.9976 0.773871 12.9564 1.67926C12.9407 2.02261 13.2295 2.62521 12.6837 2.66701C12.0285 2.71678 12.4092 2.02813 12.2164 1.65698ZM3.48565 8.77694C3.95382 10.4426 4.43611 12.0689 4.85691 13.7107C4.98196 14.1987 5.20484 14.3515 5.67168 14.3094C6.00048 14.2797 6.33419 14.3036 6.70791 14.3036C6.33613 12.9642 5.88085 11.7442 5.6811 10.484C5.48667 9.25876 4.85803 8.76724 3.70177 8.75426C3.65716 8.75364 3.61233 8.76315 3.48565 8.77694ZM1.68458 6.15541C1.68458 5.85692 1.68223 5.55842 1.6853 5.25993C1.68806 4.98402 1.74261 4.70229 1.28917 4.73775C0.92292 4.76636 0.664939 4.8195 0.683154 5.27557C0.706691 5.84864 0.706998 6.42416 0.683154 6.99734C0.663608 7.46996 0.936735 7.48355 1.29961 7.50715C1.76359 7.53781 1.6854 7.24943 1.68479 6.98211C1.68366 6.70661 1.68418 6.43101 1.68418 6.15541H1.68458Z" />
<path d="M20.4949 6.38578C19.2786 6.6106 18.0513 6.44802 16.8296 6.48266C16.6022 6.4891 16.4222 6.38119 16.4408 6.10589C16.46 5.81844 16.6682 5.79503 16.8885 5.79698C18.0907 5.8074 19.2929 5.81857 20.4952 5.83049L20.4949 6.38578Z" />
<path d="M18.117 3.29603C18.1103 3.47414 18.0215 3.57817 17.8831 3.62303C17.4431 3.7666 17.0673 4.17341 16.5471 3.9859C16.4004 3.93307 16.392 3.71806 16.4641 3.62569C16.7735 3.22858 17.2753 3.16206 17.7087 2.99151C17.9286 2.90506 18.0836 3.07755 18.117 3.29603Z" />
<path d="M16.8608 8.17773C17.1975 8.33919 17.613 8.52446 18.0131 8.73824C18.1434 8.80793 18.1502 8.97051 18.0799 9.10611C17.9944 9.27094 17.8378 9.34196 17.6736 9.27983C17.3107 9.14198 16.9557 8.98206 16.6039 8.81774C16.4299 8.7366 16.4095 8.56942 16.4534 8.40398C16.4934 8.25243 16.616 8.19306 16.8608 8.17773Z" />
<path d="M18.9182 3.18568C18.5915 3.21368 18.4526 3.04609 18.4762 2.8689C18.5231 2.51594 18.8511 2.4301 19.1413 2.38463C19.346 2.35254 19.5129 2.53075 19.4937 2.71878C19.4554 3.09105 19.0956 3.09494 18.9182 3.18568Z" />
<path d="M19.5072 9.54012C19.4604 9.74337 19.3537 9.88919 19.134 9.85935C18.8364 9.81909 18.5148 9.74695 18.4752 9.38857C18.4559 9.21485 18.6179 9.01487 18.8299 9.06157C19.1085 9.12237 19.4194 9.19094 19.5072 9.54012Z" />
</g>
<defs>
<clipPath id="clip0_310_6103">
<rect width="20.4951" height="15" fill="white"/>
</clipPath>
</defs>
</svg>
