<svg width="18" height="18" viewBox="0 0 15 15" fill="#252525" xmlns="http://www.w3.org/2000/svg">
<path d="M7.65773 0C8.31318 0.273443 8.96864 0.546886 9.62409 0.820329C10.498 1.18492 11.372 1.54587 12.2459 1.90681C12.5289 2.02348 12.7187 2.22036 12.7581 2.53026C12.7939 2.82558 12.6901 3.06986 12.4429 3.24121C12.3641 3.2959 12.271 3.33236 12.1814 3.37247C11.791 3.53653 11.4006 3.7006 10.9995 3.86466C11.3218 4.70687 11.3541 5.55636 11.0783 6.40586C10.8025 7.259 10.276 7.92256 9.5059 8.43299C9.66707 8.47309 9.81034 8.50591 9.95361 8.54236C11.4651 8.93977 12.7044 9.74551 13.6356 11.0106C14.2839 11.893 14.6922 12.881 14.9573 13.9347C14.9967 14.0914 15.0146 14.2664 14.9859 14.4196C14.925 14.7586 14.6349 14.981 14.2875 14.9993C13.9687 15.0139 13.6643 14.8097 13.5568 14.4925C13.4494 14.168 13.3706 13.8362 13.256 13.5154C12.8405 12.3305 12.1707 11.3388 11.0926 10.6533C10.3798 10.2013 9.59902 9.9351 8.76448 9.84395C8.23797 9.78562 7.70071 9.74916 7.17061 9.7601C6.04595 9.78926 4.96427 10.019 3.98646 10.6169C3.28444 11.0471 2.73286 11.6195 2.31021 12.3232C1.92697 12.9612 1.68341 13.6503 1.49716 14.3649C1.39687 14.7513 1.13182 14.981 0.787979 14.9956C0.429807 15.0102 0.150432 14.7951 0.0179086 14.4013C0.0179086 14.3977 0.00716345 14.394 0 14.3868C0 14.2993 0 14.2118 0 14.1243C0.0107452 14.0987 0.0250721 14.0696 0.0286538 14.044C0.247139 13.1945 0.54084 12.3779 0.984974 11.6195C1.80877 10.2195 2.97999 9.23509 4.52372 8.70643C4.83891 8.59705 5.16485 8.51684 5.46929 8.42934C3.91482 7.259 3.4098 5.74595 3.9972 3.86102C3.96139 3.84643 3.91841 3.82456 3.87543 3.80633C3.50651 3.64955 3.13043 3.50007 2.76151 3.33601C2.64689 3.28496 2.53228 3.21569 2.4499 3.12454C2.08456 2.72349 2.24216 2.12921 2.77584 1.90681C3.67127 1.53128 4.5667 1.16304 5.46213 0.791162C6.0961 0.528657 6.73006 0.262505 7.36403 0C7.46073 0 7.56102 0 7.65773 0ZM5.42273 4.45165C5.08963 5.25011 5.25081 6.35117 6.1534 7.0439C6.9772 7.67828 8.16633 7.64547 8.95431 6.97462C9.82109 6.2418 9.90347 5.13344 9.59186 4.44801C9.04027 4.6777 8.48511 4.9001 7.9371 5.14073C7.6434 5.26834 7.37119 5.26834 7.08107 5.13708C6.52948 4.9001 5.97432 4.68135 5.42273 4.45165ZM4.97502 2.62505C5.02874 2.65058 5.05381 2.66516 5.08247 2.6761C5.8597 3.00058 6.63694 3.32507 7.41775 3.64226C7.47506 3.66778 7.56102 3.66049 7.62191 3.63497C8.2308 3.38705 8.83611 3.13184 9.44501 2.88027C9.642 2.79641 9.839 2.7162 10.0575 2.62505C9.21578 2.27505 8.39556 1.93233 7.57893 1.59326C7.53953 1.57868 7.48222 1.58232 7.43924 1.59691C6.62261 1.93598 5.80956 2.27869 4.97502 2.62505Z"/>
</svg>
