<svg width="17" height="18" viewBox="0 0 16 15" fill="none" xmlns="http://www.w3.org/2000/svg">
<g clip-path="url(#clip0_310_6054)">
<path d="M0.833423 0H8.99936C9.57611 0.550462 10.129 1.12924 10.7385 1.64249C11.2845 2.10519 11.4868 2.64554 11.4625 3.35212C11.422 4.55537 11.4512 5.76105 11.4512 7.14509C11.8463 6.69453 12.1181 6.4017 12.3709 6.09351C13.3416 4.90805 14.2459 4.94082 15.0403 6.19665V7.01203C14.3143 7.88282 13.649 8.81347 12.8481 9.60903C11.7852 10.6647 11.2522 11.8137 11.4224 13.3523C11.5523 14.5252 10.9824 14.9956 9.76418 14.9976C7.10179 15.0016 4.43927 15.0016 1.77661 14.9976C0.462943 14.9976 0.0168294 14.5527 0.016425 13.2499C0.0152116 9.4796 0.0366477 5.70887 0.000246795 1.93855C-0.00743784 1.12762 0.162029 0.478065 0.833423 0ZM10.4724 12.4034C9.96439 12.6246 9.47661 12.8459 8.98116 13.0505C8.71381 13.1605 8.42867 13.3579 8.15162 13.0873C7.91906 12.8604 8.06345 12.5895 8.08893 12.3229C8.21512 11.0048 8.91604 9.99043 9.81999 9.10589C10.3895 8.54895 10.5965 7.93297 10.5504 7.1463C10.493 6.17157 10.5169 5.18996 10.5456 4.2128C10.5589 3.75738 10.4954 3.55111 9.94619 3.54747C7.94858 3.53331 7.93402 3.50702 7.90612 1.5252C7.90005 1.0803 7.79934 0.918516 7.32492 0.926605C5.44703 0.95249 3.56875 0.960984 1.69168 0.924178C1.04455 0.91164 0.923212 1.18626 0.927256 1.75088C0.943704 5.58241 0.942626 9.41381 0.924021 13.2451C0.919976 13.8922 1.13717 14.0807 1.77337 14.0722C4.24944 14.0402 6.72632 14.0588 9.2032 14.0592C10.5933 14.0592 10.5937 14.0592 10.5302 12.6841C10.5278 12.606 10.4995 12.5292 10.4724 12.4034ZM13.0928 7.88686C13.0698 7.66846 12.8785 7.59565 12.7393 7.47432C12.5832 7.33802 12.474 7.35298 12.3393 7.51476C11.6639 8.32367 10.9824 9.12854 10.2948 9.92936C10.1205 10.1316 10.1969 10.2622 10.3834 10.3775C10.5512 10.4814 10.7118 10.7625 10.929 10.513C11.64 9.6972 12.3288 8.862 13.0241 8.03246C13.053 7.98698 13.0761 7.93807 13.0928 7.88686ZM8.96741 1.21822C8.55163 2.60509 8.70451 2.76364 10.1925 2.54806C9.79735 2.11853 9.38359 1.66878 8.96538 1.21983L8.96741 1.21822ZM9.22666 11.9035C9.52919 11.7114 10.0517 11.825 10.076 11.3373C10.0817 11.2159 9.73991 10.9417 9.60968 10.9708C9.14941 11.0736 9.27762 11.527 9.22464 11.9051L9.22666 11.9035ZM13.7072 6.18209C13.4156 6.18209 13.1859 6.38755 13.2041 6.60636C13.2215 6.81465 13.4872 7.03306 13.7327 7.04843C13.9883 7.0642 14.0696 6.80292 14.0902 6.59463C14.1157 6.3471 13.9883 6.17845 13.7072 6.18209Z" fill="#252525"/>
<path d="M5.72644 8.80637C4.64088 8.80637 3.55533 8.80637 2.46977 8.80637C2.15996 8.80637 1.82264 8.81163 1.80727 8.39949C1.78948 7.94407 2.14944 7.90444 2.48959 7.90403C4.6607 7.90107 6.83127 7.90201 9.00131 7.90686C9.30586 7.90686 9.64196 7.9283 9.66016 8.3372C9.68119 8.81405 9.32042 8.80677 8.98149 8.80637C7.89701 8.80502 6.81199 8.80502 5.72644 8.80637Z" fill="#252525"/>
<path d="M5.73391 6.19394C4.64957 6.19394 3.56563 6.1899 2.4817 6.19637C2.12942 6.19839 1.79412 6.17372 1.81435 5.71103C1.83376 5.27826 2.19453 5.31466 2.48331 5.31345C4.65173 5.30698 6.81974 5.30698 8.98735 5.31345C9.28058 5.31345 9.6369 5.28999 9.65672 5.71547C9.67815 6.1806 9.33315 6.19758 8.98573 6.19597C7.90179 6.19071 6.81785 6.19394 5.73391 6.19394Z" fill="#252525"/>
<path d="M4.35093 3.56172C3.69936 3.56172 3.04778 3.56657 2.39661 3.56172C2.06658 3.55848 1.78993 3.45575 1.8053 3.05858C1.81824 2.70589 2.07467 2.625 2.37153 2.625C3.72861 2.625 5.08569 2.625 6.44277 2.625C6.73964 2.625 7.00901 2.69538 7.03853 3.03512C7.07008 3.41692 6.80355 3.55767 6.46664 3.56091C5.76208 3.56738 5.05549 3.55969 4.35093 3.56172Z" fill="#252525"/>
<path d="M4.42748 10.5723C5.10616 10.5723 5.78443 10.5755 6.4631 10.5723C6.76361 10.5723 7.02934 10.6366 7.04066 10.988C7.05199 11.3395 6.79799 11.4329 6.49303 11.4329C5.10899 11.4329 3.72495 11.4329 2.3409 11.4329C2.03028 11.4329 1.79246 11.3375 1.80945 10.9796C1.82644 10.6123 2.10106 10.5751 2.39227 10.5751C3.07094 10.5735 3.74921 10.5723 4.42748 10.5723Z" fill="#252525"/>
</g>
<defs>
<clipPath id="clip0_310_6054">
<rect width="15.0417" height="15" fill="white"/>
</clipPath>
</defs>
</svg>
