<svg width="20" height="18" viewBox="0 0 20 19" fill="none" xmlns="http://www.w3.org/2000/svg">
<g clip-path="url(#clip0_310_6081)">
<path d="M0 18.0792V3.93272C0.236215 3.4741 0.584347 3.14573 1.08916 3H19.0622C19.6961 3.22121 20.1488 3.59101 20.149 4.32871C20.149 8.78092 20.1484 13.2331 20.1473 17.6851C20.1473 18.4014 19.6747 18.909 18.9636 18.9798C18.8093 18.995 18.6541 18.989 18.4976 18.989C12.914 18.989 7.32981 18.98 1.74709 19C0.964148 19.0029 0.352656 18.8228 0 18.0792ZM10.0663 3.89676C7.2271 3.89676 4.388 3.89676 1.54897 3.89676C0.934859 3.89724 0.86009 3.97391 0.86009 4.5954C0.86009 8.86918 0.86009 13.143 0.86009 17.417C0.86009 18.0425 0.931526 18.1163 1.54826 18.1163C7.22647 18.1163 12.9047 18.1163 18.5829 18.1163C19.2206 18.1163 19.2911 18.0435 19.2913 17.3982C19.2913 13.1372 19.2913 8.87633 19.2913 4.61541C19.2913 3.96486 19.2256 3.89771 18.5836 3.89747C15.7446 3.89652 12.9055 3.89628 10.0663 3.89676Z" fill="#252525"/>
<path d="M10.0768 13.5352C7.77201 13.5338 5.86967 11.6403 5.86038 9.33862C5.8511 7.03695 7.79654 5.10008 10.0946 5.11532C12.3927 5.13056 14.3034 7.05362 14.2915 9.33767C14.2796 11.642 12.377 13.5369 10.0768 13.5352ZM13.4138 9.32552C13.4127 8.44164 13.0615 7.59418 12.4371 6.96857C11.8127 6.34297 10.9659 5.99015 10.082 5.98732C8.24659 5.98232 6.74595 7.47486 6.73809 9.31338C6.73 11.1752 8.22301 12.6671 10.0889 12.6616C10.5265 12.6618 10.9599 12.5755 11.3641 12.4078C11.7683 12.2401 12.1354 11.9942 12.4443 11.6842C12.7533 11.3743 12.9979 11.0063 13.1643 10.6016C13.3307 10.1968 13.4155 9.76315 13.4138 9.32552Z" fill="#252525"/>
<path d="M12.2157 16.4561C10.6224 16.4561 9.0289 16.4611 7.43564 16.4506C7.20419 16.4492 7.06465 16.509 6.93344 16.7088C6.4022 17.5184 5.33613 17.4986 4.79632 16.7011C4.71488 16.5821 4.52581 16.4771 4.37984 16.4671C3.92742 16.4368 3.47356 16.4502 3.02042 16.4578C2.72348 16.4628 2.52608 16.3261 2.52251 16.0384C2.51894 15.7508 2.72015 15.6027 3.00923 15.6003C3.44975 15.5965 3.89027 15.5894 4.33055 15.6022C4.5551 15.6086 4.69464 15.5574 4.83322 15.3481C5.34256 14.5785 6.35934 14.55 6.88915 15.3005C7.06822 15.5536 7.25086 15.6044 7.52612 15.6039C10.6353 15.5971 13.7444 15.5956 16.8533 15.5996C16.9569 15.5996 17.0607 15.5965 17.1643 15.6015C17.4545 15.6158 17.6438 15.7708 17.6293 16.0592C17.616 16.3247 17.4324 16.4599 17.1514 16.4585C16.2835 16.454 15.4155 16.4585 14.5476 16.4585L12.2157 16.4561ZM5.96144 15.5765L5.78356 15.5791C5.68141 15.7289 5.5133 15.8699 5.4921 16.0301C5.45996 16.2737 5.64688 16.4742 5.89 16.4218C6.04335 16.389 6.25623 16.1813 6.26385 16.042C6.27218 15.893 6.07216 15.732 5.96144 15.5765Z" fill="#252525"/>
<path d="M7.96375 9.30472C7.96375 8.80038 7.95446 8.2958 7.96613 7.79194C7.97828 7.28451 8.24664 7.11068 8.70573 7.3338C9.77505 7.8529 10.8387 8.38383 11.8965 8.92658C12.2797 9.12255 12.2797 9.53974 11.8918 9.73857C10.8217 10.2872 9.7456 10.8227 8.66358 11.3452C8.25378 11.543 7.98018 11.3592 7.96732 10.8951C7.95303 10.3655 7.96399 9.83406 7.96375 9.30472ZM10.7809 9.33067L8.87337 8.37509V10.2865L10.7809 9.33067Z" fill="#252525"/>
</g>
<defs>
<clipPath id="clip0_310_6081">
<rect width="20" height="19" fill="white"/>
</clipPath>
</defs>
</svg>
