<svg width="18" height="18" viewBox="0 0 18 18" fill="none" xmlns="http://www.w3.org/2000/svg">
<path fill-rule="evenodd" clip-rule="evenodd" d="M16.8149 4.42478L17.9411 11.8053C18.3969 15.0354 16.1535 17.9735 13.1145 18H4.83784C1.85253 18 -0.417746 15.0354 0.0649105 11.8053L1.19111 4.42478C1.45847 1.9844 3.48701 0.103825 5.96404 0H12.0419C14.519 0.103825 16.5475 1.9844 16.8149 4.42478ZM13.1413 16.646C14.101 16.6323 15.0062 16.202 15.6172 15.469C16.4365 14.5083 16.7922 13.2416 16.5914 12L15.492 4.61947C15.335 2.81795 13.8652 1.40418 12.0419 1.30088H5.96404C4.14073 1.40418 2.67093 2.81795 2.51394 4.61947L1.41456 12C1.21373 13.2416 1.56945 14.5083 2.38881 15.469C2.99974 16.202 3.90495 16.6323 4.86466 16.646H13.1413Z" fill="#5C5C5C"/>
<path d="M11.8185 4.60177C11.4483 4.60177 11.1481 4.89893 11.1481 5.26549C11.1481 6.43848 10.1877 7.38938 9.00299 7.38938C7.81826 7.38938 6.85785 6.43848 6.85785 5.26549C6.85785 4.89893 6.55772 4.60177 6.18749 4.60177C5.81727 4.60177 5.51714 4.89893 5.51714 5.26549C5.51714 6.49853 6.18154 7.6379 7.26006 8.25442C8.33859 8.87094 9.66739 8.87094 10.7459 8.25442C11.8244 7.6379 12.4888 6.49853 12.4888 5.26549C12.484 4.90092 12.1867 4.60654 11.8185 4.60177Z" fill="#5C5C5C"/>
</svg>
