<svg width="12" height="18" viewBox="0 0 10 16" fill="none" xmlns="http://www.w3.org/2000/svg">
<g clip-path="url(#clip0_322_6144)">
<path d="M9.76233 5.42373C9.68337 5.69782 9.59574 5.97094 9.52544 6.24794C9.39544 6.76029 9.14025 7.21065 8.87928 7.66489C8.57787 8.19661 8.4546 8.79709 8.32268 9.38692C8.15993 10.1104 8.03378 10.8397 7.89415 11.5709C7.87356 11.7121 7.86262 11.8545 7.86141 11.9971C7.84696 12.3012 7.67652 12.4814 7.37125 12.4814C5.71235 12.4865 4.05281 12.4865 2.39263 12.4814C2.33027 12.4867 2.26749 12.4791 2.20815 12.4591C2.1488 12.4391 2.09414 12.4072 2.04752 12.3652C2.0009 12.3232 1.9633 12.272 1.93703 12.2149C1.91077 12.1578 1.89639 12.0959 1.89477 12.0329C1.83796 11.2126 1.6521 10.4145 1.48454 9.61162C1.37476 9.09056 1.22839 8.58015 1.06853 8.07264C0.916381 7.58838 0.596671 7.20097 0.39926 6.74189C-0.0638261 5.68569 -0.126334 4.49551 0.223541 3.39612C0.573417 2.29674 1.31145 1.36426 2.29826 0.774818C3.01087 0.342857 3.75525 0.0755448 4.58631 0.0658596C4.63831 0.064891 4.69801 0.0736077 4.71823 0H4.91083C4.92816 0.0726392 4.98691 0.0658596 5.03891 0.064891C5.92967 0.0455206 6.73183 0.315738 7.48392 0.785472C8.5099 1.4118 9.2615 2.4062 9.58707 3.56804C9.65352 3.78886 9.63137 4.03196 9.76233 4.23341V5.42373ZM4.87135 11.8479C5.59262 11.8479 6.31582 11.8479 7.03517 11.8479C7.19213 11.8479 7.3048 11.8421 7.31732 11.6349C7.36836 10.7806 7.56481 9.94964 7.768 9.12349C7.93074 8.46005 8.05015 7.77724 8.43631 7.18644C9.44551 5.65036 9.39255 3.50605 8.10793 2.0891C7.19791 1.08184 6.05967 0.600484 4.73749 0.63632C4.16715 0.644051 3.60458 0.7706 3.0853 1.00798C2.56603 1.24536 2.10131 1.58841 1.72047 2.0155C1.14268 2.64504 0.73823 3.37724 0.647709 4.23438C0.534077 5.29976 0.716081 6.30896 1.33143 7.21356C1.44027 7.36389 1.52688 7.52929 1.58854 7.7046C2.00531 8.96737 2.2887 10.2708 2.43404 11.5932C2.4533 11.7869 2.50434 11.8576 2.70849 11.8538C3.4288 11.8412 4.15007 11.8489 4.87135 11.8479Z" fill="#252525"/>
<path d="M4.8918 13.0371C5.61211 13.0371 6.33628 13.0371 7.05274 13.0371C7.50534 13.0371 7.68734 13.2114 7.70853 13.6599C7.71575 13.7918 7.71575 13.924 7.70853 14.056C7.68445 14.4618 7.49378 14.6419 7.08451 14.6536C6.60976 14.6681 6.60976 14.6681 6.60976 15.1582C6.60976 15.255 6.60976 15.3519 6.60976 15.4555C6.60399 15.7848 6.4528 15.9795 6.12827 15.9862C5.33221 16.003 4.5355 16.003 3.73815 15.9862C3.37896 15.9785 3.24896 15.8051 3.2451 15.4342C3.2451 15.2473 3.20659 15.0468 3.25473 14.8753C3.32214 14.6323 3.21525 14.6361 3.04288 14.6526C2.92324 14.6594 2.80332 14.6594 2.68369 14.6526C2.27923 14.6448 2.07893 14.4589 2.05293 14.0608C2.04523 13.9407 2.04715 13.8187 2.05293 13.6976C2.06641 13.2134 2.24553 13.0361 2.73761 13.0352C3.45118 13.0352 4.17149 13.0371 4.8918 13.0371Z" fill="#252525"/>
<path d="M4.25448 7.80689C4.21404 7.31488 4.40471 6.96524 4.69456 6.66694C4.96901 6.3851 5.25695 6.11876 5.54391 5.84951C5.83088 5.58026 5.95992 5.28486 5.82222 4.9081C5.68932 4.54684 5.37732 4.38704 4.94879 4.35701C4.28048 4.30955 4.04166 4.7357 3.80477 5.35556C3.65936 5.74297 3.37046 5.92505 3.01031 5.81173C2.72815 5.72263 2.58948 5.3788 2.65786 5.02142C2.8206 4.16524 3.73832 3.47759 4.51063 3.4282C5.07109 3.39043 5.61421 3.39043 6.12363 3.64708C7.12609 4.15459 7.57484 5.45725 6.5483 6.40641C6.32489 6.61367 6.10822 6.82868 5.88192 7.03207C5.59303 7.2926 5.3648 7.57735 5.30413 7.98994C5.2762 8.19817 5.17509 8.41803 4.91894 8.45968C4.808 8.48546 4.69197 8.4777 4.5854 8.43738C4.47884 8.39706 4.38649 8.32597 4.31996 8.23304C4.20441 8.07711 4.27374 7.91149 4.25448 7.80689Z" fill="#252525"/>
<path d="M4.80467 10.2059C4.38289 10.2059 4.13059 9.94828 4.14407 9.52794C4.14432 9.4407 4.1617 9.35437 4.19522 9.2739C4.22873 9.19343 4.27772 9.12042 4.33937 9.05904C4.40102 8.99767 4.47412 8.94914 4.55446 8.91626C4.63481 8.88337 4.72082 8.86677 4.80756 8.86741C4.89753 8.86508 4.98706 8.8809 5.07085 8.91393C5.15465 8.94696 5.23102 8.99652 5.29546 9.05971C5.3599 9.1229 5.41111 9.19843 5.44607 9.28184C5.48102 9.36525 5.49901 9.45486 5.49898 9.54538C5.49898 9.94538 5.21683 10.2108 4.80467 10.2059Z" fill="#252525"/>
</g>
<defs>
<clipPath id="clip0_322_6144">
<rect width="9.76271" height="16" fill="white"/>
</clipPath>
</defs>
</svg>
