<svg width="16" height="18" viewBox="0 0 13 15" fill="#252525" xmlns="http://www.w3.org/2000/svg">
<g clip-path="url(#clip0_310_6122)">
<path d="M0 7.76373V7.47279C0.16148 7.00546 0.544995 6.9828 0.954812 7.01342V5.80619C0.536432 5.84846 0.159645 5.81232 0 5.34254V5.05282C0.162703 4.58794 0.5505 4.56283 0.957259 4.59284V3.39358C0.864829 3.40067 0.771992 3.40067 0.679562 3.39358C0.544384 3.36908 0.390855 3.36173 0.284425 3.28945C0.166373 3.20983 0.0929734 3.06283 0 2.94768V2.63408C0.0104755 2.62092 0.019308 2.60652 0.0263017 2.59121C0.0651845 2.4692 0.142551 2.36312 0.24678 2.2889C0.351009 2.21468 0.476474 2.17633 0.604327 2.17961C0.687514 2.17961 0.771312 2.1741 0.853887 2.17961C0.936462 2.18512 0.966434 2.15144 0.965822 2.0663C0.961745 1.77639 0.961745 1.48688 0.965822 1.19778C0.965325 1.03951 0.996261 0.882729 1.05683 0.736544C1.1174 0.590359 1.2064 0.457694 1.31864 0.346267C1.43089 0.234841 1.56414 0.146876 1.71064 0.087491C1.85715 0.0281061 2.01399 -0.0015137 2.17203 0.000354798H11.3525C11.4222 -0.0014255 11.4918 0.00349707 11.5605 0.0150547C11.8447 0.0621526 12.1022 0.210671 12.2855 0.433154C12.4687 0.655638 12.5654 0.937041 12.5575 1.22534C12.5575 4.76434 12.5575 8.30334 12.5575 11.8423C12.5575 12.5087 12.5575 13.1753 12.5575 13.8421C12.5537 14.1299 12.4414 14.4056 12.2431 14.6139C12.0596 14.8227 11.8192 14.9287 11.5605 15.0034H1.97018C1.89984 14.982 1.82827 14.9636 1.75977 14.9379C1.5259 14.853 1.32396 14.6978 1.18161 14.4935C1.03926 14.2892 0.963461 14.0459 0.964599 13.7968C0.964599 13.5616 0.964599 13.3264 0.964599 13.0722C0.543772 13.1065 0.162092 13.0722 0.000611667 12.6092V12.3195C0.159645 11.846 0.551112 11.8221 0.963987 11.8546C0.963987 11.4626 0.963987 11.0957 0.963987 10.7294C0.962988 10.7116 0.959908 10.6939 0.954812 10.6768C0.758467 10.6541 0.563957 10.6541 0.38168 10.6057C0.178607 10.5524 0.0758467 10.3785 0.00122333 10.188V9.89827C0.163315 9.43278 0.544995 9.3997 0.957259 9.434V8.22984C0.541325 8.26475 0.159033 8.23351 0 7.76373ZM1.45577 3.39296V4.59039C1.5781 4.59039 1.68881 4.59039 1.80197 4.59039C1.8832 4.58863 1.96395 4.60337 2.03933 4.63373C2.11472 4.66409 2.18317 4.70943 2.24057 4.76702C2.29796 4.82461 2.34311 4.89325 2.37328 4.96879C2.40344 5.04434 2.41801 5.12522 2.41609 5.20656C2.41609 5.55078 2.14879 5.80864 1.79157 5.81171C1.68025 5.81171 1.56831 5.81171 1.45638 5.81171V7.01036C1.56893 7.01036 1.67352 7.01036 1.7775 7.01036C2.15857 7.01403 2.41792 7.26454 2.41609 7.62775C2.41609 7.97626 2.14512 8.23045 1.77628 8.23229C1.66924 8.23229 1.5622 8.23229 1.45883 8.23229V9.42665C1.58116 9.42665 1.68759 9.42665 1.79708 9.42665C1.8774 9.42665 1.95694 9.44249 2.03115 9.47327C2.10536 9.50406 2.17279 9.54917 2.22959 9.60605C2.28639 9.66292 2.33145 9.73044 2.36219 9.80475C2.39292 9.87907 2.40875 9.95871 2.40875 10.0391C2.40875 10.1196 2.39292 10.1992 2.36219 10.2735C2.33145 10.3478 2.28639 10.4154 2.22959 10.4722C2.17279 10.5291 2.10536 10.5742 2.03115 10.605C1.95694 10.6358 1.8774 10.6516 1.79708 10.6516C1.68514 10.6516 1.5726 10.6516 1.45638 10.6516V11.8411C1.50103 11.8411 1.53957 11.8478 1.57871 11.8478C2.15185 11.854 2.41853 12.0494 2.41731 12.4634C2.41609 12.8774 2.14695 13.0661 1.57076 13.0728C1.53345 13.0728 1.49553 13.0796 1.44843 13.0832C1.44843 13.3031 1.44843 13.512 1.44843 13.7227C1.44843 14.2078 1.75426 14.5104 2.23687 14.5104C5.25442 14.5104 8.27198 14.5104 11.2895 14.5104C11.7789 14.5104 12.0725 14.217 12.0725 13.7221C12.0725 10.569 12.0725 7.41583 12.0725 4.26271C12.0725 4.21616 12.0676 4.17022 12.0639 4.11326H11.8951C11.1684 4.11326 10.4418 4.11326 9.71511 4.11326C8.96154 4.11326 8.4563 3.6055 8.45508 2.85091C8.45508 2.11591 8.45508 1.38582 8.45508 0.653274V0.490351H2.23381C1.81115 0.490351 1.49981 0.726161 1.4625 1.12428C1.43069 1.46667 1.45638 1.81456 1.45638 2.17716C1.57871 2.17716 1.69432 2.17716 1.81115 2.17716C1.89127 2.17505 1.97098 2.18931 2.04541 2.21908C2.11984 2.24886 2.18742 2.29351 2.24404 2.35032C2.30066 2.40712 2.34511 2.47489 2.37469 2.54948C2.40427 2.62407 2.41836 2.70392 2.41609 2.78414C2.41657 2.86423 2.40118 2.94362 2.3708 3.01771C2.34041 3.09179 2.29565 3.1591 2.23909 3.21573C2.18254 3.27236 2.11532 3.31719 2.04133 3.34761C1.96735 3.37804 1.88807 3.39345 1.80809 3.39296C1.69493 3.39419 1.58116 3.39296 1.45577 3.39296ZM11.6773 3.62755L8.9438 0.882347C8.94009 0.885939 8.93771 0.890694 8.93707 0.895822C8.93707 1.57508 8.92789 2.25434 8.94074 2.93298C8.94559 3.11563 9.02058 3.28938 9.15012 3.41807C9.27966 3.54676 9.45376 3.62047 9.6362 3.62387C10.3182 3.63551 11.0008 3.62755 11.6773 3.62755ZM9.33526 0.495863L12.0615 3.23004C12.0645 3.18962 12.0694 3.14797 12.0694 3.10754C12.0694 2.49505 12.0694 1.88255 12.0694 1.26638C12.0694 0.782511 11.774 0.490963 11.2877 0.490351C10.6797 0.490351 10.0715 0.490351 9.4631 0.490351C9.41968 0.490351 9.3793 0.493413 9.33526 0.495863ZM1.21538 7.73861H1.77995C1.86069 7.73861 1.92125 7.70676 1.91819 7.61612C1.91513 7.52547 1.86008 7.49729 1.77628 7.49729C1.40031 7.49729 1.02413 7.49729 0.647756 7.49729C0.56151 7.49729 0.494839 7.5273 0.494839 7.61979C0.494839 7.71228 0.569462 7.73678 0.651426 7.73678L1.21538 7.73861ZM1.1952 10.1592C1.38787 10.1592 1.57994 10.1592 1.77261 10.1592C1.85152 10.1592 1.91635 10.1359 1.91758 10.0465C1.9188 9.95707 1.85886 9.92277 1.77383 9.92277C1.40194 9.92277 1.03005 9.92277 0.658154 9.92277C0.568239 9.92277 0.49545 9.94911 0.498509 10.0508C0.501567 10.1525 0.579861 10.1623 0.660601 10.1616C0.836761 10.1586 1.01598 10.1592 1.1952 10.1592ZM1.1952 12.5804C1.38787 12.5804 1.57994 12.5804 1.77261 12.5804C1.85396 12.5804 1.91391 12.5516 1.91758 12.4652C1.92125 12.3679 1.85641 12.3427 1.76894 12.3427C1.39786 12.3427 1.02617 12.3427 0.653872 12.3427C0.571909 12.3427 0.496674 12.3605 0.494839 12.4567C0.493004 12.5528 0.56885 12.5828 0.657542 12.5792C0.837372 12.5792 1.01659 12.5804 1.19581 12.5804H1.1952ZM1.20988 2.89868H1.74692C1.83133 2.89868 1.91574 2.89194 1.91696 2.78476C1.91819 2.67757 1.84234 2.66226 1.75365 2.66226C1.39114 2.66226 1.02862 2.66226 0.666106 2.66226C0.579249 2.66226 0.497285 2.67941 0.494839 2.77924C0.494839 2.89378 0.584754 2.90174 0.672834 2.90174L1.20988 2.89868ZM1.19459 5.31804H1.77383C1.85213 5.31804 1.9188 5.29721 1.92063 5.20717C1.92247 5.11714 1.85947 5.08467 1.77139 5.08467C1.39644 5.08467 1.02087 5.08467 0.645309 5.08467C0.559675 5.08467 0.494839 5.11836 0.497897 5.21146C0.500955 5.30456 0.570685 5.31987 0.647756 5.31987L1.19459 5.31804Z" />
<path d="M9.27965 10.8927L7.49848 12.6886C7.16206 12.2861 6.82564 11.888 6.49351 11.4881C6.37607 11.3478 6.24884 11.3276 6.10449 11.4305L4.09822 12.8392C3.97589 12.9268 3.85355 13.0169 3.72266 13.1106L4.00341 13.5124L6.23722 11.948C6.59443 12.3768 6.94064 12.7939 7.29051 13.2086C7.40979 13.35 7.55781 13.3488 7.68687 13.2171C7.76945 13.1326 7.85263 13.0493 7.93582 12.966C8.38438 12.5169 8.83293 12.0677 9.28149 11.6185C9.39954 11.5009 9.51882 11.3852 9.63687 11.2688L9.66623 11.2859V11.8501H10.147C10.147 11.4354 10.147 11.0324 10.147 10.6293C10.147 10.4866 10.0473 10.3997 9.89866 10.3984C9.6228 10.3984 9.34816 10.3984 9.07169 10.3984H8.70469V10.8927H9.27965Z" />
<path d="M6.76674 7.50073H8.37603C8.47696 7.50073 8.57788 7.50073 8.6782 7.50073C8.85069 7.50073 8.93265 7.58648 8.9351 7.76165C8.94188 8.20747 8.81697 8.64536 8.57605 9.02033C8.40458 9.30182 8.17668 9.54465 7.90674 9.73346C7.6368 9.92228 7.33068 10.053 7.00773 10.1173C6.42577 10.2352 5.82084 10.135 5.30779 9.83574C4.79474 9.53647 4.4093 9.05897 4.22464 8.4939C4.03998 7.92884 4.06897 7.31554 4.3061 6.77046C4.54324 6.22538 4.972 5.78648 5.51098 5.53707C5.81146 5.39092 6.14154 5.3161 6.47558 5.31841C6.67499 5.32147 6.76551 5.406 6.76612 5.60628C6.76612 6.1808 6.76612 6.75532 6.76612 7.32984L6.76674 7.50073ZM6.2774 5.84699C5.46694 5.89844 4.58308 6.66713 4.59287 7.76717C4.60205 8.84209 5.52199 9.72715 6.58385 9.67631C7.67384 9.6267 8.37236 8.74042 8.40784 7.99256H8.25737C7.69708 7.99256 7.13679 7.99256 6.57712 7.99256C6.36242 7.99256 6.28168 7.91049 6.28168 7.69979C6.28168 7.12813 6.28168 6.55831 6.28168 5.99032L6.2774 5.84699Z" />
<path d="M9.27917 10.8927H8.70114V10.3984H9.06814C9.34339 10.3984 9.61865 10.3984 9.89512 10.3984C10.0438 10.3984 10.1398 10.4866 10.1435 10.6293C10.1483 11.0324 10.1435 11.4354 10.1435 11.8501H9.66391V11.2859L9.63455 11.2688C9.5165 11.3852 9.39722 11.5009 9.27917 11.6185C8.83061 12.0677 8.38206 12.5169 7.9335 12.966C7.85032 13.0493 7.76713 13.1326 7.68455 13.2171C7.55549 13.3488 7.40747 13.35 7.28819 13.2086C6.93832 12.7939 6.59212 12.3762 6.2349 11.948L4.00048 13.5124L3.71973 13.1106C3.84879 13.0169 3.97112 12.9268 4.09529 12.8392L6.10401 11.4305C6.25081 11.3276 6.37559 11.3478 6.49303 11.4881C6.82638 11.888 7.16158 12.2843 7.49799 12.6886L9.27917 10.8927Z" />
<path d="M8.32206 7.26123C7.97586 7.26123 7.63026 7.26123 7.28223 7.26123C7.09016 7.26123 6.99902 7.17242 6.99902 6.98071C6.99902 6.27879 6.99902 5.57707 6.99902 4.87556C6.99902 4.68161 7.09771 4.58708 7.29507 4.59198C7.8584 4.60389 8.3999 4.81234 8.82614 5.18135C9.25238 5.55035 9.53661 6.05677 9.6298 6.61321C9.64998 6.73841 9.66102 6.86492 9.66283 6.99173C9.6665 7.16262 9.56741 7.26123 9.39676 7.26184C9.03955 7.26307 8.6805 7.26123 8.32206 7.26123ZM9.14108 6.76205C9.07992 5.95417 8.31594 5.16405 7.49631 5.12117V6.76205H9.14108Z" />
</g>
<defs>
<clipPath id="clip0_310_6122">
<rect width="12.5581" height="15" fill="white"/>
</clipPath>
</defs>
</svg>
