<svg width="17" height="18" viewBox="0 0 12 13" fill="#252525" xmlns="http://www.w3.org/2000/svg">
<path d="M7.29643 1.24643C6.94821 1.7875 6.31071 2.06071 5.71607 1.92679C5.31429 1.83571 4.96607 1.60536 4.75714 1.27857C4.54821 0.957143 4.5375 0.957143 3.77679 1.25179C3.06429 1.53036 2.86071 1.65893 2.88214 1.81964C2.89286 1.88929 2.90357 2.13036 2.90893 2.35C2.91429 2.6875 2.89286 2.79464 2.775 3.01964C2.60893 3.34107 2.3625 3.57679 2.03571 3.74821C1.84286 3.85 1.71429 3.87143 1.39286 3.86607C1.17321 3.86607 0.932143 3.85536 0.857143 3.84464C0.739286 3.82321 0.701786 3.86607 0.535714 4.17143C0.433929 4.36429 0.273214 4.75 0.176786 5.02857L0 5.5375L0.15 5.60714C0.535714 5.80536 0.857143 6.24464 0.964286 6.71607C1.0875 7.27321 0.792857 7.96429 0.3 8.275C0.166071 8.36071 0.0535714 8.46786 0.0535714 8.51607C0.0535714 8.66607 0.305357 9.33571 0.530357 9.78571C0.739286 10.2089 0.760714 10.225 0.873214 10.1607C0.9375 10.1286 1.1625 10.0964 1.36607 10.0964C2.41071 10.0911 3.09107 10.9857 2.87679 12.0786L2.83393 12.2929L3.31607 12.5232C3.58393 12.6518 3.975 12.8071 4.18929 12.8768L4.58036 13L4.65536 12.8607C4.78393 12.6089 5.14821 12.2714 5.42143 12.1536C5.78036 11.9982 6.27321 11.9982 6.63214 12.1536C6.90536 12.2714 7.275 12.6089 7.39821 12.8607L7.47321 13L7.92857 12.8554C8.18036 12.775 8.57143 12.6089 8.80179 12.4964L9.21964 12.2875L9.17679 12.1C8.93036 11.0339 9.64286 10.0857 10.6875 10.0964C10.8964 10.0964 11.1161 10.1286 11.1804 10.1607C11.2929 10.225 11.3089 10.2089 11.5125 9.8125C11.8714 9.09464 12.0857 8.40357 11.9518 8.40357C11.925 8.40357 11.7857 8.3125 11.6411 8.2C10.9339 7.6375 10.8375 6.61429 11.4375 5.95C11.5661 5.80536 11.7482 5.65536 11.8393 5.61786C11.925 5.58036 12 5.53214 12 5.51071C12 5.36607 11.7375 4.65893 11.5339 4.24643L11.2982 3.75893L11.0196 3.83393C10.2696 4.03214 9.39643 3.53929 9.18214 2.78929C9.09643 2.50536 9.10179 2.05 9.1875 1.7875C9.21429 1.69107 9.15536 1.64286 8.69464 1.42321C8.40536 1.28393 8.01429 1.12857 7.82143 1.075L7.47321 0.973214L7.29643 1.24643ZM6.6375 4.51964C7.62857 4.78214 8.3625 5.58571 8.52857 6.60357C8.72143 7.76071 7.99821 8.93929 6.87321 9.31964C6.39107 9.48036 5.73214 9.49107 5.27679 9.34107C4.32857 9.03036 3.62679 8.13571 3.55179 7.14464C3.42321 5.45179 5.025 4.08571 6.6375 4.51964Z" />
</svg>
