<svg width="20" height="20" viewBox="0 0 20 20" fill="none" xmlns="http://www.w3.org/2000/svg">
<path d="M13.9906 1.34193C15.3025 2.38064 16.0214 3.95602 16.2308 5.58485C16.2713 5.94138 16.3042 6.29787 16.3332 6.65552C16.4141 6.66247 16.4949 6.66942 16.5781 6.67659C16.9664 6.79132 17.0403 6.94383 17.25 7.28556C17.3531 7.45048 17.3531 7.45048 17.4584 7.61874C17.5303 7.73748 17.6023 7.85622 17.6764 7.97857C17.79 8.16196 17.9036 8.34536 18.0174 8.5286C18.0945 8.65286 18.1714 8.77725 18.2481 8.90177C18.4958 9.30294 18.7523 9.69661 19.0167 10.087C19.0819 10.1838 19.1472 10.2807 19.2144 10.3804C19.3374 10.5621 19.4614 10.7431 19.5867 10.9232C19.6413 11.0048 19.6958 11.0863 19.7521 11.1703C19.8002 11.2405 19.8484 11.3106 19.898 11.3828C20.0228 11.6861 19.9979 11.8309 19.8793 12.1357C19.629 12.3546 19.629 12.3546 19.3 12.5643C19.1224 12.6781 19.1224 12.6781 18.9411 12.7941C18.879 12.8326 18.8169 12.8712 18.7529 12.9108C18.5637 13.0285 18.3767 13.149 18.1898 13.2701C17.1315 13.9385 17.1315 13.9385 16.6556 13.855C16.5847 13.7487 16.5138 13.6423 16.4407 13.5327C16.1165 13.6039 16.1165 13.6039 16.0028 13.8145C15.8894 14.0601 15.7773 14.3059 15.6683 14.5535C15.6288 14.6372 15.5893 14.7208 15.5485 14.807C15.3124 15.3362 15.2177 15.755 15.2574 16.3349C15.2594 16.6575 15.1408 16.8377 14.9363 17.0787C14.5901 17.3294 14.2798 17.3126 13.8618 17.2936C13.8529 17.3756 13.844 17.4576 13.8349 17.5421C13.7543 17.8309 13.7543 17.8309 13.573 18.0189C13.3245 18.1533 13.3245 18.1533 13.0021 18.1868C12.6487 18.2311 12.6487 18.2311 12.4447 18.5764C12.3804 18.685 12.3161 18.7936 12.2499 18.9054C11.918 19.1267 11.8513 19.146 11.4776 19.1338C11.3424 19.1293 11.2072 19.1249 11.0679 19.1203C11.0435 19.2024 11.0192 19.2844 10.994 19.3688C10.8171 19.7312 10.6855 19.8239 10.3157 19.98C9.68197 20.0607 9.43371 19.8934 8.9188 19.5502C8.66811 19.5458 8.4173 19.5456 8.16661 19.5502C7.85789 19.3992 7.65673 19.2552 7.41442 19.0129C7.29696 19.0195 7.1795 19.0262 7.05848 19.033C6.54674 19.007 6.47356 18.8327 6.12496 18.4756C5.91141 18.4025 5.91141 18.4025 5.68171 18.3614C5.26532 18.2607 5.26532 18.2607 5.05041 18.0928C4.93411 17.8093 4.93824 17.6498 4.94967 17.3473C4.96385 17.0942 4.96385 17.0942 4.94295 16.8638C4.80437 16.716 4.66068 16.5728 4.51313 16.434C4.40215 16.0423 4.33007 15.6587 4.26348 15.2577C4.23765 15.1035 4.21131 14.9494 4.18449 14.7954C4.15759 14.6401 4.13201 14.4846 4.10784 14.3288C4.07414 14.133 4.02587 13.9399 3.97585 13.7476C3.86947 13.6767 3.76309 13.6057 3.65348 13.5327C3.47618 13.71 3.29888 13.8873 3.11621 14.0699C1.99918 13.5706 0.968728 12.8805 0 12.1357C0.0522254 11.5713 0.349159 11.1738 0.651449 10.712C0.768034 10.5315 0.884582 10.351 1.0011 10.1705C1.06428 10.0731 1.12746 9.97566 1.19256 9.8753C1.37549 9.59021 1.55549 9.3035 1.73402 9.01563C1.88742 8.76838 2.04186 8.52179 2.19638 8.27524C2.30917 8.09453 2.42077 7.91309 2.53236 7.73165C2.60203 7.62115 2.6717 7.51065 2.74347 7.39679C2.80504 7.29781 2.86661 7.19882 2.93005 7.09683C3.11621 6.87043 3.11621 6.87043 3.34098 6.77709C3.54603 6.76298 3.54603 6.76298 3.76094 6.87043C3.75595 6.78954 3.75097 6.70864 3.74583 6.6253C3.68424 4.81285 4.21362 3.1613 5.46554 1.81373C7.96071 -0.453365 11.2689 -0.577316 13.9906 1.34193ZM5.69514 2.57221C4.84286 3.67641 4.39376 4.89137 4.38552 6.28614C4.384 6.40374 4.38248 6.52134 4.38091 6.64251C4.40753 7.00297 4.43452 7.2049 4.62058 7.51516C4.87277 7.73237 5.14537 7.90867 5.4265 8.08602C5.53766 8.15926 5.53766 8.15926 5.65106 8.23398C6.01911 8.49765 6.01911 8.49765 6.44733 8.58972C6.37641 8.8734 6.30548 9.15708 6.23242 9.44936C7.00217 9.98435 7.6867 10.0841 8.60987 10.1277C8.79375 10.1394 8.79375 10.1394 8.98134 10.1514C9.31862 10.172 9.65575 10.1875 9.99336 10.2015C10.1349 10.2097 10.2765 10.2179 10.4223 10.2263C10.8037 10.1971 10.9606 10.0811 11.2828 9.87918C11.643 9.75342 12.0101 9.65264 12.3775 9.5501C12.5718 9.49576 12.7658 9.4408 12.9597 9.38514C13.0879 9.34939 13.0879 9.34939 13.2188 9.31292C13.4527 9.24372 13.4527 9.24372 13.6468 9.01954C13.6338 8.93754 13.6208 8.85554 13.6074 8.77105C13.6468 8.48226 13.6468 8.48226 13.8037 8.34668C14.0297 8.20462 14.2589 8.07309 14.4931 7.94499C15.0915 7.63474 15.0915 7.63474 15.5261 7.14285C15.8202 5.68579 15.3726 4.24409 14.6139 3.00204C13.7214 1.76975 12.4838 1.04525 11.0171 0.679152C9.00294 0.374067 7.06442 1.06529 5.69514 2.57221ZM15.853 7.73889C15.7477 7.80943 15.7477 7.80943 15.6402 7.88139C15.5675 7.93119 15.4948 7.98099 15.4199 8.03229C15.3471 8.08084 15.2744 8.12939 15.1995 8.17941C14.867 8.40402 14.5695 8.62078 14.2916 8.91208C15.6326 11.0088 15.6326 11.0088 16.978 13.1028C17.7469 12.748 18.4298 12.2922 19.1271 11.8134C19.0602 11.482 18.9506 11.2431 18.7686 10.9592C18.7168 10.8777 18.665 10.7962 18.6116 10.7123C18.5556 10.6258 18.4997 10.5392 18.442 10.45C18.3848 10.3608 18.3275 10.2715 18.2685 10.1796C18.1491 9.99355 18.0294 9.80765 17.9095 9.62188C17.7351 9.34969 17.5637 9.07584 17.3931 8.80127C17.2883 8.63448 17.1835 8.4677 17.0787 8.30093C17.0301 8.22181 16.9815 8.14269 16.9314 8.06118C16.8122 7.87346 16.6812 7.69336 16.5481 7.51516C16.2002 7.51516 16.1299 7.5524 15.853 7.73889ZM3.43857 7.62262C3.25779 7.8588 3.25779 7.8588 3.07171 8.16493C2.99872 8.28032 2.92572 8.3957 2.85051 8.51458C2.77338 8.63811 2.69629 8.76165 2.61923 8.88522C2.4702 9.12204 2.32105 9.35878 2.17178 9.59543C2.09805 9.71324 2.02432 9.83105 1.94836 9.95243C1.79184 10.1961 1.63388 10.434 1.46754 10.6706C1.388 10.7845 1.30846 10.8985 1.2265 11.0159C1.11714 11.1686 1.11714 11.1686 1.00556 11.3245C0.840166 11.581 0.840166 11.581 0.865284 11.831C0.995513 12.0833 1.13022 12.1771 1.36964 12.3288C1.49129 12.4067 1.49129 12.4067 1.6154 12.4862C1.70066 12.539 1.78591 12.5918 1.87375 12.6462C1.9586 12.7006 2.04344 12.755 2.13085 12.8111C2.53993 13.1021 2.53993 13.1021 3.00875 13.2103C3.18777 12.9777 3.18777 12.9777 3.37183 12.6755C3.47988 12.5051 3.47988 12.5051 3.5901 12.3311C3.66721 12.2078 3.7443 12.0845 3.82138 11.9611C3.89938 11.8375 3.97745 11.714 4.0556 11.5905C4.20972 11.3468 4.36344 11.1029 4.51696 10.8588C4.7817 10.4388 5.04974 10.021 5.31904 9.60383C5.39329 9.48844 5.46753 9.37306 5.54403 9.25418C5.59389 9.17675 5.64376 9.09932 5.69514 9.01954C5.27719 8.67245 4.84189 8.3721 4.38552 8.0793C4.318 8.03512 4.25047 7.99093 4.1809 7.94541C3.83762 7.70323 3.83762 7.70323 3.43857 7.62262ZM10.3157 11.2761C10.184 11.3865 10.0519 11.4965 9.91948 11.606C9.19296 12.186 9.19296 12.186 8.59643 12.8879C8.79533 13.1305 8.79533 13.1305 9.09929 13.1402C9.53228 13.0949 9.84932 12.9303 10.2217 12.72C10.8801 12.3489 10.8801 12.3489 11.1888 12.3557C11.4633 12.4952 11.6786 12.6691 11.9141 12.8678C12.0173 12.9542 12.1205 13.0407 12.2268 13.1297C12.4726 13.3391 12.7171 13.5499 12.9614 13.761C13.0273 13.8178 13.0932 13.8746 13.161 13.9332C13.2894 14.0442 13.4174 14.1555 13.545 14.2674C13.9204 14.5932 14.302 14.8774 14.7214 15.1445C14.7452 15.0876 14.769 15.0307 14.7935 14.9721C14.9025 14.7133 15.0134 14.4555 15.1244 14.1975C15.1618 14.108 15.1992 14.0184 15.2377 13.9262C15.2751 13.84 15.3125 13.7537 15.351 13.6649C15.3848 13.5855 15.4185 13.5062 15.4533 13.4245C15.6029 13.1737 15.7692 13.0479 16.0109 12.8879C15.8742 12.5231 15.7174 12.2025 15.508 11.8742C15.4525 11.7868 15.3969 11.6993 15.3397 11.6092C15.2819 11.5192 15.2242 11.4292 15.1646 11.3365C15.1077 11.247 15.0508 11.1574 14.9921 11.0652C14.8312 10.8125 14.6691 10.5606 14.5065 10.309C14.4625 10.2404 14.4186 10.1718 14.3733 10.1012C14.2774 9.95357 14.1775 9.80854 14.0767 9.66427C12.8039 9.66427 11.2276 10.4504 10.3157 11.2761ZM5.80259 9.98664C5.53806 10.3894 5.27404 10.7924 5.01011 11.1955C4.8975 11.3669 4.8975 11.3669 4.78261 11.5418C4.71058 11.6519 4.63855 11.762 4.56434 11.8755C4.49794 11.9768 4.43153 12.0781 4.36312 12.1824C4.2187 12.4134 4.09183 12.6418 3.97585 12.8879C4.06007 12.9411 4.14429 12.9943 4.23106 13.0491C4.59933 13.3999 4.6476 13.6891 4.72804 14.1774C4.76128 14.3636 4.76128 14.3636 4.7952 14.5535C4.81515 14.6865 4.81515 14.6865 4.83549 14.8221C4.90642 14.8221 4.97734 14.8221 5.05041 14.8221C5.14349 14.7191 5.14349 14.7191 5.23845 14.6139C5.54156 14.3361 5.71632 14.2932 6.12496 14.2849C6.20475 14.338 6.28453 14.3912 6.36673 14.446C6.71124 14.634 6.821 14.6072 7.19951 14.5535C7.54439 14.5089 7.71601 14.4931 8.05244 14.6005C8.32265 14.8707 8.39417 15.1099 8.50871 15.4685C8.64045 15.7888 8.88841 15.98 9.13371 16.2191C9.20535 16.434 9.27699 16.6489 9.34862 16.8638C9.7049 17.2504 10.0948 17.5821 10.5038 17.9115C11.0619 18.3622 11.0619 18.3622 11.1754 18.4756C11.4395 18.5025 11.4395 18.5025 11.7126 18.4756C11.9549 18.2829 11.9549 18.2829 11.9326 18.0194C11.7653 17.5793 11.4553 17.3621 11.0948 17.072C11.028 17.0165 10.9612 16.961 10.8925 16.9039C10.5997 16.6615 10.3073 16.4279 9.99839 16.206C9.92581 16.1394 9.85323 16.0728 9.77844 16.0041C9.77844 15.8623 9.77844 15.7205 9.77844 15.5743C10.3116 15.6188 10.6121 15.8953 10.994 16.2392C11.1177 16.3468 11.2416 16.4543 11.3655 16.5616C11.425 16.6135 11.4845 16.6655 11.5458 16.719C11.7591 16.9041 11.9749 17.0847 12.1962 17.26C12.2571 17.3092 12.3181 17.3584 12.3809 17.409C12.6321 17.5396 12.8307 17.5262 13.1096 17.5085C13.2159 17.2958 13.2159 17.2958 13.3245 17.0787C12.814 16.4191 12.2308 15.9456 11.5489 15.4753C11.2828 15.252 11.2828 15.252 11.1913 15.0085C11.1861 14.947 11.1808 14.8855 11.1754 14.8221C11.3641 14.7494 11.3641 14.7494 11.6052 14.7147C11.8114 14.8338 11.8114 14.8338 12.0241 15.0182C12.1022 15.0844 12.1803 15.1507 12.2608 15.219C12.3414 15.2897 12.4221 15.3604 12.5051 15.4333C13.2526 16.0934 13.2526 16.0934 14.0767 16.6489C14.3825 16.5841 14.3825 16.5841 14.6139 16.434C14.6664 16.1893 14.6664 16.1893 14.6139 15.8967C14.4095 15.6821 14.2211 15.5123 13.9894 15.3325C13.9262 15.2814 13.863 15.2303 13.7979 15.1776C13.6679 15.0725 13.5374 14.9682 13.4063 14.8645C13.1324 14.6477 12.8626 14.4258 12.5924 14.2043C12.4971 14.1277 12.4018 14.0511 12.3036 13.9721C12.0471 13.7577 11.8112 13.5304 11.5716 13.2976C11.3752 13.1163 11.3752 13.1163 11.1754 12.9954C10.8287 13.0315 10.6337 13.15 10.3375 13.3232C9.76641 13.6373 9.24918 13.7633 8.59643 13.6401C8.24772 13.4337 8.17983 13.359 8.05244 12.9618C8.05943 12.5496 8.11373 12.3969 8.39496 12.1013C8.7606 11.7738 9.14242 11.4669 9.52827 11.1636C9.78478 10.9767 9.78478 10.9767 9.8859 10.7388C9.8042 10.7351 9.7225 10.7314 9.63833 10.7276C9.26176 10.7092 8.88549 10.6871 8.50913 10.665C8.31642 10.6563 8.31642 10.6563 8.11981 10.6475C7.24472 10.5927 6.57193 10.4092 5.80259 9.98664ZM5.91005 14.8221C5.43425 15.2684 5.43425 15.2684 5.05041 15.7892C5.07374 16.0265 5.07374 16.0265 5.15786 16.2191C5.40477 16.2316 5.40477 16.2316 5.69514 16.1116C5.95007 15.8508 6.17198 15.5764 6.33987 15.252C6.30441 15.1456 6.26895 15.0392 6.23242 14.9296C6.12603 14.8941 6.01965 14.8587 5.91005 14.8221ZM7.14726 15.188C7.09247 15.2573 7.03769 15.3266 6.98125 15.398C6.92071 15.4737 6.86018 15.5493 6.79782 15.6272C6.73534 15.7073 6.67287 15.7873 6.60851 15.8698C6.54604 15.9482 6.48357 16.0266 6.4192 16.1074C6.24813 16.3227 6.07823 16.5388 5.91005 16.7563C5.84945 16.8298 5.78885 16.9032 5.72641 16.9789C5.55542 17.186 5.55542 17.186 5.62126 17.4817C5.64564 17.5614 5.67002 17.6412 5.69514 17.7234C5.83698 17.7234 5.97882 17.7234 6.12496 17.7234C6.33975 17.4926 6.52338 17.2706 6.70925 17.0183C6.78415 16.9201 6.78415 16.9201 6.86057 16.8199C7.19772 16.3756 7.52161 15.9218 7.84425 15.4669C7.77333 15.325 7.70241 15.1832 7.62934 15.037C7.30938 15.0001 7.30938 15.0001 7.14726 15.188ZM7.90249 16.3585C7.72909 16.5682 7.55704 16.7785 7.38756 16.9914C7.32661 17.0638 7.26567 17.1361 7.20287 17.2107C6.84949 17.6289 6.84949 17.6289 6.7848 18.152C6.81528 18.2233 6.84575 18.2947 6.87715 18.3682C7.2932 18.4173 7.2932 18.4173 7.47413 18.2103C7.5259 18.1383 7.57768 18.0663 7.63101 17.9921C7.68781 17.9145 7.7446 17.8369 7.80311 17.757C7.86101 17.675 7.91891 17.593 7.97857 17.5085C8.03813 17.4265 8.09769 17.3445 8.15906 17.26C8.30612 17.0572 8.45182 16.8535 8.59643 16.6489C8.52551 16.507 8.45459 16.3652 8.38152 16.2191C8.06434 16.1833 8.06434 16.1833 7.90249 16.3585ZM8.61155 17.5975C8.51098 17.7263 8.51098 17.7263 8.40839 17.8577C8.34024 17.9425 8.27209 18.0273 8.20187 18.1146C8.0326 18.3562 8.0326 18.3562 8.09106 18.615C8.11599 18.6754 8.14092 18.7358 8.16661 18.798C8.41353 18.8105 8.41353 18.8105 8.70389 18.6905C8.94619 18.4221 9.14904 18.132 9.34862 17.8309C9.2777 17.689 9.20678 17.5472 9.13371 17.4011C8.80296 17.3634 8.80296 17.3634 8.61155 17.5975ZM9.77844 18.2607C9.45337 18.589 9.45337 18.589 9.34862 19.0129C9.52646 19.2068 9.52646 19.2068 9.77844 19.3353C10.1356 19.3101 10.1356 19.3101 10.4232 19.1203C10.468 18.8608 10.468 18.8608 10.4232 18.5831C10.2035 18.3707 10.0882 18.2607 9.77844 18.2607Z" fill="#5C5C5C"/>
<path d="M12.3154 3.22371C12.7165 3.38089 12.9581 3.63963 13.257 3.94213C13.317 3.99864 13.377 4.05516 13.4388 4.11339C13.6088 4.28297 13.6088 4.28297 13.8615 4.61373C13.8372 5.05995 13.6835 5.27628 13.3755 5.58854C13.2955 5.6706 13.2155 5.75265 13.1331 5.8372C13.046 5.92408 12.9589 6.01096 12.8692 6.10047C12.78 6.1906 12.6908 6.28073 12.5989 6.37359C12.4101 6.56361 12.2207 6.75307 12.0309 6.94201C11.7399 7.23224 11.452 7.52522 11.1642 7.8185C10.9805 8.00266 10.7967 8.18666 10.6126 8.37047C10.5264 8.45866 10.4402 8.54684 10.3514 8.6377C10.27 8.71773 10.1887 8.79775 10.1048 8.8802C10.0338 8.95136 9.9628 9.02252 9.88962 9.09583C9.67072 9.23431 9.67072 9.23431 9.39489 9.21897C9.00453 9.08143 8.75239 8.8114 8.46604 8.5241C8.40454 8.46351 8.34303 8.40292 8.27966 8.3405C8.15034 8.21242 8.02158 8.08377 7.89335 7.9546C7.69649 7.75707 7.49694 7.56257 7.29704 7.36811C7.17165 7.2432 7.04641 7.11812 6.92137 6.99286C6.86139 6.93485 6.80141 6.87685 6.73961 6.81709C6.33953 6.40714 6.33953 6.40714 6.33986 6.04428C6.50858 5.65309 6.7651 5.40696 7.06492 5.11071C7.12144 5.05073 7.17795 4.99075 7.23618 4.92896C7.65231 4.5118 7.65231 4.5118 8.01145 4.48822C8.36133 4.6556 8.57809 4.87694 8.84465 5.15772C8.93954 5.25648 9.03442 5.35524 9.13218 5.457C9.23919 5.57148 9.23919 5.57148 9.34835 5.68828C9.75381 5.52164 9.99598 5.27147 10.2949 4.95498C10.3929 4.85338 10.4909 4.75178 10.5919 4.6471C10.7465 4.48574 10.9007 4.32394 11.0537 4.161C11.2022 4.00338 11.353 3.84785 11.5038 3.69238C11.6372 3.55178 11.6372 3.55178 11.7734 3.40834C12.0347 3.21681 12.0347 3.21681 12.3154 3.22371ZM12.2496 3.96899C12.1743 4.04768 12.099 4.12637 12.0214 4.20744C11.7417 4.49883 11.4599 4.78808 11.1773 5.07673C11.0553 5.20198 10.9339 5.3278 10.8131 5.45419C10.6393 5.63576 10.4636 5.81516 10.2873 5.99428C10.2337 6.05124 10.1801 6.10821 10.1248 6.1669C9.96845 6.32339 9.96845 6.32339 9.67072 6.54792C9.26882 6.54267 9.15525 6.4591 8.84591 6.19492C8.75241 6.09643 8.65892 5.99795 8.56258 5.89648C8.4677 5.79771 8.37282 5.69895 8.27506 5.5972C8.16805 5.48271 8.16805 5.48271 8.05889 5.36591C7.70132 5.53268 7.46941 5.72119 7.19924 6.01065C7.35898 6.38312 7.57074 6.62209 7.85825 6.90555C7.94482 6.99143 8.03139 7.07731 8.12059 7.16579C8.21104 7.25444 8.30149 7.34309 8.39468 7.43443C8.53161 7.5699 8.53161 7.5699 8.6713 7.70811C8.89651 7.93078 9.1222 8.15295 9.34835 8.37467C9.66563 8.23176 9.88815 8.07618 10.1328 7.82957C10.1994 7.7629 10.2661 7.69622 10.3348 7.62753C10.4407 7.51989 10.4407 7.51989 10.5488 7.41009C10.6588 7.29964 10.6588 7.29964 10.771 7.18695C11.0047 6.95206 11.2377 6.71642 11.4706 6.48076C11.6291 6.32121 11.7876 6.16171 11.9462 6.00225C12.3344 5.61161 12.722 5.2203 13.1093 4.82864C13.0068 4.70514 12.9037 4.5821 12.8004 4.45926C12.743 4.39069 12.6857 4.32213 12.6266 4.25148C12.4729 4.06484 12.4729 4.06484 12.2496 3.96899Z" fill="#5C5C5C"/>
</svg>
