<svg width="16" height="18" viewBox="0 0 16 18" fill="none" xmlns="http://www.w3.org/2000/svg">
<path d="M15.4499 1.84V14.08C15.4499 14.1903 15.4282 14.2995 15.386 14.4015C15.3438 14.5034 15.2819 14.596 15.2039 14.674C15.1259 14.752 15.0333 14.8138 14.9314 14.8561C14.8295 14.8983 14.7202 14.92 14.6099 14.92H13.5299V3.92C13.5299 3.69894 13.4428 3.48678 13.2874 3.32954C13.1321 3.17229 12.921 3.08263 12.6999 3.08H2.91992V1.84C2.92252 1.61802 3.01185 1.40587 3.16882 1.2489C3.32579 1.09193 3.53795 1.0026 3.75992 1H14.6099C14.8319 1.0026 15.044 1.09193 15.201 1.2489C15.358 1.40587 15.4473 1.61802 15.4499 1.84Z" stroke="#252525" stroke-width="0.7" stroke-miterlimit="10"/>
<path d="M12.69 3.08008H1.84C1.37608 3.08008 1 3.45616 1 3.92008V16.1601C1 16.624 1.37608 17.0001 1.84 17.0001H12.69C13.1539 17.0001 13.53 16.624 13.53 16.1601V3.92008C13.53 3.45616 13.1539 3.08008 12.69 3.08008Z" stroke="#252525" stroke-width="0.7" stroke-miterlimit="10"/>
<line x1="5.35" y1="5.65" x2="8.65" y2="5.65" stroke="#252525" stroke-width="0.7" stroke-linecap="round"/>
<line x1="3.35" y1="9.65" x2="10.65" y2="9.65" stroke="#252525" stroke-width="0.7" stroke-linecap="round"/>
<line x1="3.35" y1="13.65" x2="6.65" y2="13.65" stroke="#252525" stroke-width="0.7" stroke-linecap="round"/>
<path d="M8 13L8.88889 14L10.6667 12" stroke="#252525" stroke-width="0.7" stroke-linecap="round"/>
</svg>
