<svg width="17" height="18" viewBox="0 0 15 16" fill="#252525" xmlns="http://www.w3.org/2000/svg">
<path d="M5.62258 15.9999C5.46796 15.757 5.20184 15.8331 4.98096 15.7788C3.4358 15.3994 1.89381 15.0126 0.28449 14.9928C0.0446706 14.9928 0.0068043 14.8645 0.00154509 14.6633C-0.0194917 13.7615 0.178254 12.891 0.35286 12.0132C0.397037 11.7942 0.571643 11.7244 0.748352 11.6483C1.60455 11.2792 2.44813 10.8799 3.31905 10.5473C3.79871 10.354 4.23835 10.0749 4.61597 9.72372C4.98411 9.39845 5.04512 9.00436 4.78006 8.58318C4.4645 8.08692 4.21417 7.57816 3.65248 7.2362C3.02769 6.85567 2.88148 6.12797 2.82679 5.42112C2.81312 5.24702 2.85624 5.02913 3.00139 4.9551C3.42213 4.74659 3.29381 4.43383 3.24542 4.09604C2.94565 1.96716 4.50658 0.169805 6.78276 0.0113372C8.79073 -0.129407 10.5778 1.05389 10.9796 2.80328C11.0922 3.30898 11.09 3.83315 10.9733 4.33792C10.927 4.54643 10.8786 4.7174 11.1353 4.84668C11.3709 4.96449 11.4508 5.21678 11.4361 5.46491C11.3688 6.3052 11.1006 7.04124 10.2791 7.46035C9.91199 7.65009 9.2062 8.94807 9.36188 9.29732C9.59959 9.8186 10.0761 10.1637 10.5988 10.3972C11.5129 10.8048 12.4364 11.1916 13.3641 11.5659C13.7186 11.7087 13.9121 11.9089 13.9731 12.303C14.0342 12.6971 14.0457 13.1433 14.2529 13.5238V14.9677C13.2909 14.9829 12.3327 15.0911 11.3919 15.2909C10.4011 15.5151 9.41657 15.7632 8.42889 15.9999H5.62258ZM9.45864 2.87209C8.14595 3.68319 6.747 4.06581 5.26601 4.22115C4.96728 4.25138 4.57495 3.98762 4.38351 4.3254C4.22258 4.61211 4.21311 4.98325 4.1479 5.31895C4.13173 5.43813 4.1261 5.55848 4.13107 5.67863C4.13107 5.78289 4.11529 5.88714 3.9775 5.89861C3.83971 5.91008 3.8639 5.79436 3.83866 5.72138C3.80395 5.62442 3.77976 5.52329 3.73348 5.43051C3.68719 5.33772 3.6914 5.16361 3.52311 5.19176C3.39058 5.21261 3.34535 5.32625 3.32536 5.45657C3.25173 5.94344 3.66616 6.79729 4.14369 6.95471C4.47397 7.05897 4.6023 7.28416 4.73378 7.54375C5.08509 8.23601 5.52897 8.83547 6.17164 9.27856C6.85113 9.7477 7.39283 9.75187 8.07968 9.28585C8.76653 8.81983 9.2041 8.18388 9.57224 7.47078C9.6606 7.29667 9.71424 7.09546 9.96037 7.02456C10.602 6.84003 10.7913 6.29478 10.9154 5.73076C10.9565 5.5431 11.0206 5.25536 10.7503 5.20949C10.5021 5.1657 10.5515 5.47221 10.4684 5.62651C10.4418 5.68931 10.4217 5.75463 10.4085 5.82146C10.3874 5.88819 10.3674 5.95387 10.2738 5.9351C10.2401 5.92875 10.2103 5.90961 10.1906 5.88176C10.171 5.85391 10.1631 5.81955 10.1686 5.78602C10.2496 4.74347 9.60906 3.89066 9.45864 2.87209ZM10.4558 10.8538C10.3506 12.1956 10.2307 12.6585 9.77104 13.4425C9.47232 13.9523 9.45549 13.9544 8.96638 13.5791C8.79153 13.4378 8.6074 13.3083 8.41522 13.1912C8.26691 13.1058 8.12491 12.8618 7.93979 13.013C7.83755 13.094 7.76329 13.2046 7.72729 13.3294C7.69129 13.4542 7.69535 13.587 7.73889 13.7094C7.83349 14.0384 7.91073 14.3722 7.97029 14.7092C8.12596 15.4963 8.12281 15.5015 8.89907 15.3472C10.4369 15.0407 11.942 14.5539 13.5272 14.5267C13.6323 14.5267 13.7586 14.5049 13.7533 14.3735C13.7257 13.6373 13.6102 12.907 13.4094 12.1977C13.3946 12.1456 13.3178 12.0987 13.2589 12.0726C12.347 11.6764 11.4329 11.2782 10.4558 10.8538ZM6.53453 13.505C6.58502 13.2965 6.45143 13.1308 6.32416 13.0119C6.17585 12.8785 6.04753 13.062 5.93077 13.1381C5.66692 13.3023 5.41493 13.4845 5.1766 13.6833C4.90312 13.9231 4.73904 13.8616 4.56969 13.5676C4.14895 12.8378 3.8334 12.0893 3.84602 11.2354C3.85128 10.955 3.79238 10.8601 3.49997 10.9904C2.69531 11.3501 1.88539 11.6962 1.07337 12.033C1.00054 12.0579 0.936027 12.1023 0.886873 12.1611C0.837719 12.2199 0.805811 12.291 0.794633 12.3666C0.662608 12.971 0.566724 13.5827 0.50748 14.1983C0.489599 14.4517 0.571643 14.5288 0.823033 14.532C1.44625 14.5512 2.06666 14.6234 2.67743 14.7478C3.72927 14.9417 4.75586 15.2805 5.82559 15.4004C5.96759 15.416 6.14114 15.5109 6.19478 15.267L6.53453 13.505ZM5.45008 9.314C5.30913 10.2794 5.81822 10.8518 6.35361 11.3991C7.01837 12.0757 7.234 12.0663 7.90823 11.4054C8.67397 10.6558 8.91064 10.1157 8.76864 9.34945C7.67893 10.3795 6.58502 10.3722 5.45008 9.314ZM6.52191 12.1977C5.82874 11.617 5.23656 10.9821 4.95677 10.1199C4.31199 10.5369 4.26255 10.613 4.30357 11.2802C4.33535 11.9699 4.5533 12.6385 4.93468 13.2163L6.52191 12.1977ZM9.30192 13.2038C10.1802 11.9662 10.1749 10.5828 9.28194 10.147C9.01372 11.0102 8.39944 11.6285 7.7452 12.2008L9.30192 13.2038ZM8.0639 2.73552C7.10042 3.16713 6.18111 3.38815 5.22393 3.55809C5.87397 3.92715 8.74234 3.02326 9.25669 2.30077C8.17871 2.27204 7.10379 2.42757 6.07908 2.76054C6.71229 2.86688 7.33077 2.57184 8.0639 2.73552Z" />
</svg>
