<svg  width="18" height="18" viewBox="0 0 18 16" fill="#252525" xmlns="http://www.w3.org/2000/svg">
<path d="M0.000327655 1.40582C0.00016714 1.40582 5.44651e-05 1.40566 0.000106711 1.40551C0.0489433 1.26364 0.116322 1.13242 0.259384 1.06539C0.330687 1.03185 0.41378 1.00613 0.491258 1.00558C1.14758 1.00054 1.8039 1.00222 2.46022 1.00222V1.00222C2.48667 1.00222 2.50626 1.02715 2.50626 1.0536V1.90516C2.50626 1.95695 2.46428 1.99892 2.4125 1.99892V1.99892C2.12504 1.99892 1.83759 2.0034 1.55013 1.99781C1.22 1.9911 1.00441 2.24489 1.00497 2.5406C1.00947 6.18362 1.00947 9.82609 1.00497 13.4691C1.00497 13.7576 1.20821 14.0175 1.56417 14.0169C3.61735 14.013 5.67052 14.0153 7.72314 14.0153V14.0153C7.77442 14.0153 7.80135 14.0762 7.76692 14.1142C7.7167 14.1696 7.67035 14.2208 7.62377 14.2718C7.41491 14.501 7.20774 14.7313 6.99496 14.9566C6.96632 14.9874 6.91186 15.0097 6.86976 15.0103C4.76436 15.0131 2.65897 15.0114 0.553578 15.0142V15.0142C0.0628903 15.0142 0.000561438 14.3604 0.000561438 13.8697V1.40606C0.000561438 1.40593 0.00045677 1.40582 0.000327655 1.40582V1.40582Z"/>
<path d="M14.004 9.37155C14.0038 9.37146 14.0037 9.37168 14.0038 9.3718C14.5488 9.90696 15.0876 10.4361 15.6514 10.9899C15.6944 11.0322 15.6773 11.0928 15.6346 11.1353V11.1353C14.4292 12.3388 13.2255 13.5446 12.0195 14.7476C11.8337 14.9332 11.6445 15.1171 11.4435 15.2865C11.211 15.4821 10.9208 15.571 10.6361 15.6571C10.2381 15.7773 9.83438 15.8785 9.43295 15.988C9.41611 15.9925 9.39871 15.9953 9.38186 15.997C9.15167 16.0176 9.04107 15.9293 9.06858 15.7018C9.09609 15.4715 9.15111 15.2423 9.21399 15.0181C9.30551 14.6939 9.41106 14.3736 9.51829 14.0539C9.59409 13.8286 9.72827 13.6368 9.89614 13.4691C11.2509 12.1158 12.6062 10.763 13.9615 9.41022C13.9777 9.39412 13.995 9.37967 14.004 9.37181C14.0041 9.37173 14.0041 9.3716 14.004 9.37155V9.37155Z"/>
<path d="M10.5617 1.99923C10.5618 1.99943 10.5621 1.99936 10.5621 1.99913V1.09821C10.5621 1.04643 10.6041 1.00445 10.6558 1.00445V1.00445C11.2745 1.00445 11.8933 1.01284 12.5114 1.0011C12.8752 0.994392 13.074 1.26271 13.0734 1.56234C13.0683 3.7799 13.0706 5.99691 13.0717 8.21448C13.0717 8.27541 13.0588 8.32237 13.0156 8.36932C12.7113 8.69913 12.4098 9.03174 12.1072 9.36379V9.36379C12.0916 9.38117 12.0622 9.36681 12.0622 9.34351V9.28832C12.0622 7.03889 12.0622 4.79002 12.0622 2.54059C12.0622 2.2801 11.9342 2.09172 11.708 2.02519C11.6479 2.00786 11.5828 2.0006 11.5193 2.00004C11.2347 1.99724 10.95 1.99892 10.6654 1.99892C10.634 1.99892 10.6027 1.99892 10.5619 1.99892C10.5617 1.99892 10.5616 1.99909 10.5617 1.99923V1.99923Z"/>
<path d="M6.53302 6.00614C6.53288 6.00621 6.53293 6.00642 6.53308 6.00642C7.76972 6.00642 9.00636 6.00642 10.243 6.00642C10.467 6.00642 10.558 6.09754 10.558 6.32337C10.558 6.45921 10.5597 6.59505 10.558 6.73089C10.5557 6.9053 10.4496 7.00983 10.2733 7.00983C7.78222 7.00983 5.29112 7.00983 2.80058 7.00983C2.61755 7.00983 2.51425 6.90753 2.51256 6.72586C2.51144 6.58107 2.51144 6.43685 2.51256 6.29207C2.51368 6.1048 2.6153 6.00586 2.80563 6.00586C4.04788 6.00586 5.29014 6.00586 6.53295 6.00586C6.53311 6.00586 6.53316 6.00607 6.53302 6.00614V6.00614Z"/>
<path d="M6.53388 11.0115C5.31163 11.0115 4.08938 11.0115 2.86657 11.0115C2.82615 11.0115 2.78516 11.0115 2.74474 11.007C2.61168 10.9925 2.51848 10.9025 2.51287 10.7683C2.50613 10.5978 2.50613 10.4273 2.51287 10.2568C2.51848 10.1048 2.62459 10.0126 2.78292 10.0126C3.48864 10.012 4.19381 10.0126 4.89954 10.0126C6.67649 10.0126 8.45344 10.0148 10.2304 10.0098C10.4673 10.0092 10.5639 10.1327 10.556 10.3351C10.5504 10.4709 10.556 10.6068 10.5549 10.7426C10.5538 10.8941 10.464 10.9931 10.314 11.0081C10.2764 11.0121 10.2388 11.0115 10.2012 11.0115C8.97895 11.0115 7.7567 11.0115 6.53388 11.0115Z"/>
<path d="M3.01587 1.50064C3.01587 1.17363 3.01587 0.847169 3.01587 0.520153C3.01644 0.216614 3.22922 0.00363352 3.5352 0.000838505C3.68904 -0.000279502 3.84287 -0.000279502 3.99671 0.000838505C4.30269 0.00251551 4.51997 0.199844 4.52334 0.5045C4.53063 1.16971 4.53063 1.83437 4.52334 2.49958C4.51997 2.80312 4.30045 3.00213 3.99558 3.00269C3.84175 3.00269 3.68792 3.00269 3.53408 3.00269C3.23596 3.00157 3.01644 2.78523 3.01587 2.48952C3.01531 2.15971 3.01587 1.83046 3.01587 1.50064Z"/>
<path d="M10.0533 1.50204C10.0534 1.50194 10.0535 1.50201 10.0535 1.50216C10.0535 1.82289 10.0541 2.14363 10.0535 2.46437C10.053 2.79082 9.84075 3.00213 9.51512 3.00269C9.3669 3.00269 9.21924 3.00269 9.07102 3.00269C8.76897 3.00213 8.54607 2.79697 8.54383 2.49791C8.53878 1.83325 8.53878 1.16804 8.54383 0.503382C8.54607 0.208229 8.76616 0.00307452 9.06316 0.000838505C9.21699 -0.000279502 9.37083 -0.000279502 9.52466 0.000838505C9.84019 0.00251551 10.0513 0.213819 10.053 0.530774C10.0541 0.854305 10.053 1.17784 10.053 1.50192C10.053 1.50207 10.0532 1.50215 10.0533 1.50204V1.50204Z"/>
<path d="M16.4179 10.408C16.0336 10.0146 15.6579 9.63035 15.283 9.24702C14.973 8.93 14.9827 8.40042 15.3354 8.13175V8.13175C15.5386 7.9769 15.7733 8.0138 16.0024 8.07696C16.2388 8.14237 16.4263 8.28603 16.5919 8.45988C16.8445 8.72429 17.0382 9.01721 17.0736 9.39509C17.0865 9.53373 17.0775 9.66844 16.99 9.77354C16.8127 9.98521 16.6209 10.1852 16.419 10.408C16.4187 10.4083 16.4182 10.4083 16.4179 10.408V10.408Z"/>
<path d="M7.545 1.00977C7.81699 1.00977 8.03748 1.23026 8.03748 1.50225V1.50225C8.03748 1.77424 7.81699 1.99473 7.545 1.99473H5.52178C5.24979 1.99473 5.0293 1.77424 5.0293 1.50225V1.50225C5.0293 1.23026 5.24979 1.00977 5.52178 1.00977H7.545Z"/>
</svg>
