<svg width="20" height="18" viewBox="0 0 16 14" fill="#252525" xmlns="http://www.w3.org/2000/svg">
<path d="M2.69204 1.61612C2.69204 1.25447 2.69204 0.903519 2.69204 0.55257C2.69204 0.276518 2.86537 0.0668046 3.135 0.0111664C3.45385 -0.0551716 3.77056 0.20162 3.77056 0.52903C3.77056 0.888539 3.77056 1.24591 3.77056 1.61184C4.84481 1.61184 5.91692 1.61184 6.99972 1.61184C6.99972 1.58616 6.99972 1.55834 6.99972 1.53266C6.99972 1.20097 6.99758 0.86928 6.99972 0.53759C7.00186 0.287218 7.17092 0.0732245 7.41273 0.0154462C7.65668 -0.042332 7.90492 0.0646647 8.01619 0.291498C8.05257 0.366395 8.07397 0.458413 8.07611 0.54187C8.08253 0.894959 8.07825 1.25019 8.07825 1.6097C9.1525 1.6097 10.2246 1.6097 11.3074 1.6097C11.3074 1.58616 11.3074 1.55834 11.3074 1.53266C11.3074 1.20311 11.3074 0.8757 11.3074 0.54615C11.3074 0.261539 11.5193 0.0282858 11.7932 0.00260663C12.0756 -0.0230726 12.3239 0.163102 12.3795 0.445573C12.3859 0.479812 12.3859 0.514051 12.3859 0.55043C12.3859 0.87998 12.3859 1.20739 12.3859 1.53694C12.3859 1.56048 12.3859 1.58616 12.3859 1.61826C12.4373 1.61826 12.4801 1.61826 12.525 1.61826C12.8396 1.61826 13.152 1.61826 13.4666 1.61826C14.3568 1.6204 15.078 2.34155 15.078 3.22963C15.078 5.77615 15.078 8.32267 15.078 10.8713C15.078 11.3849 15.078 11.8985 15.078 12.4121C15.078 13.1932 14.4595 13.8951 13.6827 13.9849C13.5329 14.0021 13.3789 13.9999 13.2269 13.9999C10.6376 13.9999 8.04829 13.9999 5.45897 13.9999C4.17501 13.9999 2.89105 13.9999 1.60923 13.9999C0.800335 13.9999 0.111277 13.3879 0.0171195 12.5854C0.00427987 12.4998 0 12.4121 0 12.3243C0 10.1866 0 8.04876 0 5.90882C0 5.00577 0 4.10486 0 3.20181C0 2.45497 0.573502 1.76163 1.31178 1.65036C1.58783 1.60756 1.87244 1.62254 2.15277 1.61612C2.32825 1.61398 2.50586 1.61612 2.69204 1.61612ZM13.9973 5.92808C9.68534 5.92808 5.38407 5.92808 1.07853 5.92808C1.07853 5.96018 1.07853 5.988 1.07853 6.01582C1.07853 8.13864 1.07853 10.2615 1.07853 12.3864C1.07853 12.6282 1.24758 12.8529 1.48511 12.9043C1.59639 12.9278 1.71195 12.9214 1.8275 12.9214C5.69436 12.9214 9.56336 12.9214 13.4302 12.9214C13.7683 12.9214 13.9973 12.6946 13.9994 12.3564C13.9994 11.4834 14.0016 10.6124 14.0016 9.73931C14.0016 8.496 14.0016 7.2527 13.9994 6.0094C13.9973 5.98372 13.9973 5.96018 13.9973 5.92808ZM8.07611 2.69464C8.07611 2.72246 8.07611 2.746 8.07611 2.7674C8.07611 3.09909 8.07611 3.43078 8.07611 3.76247C8.07611 3.79671 8.07611 3.83309 8.06969 3.86733C8.01405 4.15408 7.76368 4.33811 7.47693 4.30815C7.2073 4.28033 7.00186 4.04708 6.99972 3.76461C6.99758 3.43506 6.99972 3.10765 6.99972 2.7781C6.99972 2.75242 6.99972 2.7246 6.99972 2.70106C5.91692 2.70106 4.84481 2.70106 3.77056 2.70106C3.77056 3.06057 3.77056 3.41366 3.77056 3.76889C3.77056 3.80741 3.76842 3.84807 3.75986 3.88659C3.69567 4.16478 3.44529 4.34239 3.1671 4.30815C2.89747 4.27605 2.69632 4.04708 2.69418 3.76889C2.69204 3.49284 2.69418 3.21465 2.69418 2.9386C2.69418 2.85942 2.69418 2.78024 2.69418 2.69464C2.66636 2.69464 2.64496 2.69464 2.62142 2.69464C2.29401 2.69464 1.96874 2.69464 1.64133 2.69464C1.31178 2.69464 1.07853 2.93004 1.07853 3.25959C1.07853 3.70469 1.07853 4.15194 1.07853 4.59704C1.07853 4.67836 1.07853 4.75968 1.07853 4.841C5.39049 4.841 9.69176 4.841 13.9994 4.841C13.9994 4.81318 13.9994 4.79178 13.9994 4.76824C13.9994 4.25894 13.9994 3.75177 13.9994 3.24247C13.9994 2.92576 13.7662 2.6925 13.4452 2.69036C13.1178 2.69036 12.7925 2.69036 12.4651 2.68822C12.4394 2.68822 12.4138 2.68822 12.3838 2.68822C12.3838 3.04987 12.3838 3.40082 12.3838 3.75177C12.3838 3.79243 12.3838 3.83309 12.3752 3.86947C12.3153 4.15194 12.0628 4.33383 11.7825 4.29959C11.5107 4.2675 11.3096 4.03638 11.3074 3.75391C11.3074 3.42436 11.3074 3.09695 11.3074 2.7674C11.3074 2.74172 11.3074 2.71604 11.3074 2.68822C10.2246 2.69464 9.15464 2.69464 8.07611 2.69464Z"/>
<path d="M6.89455 10.0511C7.12994 9.77079 7.36105 9.4926 7.59216 9.21655C8.15069 8.54675 8.70707 7.87695 9.26559 7.20715C9.41325 7.02954 9.6037 6.96106 9.82625 7.02098C10.0424 7.07876 10.1772 7.22641 10.22 7.44682C10.2542 7.61802 10.2029 7.76995 10.0916 7.90477C9.54592 8.55745 9.00452 9.21013 8.45884 9.86281C8.11859 10.2715 7.7762 10.6824 7.43595 11.0911C7.22623 11.3415 6.93734 11.38 6.66343 11.1981C6.14343 10.8493 5.62342 10.5027 5.10342 10.156C4.90869 10.0254 4.80811 9.81145 4.84877 9.60602C4.89799 9.36421 5.06062 9.20157 5.30243 9.16091C5.44367 9.13737 5.57421 9.17161 5.6919 9.25079C6.07709 9.50972 6.46228 9.76437 6.84747 10.0212C6.86245 10.0297 6.87529 10.0383 6.89455 10.0511Z" />
</svg>
