<svg width="18" height="18" viewBox="0 0 14 14" fill="#252525" xmlns="http://www.w3.org/2000/svg">
<path d="M4.84588 13.9994C4.84532 13.8685 4.84422 13.7375 4.84422 13.606C4.84422 12.2415 4.84422 10.877 4.84422 9.51248C4.84422 9.48087 4.84422 9.44869 4.84422 9.4103C4.75019 9.40465 4.65948 9.40127 4.56932 9.3928C4.08589 9.34763 3.69207 8.97052 3.61629 8.48333C3.56209 8.13388 3.65556 7.82903 3.87792 7.56087C4.61965 6.66777 5.36249 5.77523 6.10035 4.87875C6.25246 4.69414 6.4112 4.52591 6.63522 4.43332C7.0661 4.25549 7.56335 4.38985 7.87144 4.76301C8.57556 5.61547 9.28245 6.4651 9.98767 7.31642C10.0723 7.41861 10.1575 7.52022 10.2388 7.62466C10.7316 8.25977 10.3926 9.21215 9.61487 9.3736C9.49319 9.39901 9.36652 9.4007 9.23543 9.41369C9.23543 9.72757 9.23543 10.0499 9.23543 10.374C9.24705 10.3768 9.25645 10.3819 9.26641 10.3819C9.94564 10.3813 10.6144 10.3079 11.2543 10.0601C11.7676 9.8608 12.2068 9.55764 12.5127 9.07948C12.7455 8.71592 12.86 8.31227 12.9026 7.88379C12.9485 7.41861 12.9181 6.95907 12.7848 6.51196C12.5387 5.68547 12.0043 5.13279 11.2167 4.8302C10.8422 4.68624 10.4567 4.62188 10.0552 4.65858C9.77472 4.68398 9.53024 4.44236 9.49982 4.14146C9.44285 3.57692 9.3184 3.0344 9.02912 2.5376C8.57169 1.75289 7.90241 1.27642 7.02738 1.13416C6.21429 1.00149 5.4615 1.18723 4.80716 1.71846C4.15614 2.24686 3.78499 2.94294 3.65391 3.77507C3.6091 4.05847 3.61132 4.34469 3.63399 4.63091C3.66331 5.00125 3.42381 5.25812 3.05764 5.24852C2.79989 5.24174 2.54545 5.24626 2.30042 5.34393C1.70582 5.58103 1.33965 6.02532 1.15989 6.6418C0.912647 7.48804 1.26166 8.41784 1.96468 8.87229C2.19754 9.02302 2.45198 9.1173 2.73241 9.12238C2.91992 9.12577 3.07534 9.19577 3.18431 9.35441C3.30323 9.52772 3.32425 9.71459 3.23243 9.90766C3.13895 10.1047 2.98076 10.217 2.76726 10.2227C2.37012 10.2323 1.99344 10.1323 1.64276 9.94718C0.769389 9.48538 0.252775 8.74922 0.06029 7.76975C0.0381652 7.65797 0.0199123 7.54563 0 7.43328C0 7.28368 0 7.13351 0 6.98391C0.00553119 6.96077 0.013828 6.93818 0.0165936 6.91504C0.0431433 6.66777 0.0918178 6.42615 0.170914 6.18961C0.396586 5.51555 0.788195 4.97472 1.38003 4.59252C1.70859 4.38026 2.06369 4.23291 2.44976 4.17872C2.52997 4.16743 2.5438 4.14146 2.54822 4.06807C2.55928 3.88685 2.5709 3.7045 2.60187 3.52611C2.76283 2.61156 3.15167 1.81499 3.80269 1.16013C4.35305 0.606315 5.00462 0.2388 5.76461 0.0801645C5.93829 0.044034 6.11584 0.0265333 6.29173 0C6.46486 0 6.63798 0 6.81111 0C6.92284 0.0124199 7.03457 0.0208879 7.14575 0.0378241C7.77796 0.133796 8.35155 0.376547 8.87424 0.750837C9.44506 1.15956 9.84054 1.7145 10.1464 2.34171C10.3234 2.70471 10.4291 3.09254 10.4976 3.49111C10.5043 3.53006 10.5087 3.55998 10.5607 3.56337C10.9772 3.59216 11.3754 3.69999 11.7565 3.86935C12.9568 4.40171 13.6742 5.33094 13.9192 6.63954C13.9585 6.84842 13.9734 7.06238 14 7.27352C14 7.42312 14 7.57329 14 7.72289C13.9956 7.75676 13.99 7.7912 13.9862 7.82507C13.9657 8.00798 13.9569 8.19315 13.9231 8.37324C13.7124 9.48651 13.1189 10.3164 12.1404 10.8555C11.5381 11.1875 10.8859 11.3484 10.2117 11.4319C9.69452 11.4957 9.17625 11.4788 8.65742 11.4782C8.3781 11.4776 8.16183 11.258 8.16017 10.9769C8.15574 10.1267 8.15464 9.2765 8.15187 8.42631C8.15187 8.38735 8.15187 8.3484 8.15187 8.29985C8.56616 8.29985 8.96993 8.29985 9.3903 8.29985C8.59879 7.34465 7.81889 6.40356 7.03457 5.45627C6.24803 6.40582 5.46758 7.34747 4.67607 8.30324C5.10031 8.30324 5.50464 8.30324 5.91616 8.30324C5.91616 8.33937 5.91616 8.36816 5.91616 8.39752C5.91616 8.65156 5.91616 8.9056 5.91616 9.16021C5.91561 10.7737 5.91561 12.3865 5.91506 14C5.55885 13.9994 5.20209 13.9994 4.84588 13.9994Z" />
</svg>
