<svg width="18" height="18" viewBox="0 0 21 20" fill="none" xmlns="http://www.w3.org/2000/svg">
<path d="M14.4112 0.150289C14.9356 0.444549 15.1526 1.04093 15.4104 1.55839C15.4401 1.61774 15.4698 1.67708 15.4995 1.73641C15.5612 1.85961 15.6227 1.98287 15.6842 2.10618C15.763 2.26436 15.8421 2.42236 15.9214 2.58031C15.9826 2.70227 16.0435 2.82432 16.1044 2.9464C16.1336 3.00475 16.1628 3.06308 16.1921 3.12137C16.2327 3.20235 16.273 3.28347 16.3133 3.36459C16.3478 3.43372 16.3478 3.43372 16.383 3.50424C16.4321 3.61459 16.4321 3.61459 16.4321 3.71057C16.4895 3.7076 16.5469 3.70463 16.6061 3.70157C17.2782 3.70682 18.0707 3.96055 18.5642 4.43984C19.1857 5.15226 19.4244 5.81583 19.417 6.75062C19.4169 6.81678 19.4167 6.88295 19.4166 6.94911C19.4163 7.12206 19.4153 7.295 19.4143 7.46794C19.4133 7.64489 19.4128 7.82185 19.4124 7.99881C19.4113 8.34513 19.4097 8.69145 19.4077 9.03778C19.4716 9.03647 19.4716 9.03647 19.5368 9.03514C19.5928 9.03446 19.6488 9.03379 19.7065 9.03309C19.762 9.03222 19.8174 9.03135 19.8746 9.03045C20.1787 9.04464 20.3737 9.18179 20.5955 9.37973C20.9839 9.8104 20.9721 10.3152 20.9689 10.863C20.9691 10.9419 20.9693 11.0207 20.9695 11.0996C20.9698 11.2642 20.9694 11.4287 20.9685 11.5933C20.9674 11.8031 20.968 12.0128 20.9692 12.2226C20.9699 12.3852 20.9696 12.5479 20.9691 12.7105C20.969 12.7878 20.9692 12.8651 20.9696 12.9424C20.9719 13.4554 20.9558 13.9114 20.5955 14.311C20.3158 14.5612 20.0833 14.6577 19.7065 14.6818C19.6505 14.6856 19.5945 14.6893 19.5368 14.6932C19.4729 14.697 19.4729 14.697 19.4077 14.7009C19.4081 14.7361 19.4085 14.7713 19.409 14.8076C19.4128 15.1421 19.4158 15.4767 19.4176 15.8112C19.4186 15.9832 19.42 16.1551 19.4222 16.327C19.4243 16.4935 19.4254 16.66 19.4259 16.8265C19.4264 16.9197 19.4279 17.0128 19.4294 17.106C19.4296 17.8598 19.194 18.571 18.6771 19.1331C17.9841 19.7759 17.1756 20.004 16.2448 19.9984C16.1863 19.9987 16.1278 19.9989 16.0675 19.9991C15.9073 19.9996 15.7471 19.9994 15.5868 19.999C15.4131 19.9986 15.2395 19.9991 15.0658 19.9995C14.7265 20.0002 14.3871 20 14.0478 19.9996C13.7718 19.9993 13.4958 19.9993 13.2198 19.9994C13.1804 19.9994 13.141 19.9995 13.1004 19.9995C13.0203 19.9995 12.9402 19.9996 12.8601 19.9996C12.1107 20 11.3613 19.9996 10.6119 19.9988C9.97008 19.9981 9.32823 19.9983 8.68638 19.9989C7.9395 19.9997 7.19263 20 6.44575 19.9995C6.36598 19.9995 6.28621 19.9995 6.20644 19.9994C6.14758 19.9994 6.14759 19.9994 6.08754 19.9993C5.81214 19.9992 5.53674 19.9994 5.26134 19.9998C4.92533 20.0002 4.58933 20.0001 4.25332 19.9993C4.08216 19.9989 3.91101 19.9988 3.73985 19.9992C3.5537 19.9998 3.36756 19.9991 3.18142 19.9984C3.12818 19.9987 3.07495 19.9991 3.02011 19.9994C2.19184 19.9933 1.445 19.7643 0.842878 19.1789C0.263354 18.565 0.0024676 17.8863 0.00605285 17.0469C0.00586925 17.0004 0.00568545 16.954 0.00549629 16.9061C0.00500436 16.7517 0.00519085 16.5974 0.00538205 16.443C0.00517324 16.3318 0.00492515 16.2206 0.00463948 16.1094C0.00399828 15.8083 0.00396857 15.5072 0.00409025 15.206C0.00414168 14.9542 0.00390695 14.7025 0.00367722 14.4507C0.00311484 13.8226 0.00315466 13.1946 0.00346339 12.5665C0.00371141 12.0221 0.00317192 11.4777 0.00225947 10.9333C0.00132789 10.3732 0.000946557 9.81307 0.00111266 9.25294C0.00119953 8.93892 0.00107475 8.62492 0.000406715 8.3109C-0.000198174 8.01554 -0.00010249 7.72018 0.00052242 7.42481C0.000635671 7.3167 0.000506581 7.2086 0.000109396 7.10049C-0.00322695 6.12146 0.107242 5.26893 0.819444 4.53507C1.40372 3.98435 2.0753 3.70524 2.88204 3.70941C3.65528 3.71072 4.24943 3.56589 4.95583 3.26364C5.05696 3.22217 5.15817 3.18093 5.25947 3.13989C5.47054 3.05424 5.68123 2.96775 5.89171 2.88068C6.35565 2.6898 6.82446 2.51169 7.2932 2.33303C7.55361 2.23366 7.81372 2.1335 8.07386 2.03345C8.17866 1.99318 8.28346 1.95292 8.38825 1.91267C8.87006 1.72756 9.35177 1.54223 9.8335 1.35692C9.99034 1.2966 10.1472 1.23629 10.304 1.17598C10.745 1.00641 11.186 0.836804 11.6268 0.666804C11.802 0.599262 11.9771 0.531762 12.1523 0.464265C12.2329 0.433206 12.3134 0.402125 12.394 0.371018C12.5035 0.328692 12.6132 0.286444 12.7228 0.244212C12.7543 0.232012 12.7858 0.219812 12.8183 0.207241C13.3544 0.00102441 13.8682 -0.106109 14.4112 0.150289ZM13.2475 0.805129C13.2119 0.817948 13.1763 0.830767 13.1396 0.843975C12.7108 0.999636 12.2858 1.16552 11.8609 1.33148C11.6025 1.43239 11.3439 1.53286 11.0854 1.63338C11.005 1.66467 11.005 1.66467 10.9229 1.69659C10.3393 1.92355 9.75478 2.14824 9.1702 2.37277C8.96366 2.45212 8.75713 2.53149 8.5506 2.61086C8.50005 2.63029 8.4495 2.64972 8.39741 2.66974C7.83989 2.88407 7.2827 3.09928 6.72556 3.31463C6.67927 3.33253 6.63297 3.35042 6.58527 3.36886C6.33207 3.46674 6.07888 3.56464 5.8257 3.66258C5.8257 3.67842 5.8257 3.69425 5.8257 3.71057C9.07241 3.71057 12.3191 3.71057 15.6642 3.71057C15.2591 2.85517 15.2591 2.85517 14.8438 2.00493C14.8063 1.9291 14.769 1.85317 14.7319 1.77715C14.6769 1.66462 14.6214 1.55243 14.5656 1.44028C14.5493 1.40659 14.533 1.3729 14.5162 1.33818C14.3487 1.00447 14.1526 0.811412 13.7925 0.687021C13.5878 0.687021 13.4363 0.736063 13.2475 0.805129ZM1.45835 4.91039C1.41408 4.94482 1.41408 4.94482 1.36892 4.97994C1.05203 5.2589 0.759696 5.77765 0.732274 6.207C0.732188 6.24148 0.732103 6.27597 0.732015 6.3115C0.731801 6.35151 0.731587 6.39152 0.731366 6.43274C0.731375 6.47646 0.731385 6.52017 0.731394 6.5652C0.731218 6.61183 0.73104 6.65846 0.730858 6.70651C0.730328 6.8632 0.730144 7.01988 0.729962 7.17657C0.729661 7.28874 0.729343 7.40092 0.729007 7.5131C0.727997 7.88191 0.727499 8.25072 0.727021 8.61953C0.726826 8.74651 0.726628 8.87349 0.726427 9.00047C0.725611 9.52873 0.724917 10.057 0.724569 10.5852C0.724477 10.7223 0.724384 10.8593 0.724291 10.9963C0.724267 11.0304 0.724244 11.0644 0.72422 11.0995C0.723822 11.6508 0.722607 12.2021 0.721048 12.7534C0.719459 13.3198 0.718595 13.8863 0.718442 14.4528C0.718339 14.7706 0.7179 15.0885 0.716692 15.4063C0.715574 15.7055 0.715372 16.0047 0.715865 16.3038C0.715888 16.4134 0.715587 16.523 0.714927 16.6326C0.710418 17.4265 0.76422 18.0456 1.32337 18.6547C1.70364 19.024 2.17837 19.2658 2.71484 19.2666C2.7907 19.2668 2.7907 19.2668 2.86809 19.2671C2.9236 19.2671 2.97911 19.267 3.0363 19.267C3.09531 19.2671 3.15432 19.2673 3.21512 19.2674C3.37901 19.2678 3.5429 19.2679 3.7068 19.2679C3.88353 19.268 4.06026 19.2684 4.237 19.2687C4.62353 19.2694 5.01006 19.2696 5.39659 19.2699C5.638 19.27 5.8794 19.2702 6.12081 19.2704C6.78934 19.271 7.45786 19.2715 8.12639 19.2717C8.16917 19.2717 8.21196 19.2717 8.25605 19.2717C8.29894 19.2717 8.34183 19.2717 8.38602 19.2717C8.47293 19.2717 8.55984 19.2718 8.64675 19.2718C8.71142 19.2718 8.71142 19.2718 8.77739 19.2718C9.47565 19.272 10.1739 19.2728 10.8722 19.274C11.5892 19.2751 12.3063 19.2757 13.0234 19.2758C13.4259 19.2758 13.8284 19.2761 14.231 19.2769C14.5738 19.2777 14.9166 19.2779 15.2595 19.2775C15.4343 19.2773 15.6091 19.2774 15.7839 19.2781C15.9738 19.2788 16.1636 19.2784 16.3534 19.2779C16.4357 19.2785 16.4357 19.2785 16.5196 19.2791C17.1648 19.2751 17.6731 19.0693 18.1479 18.6303C18.677 18.0721 18.7519 17.4112 18.7451 16.6741C18.745 16.6173 18.7449 16.5605 18.7447 16.502C18.7442 16.3226 18.743 16.1432 18.7418 15.9637C18.7413 15.8413 18.7409 15.7188 18.7405 15.5964C18.7394 15.2979 18.7378 14.9994 18.7358 14.7009C18.6916 14.7005 18.6474 14.7002 18.6018 14.6998C18.1825 14.696 17.7632 14.6918 17.3439 14.6871C17.1284 14.6847 16.9129 14.6825 16.6974 14.6807C16.4889 14.6789 16.2804 14.6767 16.0719 14.6741C15.9929 14.6733 15.9139 14.6725 15.8349 14.672C14.9509 14.6654 14.16 14.5879 13.4086 14.077C13.3791 14.057 13.3495 14.0371 13.3191 14.0165C12.8101 13.6268 12.4751 12.9653 12.3681 12.3435C12.2722 11.4811 12.4432 10.7421 12.9601 10.0325C13.3681 9.5303 13.978 9.2075 14.6084 9.08577C14.7493 9.07259 14.8894 9.07086 15.0309 9.07047C15.0712 9.06999 15.1115 9.0695 15.153 9.06901C15.2849 9.06754 15.4168 9.06671 15.5487 9.0659C15.6407 9.065 15.7327 9.06406 15.8247 9.06308C16.0658 9.06063 16.3069 9.05872 16.5481 9.05693C16.7945 9.055 17.0409 9.05256 17.2874 9.05015C17.7702 9.04552 18.253 9.04146 18.7358 9.03778C18.7382 8.67152 18.7399 8.30527 18.741 7.93901C18.7415 7.8146 18.7422 7.69018 18.743 7.56576C18.7442 7.38622 18.7447 7.20668 18.7451 7.02714C18.7456 6.97213 18.7461 6.91711 18.7466 6.86043C18.7467 6.15789 18.6224 5.56181 18.1269 5.03637C17.6004 4.54393 17.0677 4.41573 16.3675 4.41763C16.3084 4.41741 16.2493 4.41719 16.1884 4.41697C16.0251 4.41647 15.8618 4.4164 15.6986 4.41651C15.5222 4.41653 15.3458 4.416 15.1694 4.41554C14.824 4.41475 14.4787 4.41448 14.1334 4.41443C13.8526 4.41438 13.5718 4.41419 13.291 4.41388C12.4941 4.41304 11.6972 4.41259 10.9003 4.41267C10.8574 4.41267 10.8145 4.41267 10.7703 4.41268C10.7273 4.41268 10.6843 4.41268 10.64 4.41269C9.94372 4.41273 9.24741 4.41181 8.55109 4.41046C7.83543 4.40908 7.11976 4.40841 6.40409 4.4085C6.00258 4.40853 5.60107 4.40827 5.19956 4.40723C4.85767 4.40636 4.5158 4.40615 4.17391 4.4068C3.99965 4.40711 3.82541 4.40712 3.65115 4.40629C3.4618 4.40539 3.27247 4.40599 3.08311 4.40673C3.02866 4.40624 2.9742 4.40574 2.9181 4.40524C2.36529 4.40998 1.89218 4.56551 1.45835 4.91039ZM13.5852 10.3525C13.1081 10.9255 12.9583 11.5157 13.0246 12.2533C13.1238 12.7972 13.4224 13.2364 13.8585 13.5701C14.3303 13.8898 14.7648 13.9879 15.3248 13.9895C15.3726 13.9898 15.4204 13.9902 15.4696 13.9905C15.6274 13.9914 15.7852 13.992 15.943 13.9925C16.0239 13.9928 16.0239 13.9928 16.1065 13.9931C16.3919 13.9941 16.6773 13.9948 16.9626 13.9952C17.2574 13.9957 17.5521 13.9974 17.8468 13.9993C18.0736 14.0005 18.3003 14.001 18.527 14.0011C18.6357 14.0014 18.7444 14.0019 18.853 14.0028C19.005 14.004 19.157 14.0039 19.309 14.0036C19.3538 14.0042 19.3986 14.0048 19.4447 14.0055C19.7636 14.0029 19.9361 13.9294 20.1683 13.7023C20.2474 13.5517 20.2426 13.4279 20.2437 13.2583C20.2441 13.2245 20.2445 13.1908 20.2449 13.156C20.2461 13.0447 20.2461 12.9334 20.246 12.8221C20.2464 12.7445 20.2468 12.6669 20.2472 12.5893C20.2478 12.4267 20.2479 12.2642 20.2476 12.1016C20.2473 11.8936 20.2488 11.6857 20.2507 11.4777C20.252 11.3175 20.2521 11.1572 20.2519 10.997C20.252 10.9203 20.2525 10.8437 20.2533 10.767C20.2544 10.6596 20.2539 10.5523 20.2531 10.4449C20.2532 10.3839 20.2533 10.3228 20.2534 10.26C20.2136 10.0379 20.1437 9.9632 19.9836 9.80566C19.8462 9.72254 19.7448 9.69757 19.5851 9.69684C19.5441 9.69643 19.5032 9.69602 19.461 9.6956C19.4164 9.69565 19.3719 9.69569 19.3259 9.69573C19.2551 9.69525 19.2551 9.69525 19.1828 9.69476C19.0264 9.69384 18.8699 9.69366 18.7135 9.69355C18.6044 9.69325 18.4953 9.69292 18.3863 9.69259C18.1573 9.69201 17.9284 9.69183 17.6994 9.69189C17.4073 9.6919 17.1153 9.69059 16.8232 9.68894C16.5977 9.68786 16.3722 9.68768 16.1467 9.68773C16.0391 9.68761 15.9315 9.68719 15.8239 9.68645C14.9905 9.68121 14.2055 9.71233 13.5852 10.3525Z" fill="#252525"/>
<path d="M16.1437 10.5731C16.5112 10.8402 16.7204 11.1032 16.8636 11.533C16.907 12.0463 16.8391 12.3985 16.5097 12.7958C16.2148 13.1114 15.9115 13.2603 15.4778 13.2757C15.0597 13.265 14.7169 13.1202 14.416 12.8288C14.1279 12.4838 13.9928 12.1318 14.032 11.677C14.1189 11.2323 14.3049 10.9135 14.6769 10.6511C15.1217 10.3784 15.6741 10.3212 16.1437 10.5731ZM14.8569 11.44C14.7403 11.6303 14.7371 11.7942 14.7519 12.0129C14.8474 12.2691 14.9874 12.4186 15.2319 12.5408C15.4593 12.5686 15.6216 12.5635 15.8258 12.4538C16.0688 12.2569 16.0688 12.2569 16.1552 11.9625C16.1639 11.6974 16.1341 11.5473 15.9518 11.341C15.7523 11.1647 15.5959 11.1181 15.3365 11.1303C15.1267 11.1679 14.9939 11.2841 14.8569 11.44Z" fill="#252525"/>
</svg>
