<svg width="43" height="43" viewBox="0 0 47 48" fill="none" xmlns="http://www.w3.org/2000/svg">
<g id="Group 1000007392">
<g id="Rectangle 5745" filter="url(#filter0_i_1690_11629)">
<rect width="47" height="48" rx="6" fill="#00577B"/>
</g>
<g id="Group 1000007385">
<path id="Vector" d="M19.5337 6.00092C19.6598 6.04508 19.7849 6.09569 19.9128 6.13342C21.1292 6.49135 22.088 7.61391 22.2122 8.83033C22.353 10.2096 21.7025 11.4904 20.4943 12.0821C20.1281 12.2615 19.9579 12.4501 20.0324 12.8495C20.0527 12.9581 20.0352 13.0731 20.0352 13.2056C19.3387 13.2056 18.6771 13.2056 17.9861 13.2056C17.9861 12.2882 17.9861 11.3671 17.9861 10.4203C18.3909 10.4001 18.8022 10.4074 19.2052 10.3532C19.7159 10.2851 20.0214 9.94738 20.13 9.45787C20.234 8.98952 20.0637 8.5957 19.6874 8.30586C19.1022 7.85407 18.2915 8.06202 17.9907 8.73648C17.9263 8.88186 17.8867 9.03737 17.8278 9.21219C17.1579 9.21219 16.4761 9.21219 15.7603 9.21219C15.8136 8.07122 16.2626 7.15661 17.2187 6.54932C17.606 6.30364 18.0707 6.17943 18.4995 6C18.8445 6.00092 19.1896 6.00092 19.5337 6.00092Z" fill="white"/>
<path id="Vector_2" d="M15.8413 22.2397C16.5572 19.6826 19.1519 18.6088 21.3722 19.5078C21.7808 18.3291 22.516 17.4347 23.691 16.948C24.8632 16.4631 26.0143 16.5505 27.1912 17.1384C27.1912 16.9682 27.1912 16.8477 27.1912 16.7271C27.1912 15.1666 27.1847 13.606 27.193 12.0455C27.2031 10.0681 28.5272 8.45604 30.4641 8.04382C32.7212 7.56443 34.9994 9.22251 35.2368 11.5219C35.2663 11.8063 35.2828 12.0943 35.2828 12.3795C35.2856 15.6046 35.281 18.8287 35.2939 22.0529C35.2948 22.2599 35.3813 22.5019 35.5064 22.6684C36.4045 23.8646 36.8737 25.2025 36.882 26.695C36.8921 28.5656 36.8958 30.4362 36.882 32.3069C36.8498 36.7474 33.5613 40.5283 29.1759 41.1724C28.7913 41.2285 28.3993 41.2533 28.011 41.2552C25.7622 41.2625 23.5125 41.2644 21.2637 41.2589C16.7605 41.2478 12.9677 37.9169 12.3669 33.4506C12.3365 33.2242 12.2905 32.9924 12.3052 32.7679C12.4055 31.2828 11.9243 29.8979 11.5838 28.4883C11.3989 27.7209 11.1771 26.959 11.0446 26.1834C10.6766 24.0275 12.642 21.9149 14.8282 22.0915C15.165 22.1191 15.5018 22.1891 15.8413 22.2397ZM14.4326 33.3172C14.4777 33.5362 14.5043 33.6926 14.5421 33.8472C15.3223 37.0226 18.0717 39.1849 21.3575 39.1959C23.4803 39.2033 25.6039 39.2116 27.7267 39.1876C28.3183 39.1812 28.9201 39.1131 29.4961 38.9834C32.3596 38.3411 34.6157 35.7482 34.7501 32.8304C34.8458 30.7463 34.8513 28.653 34.785 26.5671C34.7105 24.2262 33.0938 22.4973 30.7705 22.2433C29.682 22.1246 28.5668 22.1449 27.4709 22.2121C26.1726 22.2921 25.2589 23.3908 25.3169 24.6559C25.3739 25.9027 26.4164 26.8643 27.7193 26.8698C28.4536 26.8725 29.1888 26.8707 29.923 26.8707C30.2745 26.8707 30.6269 26.8707 30.9849 26.8707C30.9849 28.8205 30.9849 30.7279 30.9849 32.6289C30.2847 32.6289 29.6148 32.6289 28.9072 32.6289C28.9072 31.3932 28.9072 30.1823 28.9072 28.9346C27.596 28.9723 26.3161 29.0073 25.1291 28.1313C25.3941 29.1563 25.3794 30.0654 24.9976 30.9487C24.6093 31.8468 23.9937 32.5443 23.1104 32.9629C21.4219 33.7634 19.8844 33.4543 18.4848 32.2471C17.3696 33.4184 16.0354 33.7929 14.4326 33.3172ZM33.1886 20.7914C33.1886 20.496 33.1886 20.2706 33.1886 20.0451C33.1886 17.3721 33.1978 14.6992 33.184 12.0262C33.1776 10.6625 31.9409 9.74515 30.6674 10.127C29.8237 10.381 29.2891 11.118 29.2863 12.0823C29.279 14.6752 29.2836 17.2673 29.2845 19.8602C29.2845 19.9366 29.2983 20.0129 29.3084 20.128C30.6426 20.058 31.9326 20.1602 33.1886 20.7914ZM17.849 23.2463C17.8628 23.3365 17.8785 23.5325 17.9245 23.7202C18.1573 24.6762 18.3965 25.6313 18.6358 26.5864C18.9109 27.6859 19.1759 28.7873 19.4666 29.8823C19.7372 30.9027 20.7337 31.4944 21.7541 31.2671C22.7423 31.0472 23.4232 30.0691 23.1877 29.0542C22.6834 26.8808 22.1396 24.7167 21.5728 22.559C21.3345 21.6508 20.4374 21.1493 19.4758 21.2855C18.564 21.4134 17.8711 22.2056 17.849 23.2463ZM15.6978 31.4355C16.7154 31.43 17.4571 30.5117 17.2187 29.5207C16.8866 28.1414 16.5415 26.7649 16.1854 25.3911C15.9517 24.4885 15.1641 23.9971 14.3139 24.1931C13.4416 24.3946 12.9208 25.2255 13.1389 26.1484C13.4646 27.5295 13.8133 28.9051 14.1749 30.278C14.3636 30.9966 14.9764 31.4392 15.6978 31.4355ZM23.6468 22.4173C23.6836 22.4246 23.7195 22.432 23.7563 22.4393C24.4988 21.1668 25.5901 20.3957 27.0439 20.15C27.0403 20.0829 27.0467 20.0359 27.0338 19.9945C26.767 19.1453 25.8579 18.6079 24.9129 18.7385C24.0645 18.8554 23.2972 19.6504 23.3321 20.5052C23.3579 21.1456 23.5355 21.7796 23.6468 22.4173Z" fill="white"/>
<path id="Vector_3" d="M17.9746 16.8131C17.9746 16.1341 17.9746 15.4734 17.9746 14.7852C18.6445 14.7852 19.3125 14.7852 20.0081 14.7852C20.0081 15.4541 20.0081 16.1221 20.0081 16.8131C19.3309 16.8131 18.6629 16.8131 17.9746 16.8131Z" fill="white"/>
</g>
</g>
<defs>
<filter id="filter0_i_1690_11629" x="0" y="0" width="47" height="48" filterUnits="userSpaceOnUse" color-interpolation-filters="sRGB">
<feFlood flood-opacity="0" result="BackgroundImageFix"/>
<feBlend mode="normal" in="SourceGraphic" in2="BackgroundImageFix" result="shape"/>
<feColorMatrix in="SourceAlpha" type="matrix" values="0 0 0 0 0 0 0 0 0 0 0 0 0 0 0 0 0 0 127 0" result="hardAlpha"/>
<feOffset/>
<feGaussianBlur stdDeviation="4"/>
<feComposite in2="hardAlpha" operator="arithmetic" k2="-1" k3="1"/>
<feColorMatrix type="matrix" values="0 0 0 0 0 0 0 0 0 0 0 0 0 0 0 0 0 0 0.09 0"/>
<feBlend mode="normal" in2="shape" result="effect1_innerShadow_1690_11629"/>
</filter>
</defs>
</svg>
