<svg width="43" height="43" viewBox="0 0 47 48" fill="none" xmlns="http://www.w3.org/2000/svg">
<g id="Group 1000007391">
<g id="Rectangle 5745" filter="url(#filter0_i_1690_11620)">
<rect width="47" height="48" rx="6" fill="#00577B"/>
</g>
<g id="Group 1000007383">
<path id="Vector" d="M9.53711 27.7848C9.64272 27.2493 9.71412 26.7049 9.8599 26.1806C10.5583 23.6644 12.0748 21.785 14.3381 20.5065C14.5299 20.3979 14.6095 20.293 14.611 20.0639C14.6326 15.7323 17.83 11.928 22.088 11.156C26.3482 10.3832 30.4173 12.5319 32.2053 16.4917C32.2566 16.6047 32.3667 16.72 32.479 16.7721C35.5737 18.2239 37.4658 20.6232 37.9515 24.0133C38.3658 26.9087 37.4599 29.4382 35.4592 31.5683C35.3833 31.6486 35.2881 31.7111 35.1855 31.7959C35.8869 32.6765 36.5607 33.5222 37.265 34.4057C37.1408 34.4124 37.0553 34.4214 36.969 34.4214C34.2231 34.4221 31.4764 34.4206 28.7304 34.4229C27.9376 34.4236 27.1604 34.3158 26.3988 34.1008C26.2344 34.0547 26.1325 34.08 26.0224 34.2206C24.5848 36.0576 22.7157 37.1926 20.4272 37.6217C20.0188 37.6984 19.6001 37.7578 19.1866 37.7593C16.2919 37.772 13.3972 37.7675 10.5025 37.7683C10.4579 37.7683 10.4125 37.7638 10.3121 37.7586C11.0097 36.8824 11.6821 36.0383 12.3552 35.1934C12.0317 34.8163 11.6947 34.4608 11.3995 34.0725C10.3783 32.7286 9.76544 31.2158 9.58917 29.5304C9.58247 29.468 9.5557 29.4077 9.53785 29.3467C9.53711 28.8261 9.53711 28.3055 9.53711 27.7848ZM18.8631 27.7209C20.6607 27.7209 22.3959 27.7246 24.1303 27.7172C24.3973 27.7157 24.6658 27.6696 24.9313 27.6294C29.0919 26.9972 31.942 23.0055 31.1863 18.8732C30.2098 13.5375 24.1459 10.9217 19.6492 13.9451C17.1093 15.6527 16.0182 18.1264 16.3484 21.1691C16.5745 23.2539 17.6708 24.879 19.2825 26.1746C19.4454 26.3055 19.609 26.4357 19.7764 26.5695C19.467 26.9585 19.1806 27.3193 18.8631 27.7209ZM13.7966 36.0866C13.8963 36.0926 13.9401 36.097 13.984 36.097C15.598 36.097 17.2119 36.1104 18.8251 36.0926C20.4755 36.074 21.9816 35.5846 23.2958 34.5731C23.7436 34.2287 24.1385 33.816 24.5758 33.4188C24.4754 33.3504 24.4464 33.3273 24.4144 33.3095C22.8102 32.4296 21.5696 31.1853 20.7053 29.5706C20.622 29.4152 20.5179 29.3995 20.3714 29.4003C18.8132 29.4033 17.255 29.4018 15.6969 29.4018C15.6039 29.4018 15.5109 29.4018 15.3667 29.4018C16.0836 28.5026 16.7545 27.6614 17.4373 26.8053C16.1149 25.5253 15.2425 23.9909 14.8096 22.1695C12.9428 23.3848 11.7334 25.03 11.3504 27.1995C10.7688 30.4943 12.1038 33.0008 14.7084 34.9368C14.4065 35.3183 14.1194 35.6805 13.7966 36.0866ZM32.8635 31.5825C35.039 30.0325 36.3443 27.9812 36.3562 25.2799C36.3681 22.5808 35.1498 20.4901 32.9237 18.9111C32.9237 19.0636 32.9252 19.1543 32.9237 19.2451C32.9051 20.0319 32.9832 20.8345 32.8508 21.602C32.235 25.1772 30.1837 27.5989 26.8108 28.8908C25.6439 29.3378 24.4174 29.4442 23.1753 29.4033C22.9864 29.3973 22.7968 29.4025 22.5655 29.4025C22.6532 29.5319 22.7053 29.6175 22.7663 29.697C24.3081 31.7067 26.3541 32.7152 28.8747 32.7479C30.4136 32.768 31.9531 32.7516 33.4927 32.7516C33.5715 32.7516 33.6511 32.7516 33.7895 32.7516C33.4659 32.3426 33.1803 31.9826 32.8635 31.5825Z" fill="white"/>
<path id="Vector_2" d="M22.999 22.6855C22.999 22.1254 22.9403 21.5721 23.0124 21.0366C23.1262 20.1983 23.6208 19.5981 24.3958 19.2478C24.9596 18.9927 25.3136 18.5784 25.4289 17.9619C25.5873 17.1103 25.0042 16.2423 24.1459 16.0646C23.2445 15.8779 22.3639 16.4297 22.1727 17.3022C22.1467 17.4197 22.1296 17.5394 22.1028 17.6882C21.8328 17.6882 21.5576 17.6882 21.2817 17.6882C21.0147 17.6882 20.7477 17.6882 20.4517 17.6882C20.4494 16.873 20.709 16.1761 21.2036 15.5714C22.0723 14.5094 23.4654 14.0705 24.758 14.4885C26.1213 14.9288 26.9112 15.8987 27.112 17.3118C27.3098 18.7049 26.5319 20.0927 25.2288 20.7048C24.7863 20.9123 24.6055 21.221 24.6219 21.6896C24.6331 22.0138 24.6241 22.3396 24.6241 22.6869C24.0738 22.6855 23.5331 22.6855 22.999 22.6855Z" fill="white"/>
<path id="Vector_3" d="M22.9712 24.4004C23.5141 24.4004 24.0474 24.4004 24.6015 24.4004C24.6015 24.9389 24.6015 25.4796 24.6015 26.0389C24.0667 26.0389 23.5268 26.0389 22.9712 26.0389C22.9712 25.4959 22.9712 24.9552 22.9712 24.4004Z" fill="white"/>
</g>
</g>
<defs>
<filter id="filter0_i_1690_11620" x="0" y="0" width="47" height="48" filterUnits="userSpaceOnUse" color-interpolation-filters="sRGB">
<feFlood flood-opacity="0" result="BackgroundImageFix"/>
<feBlend mode="normal" in="SourceGraphic" in2="BackgroundImageFix" result="shape"/>
<feColorMatrix in="SourceAlpha" type="matrix" values="0 0 0 0 0 0 0 0 0 0 0 0 0 0 0 0 0 0 127 0" result="hardAlpha"/>
<feOffset/>
<feGaussianBlur stdDeviation="4"/>
<feComposite in2="hardAlpha" operator="arithmetic" k2="-1" k3="1"/>
<feColorMatrix type="matrix" values="0 0 0 0 0 0 0 0 0 0 0 0 0 0 0 0 0 0 0.09 0"/>
<feBlend mode="normal" in2="shape" result="effect1_innerShadow_1690_11620"/>
</filter>
</defs>
</svg>
