<svg width="30" height="30" viewBox="0 0 30 30" fill="none" xmlns="http://www.w3.org/2000/svg">
<circle cx="15" cy="15" r="15" fill="#FFF8E1"/>
<path d="M21.9985 11.553C21.9985 12.2688 21.9985 12.9727 21.9985 13.6765C21.9985 13.9507 21.9939 14.2235 22 14.4978C22.0031 14.647 21.9525 14.7706 21.853 14.8791C21.6355 15.1142 21.3568 15.2574 21.0689 15.384C20.4334 15.6613 19.7642 15.8271 19.0842 15.9522C17.6585 16.2144 16.219 16.2837 14.7734 16.24C13.5115 16.2023 12.2588 16.0742 11.0322 15.7562C10.5544 15.6327 10.0842 15.4865 9.65391 15.2453C9.47167 15.1429 9.30628 15.0087 9.14701 14.8731C9.03828 14.7812 9 14.65 9 14.5038C9.00306 13.5559 9.00153 12.6064 9.00153 11.6585C9.00153 11.6268 9.00153 11.5967 9.00153 11.5711C9.23124 11.6962 9.45023 11.8303 9.68147 11.9373C10.3109 12.2282 10.9801 12.3985 11.6585 12.5281C13.2129 12.8265 14.7841 12.9169 16.3629 12.8566C17.6508 12.8069 18.9296 12.6652 20.1792 12.3336C20.6784 12.201 21.1654 12.0368 21.6187 11.7866C21.7443 11.7157 21.8637 11.6359 21.9985 11.553Z" fill="#FFD52D"/>
<path d="M9.00174 19.3159C9.21767 19.435 9.41981 19.5631 9.63574 19.6656C10.2759 19.967 10.9558 20.1418 11.6495 20.2759C13.2269 20.5789 14.821 20.6678 16.4229 20.6045C17.6449 20.5548 18.8578 20.4206 20.0446 20.1192C20.625 19.973 21.1932 19.7877 21.7123 19.4817C21.8057 19.4275 21.893 19.3657 21.9987 19.2979C21.9987 19.3431 21.9987 19.3777 21.9987 19.4124C21.9987 20.3603 21.9971 21.3098 22.0002 22.2578C22.0002 22.3964 21.9558 22.5125 21.8654 22.6149C21.6725 22.835 21.4198 22.9706 21.1595 23.0927C20.6005 23.3534 20.0079 23.5132 19.4045 23.6383C18.4596 23.8357 17.504 23.9351 16.5393 23.9758C15.6909 24.012 14.844 24.009 13.9971 23.9517C12.8057 23.8703 11.6281 23.7151 10.4887 23.3459C10.086 23.2148 9.6924 23.061 9.34937 22.8078C9.26208 22.7446 9.17632 22.6707 9.11507 22.5848C9.0584 22.5049 9.00634 22.4039 9.00481 22.3105C8.99868 21.3128 9.00174 20.3151 9.00174 19.3159Z" fill="#FFD52D"/>
<path d="M21.9985 15.4277C21.9985 16.1496 21.9985 16.861 21.9985 17.5708C21.9985 17.8421 21.9954 18.1118 22 18.3831C22.0015 18.5218 21.9541 18.6378 21.8652 18.7403C21.7014 18.9272 21.4931 19.0523 21.2741 19.1623C20.706 19.4456 20.0995 19.6144 19.4809 19.747C18.6263 19.9309 17.7596 20.0319 16.8851 20.0846C16.0306 20.1359 15.1761 20.1419 14.3231 20.0967C13.0444 20.0304 11.7795 19.8782 10.5528 19.4923C10.124 19.3567 9.70444 19.1969 9.33997 18.9257C9.25881 18.8654 9.1853 18.7931 9.11792 18.7177C9.04135 18.6333 9 18.5308 9 18.4148C9.00153 17.4367 9 16.4586 9 15.4805C9 15.4669 9.00153 15.4549 9.00153 15.4383C9.01072 15.4383 9.02297 15.4368 9.0291 15.4398C9.56202 15.8226 10.173 16.0336 10.7994 16.2039C11.5054 16.3953 12.2251 16.5143 12.9525 16.6002C14.0796 16.7314 15.2113 16.7766 16.3446 16.7299C17.7366 16.6726 19.1149 16.5234 20.4564 16.1285C20.9908 15.9703 21.5069 15.7713 21.9617 15.4428C21.9678 15.4383 21.9786 15.4368 21.9985 15.4277Z" fill="#FFD52D"/>
<path d="M15.5054 8.99985C16.34 8.99835 17.1731 9.03452 18.0031 9.12645C18.9602 9.23194 19.9097 9.38416 20.8193 9.7127C21.1272 9.82423 21.4258 9.95685 21.6831 10.1618C21.8132 10.2658 21.925 10.3849 21.9755 10.5476C22.0322 10.7285 21.9786 10.8882 21.8653 11.0314C21.6739 11.2725 21.4074 11.4112 21.1317 11.5348C20.5835 11.7804 20.0046 11.9236 19.4166 12.0381C17.8791 12.335 16.3232 12.4059 14.7612 12.3667C13.6953 12.3396 12.634 12.2446 11.5866 12.0396C10.9633 11.9176 10.3461 11.7699 9.7734 11.4896C9.5881 11.3991 9.40893 11.2861 9.25273 11.155C8.91888 10.8747 8.91888 10.5341 9.23435 10.2372C9.50388 9.98398 9.83772 9.84081 10.1792 9.71572C10.8393 9.47308 11.5253 9.33443 12.2175 9.22893C13.3079 9.06315 14.4043 8.99684 15.5054 8.99985Z" fill="#FFD52D"/>
</svg>
