<svg width="14" height="12" viewBox="0 0 14 12" fill="none" xmlns="http://www.w3.org/2000/svg">
<path id="Vector" d="M2.41796 7.28695C2.60148 7.55243 2.78691 7.81726 2.96852 8.08404C3.05107 8.20542 3.13236 8.3268 3.21808 8.44558C3.41938 8.72469 3.59782 9.02067 3.81246 9.29005C3.87659 9.37053 3.92358 9.4653 3.98074 9.55228C4.04551 9.65029 4.12615 9.65224 4.20045 9.56396C4.4697 9.24396 4.71989 8.90838 4.97199 8.5754C5.06407 8.45402 5.1498 8.32745 5.24315 8.20736C5.40634 7.99901 5.57399 7.79454 5.73973 7.58813C5.78481 7.56282 5.8064 7.51673 5.8318 7.47454C5.84387 7.47324 5.84895 7.46675 5.84577 7.45442C5.99564 7.27397 6.14677 7.09352 6.29537 6.91178C6.36331 6.8287 6.42745 6.74301 6.49285 6.65863C6.49921 6.65409 6.50556 6.6489 6.51254 6.64435C6.5608 6.61839 6.59382 6.57815 6.61922 6.53011C6.71765 6.39835 6.84021 6.28865 6.94372 6.16078C7.08723 5.98423 7.24344 5.81806 7.4041 5.65709C7.52539 5.53571 7.64795 5.41563 7.75907 5.28516C7.90068 5.11899 8.05372 4.96321 8.2093 4.81327C8.34837 4.67956 8.48045 4.5387 8.62333 4.40824C8.81764 4.23039 9.00624 4.04669 9.19548 3.863C9.27104 3.78965 9.34217 3.71111 9.42726 3.6488C9.46599 3.6144 9.50473 3.58 9.54347 3.5456L9.54664 3.543C9.55998 3.53846 9.57077 3.53196 9.5695 3.51444C9.69396 3.40215 9.81779 3.28921 9.94226 3.17691C10.0356 3.11006 10.1258 3.03931 10.1994 2.94973C10.435 2.74786 10.6744 2.54989 10.9062 2.34283C11.0243 2.23703 11.1494 2.13642 11.2739 2.03776C11.3825 1.95143 11.4834 1.85666 11.5965 1.77488C11.8302 1.60546 12.0581 1.42826 12.2816 1.24587C12.5293 1.04335 12.7884 0.858361 13.0443 0.667528C13.2996 0.476696 13.5593 0.291705 13.8165 0.104118C13.8412 0.0859433 13.8641 0.0651724 13.8876 0.0456997C13.9308 0.0515415 13.9486 -0.00428023 13.9917 0.000263402C13.9937 0.00415795 13.9968 0.00805249 14 0.0106488C13.9987 0.0223325 13.9975 0.0340161 13.9962 0.0456997C13.8463 0.222252 13.6965 0.399454 13.5466 0.576656C13.5237 0.603268 13.5021 0.631179 13.4806 0.658441C13.4304 0.698036 13.3904 0.746717 13.3599 0.803188C13.2323 0.931708 13.1269 1.07905 13.0176 1.22315C13.0037 1.24132 12.9827 1.25431 12.9649 1.26924C12.923 1.30948 12.8824 1.35102 12.8538 1.40295C12.7001 1.58534 12.5395 1.76254 12.3953 1.95273C12.2061 2.20263 11.9908 2.42916 11.8022 2.67906C11.7063 2.80628 11.6015 2.92571 11.5025 3.05034C11.3006 3.30413 11.1005 3.55923 10.8992 3.81432C10.8903 3.82341 10.8821 3.83314 10.8732 3.84223L10.87 3.84742C10.851 3.86949 10.8256 3.88637 10.8179 3.91752L10.8148 3.92142C10.7906 3.92726 10.7849 3.95063 10.7735 3.96815C10.6185 4.16807 10.4642 4.36799 10.3093 4.56856C10.2953 4.57051 10.2871 4.57895 10.2833 4.59258C10.2801 4.59453 10.2782 4.59777 10.2782 4.60167C10.2566 4.62244 10.2356 4.64386 10.2299 4.67566L10.2286 4.67696C10.2045 4.6828 10.1918 4.69968 10.1867 4.72434L10.1829 4.72759C10.1721 4.72564 10.1677 4.72954 10.1702 4.74122C9.97401 4.99501 9.77969 5.25011 9.58601 5.50585C9.47044 5.65839 9.36249 5.81936 9.24755 5.9719C9.09197 6.17896 8.9383 6.38731 8.78526 6.59632C8.67159 6.75145 8.56046 6.90918 8.44807 7.06496C8.349 7.20192 8.24804 7.33758 8.14897 7.47584C8.05626 7.60566 7.96736 7.73807 7.87719 7.86919C7.84925 7.8971 7.82194 7.92631 7.80734 7.9646C7.80289 7.9685 7.80162 7.97369 7.80162 7.97953C7.77939 7.99187 7.76479 8.00939 7.76161 8.036C7.64223 8.20736 7.52031 8.37743 7.40474 8.55138C7.25995 8.76883 7.11263 8.98433 6.97293 9.20567C6.88847 9.33873 6.79576 9.46855 6.70939 9.60096C6.61414 9.74766 6.51953 9.89435 6.42427 10.041C6.30108 10.2299 6.18106 10.4221 6.05215 10.6071C5.98103 10.7083 5.9169 10.8174 5.84958 10.9238C5.81148 10.9796 5.77402 11.0355 5.73592 11.0913C5.72322 11.1211 5.68194 11.1289 5.68067 11.1679C5.6521 11.1834 5.62733 11.2023 5.62225 11.238C5.57462 11.2639 5.54033 11.3035 5.51176 11.3503L5.51112 11.3509C5.49017 11.3542 5.47493 11.3639 5.47556 11.3886L5.48001 11.3944L5.47556 11.3892C5.39872 11.4424 5.33649 11.5112 5.27299 11.58C5.012 11.7929 4.71608 11.9241 4.38778 11.9851C4.24808 12.011 4.10837 11.9877 3.96931 12C3.91977 11.9942 3.87088 11.9766 3.82008 11.9844C3.80801 11.9831 3.79595 11.9818 3.78388 11.9805C3.74451 11.9539 3.70069 11.9546 3.65624 11.9604C3.3381 11.8793 3.07203 11.6969 2.82755 11.4846C2.73547 11.4041 2.67959 11.2802 2.60593 11.1776C2.49861 11.0283 2.38494 10.8842 2.28271 10.7317C2.19952 10.6077 2.11951 10.4818 2.02743 10.3636C1.90424 10.2053 1.79311 10.0371 1.67373 9.87553C1.59626 9.77037 1.52894 9.65484 1.45211 9.54774C1.30732 9.34652 1.1492 9.15504 1.01585 8.94538C1.01395 8.90384 0.982831 8.88372 0.95489 8.86165L0.951715 8.8571C0.944095 8.83049 0.940285 8.80193 0.905994 8.79609C0.759941 8.57864 0.615157 8.3599 0.448148 8.15738C0.407507 8.1087 0.378297 8.05028 0.343371 7.99576C0.314795 7.94448 0.283679 7.8945 0.241769 7.85361C0.197952 7.753 0.100795 7.69393 0.0525341 7.59397C-0.0331929 7.41612 -0.0147775 7.23827 0.113496 7.09352C0.208113 6.98707 0.309715 6.88517 0.427193 6.80792C0.511015 6.75275 0.601187 6.70082 0.704694 6.68135C0.759306 6.67097 0.808837 6.63332 0.868528 6.64046C0.985371 6.63527 1.10285 6.62942 1.21969 6.62423C1.23176 6.62553 1.24382 6.62748 1.25652 6.62878C1.31177 6.63981 1.36765 6.65149 1.4229 6.66253C1.61213 6.69239 1.77914 6.78326 1.94551 6.87024C2.04585 6.92281 2.13602 6.99421 2.21349 7.07924C2.28144 7.1487 2.34875 7.21815 2.41669 7.2876L2.41796 7.28695Z" fill="white"/>
</svg>
