<svg width="14" height="14" viewBox="0 0 14 14" fill="none" xmlns="http://www.w3.org/2000/svg">
<path id="Vector" d="M9.31577 5.81707C10.0738 6.70246 10.8286 7.59466 11.593 8.47323C12.168 9.13387 12.7686 9.76726 13.3436 10.4279C13.851 11.0102 13.9121 12.1748 13.4913 12.8321C13.2825 13.159 12.9967 13.2237 12.7044 12.9683C12.4795 12.7708 12.2997 12.512 12.0813 12.3042C10.623 10.8944 9.15839 9.49143 7.69374 8.08502C7.64877 8.04075 7.58775 8.01351 7.49781 7.95562C7.05456 8.54474 6.61131 9.12365 6.18413 9.71278C5.56101 10.5777 4.91862 11.4291 4.35011 12.3349C3.83941 13.1556 2.44542 13.1692 1.90903 12.7776C1.59747 12.5528 1.45935 12.2191 1.58141 11.8513C1.75485 11.3303 1.91866 10.7684 2.22701 10.3394C3.16811 9.03171 4.17345 7.78195 5.1563 6.50835C5.21091 6.43684 5.27193 6.36533 5.35866 6.25976C5.2366 6.16101 5.13382 6.06566 5.0214 5.98734C3.90043 5.19389 2.77946 4.40045 1.65207 3.61722C0.961503 3.13707 0.653156 1.89412 1.05144 1.1143C1.25058 0.729497 1.58462 0.538798 1.95078 0.678417C2.63493 0.937222 3.34155 1.18922 3.94219 1.60467C4.99571 2.33001 5.97214 3.17112 6.9839 3.96457C7.08668 4.04289 7.18304 4.12802 7.30509 4.23018C7.86397 3.68873 8.40037 3.14729 8.95925 2.62967C9.77187 1.8771 10.6134 1.16197 11.4132 0.395774C12.017 -0.186539 13.1508 -0.0503254 13.6937 0.317451C14.0855 0.579662 14.1048 0.937222 13.7322 1.29138C13.1508 1.84645 12.5277 2.35384 11.9592 2.92594C11.0952 3.79771 10.2665 4.70693 9.42177 5.60594C9.32541 5.7081 9.24511 5.83069 9.15518 5.94307C9.20657 5.9022 9.25796 5.86134 9.31256 5.82048L9.31577 5.81707Z" fill="#FFFCF4"/>
</svg>
