<svg width="27" height="30" viewBox="0 0 27 30" fill="none" xmlns="http://www.w3.org/2000/svg">
<g id="Group">
<g id="Group 1000005561">
<path id="Vector" d="M7.25776 0.143885C6.69203 0.396982 6.34566 0.736504 6.08011 1.29826C5.97043 1.53284 5.83189 2.15632 5.82034 2.47732C5.82034 2.50202 5.29502 2.53288 4.65424 2.5514C3.36691 2.58227 3.06672 2.644 2.38554 2.98969C1.28871 3.54527 0.492064 4.55766 0.128378 5.8355C0.0302412 6.18737 0.0186956 6.74295 0.00715003 15.7063C-0.0101683 23.6388 0.00137725 25.2932 0.0706506 25.7129C0.330426 27.3241 1.33489 28.602 2.81849 29.1822L3.25145 29.3551L6.9749 29.3736C10.5944 29.3859 10.7041 29.3859 10.8831 29.2687C11.1486 29.0896 11.2698 28.8612 11.2698 28.5217C11.2698 28.1822 11.1486 27.9538 10.8831 27.7809C10.7041 27.6636 10.5656 27.6575 7.43672 27.6575C5.64138 27.6575 4.00769 27.6266 3.79987 27.5957C3.05518 27.4846 2.37399 26.9908 1.99299 26.2932C1.64662 25.6636 1.66394 26.1512 1.66394 15.9903C1.66394 5.96514 1.65239 6.37256 1.95835 5.73056C2.25853 5.09472 2.99745 4.52062 3.67864 4.38482C3.84605 4.35395 4.40024 4.32309 4.8967 4.32309H5.80879L5.8723 4.79842C6.01661 5.84785 6.61121 6.5701 7.53486 6.8232C7.84081 6.90962 8.43541 6.91579 12.1762 6.90345L16.4711 6.88493L16.8002 6.74295C17.5449 6.42195 18.1048 5.60092 18.1625 4.7552L18.1914 4.32309H19.1266C19.6404 4.32309 20.2061 4.35395 20.3735 4.38482C21.3953 4.58853 22.1977 5.5145 22.3305 6.64418C22.3594 6.87876 22.3824 8.24302 22.3882 9.68135C22.3882 11.916 22.3998 12.3173 22.4748 12.4778C22.7519 13.0457 23.6409 13.0395 23.918 12.4716C23.9988 12.3049 24.0104 11.9222 23.9931 9.18133L23.9757 6.08242L23.8141 5.58858C23.3465 4.17493 22.1977 3.0329 20.8873 2.68104C20.6333 2.6193 20.1368 2.57609 19.3517 2.5514L18.1914 2.52053L18.1625 2.10694C18.1106 1.31678 17.6026 0.545137 16.9156 0.199442L16.5866 0.0327682L12.0838 0.020422L7.58104 0.00190353L7.25776 0.143885ZM16.1825 1.8168C16.2864 1.86618 16.4018 1.95878 16.4365 2.02669C16.4769 2.10694 16.5 2.65017 16.5 3.47737V4.80459L16.321 4.96509L16.1421 5.12559H12.0492C7.56949 5.12559 7.70227 5.13794 7.55795 4.76755C7.50599 4.64409 7.49445 4.21197 7.50599 3.34773C7.52331 2.14397 7.52908 2.10694 7.66186 1.95261C7.7369 1.86618 7.85236 1.78593 7.92163 1.77359C7.98513 1.76124 9.83242 1.74272 12.0145 1.73655C15.3223 1.73038 16.0151 1.74272 16.1825 1.8168Z" fill="#303030"/>
<path id="Vector_2" d="M6.37957 11.2756C5.85584 11.6679 5.87992 12.7214 6.41569 13.0628C6.57221 13.1573 7.18623 13.1718 11.4784 13.1718C16.7939 13.1718 16.5531 13.1863 16.83 12.765C17.0949 12.3581 17.0468 11.7769 16.7096 11.3846L16.529 11.1739L11.5506 11.1521C6.69862 11.1376 6.56619 11.1376 6.37957 11.2756Z" fill="#303030"/>
<path id="Vector_3" d="M23.3553 15.2676C22.5408 15.4952 22.6363 15.4029 18.4905 19.9303C15.8895 22.7784 14.6199 24.2055 14.5413 24.3778C14.3783 24.7469 13.9683 27.4104 14.002 27.8595C14.0694 28.7206 14.7042 29.3665 15.4906 29.3788C15.985 29.385 18.1871 28.9667 18.5354 28.7945C18.805 28.6591 19.3275 28.1117 22.6419 24.4762C26.3664 20.3979 26.445 20.2994 26.6697 19.8073C26.9619 19.1553 27.0574 18.5894 26.9675 17.9312C26.8158 16.7439 26.0799 15.7413 25.0743 15.3537C24.6362 15.1876 23.7935 15.1446 23.3553 15.2676ZM24.6305 17.0577C24.8609 17.1745 25.1361 17.4698 25.2653 17.7282C25.3271 17.8512 25.3608 18.0603 25.3608 18.3433C25.3608 18.8908 25.2372 19.1368 24.5912 19.8319L24.1249 20.3425L23.198 19.3275L22.2711 18.3125L22.7767 17.7528C23.434 17.0269 23.6812 16.8793 24.1643 16.9285C24.3159 16.9408 24.5238 17.0023 24.6305 17.0577ZM22.0577 20.6008L22.9733 21.6035L20.4117 24.4085L17.8444 27.2197L16.7602 27.4535C16.1648 27.5826 15.6592 27.6688 15.6367 27.6503C15.6198 27.6257 15.6816 27.0721 15.7828 26.42L15.9625 25.2328L18.5242 22.4155C19.9342 20.8715 21.1027 19.6043 21.1195 19.6043C21.1364 19.6043 21.5577 20.0534 22.0577 20.6008Z" fill="#303030"/>
<path id="Vector_4" d="M6.58571 16.2591C5.84847 16.5201 5.79318 17.7123 6.4997 18.1356C6.63486 18.2132 7.11406 18.2344 8.98787 18.2344C11.0767 18.2344 11.3286 18.2203 11.519 18.1074C11.9675 17.8534 12.1211 17.3243 11.8999 16.8094C11.6542 16.2168 11.6849 16.2238 9.06774 16.2097C7.80215 16.2027 6.68401 16.2238 6.58571 16.2591Z" fill="#303030"/>
</g>
</g>
</svg>
