<svg width="30" height="30" viewBox="0 0 30 30" fill="none" xmlns="http://www.w3.org/2000/svg">
<circle cx="15" cy="15" r="15" fill="#FFECEB"/>
<path d="M21.9997 8.08147V22.6048C21.9997 23.7207 21.4515 24.2689 20.344 24.2689C16.7558 24.2717 13.1704 24.2717 9.58224 24.2689C8.56703 24.2689 8.0021 23.7039 8.0021 22.6887C7.9993 17.7973 7.9993 12.9058 8.0021 8.01435C8.0021 6.99634 8.56703 6.43141 9.57945 6.42861H11.2043C11.2379 6.81735 11.2351 7.15855 11.3022 7.48577C11.5036 8.4814 12.337 9.18617 13.3522 9.20575C14.4429 9.22533 15.5337 9.22533 16.6244 9.20575C17.8074 9.18338 18.7163 8.24927 18.7555 7.05508C18.7639 6.85931 18.7583 6.66353 18.7583 6.4398C19.4575 6.4398 20.1231 6.39785 20.7803 6.45098C21.4431 6.50133 21.9465 7.09982 21.9969 7.77943C22.0025 7.88011 21.9997 7.98079 21.9997 8.08147Z" fill="#EE5D50"/>
<path d="M11.986 6.42912C12.3663 6.42912 12.7019 6.41794 13.0375 6.43192C13.3172 6.44311 13.4766 6.33124 13.5689 6.06555C13.8066 5.38595 14.3324 5 14.9924 5C15.6553 5 16.1978 5.38874 16.4244 6.05996C16.5166 6.33124 16.6705 6.44311 16.9473 6.43192C17.2829 6.42073 17.6213 6.42912 17.9542 6.42912C18.273 7.78274 17.3473 8.53226 16.3936 8.47352C15.4567 8.41759 14.5142 8.46234 13.5745 8.45954C12.5313 8.45954 11.9888 7.90859 11.986 6.85702C11.986 6.73397 11.986 6.61091 11.986 6.42912Z" fill="#EE5D50"/>
<path d="M13.378 17.9318C15.1287 16.2202 16.6977 14.682 18.2695 13.1466C18.3981 13.0208 18.5184 12.8306 18.6666 12.8026C18.8819 12.7635 19.2064 12.7663 19.321 12.8949C19.4329 13.0208 19.363 13.3312 19.3322 13.5549C19.321 13.6416 19.1952 13.7116 19.1169 13.7871C17.4304 15.4371 15.744 17.0844 14.0548 18.7317C13.6045 19.1707 13.4199 19.1763 12.9781 18.7484C12.0691 17.8647 11.1658 16.9725 10.2569 16.086C9.98278 15.8203 9.82057 15.5182 10.1422 15.2106C10.4358 14.9281 10.7407 15.0708 10.9812 15.3336C11.7755 16.1866 12.5586 17.0424 13.378 17.9318Z" fill="white"/>
</svg>
