<svg width="33" height="27" viewBox="0 0 33 27" fill="none" xmlns="http://www.w3.org/2000/svg">
<path d="M0 13.3011C0.0837434 12.4697 0.0725201 11.615 0.27195 10.8121C0.74592 8.90584 2.43115 7.58148 4.39351 7.46925C4.64646 7.45457 4.75611 7.3622 4.86748 7.14032C6.86178 3.14826 10.044 0.720568 14.4781 0.116235C19.9102 -0.625369 25.0341 2.23486 27.3435 7.17744C27.4402 7.38464 27.5585 7.45198 27.7778 7.46493C30.2245 7.61688 32.097 9.5801 32.1152 12.0259C32.1229 13.1016 32.1583 14.1851 32.0513 15.2522C31.8 17.7507 29.3525 19.5766 26.8592 19.189C26.6218 19.1519 26.4759 19.1916 26.3265 19.4066C24.3762 22.2064 21.7154 23.9244 18.3761 24.6064C18.2474 24.6323 18.0929 24.7532 18.0359 24.8706C17.4635 26.0611 16.2229 26.6862 14.9633 26.3978C13.7451 26.1198 12.8594 24.9872 12.8809 23.7379C12.9034 22.4636 13.803 21.4 15.0764 21.1393C16.1607 20.9174 17.3159 21.4345 17.8814 22.4274C18.0117 22.6562 18.1369 22.6812 18.3657 22.6285C22.7238 21.6227 25.8922 18.166 26.4888 13.7569C27.2296 8.28165 23.4128 3.05502 17.9781 2.10363C12.3379 1.11598 6.99214 4.70831 5.84304 10.282C5.34058 12.7192 5.68333 15.0554 6.82552 17.2698C6.87991 17.3751 6.93861 17.4787 6.98264 17.5875C7.20107 18.1288 6.98005 18.665 6.44651 18.8981C3.77018 20.0705 0.480014 18.21 0.144177 15.3066C0.0682034 14.6487 0.132953 13.9745 0.132953 13.308C0.0880601 13.3062 0.04403 13.3037 0 13.3011ZM27.511 17.2828C28.7749 17.3147 29.9827 16.3564 30.1036 15.1141C30.2132 13.9961 30.2184 12.8565 30.1381 11.735C30.0578 10.6014 29.2299 9.73723 28.1637 9.486C28.7801 12.1546 28.5608 14.7446 27.511 17.2828ZM4.67927 17.2784C3.63118 14.7385 3.41535 12.1502 4.03436 9.45578C2.94742 9.81493 2.19891 10.4797 2.09531 11.5528C1.98049 12.7425 1.98653 13.9615 2.09876 15.1521C2.21272 16.3728 3.46111 17.3328 4.67927 17.2784ZM16.3101 23.7707C16.3075 23.3598 15.9889 23.0429 15.5763 23.0403C15.1541 23.0377 14.8131 23.3753 14.82 23.7897C14.826 24.186 15.1688 24.527 15.5625 24.5305C15.9777 24.5322 16.3127 24.1929 16.3101 23.7707Z" fill="#303030"/>
<path d="M15.9103 4.26367C20.3073 4.27403 23.8314 7.50635 24.1888 11.6788C24.5583 15.9964 21.5488 19.8071 17.2554 20.4486C16.2885 20.5928 15.3207 20.5634 14.3693 20.3329C14.1051 20.269 13.9022 20.3122 13.6752 20.4469C12.7125 21.0167 11.7439 21.577 10.77 22.1269C10.1087 22.5007 9.36799 22.1554 9.27906 21.4328C9.25748 21.2584 9.30237 21.0693 9.34813 20.8949C9.58209 20.0005 9.82037 19.107 10.0699 18.2169C10.1286 18.0079 10.0846 17.869 9.94642 17.6997C7.96507 15.2703 7.39699 12.5405 8.48825 9.59735C9.58209 6.64734 11.7784 4.91549 14.8847 4.36727C15.2844 4.29734 15.6954 4.28439 15.9103 4.26367ZM11.7862 19.2995C12.2999 19.0042 12.7402 18.778 13.1511 18.5087C13.5543 18.2454 13.9488 18.216 14.4081 18.3429C14.8605 18.4681 15.3345 18.5588 15.8024 18.5769C19.1772 18.7072 21.9286 16.2873 22.2541 12.9264C22.6504 8.83243 18.806 5.43263 14.7975 6.35812C12.4432 6.90202 10.8529 8.34983 10.1726 10.6644C9.48281 13.0075 10.0656 15.0873 11.7827 16.8286C12.1393 17.1904 12.261 17.5702 12.1134 18.0554C11.9977 18.4336 11.9114 18.8195 11.7862 19.2995Z" fill="#303030"/>
<path d="M12.8705 13.3637C12.3327 13.3654 11.9044 12.9475 11.8975 12.414C11.8906 11.8787 12.3465 11.4212 12.8774 11.4298C13.4006 11.4384 13.8357 11.8822 13.834 12.4054C13.8323 12.9389 13.4075 13.3619 12.8705 13.3637Z" fill="#303030"/>
<path d="M19.3302 13.3637C18.7941 13.3654 18.365 12.9441 18.3589 12.4114C18.3529 11.8753 18.807 11.4212 19.3406 11.4298C19.8655 11.4384 20.298 11.8813 20.2954 12.4062C20.2928 12.9381 19.8655 13.3619 19.3302 13.3637Z" fill="#303030"/>
<path d="M16.1015 13.3619C15.5662 13.3645 15.1363 12.9449 15.1285 12.4131C15.1207 11.8795 15.5731 11.4246 16.1084 11.4297C16.629 11.434 17.0658 11.8795 17.0641 12.4036C17.0632 12.9345 16.6368 13.3593 16.1015 13.3619Z" fill="#303030"/>
</svg>
