<svg width="18" height="19" viewBox="0 0 18 19" fill="none" xmlns="http://www.w3.org/2000/svg">
<g id="Group 1676">
<path id="Vector" d="M3.84133 1.58663C3.86423 1.41255 3.87034 1.25884 3.90597 1.11173C4.07139 0.429676 4.63231 0.00466243 5.37596 0.00211743C6.62046 -0.00195455 7.86496 0.00109944 9.10997 0.00109944C9.55433 0.00109944 9.99919 8.14397e-05 10.4435 0.00109944C11.3862 0.00313543 11.9583 0.551327 12.0062 1.49603C12.0072 1.51435 12.0118 1.53319 12.0184 1.57543C12.0876 1.579 12.1604 1.58256 12.2332 1.58612C12.7208 1.6075 13.2171 1.57696 13.6935 1.66043C14.8968 1.87116 15.8196 2.95736 15.8486 4.18049C15.8741 5.26007 15.8588 6.34017 15.8567 7.42026C15.8562 7.75722 15.6343 7.98983 15.3259 7.99798C15.0118 8.00612 14.7711 7.77198 14.769 7.42739C14.7629 6.42364 14.7644 5.4199 14.7665 4.41615C14.7675 3.9321 14.6336 3.50148 14.2829 3.15485C14.0366 2.91155 13.7429 2.73697 13.3963 2.71864C12.9422 2.69472 12.4867 2.71304 12.0184 2.71304C12.0077 2.83266 12.0077 2.96602 11.9823 3.09428C11.8433 3.80332 11.2574 4.2772 10.5097 4.27923C9.00461 4.2828 7.50001 4.28076 5.9949 4.28025C5.72819 4.28025 5.45994 4.2945 5.19526 4.27058C4.45925 4.2039 3.92938 3.65113 3.86932 2.90901C3.86372 2.84029 3.85812 2.77107 3.85456 2.72272C3.36185 2.72272 2.87423 2.67182 2.40188 2.73442C1.68674 2.8296 1.1416 3.50097 1.10495 4.22579C1.1019 4.2828 1.1019 4.34031 1.1019 4.39732C1.1019 8.05651 1.10139 11.7157 1.1019 15.3749C1.1019 16.2046 1.59868 16.8551 2.37185 17.0317C2.53117 17.0678 2.69913 17.0765 2.86303 17.0765C4.16454 17.08 5.46656 17.078 6.76807 17.0785C7.19614 17.0785 7.45064 17.2806 7.45522 17.6196C7.45929 17.9637 7.19817 18.1708 6.75942 18.1708C5.42584 18.1708 4.09226 18.1764 2.75869 18.1693C1.40526 18.1617 0.326184 17.278 0.0574323 15.9638C0.0182394 15.7724 0.00296943 15.5729 0.00296943 15.3774C-8.45657e-05 11.7121 -0.00110256 8.04633 0.00144243 4.38103C0.00246043 2.80772 1.17112 1.61972 2.74393 1.58816C3.11041 1.58052 3.47739 1.58714 3.84133 1.58714V1.58663ZM7.92044 3.17878C8.77098 3.17878 9.62152 3.1798 10.4721 3.17878C10.779 3.17878 10.9047 3.05764 10.9072 2.75682C10.9108 2.34402 10.9108 1.93122 10.9072 1.51842C10.9047 1.22422 10.7815 1.09545 10.4909 1.09545C8.78981 1.0929 7.08874 1.09341 5.38767 1.09545C5.08939 1.09545 4.9596 1.22982 4.95756 1.52911C4.95502 1.92919 4.95553 2.32926 4.95756 2.72933C4.95909 3.05458 5.08328 3.17878 5.40752 3.17929C6.24533 3.1803 7.08314 3.17929 7.92095 3.17929L7.92044 3.17878Z" fill="#252525"/>
<path id="Vector_2" d="M15.6663 9.34766C16.4466 9.38736 17.0763 9.74468 17.4137 10.5138C17.7512 11.2829 17.6219 12.0006 17.0849 12.6444C17.0279 12.7126 16.9643 12.7747 16.9012 12.8379C15.3523 14.3878 13.8014 15.9356 12.2566 17.4891C12.0275 17.7192 11.772 17.8678 11.4503 17.9166C10.98 17.9884 10.5127 18.077 10.0429 18.1503C9.23412 18.277 8.64063 17.6601 8.78417 16.8518C8.86968 16.3708 8.94959 15.8888 9.02747 15.4068C9.06819 15.1538 9.17406 14.9385 9.35628 14.7568C10.9601 13.1539 12.563 11.5506 14.1653 9.94624C14.5684 9.5426 15.0576 9.35631 15.6668 9.34766H15.6663ZM9.85408 17.1155C10.3417 17.0188 10.7947 16.9333 11.2447 16.835C11.3363 16.8152 11.433 16.7602 11.5002 16.6935C12.2795 15.9204 13.0526 15.1416 13.8283 14.3654C14.1689 14.0243 14.5114 13.6853 14.8346 13.3642C14.4101 12.9386 13.9948 12.5233 13.5754 12.1029C13.5764 12.1024 13.5591 12.11 13.5464 12.1227C12.4245 13.244 11.3027 14.3654 10.1824 15.4877C10.1483 15.5223 10.1101 15.5671 10.1025 15.6119C10.019 16.098 9.94112 16.5851 9.85459 17.115L9.85408 17.1155ZM15.6215 12.5085C15.8445 12.3004 16.0959 12.1029 16.3011 11.8652C16.5907 11.5292 16.5566 11.0426 16.2588 10.7169C15.9697 10.4008 15.4831 10.3173 15.136 10.5738C14.8601 10.7779 14.6275 11.0406 14.3842 11.2691C14.8189 11.7048 15.2306 12.1171 15.6215 12.5085Z" fill="#252525"/>
<path id="Vector_3" d="M7.274 8.06509C6.30894 8.06509 5.34388 8.06662 4.37882 8.06408C4.0383 8.06306 3.80721 7.84928 3.79907 7.53879C3.79093 7.24408 3.98994 7.01452 4.28465 6.98093C4.34777 6.9738 4.41139 6.97177 4.47451 6.97177C6.34763 6.97177 8.22023 6.97329 10.0933 6.96973C10.3753 6.96922 10.613 7.03386 10.7311 7.31687C10.8803 7.67418 10.6247 8.05593 10.2262 8.06255C9.69938 8.07069 9.17206 8.06509 8.64525 8.06509C8.18816 8.06509 7.73108 8.06509 7.274 8.06509Z" fill="#252525"/>
<path id="Vector_4" d="M5.66444 11.1847C5.23994 11.1847 4.81544 11.1867 4.39042 11.1842C4.04278 11.1821 3.80558 10.9648 3.79897 10.6502C3.79235 10.3245 4.02598 10.0898 4.38228 10.0878C5.2379 10.0827 6.09353 10.0827 6.94865 10.0878C7.2907 10.0898 7.534 10.325 7.53654 10.6329C7.53909 10.949 7.28968 11.1816 6.93745 11.1842C6.51295 11.1867 6.08844 11.1847 5.66343 11.1847H5.66444Z" fill="#252525"/>
</g>
</svg>
