<svg width="20" height="20" viewBox="0 0 20 20" fill="none" xmlns="http://www.w3.org/2000/svg">
<path d="M0.101397 4.74552C0.072538 3.80951 0.322911 2.96866 0.989793 2.29005C1.5818 1.68789 2.16678 1.0748 2.8009 0.519432C3.59492 -0.177116 4.60188 -0.177896 5.38185 0.545953C6.35917 1.45856 7.30216 2.41096 8.21864 3.38519C8.89644 4.10592 8.91204 5.07079 8.2787 5.83286C7.84287 6.34989 7.36999 6.83451 6.86381 7.28289C6.5799 7.53796 6.58536 7.72984 6.7554 8.0356C7.51474 9.38747 8.51226 10.5909 9.69982 11.5878C10.4556 12.2328 11.3144 12.7578 12.124 13.3381C12.3471 13.498 12.5031 13.445 12.6871 13.25C13.1239 12.7874 13.5732 12.3342 14.0435 11.9052C14.882 11.14 15.9155 11.1369 16.7368 11.9232C17.639 12.7848 18.5216 13.6673 19.3848 14.5705C20.1999 15.4285 20.2054 16.4987 19.4184 17.37C18.8778 17.9675 18.3178 18.5486 17.7344 19.1039C16.743 20.0477 15.5372 20.1289 14.2728 19.8785C11.8767 19.4035 9.79653 18.2405 7.87155 16.806C4.53012 14.31 1.99207 11.1775 0.581084 7.21191C0.298732 6.42878 0.188755 5.58325 0 4.76658L0.101397 4.74552ZM15.3695 18.9885C15.7017 19.0064 16.0338 18.951 16.3422 18.8262C16.6507 18.7013 16.9278 18.5102 17.1541 18.2662C17.6075 17.7982 18.0615 17.3331 18.5159 16.8708C19.1298 16.2421 19.129 15.7624 18.5019 15.1306C17.7219 14.3474 16.9396 13.5674 16.1549 12.7905C15.5965 12.2375 15.1456 12.2344 14.5747 12.7905C14.0903 13.2585 13.6184 13.7461 13.138 14.2219C12.7433 14.6119 12.4227 14.6828 11.9516 14.4005C11.1966 13.9473 10.4166 13.5152 9.73414 12.9668C8.05094 11.6104 6.58224 10.0621 5.64939 8.07148C5.38887 7.5169 5.45361 7.24077 5.88962 6.82347C6.36697 6.36404 6.84899 5.90852 7.30684 5.42881C7.84191 4.8672 7.83411 4.4226 7.2928 3.86879C6.49046 3.05342 5.68163 2.24429 4.86629 1.4414C4.31406 0.895397 3.83126 0.895397 3.27669 1.43594C2.8204 1.88055 2.38752 2.35011 1.92031 2.78224C1.27761 3.37895 1.06233 4.10825 1.11849 4.96627C1.21209 6.30164 1.68085 7.52548 2.28222 8.69003C4.39206 12.771 7.48312 15.8778 11.6217 17.9129C12.8057 18.494 14.0318 18.9409 15.3695 18.9885Z" fill="#8D8D8D"/>
</svg>
