<svg width="21" height="23" viewBox="0 0 21 23" fill="none" xmlns="http://www.w3.org/2000/svg">
<path d="M19.9994 2.10447V18.1981C19.9994 18.3432 19.9708 18.4868 19.9153 18.6208C19.8598 18.7548 19.7784 18.8765 19.6759 18.9791C19.5733 19.0817 19.4516 19.163 19.3176 19.2185C19.1836 19.274 19.04 19.3026 18.8949 19.3026H17.4749V4.83934C17.4749 4.54868 17.3603 4.26973 17.1561 4.06297C16.9518 3.85622 16.6742 3.73833 16.3836 3.73487H3.52441V2.10447C3.52783 1.8126 3.64529 1.53366 3.85168 1.32727C4.05807 1.12087 4.33702 1.00341 4.62888 1H18.8949C19.1868 1.00341 19.4657 1.12087 19.6721 1.32727C19.8785 1.53366 19.996 1.8126 19.9994 2.10447Z" stroke="#303030" stroke-width="1.2" stroke-miterlimit="10"/>
<path d="M16.3705 3.73486H2.10447C1.49449 3.73486 1 4.22935 1 4.83933V20.933C1 21.543 1.49449 22.0375 2.10447 22.0375H16.3705C16.9805 22.0375 17.475 21.543 17.475 20.933V4.83933C17.475 4.22935 16.9805 3.73486 16.3705 3.73486Z" stroke="#303030" stroke-width="1.2" stroke-miterlimit="10"/>
<line x1="6.85928" y1="6.97422" x2="10.9186" y2="6.97422" stroke="#303030" stroke-width="1.2" stroke-linecap="round"/>
<line x1="4.22964" y1="12.2335" x2="13.5484" y2="12.2335" stroke="#303030" stroke-width="1.2" stroke-linecap="round"/>
<line x1="4.22964" y1="17.493" x2="8.28901" y2="17.493" stroke="#303030" stroke-width="1.2" stroke-linecap="round"/>
<path d="M10.2039 16.7782L11.3726 18.0931L13.7101 15.4634" stroke="#303030" stroke-width="1.2" stroke-linecap="round"/>
</svg>
