<svg width="25" height="22" viewBox="0 0 25 22" fill="none" xmlns="http://www.w3.org/2000/svg">
<g id="Frame" clip-path="url(#clip0_1646_3409)">
<g id="Group">
<path id="Vector" d="M1 5.28736C1.03781 5.10314 1.07081 4.91716 1.11402 4.7341C1.6301 2.53625 3.53062 1.02325 5.87101 1.01389C10.2865 0.995175 14.7027 0.99576 19.1182 1.01331C21.5624 1.02266 23.4959 2.63742 23.9316 4.98266C23.982 5.25344 23.9952 5.53358 23.9958 5.80963C24.0012 7.78641 24.0006 9.7632 23.9982 11.7394C23.9946 14.139 22.2987 16.0907 19.8743 16.4772C19.5809 16.524 19.2784 16.5328 18.9796 16.5334C16.5396 16.5375 14.0996 16.5345 11.6602 16.5404C11.5347 16.541 11.3925 16.5784 11.2857 16.6427C8.93211 18.0592 6.58332 19.4845 4.22793 20.8987C4.10131 20.9747 3.91768 21.0156 3.77306 20.9934C3.56362 20.9607 3.48381 20.746 3.54742 20.5004C3.84387 19.3488 4.14152 18.1984 4.43857 17.0475C4.49498 16.8299 4.54899 16.6117 4.6078 16.3802C4.47337 16.3369 4.35155 16.3047 4.23573 16.2597C2.42103 15.5596 1.34446 14.28 1.04081 12.3933C1.03301 12.3441 1.0138 12.2962 1 12.2476C1 9.92754 1 7.60745 1 5.28736ZM4.52678 19.8202C4.6336 19.76 4.69241 19.7296 4.74882 19.6951C6.80116 18.4534 8.8553 17.2147 10.9034 15.9667C11.1297 15.8292 11.3535 15.7696 11.6188 15.7702C14.0666 15.7766 16.5138 15.7772 18.9616 15.7702C19.3036 15.769 19.6535 15.7503 19.9865 15.6795C21.9027 15.2742 23.2043 13.7004 23.2175 11.7622C23.2313 9.7708 23.2223 7.7794 23.2181 5.78799C23.2175 5.56985 23.2043 5.34877 23.1653 5.13472C22.801 3.11934 21.1615 1.77828 19.057 1.77711C14.6859 1.77419 10.3141 1.77478 5.94302 1.77945C5.64537 1.78004 5.34172 1.79758 5.05187 1.85665C3.10515 2.2526 1.78733 3.84221 1.78013 5.80729C1.77233 7.79168 1.77713 9.77548 1.78073 11.7599C1.78133 11.978 1.79453 12.1991 1.83294 12.4131C2.13959 14.1232 3.34579 15.3362 5.09388 15.7023C5.42033 15.7707 5.52955 15.9386 5.44853 16.2544C5.32191 16.7492 5.19349 17.2434 5.06567 17.7376C4.89044 18.4142 4.71581 19.0903 4.52678 19.8202Z" fill="black" stroke="black"/>
<path id="Vector_2" d="M12.476 10.1842C12.9663 8.99224 13.4355 7.85062 13.9048 6.70841C14.0699 6.30779 14.1971 6.22708 14.6309 6.24346C14.964 6.25632 15.1494 6.43938 15.15 6.77508C15.153 7.86933 15.1512 8.96299 15.1512 10.0572C15.1512 10.2543 15.1542 10.4514 15.15 10.6479C15.1446 10.8918 15.0078 11.0351 14.7888 11.0322C14.5721 11.0298 14.4323 10.8836 14.4317 10.6421C14.4293 9.63557 14.4305 8.62905 14.4299 7.62253C14.4299 7.54708 14.4233 7.47164 14.4197 7.39561C14.3993 7.39034 14.3795 7.38508 14.3591 7.37981C14.3243 7.45234 14.2853 7.5231 14.2547 7.59738C13.8364 8.60273 13.4157 9.6075 13.0029 10.6146C12.9027 10.8591 12.7592 11.0334 12.4676 11.0322C12.1747 11.031 12.0355 10.8497 11.9365 10.6076C11.526 9.60691 11.1096 8.60858 10.6943 7.60966C10.6625 7.53246 10.6253 7.4576 10.5905 7.38157C10.5701 7.38508 10.5491 7.388 10.5287 7.39151C10.5245 7.46462 10.5173 7.53831 10.5173 7.61141C10.5167 8.58869 10.5173 9.56597 10.5161 10.5433C10.5161 10.6228 10.5167 10.7058 10.4939 10.7807C10.4405 10.9573 10.3078 11.0427 10.1206 11.0281C9.93157 11.0135 9.82355 10.9047 9.79955 10.7216C9.79295 10.6713 9.79535 10.6199 9.79535 10.5684C9.79535 9.32852 9.79475 8.08865 9.79535 6.84877C9.79535 6.49611 9.92737 6.29902 10.1914 6.25048C10.6193 6.17152 10.8653 6.28498 11.0105 6.63706C11.4618 7.73131 11.9113 8.82673 12.362 9.92156C12.3926 9.99642 12.4256 10.0684 12.476 10.1842Z" fill="black"/>
<path id="Vector_3" d="M7.18488 11.0698C6.56257 11.0645 6.05909 10.9686 5.57601 10.775C5.32757 10.6756 5.22915 10.4943 5.31197 10.3001C5.39118 10.1141 5.57541 10.0597 5.82505 10.1574C6.37114 10.3703 6.93344 10.4615 7.51673 10.3615C7.66796 10.3358 7.82578 10.2867 7.9548 10.2077C8.34127 9.97025 8.31726 9.4626 7.9044 9.27838C7.63495 9.15848 7.3391 9.09532 7.05526 9.00467C6.736 8.9029 6.40835 8.82044 6.1011 8.69119C5.64382 8.49878 5.34437 8.16951 5.33357 7.65601C5.32277 7.14661 5.53881 6.73312 5.99488 6.49451C6.27033 6.35005 6.59378 6.25998 6.90523 6.22138C7.42132 6.15763 7.935 6.236 8.43128 6.39742C8.69593 6.48339 8.79434 6.64481 8.71933 6.85419C8.65272 7.039 8.48769 7.09807 8.23505 7.02204C7.76457 6.8805 7.28689 6.80798 6.79781 6.90448C6.65319 6.93314 6.50797 6.98168 6.37774 7.04894C6.16471 7.15948 6.04949 7.34136 6.05669 7.58525C6.06329 7.82737 6.20432 7.98879 6.41915 8.06657C6.7264 8.17769 7.04685 8.25255 7.35891 8.35081C7.66376 8.44672 7.98301 8.51925 8.26506 8.66136C9.122 9.09356 9.17781 10.1931 8.38448 10.7305C7.99441 10.9955 7.55094 11.0756 7.18488 11.0698Z" fill="black"/>
<path id="Vector_4" d="M17.8813 11.1198C17.34 11.0672 16.8293 10.9719 16.3408 10.7724C16.1002 10.6742 16.0078 10.5051 16.0834 10.3139C16.1614 10.118 16.3396 10.0572 16.5874 10.1542C17.1323 10.3677 17.694 10.4625 18.2773 10.3654C18.4286 10.3402 18.587 10.294 18.7172 10.2174C19.1169 9.98229 19.0965 9.46529 18.6734 9.27697C18.4106 9.16 18.1231 9.09742 17.8465 9.00969C17.5272 8.90851 17.2002 8.82663 16.8917 8.70031C16.4242 8.50848 16.1164 8.17453 16.1068 7.6546C16.0972 7.12941 16.3354 6.71768 16.8089 6.47087C17.0339 6.35332 17.2944 6.27729 17.5482 6.23927C18.1345 6.15038 18.7106 6.2305 19.2687 6.42409C19.4823 6.49836 19.5639 6.66621 19.4955 6.85512C19.4325 7.0294 19.2705 7.10075 19.0557 7.03642C18.5714 6.89079 18.0793 6.80014 17.577 6.90951C17.3862 6.95103 17.1851 7.02706 17.0339 7.14345C16.7177 7.38674 16.7591 7.83298 17.1119 8.02247C17.3178 8.13301 17.5536 8.195 17.7804 8.26401C18.1363 8.37221 18.5042 8.44765 18.8528 8.57398C19.3917 8.76932 19.7206 9.14479 19.7128 9.72788C19.705 10.3022 19.3851 10.6923 18.851 10.89C18.5426 11.004 18.2059 11.0455 17.8813 11.1198Z" fill="black"/>
</g>
</g>
<defs>
<clipPath id="clip0_1646_3409">
<rect width="25" height="22" fill="white"/>
</clipPath>
</defs>
</svg>
