<svg width="23" height="23" viewBox="0 0 23 23" fill="none" xmlns="http://www.w3.org/2000/svg">
<path opacity="0.85" d="M1.4583 1.59073C-1.61744 5.11159 0.340721 11.9177 5.74715 17.3536C11.031 22.6664 17.4865 24.4763 21.3506 21.7239C21.3921 21.6945 21.4311 21.6615 21.4671 21.6254L22.208 20.8799C22.4722 20.6143 22.6788 20.2965 22.8148 19.9465C22.9507 19.5965 23.013 19.222 22.9977 18.8466C22.9825 18.4713 22.89 18.1031 22.7262 17.7655C22.5623 17.4278 22.3307 17.128 22.0458 16.8848L18.9538 14.2454C18.672 14.0049 18.3442 13.825 17.9906 13.7168C17.6369 13.6087 17.265 13.5746 16.8978 13.6167C16.5305 13.6587 16.1757 13.7761 15.8554 13.9614C15.535 14.1467 15.2558 14.3962 15.0351 14.6943L14.1951 15.8288C14.0661 16.003 13.8791 16.1249 13.6682 16.1721C13.4574 16.2193 13.2366 16.1888 13.0463 16.0862C11.7328 15.3781 10.5756 14.5191 9.57095 13.509C8.58352 12.5115 7.74304 11.3771 7.07503 10.1404C6.96405 9.93676 6.93503 9.6981 6.99395 9.47361C7.05287 9.24912 7.19524 9.05594 7.39168 8.93391L8.37947 8.31951C8.71127 8.11319 8.99473 7.83711 9.21039 7.51024C9.42605 7.18337 9.56881 6.81345 9.62886 6.42587C9.68891 6.03828 9.66483 5.64223 9.55828 5.26489C9.45172 4.88755 9.26522 4.53786 9.01156 4.23983L6.21161 0.95096C5.96926 0.666229 5.67098 0.434953 5.3355 0.271656C5.00002 0.108358 4.63458 0.0165654 4.26213 0.00204225C3.88968 -0.0124809 3.51827 0.0505791 3.17122 0.187262C2.82416 0.323945 2.50896 0.531299 2.24541 0.796303L1.49856 1.54784L1.4583 1.59013V1.59073ZM3.51981 2.07826C3.60764 1.98995 3.71269 1.92084 3.82835 1.87529C3.944 1.82973 4.06778 1.8087 4.1919 1.81352C4.31603 1.81834 4.43782 1.84891 4.54964 1.90331C4.66145 1.9577 4.76088 2.03475 4.84168 2.12961L7.64163 5.41849C7.7262 5.5178 7.78839 5.63434 7.82394 5.76011C7.85949 5.88587 7.86755 6.01788 7.84757 6.14707C7.82759 6.27626 7.78005 6.39958 7.7082 6.50855C7.63635 6.61752 7.5419 6.70957 7.43133 6.77838L6.44354 7.39278C5.85447 7.75896 5.42761 8.33844 5.25097 9.01175C5.07434 9.68505 5.1614 10.4008 5.4942 11.0115C6.24429 12.3989 7.18775 13.6714 8.29595 14.7903C9.42675 15.9273 10.727 16.8921 12.1937 17.6835C12.7649 17.9916 13.4273 18.083 14.06 17.9412C14.6927 17.7994 15.2537 17.4337 15.6407 16.9108L16.4807 15.7769C16.5543 15.6775 16.6473 15.5943 16.7541 15.5325C16.8609 15.4707 16.9791 15.4316 17.1016 15.4176C17.224 15.4035 17.348 15.4149 17.4658 15.4509C17.5837 15.4869 17.693 15.5469 17.787 15.627L20.8795 18.2671C20.9745 18.3481 21.0517 18.4481 21.1062 18.5606C21.1608 18.6731 21.1917 18.7958 21.1967 18.9209C21.2018 19.046 21.1811 19.1708 21.1358 19.2875C21.0905 19.4041 21.0216 19.51 20.9336 19.5986L20.2486 20.2873C17.2288 22.3661 11.7244 20.8008 7.02155 16.0717C2.21417 11.2387 0.535396 5.4348 2.79459 2.80745L3.51981 2.07766V2.07826Z" fill="#FF984F"/>
</svg>
