<svg width="20" height="23" viewBox="0 0 20 23" fill="none" xmlns="http://www.w3.org/2000/svg">
<path opacity="0.85" d="M16.6512 23H2.87097C1.28537 23 0 21.7128 0 20.125V13.225C0 12.0468 0.709461 11.0368 1.72248 10.5928V8.04997C1.72248 3.60409 5.32145 0 9.76101 0C13.4928 0 16.6215 2.55028 17.5272 6.00281L17.516 6.00638C17.5455 6.10815 17.5663 6.21368 17.5663 6.32499C17.5663 6.96012 17.0521 7.47497 16.4179 7.47497C15.9166 7.47497 15.4948 7.15131 15.3382 6.70293L15.3379 6.70298C14.7316 4.17841 12.4681 2.3 9.76101 2.3C6.58992 2.3 4.01921 4.87439 4.01921 8.04997V10.35H4.50021V10.35H16.6512C18.2368 10.35 19.5222 11.6372 19.5222 13.225V20.125C19.5222 21.7128 18.2368 23 16.6512 23ZM17.2254 13.8C17.2254 13.1649 16.7113 12.65 16.077 12.65H3.44503C2.81085 12.65 2.29668 13.1649 2.29668 13.8V19.55C2.29668 20.1851 2.81085 20.7 3.44503 20.7H16.077C16.7112 20.7 17.2254 20.1851 17.2254 19.55L17.2254 13.8Z" fill="#FF984F"/>
</svg>
