<svg width="16" height="18" viewBox="0 0 16 18" fill="none" xmlns="http://www.w3.org/2000/svg">
<g id="Group 1894">
<path id="Vector" d="M3.51671 2.37323C3.53749 2.21528 3.54303 2.07581 3.57536 1.94233C3.72546 1.32346 4.23441 0.937824 4.90917 0.935515C6.03838 0.93182 7.16758 0.934591 8.29725 0.934591C8.70044 0.934591 9.10409 0.933668 9.50728 0.934591C10.3626 0.936439 10.8817 1.43384 10.9251 2.29103C10.9261 2.30765 10.9302 2.32474 10.9362 2.36307C10.999 2.36631 11.0651 2.36954 11.1311 2.37277C11.5736 2.39217 12.0239 2.36446 12.4562 2.4402C13.548 2.63141 14.3853 3.61698 14.4116 4.72679C14.4347 5.70636 14.4208 6.68639 14.419 7.66643C14.4185 7.97217 14.2172 8.18323 13.9373 8.19062C13.6523 8.19801 13.4339 7.98556 13.432 7.67289C13.4265 6.76214 13.4279 5.85138 13.4297 4.94062C13.4306 4.50141 13.3092 4.11069 12.991 3.79618C12.7674 3.57541 12.501 3.417 12.1864 3.40038C11.7745 3.37867 11.3611 3.39529 10.9362 3.39529C10.9265 3.50383 10.9265 3.62483 10.9034 3.74122C10.7774 4.38456 10.2458 4.81454 9.56732 4.81639C8.20165 4.81962 6.83644 4.81777 5.47077 4.81731C5.22876 4.81731 4.98537 4.83024 4.74521 4.80854C4.07739 4.74804 3.59661 4.24647 3.54211 3.5731C3.53703 3.51076 3.53195 3.44795 3.52872 3.40407C3.08165 3.40407 2.63921 3.35789 2.21061 3.41469C1.56172 3.50106 1.06709 4.11023 1.03384 4.76789C1.03107 4.81962 1.03107 4.87181 1.03107 4.92354C1.03107 8.24373 1.0306 11.5639 1.03107 14.8841C1.03107 15.6369 1.48182 16.2272 2.18337 16.3874C2.32792 16.4202 2.48033 16.4281 2.62904 16.4281C3.80998 16.4313 4.99138 16.4294 6.17231 16.4299C6.56072 16.4299 6.79164 16.6133 6.7958 16.9209C6.79949 17.2331 6.56257 17.421 6.16446 17.421C4.95443 17.421 3.7444 17.4261 2.53437 17.4196C1.30632 17.4127 0.327215 16.611 0.0833616 15.4185C0.0477996 15.2448 0.0339443 15.0638 0.0339443 14.8864C0.0311733 11.5607 0.0302496 8.23449 0.0325588 4.90876C0.0334825 3.4812 1.09388 2.40325 2.52097 2.37462C2.8535 2.36769 3.18649 2.3737 3.51671 2.3737V2.37323ZM7.21793 3.81788C7.98967 3.81788 8.76141 3.81881 9.53315 3.81788C9.81164 3.81788 9.92572 3.70796 9.92802 3.43501C9.93126 3.06046 9.93126 2.6859 9.92802 2.31135C9.92572 2.0444 9.81395 1.92756 9.55024 1.92756C8.00675 1.92525 6.46327 1.92571 4.91979 1.92756C4.64915 1.92756 4.53138 2.04948 4.52953 2.32105C4.52722 2.68406 4.52768 3.04706 4.52953 3.41007C4.53092 3.70519 4.64361 3.81788 4.9378 3.81834C5.698 3.81927 6.45819 3.81834 7.21839 3.81834L7.21793 3.81788Z" fill="#00577B"/>
<path id="Vector_2" d="M14.2445 9.41602C14.9525 9.45204 15.5238 9.77625 15.8301 10.4741C16.1363 11.1719 16.0189 11.8231 15.5317 12.4074C15.48 12.4693 15.4222 12.5256 15.365 12.5829C13.9596 13.9892 12.5523 15.3937 11.1507 16.8032C10.9428 17.012 10.711 17.1468 10.4191 17.1912C9.99235 17.2563 9.56837 17.3366 9.14209 17.4031C8.40822 17.5181 7.86971 16.9584 7.99995 16.225C8.07754 15.7885 8.15005 15.3512 8.22071 14.9138C8.25766 14.6843 8.35373 14.4889 8.51907 14.324C9.97434 12.8697 11.4287 11.4149 12.8826 9.95914C13.2483 9.5929 13.6922 9.42387 14.245 9.41602H14.2445ZM8.97075 16.4642C9.4132 16.3765 9.82424 16.2989 10.2325 16.2097C10.3156 16.1917 10.4034 16.1418 10.4644 16.0813C11.1714 15.3798 11.873 14.6732 12.5768 13.9689C12.8858 13.6594 13.1966 13.3518 13.4899 13.0604C13.1047 12.6743 12.7278 12.2975 12.3473 11.916C12.3482 11.9155 12.3325 11.9224 12.321 11.934C11.3031 12.9514 10.2852 13.9689 9.26864 14.9872C9.23769 15.0186 9.20306 15.0593 9.19613 15.0999C9.12039 15.541 9.04972 15.983 8.97121 16.4638L8.97075 16.4642ZM14.2039 12.2841C14.4062 12.0952 14.6343 11.916 14.8205 11.7003C15.0833 11.3955 15.0523 10.954 14.7821 10.6584C14.5198 10.3716 14.0783 10.2958 13.7633 10.5286C13.513 10.7138 13.3019 10.9521 13.0812 11.1595C13.4756 11.5548 13.8492 11.9289 14.2039 12.2841Z" fill="#00577B"/>
<path id="Vector_3" d="M6.63076 8.25268C5.75511 8.25268 4.87945 8.25407 4.0038 8.25176C3.69482 8.25083 3.48515 8.05686 3.47776 7.77513C3.47037 7.50773 3.65095 7.29943 3.91836 7.26895C3.97563 7.26249 4.03336 7.26064 4.09062 7.26064C5.79021 7.26064 7.48933 7.26202 9.18892 7.25879C9.44478 7.25833 9.66046 7.31698 9.76761 7.57377C9.90293 7.89798 9.67108 8.24437 9.30946 8.25037C8.83145 8.25776 8.35298 8.25268 7.87497 8.25268C7.46024 8.25268 7.0455 8.25268 6.63076 8.25268Z" fill="#00577B"/>
<path id="Vector_4" d="M5.17032 11.0817C4.78514 11.0817 4.39997 11.0836 4.01433 11.0813C3.69889 11.0794 3.48367 10.8822 3.47766 10.5968C3.47166 10.3012 3.68365 10.0883 4.00694 10.0865C4.7833 10.0819 5.55965 10.0819 6.33555 10.0865C6.64591 10.0883 6.86667 10.3017 6.86898 10.5811C6.87129 10.8679 6.64499 11.079 6.32539 11.0813C5.94021 11.0836 5.55504 11.0817 5.1694 11.0817H5.17032Z" fill="#00577B"/>
</g>
</svg>
