<svg width="18" height="22" viewBox="0 0 18 22" fill="none" xmlns="http://www.w3.org/2000/svg">
<g id="Layer_1" clip-path="url(#clip0_1252_13979)">
<path id="Vector" d="M1.84111 18.3378C1.70926 18.3276 1.59611 18.3266 1.48563 18.3089C1.06868 18.239 0.767544 17.8762 0.766653 17.4342C0.76398 15.5925 0.76398 13.7508 0.766653 11.9091C0.766653 11.3925 1.14352 11.0083 1.63976 11.0027C1.70035 11.0027 1.76093 11.0027 1.842 11.0027C1.842 10.9374 1.842 10.8805 1.842 10.8227C1.842 8.11934 1.842 5.41598 1.842 2.71262C1.842 1.51714 2.62424 0.580894 3.75215 0.424232C3.83768 0.412109 3.92588 0.413042 4.0132 0.413042C6.67351 0.413042 9.33471 0.413974 11.9959 0.412109C12.0779 0.412109 12.1411 0.42703 12.2035 0.493238C13.849 2.21373 15.4964 3.93142 17.1455 5.64724C17.2087 5.71345 17.2355 5.77873 17.2355 5.87291C17.2337 10.3536 17.2346 14.8353 17.2328 19.316C17.2328 20.5964 16.2866 21.5867 15.0643 21.5876C11.3794 21.5886 7.6954 21.5886 4.01052 21.5876C2.79173 21.5876 1.84289 20.5908 1.84111 19.3142C1.84111 18.9915 1.84111 18.6689 1.84111 18.3369V18.3378ZM3.17038 18.3276C3.16325 18.3565 3.15612 18.3742 3.15612 18.391C3.15612 18.7146 3.14365 19.0391 3.15969 19.3617C3.18552 19.8756 3.541 20.2169 4.03369 20.2169C7.70075 20.2169 11.3678 20.2169 15.0358 20.2169C15.5623 20.2169 15.9231 19.8382 15.9222 19.2881C15.9124 15.0078 15.9017 10.7267 15.8911 6.44641C15.8911 6.39792 15.8875 6.35036 15.8848 6.29348C15.8225 6.29348 15.7752 6.29348 15.7271 6.29348C14.8781 6.29534 14.0281 6.29628 13.1791 6.29814C12.273 6.29907 11.6333 5.63139 11.6324 4.68209C11.6315 3.77009 11.6324 2.85903 11.6324 1.94703C11.6324 1.89481 11.6324 1.84259 11.6324 1.78291C11.5576 1.78291 11.5059 1.78291 11.4533 1.78291C8.98814 1.78477 6.52294 1.7857 4.05774 1.78757C3.50715 1.78757 3.15345 2.15964 3.15345 2.73967C3.15345 5.43836 3.15345 8.13706 3.15345 10.8358C3.15345 10.8889 3.15345 10.9421 3.15345 11.0036H3.32896C6.70024 11.0036 10.0715 11.0036 13.4419 11.0036C13.9987 11.0036 14.3595 11.3785 14.3595 11.9594C14.3604 13.7648 14.3595 15.5701 14.3595 17.3755C14.3595 17.4566 14.3578 17.5405 14.3399 17.6198C14.2428 18.0599 13.8998 18.3285 13.4383 18.3285C10.076 18.3285 6.7136 18.3285 3.35124 18.3285H3.16949L3.17038 18.3276ZM6.18172 16.6435C6.20755 16.6537 6.21824 16.6612 6.23072 16.663C6.75102 16.7246 7.27221 16.7516 7.79251 16.6612C8.2157 16.5875 8.61217 16.4458 8.91954 16.1119C9.33204 15.6624 9.44429 15.1067 9.41311 14.5099C9.36946 13.6781 8.90528 13.1018 8.13196 12.9134C7.53414 12.7679 6.93009 12.8211 6.32694 12.8789C6.20399 12.891 6.18082 12.9376 6.18082 13.0551C6.18439 14.2031 6.18261 15.3519 6.18261 16.4998C6.18261 16.5493 6.18261 16.5978 6.18261 16.6435H6.18172ZM3.85461 15.3239C4.00963 15.3239 4.14594 15.3407 4.2778 15.3202C4.5041 15.2838 4.73752 15.254 4.94867 15.1691C5.46095 14.9612 5.70685 14.4856 5.65429 13.8739C5.61241 13.3825 5.27475 13.0011 4.7589 12.8882C4.23236 12.7735 3.70315 12.8248 3.17394 12.8789C3.05901 12.8901 3.03407 12.932 3.03496 13.0458C3.03941 14.2031 3.03763 15.3594 3.03763 16.5166C3.03763 16.5651 3.03763 16.6136 3.03763 16.6658H3.85461V15.3239ZM9.96638 12.8602V16.6658H10.7905V15.1318H12.0912V14.4306H10.7958V13.5624H12.1821V12.8612H9.96549L9.96638 12.8602Z" fill="#676767"/>
<path id="Vector_2" d="M7.01659 13.5252C7.2999 13.472 7.56362 13.472 7.82199 13.5532C8.18638 13.6679 8.41178 13.929 8.49553 14.3141C8.55611 14.5929 8.55166 14.8755 8.48662 15.1534C8.36189 15.6849 8.00285 15.9945 7.47096 16.0309C7.3498 16.0393 7.22685 16.0383 7.10568 16.029C7.07361 16.0262 7.01926 15.9777 7.01926 15.9497C7.01481 15.145 7.0157 14.3402 7.0157 13.5252H7.01659Z" fill="#676767"/>
<path id="Vector_3" d="M3.85673 14.6343C3.85673 14.2753 3.85495 13.9302 3.86029 13.5852C3.86029 13.5554 3.90573 13.5004 3.93068 13.5004C4.10708 13.4994 4.28705 13.4892 4.45989 13.5209C4.67817 13.561 4.80913 13.7195 4.83586 13.9517C4.86437 14.1942 4.80022 14.4058 4.58996 14.5401C4.36634 14.6828 4.12134 14.6819 3.85762 14.6362L3.85673 14.6343Z" fill="#676767"/>
</g>
<defs>
<clipPath id="clip0_1252_13979">
<rect width="16.4706" height="21.1765" fill="white" transform="translate(0.764648 0.412109)"/>
</clipPath>
</defs>
</svg>
