<svg width="13" height="26" viewBox="0 0 13 26" fill="none" xmlns="http://www.w3.org/2000/svg">
<path d="M7.17361 19L3.77161 13.06V12.268H4.16761C4.80361 12.268 5.33761 12.208 5.76961 12.088C6.21361 11.968 6.56161 11.77 6.81361 11.494C7.06561 11.218 7.21561 10.84 7.26361 10.36H3.77161V9.208H7.24561C7.16161 8.764 6.99361 8.404 6.74161 8.128C6.48961 7.84 6.14761 7.63 5.71561 7.498C5.29561 7.366 4.77961 7.3 4.16761 7.3H3.77161V6.148H11.2236V7.3H7.82161C8.09761 7.528 8.32561 7.798 8.50561 8.11C8.68561 8.422 8.79961 8.788 8.84761 9.208H11.2236V10.36H8.88361C8.79961 11.236 8.46361 11.92 7.87561 12.412C7.29961 12.892 6.53161 13.198 5.57161 13.33L9.00961 19H7.17361Z" fill="black"/>
</svg>
