<svg width="20" height="20" viewBox="0 0 353 421" fill="none" xmlns="http://www.w3.org/2000/svg">
<path fill-rule="evenodd" clip-rule="evenodd" d="M300 196.557V86.6184C299.9 38.7512 261.068 -0.000103878 213.201 2.08846e-10H86.6184C38.8217 0.0994733 0.0994733 38.8217 2.08846e-10 86.6184V285.533C-0.000103878 333.401 38.7512 372.233 86.6184 372.333H121.762C117.835 363.221 114.903 353.593 113.099 343.58H86.6184C54.6306 343.481 28.7521 317.521 28.7522 285.533V86.6184C28.8515 54.7011 54.701 28.8515 86.6184 28.7523H213.201C245.189 28.7521 271.148 54.6306 271.248 86.6184V188.124C281.255 189.898 290.882 192.751 300 196.557ZM236.372 186.403C234.253 183.978 231.263 182.316 227.848 181.917H72.1519C67.0333 181.319 62.0261 183.713 59.2783 188.073C56.5305 192.433 56.5305 197.983 59.2783 202.343C62.0261 206.703 67.0333 209.097 72.1519 208.499H171.544C190.368 196.107 212.507 188.221 236.372 186.403ZM128.47 254.25H72.1519C67.0333 253.652 62.0261 256.046 59.2783 260.406C56.5305 264.766 56.5305 270.316 59.2783 274.676C62.0261 279.035 67.0333 281.43 72.1519 280.832H116.902C119.793 271.498 123.691 262.596 128.47 254.25ZM193.309 136.166H72.1519C67.0333 136.764 62.0261 134.37 59.2783 130.01C56.5305 125.65 56.5305 120.1 59.2783 115.74C62.0261 111.381 67.0333 108.986 72.1519 109.584H193.309C200.053 110.372 205.138 116.086 205.138 122.875C205.138 129.665 200.053 135.378 193.309 136.166Z" fill="black"/>
<path d="M243.498 218.11C222.915 219.779 203.358 227.567 187.439 240.405C182.261 244.599 174.216 252.772 170.665 257.479C166.257 263.299 160.095 273.441 159.239 276.351L158.939 277.335H172.376H185.856L188.295 273.912C191.077 269.932 197.966 262.614 202.117 259.234C217.993 246.268 238.876 240.063 259.032 242.288C277.047 244.256 293.009 251.873 305.718 264.54C336.016 294.837 336.016 343.707 305.718 374.004C290.356 389.366 269.43 397.54 247.991 396.598C232.842 395.914 220.347 391.806 207.68 383.375C201.433 379.225 192.232 370.367 188.338 364.718L185.856 361.209H172.376H158.939L159.196 362.15C159.624 363.562 163.861 371.137 166.428 375.117C173.746 386.328 185.728 398.053 197.196 405.157C221.117 419.963 248.59 424.285 275.806 417.524C311.581 408.623 339.995 380.294 349.196 344.349C351.507 335.362 352.149 329.799 352.149 319.272C352.149 308.745 351.507 303.182 349.196 294.195C340.894 261.887 317.23 235.655 285.863 224.058C280.642 222.133 271.57 219.822 265.536 218.923C261.128 218.281 247.734 217.768 243.498 218.11Z" fill="black"/>
<path d="M240.759 283.627C239.903 284.354 239.86 284.825 239.732 294.453L239.646 304.509L195.142 304.723C159.495 304.895 150.423 305.066 149.653 305.494C149.097 305.793 148.284 306.692 147.856 307.419C147.086 308.66 147 309.645 147 319.273C147 328.901 147.086 329.885 147.856 331.126C148.284 331.854 149.097 332.753 149.653 333.052C150.423 333.48 159.495 333.651 195.142 333.822L239.646 334.036L239.775 344.178L239.86 354.363L240.93 355.048C241.529 355.433 242.428 355.647 242.984 355.476C243.797 355.304 284.75 325.435 289.2 321.84C291.383 320.043 291.383 318.503 289.2 316.705C286.975 314.908 245.937 284.696 244.353 283.712C242.77 282.685 241.914 282.685 240.759 283.627Z" fill="black"/>
</svg>
