<svg width="18" height="18" viewBox="0 0 20 20" fill="none" xmlns="http://www.w3.org/2000/svg">
<path d="M5.9907 14.9697C4.56832 14.7684 3.31426 14.2338 2.26481 13.2833C0.792936 11.95 0.0239975 10.2868 0.00749664 8.30007C0.00089631 7.44202 -0.0288052 6.57408 0.103201 5.73254C0.542123 2.9208 2.60473 0.782289 5.37687 0.161858C6.29431 -0.042752 7.22166 0.0133508 8.149 0.0100507C9.55818 0.000150173 10.9739 -0.00645016 12.3864 0.0100507C15.2972 0.0463525 17.3895 1.38622 18.627 4.01975C19.0726 4.9669 19.2178 5.98665 19.2013 7.0328C19.1881 8.03605 19.2442 9.0426 18.957 10.0261C18.396 11.9533 17.2212 13.3724 15.4391 14.2899C14.35 14.8509 13.1818 15.0555 11.9673 14.9961C11.7297 14.9862 11.568 15.0555 11.4063 15.2304C10.3271 16.4053 9.23806 17.5735 8.1523 18.7418C7.73648 19.1906 7.24476 19.3193 6.74973 19.118C6.25471 18.9167 5.9973 18.4844 6.0006 17.8705C6.0039 16.9597 6.0072 16.0489 6.0072 15.138C6.0072 15.0885 5.9973 15.039 5.9907 14.9697ZM7.18866 17.9365C7.21506 17.953 7.24146 17.9695 7.26786 17.986C7.32396 17.9134 7.37347 17.8342 7.43287 17.7649C8.46582 16.6528 9.52517 15.5637 10.5185 14.4186C10.9376 13.9334 11.3733 13.7486 11.9937 13.7981C12.8682 13.8707 13.7263 13.7387 14.5381 13.3922C16.3763 12.6035 17.5479 11.2405 17.8911 9.26371C18.033 8.44527 18.0033 7.59053 18 6.75229C17.9967 6.29026 17.9406 5.81504 17.8251 5.36622C17.1849 2.86799 15.0265 1.20801 12.4524 1.20141C10.6241 1.19811 8.80244 1.20801 6.98075 1.19811C5.84219 1.19151 4.78284 1.45222 3.81919 2.06275C2.55192 2.86469 1.71038 3.99995 1.36716 5.45202C1.07015 6.70279 1.09985 7.98655 1.29786 9.25051C1.66748 11.5771 3.62778 13.4483 5.9709 13.7486C6.36361 13.7981 6.75963 13.808 7.18536 13.841C7.18866 15.2073 7.18866 16.5736 7.18866 17.9365Z" fill="black"/>
<path d="M6.60352 4.429C7.17444 3.81187 7.83118 3.37295 8.61992 3.16834C9.60997 2.91092 10.5934 2.93402 11.5439 3.34324C12.4349 3.72606 12.854 4.4488 12.8903 5.38935C12.9266 6.30019 12.5735 7.02623 11.7485 7.47835C11.5472 7.59056 11.336 7.69286 11.128 7.79847C10.6396 8.05258 10.2337 8.376 10.2007 8.99313C9.80468 8.99313 9.42516 8.99313 9.04564 8.99313C8.90373 8.03938 9.16774 7.18464 10.0225 6.70611C10.2799 6.5642 10.5406 6.4289 10.8013 6.29029C11.1115 6.12198 11.2204 5.85467 11.2006 5.50815C11.1841 5.18474 11.0389 4.95042 10.7419 4.84482C9.78487 4.5016 8.90043 4.66001 8.10839 5.29364C7.95988 5.41245 7.82788 5.54775 7.66947 5.68966C7.31305 5.27384 6.96983 4.86462 6.60352 4.429Z" fill="black"/>
<path d="M9.6047 10.211C10.0766 10.2077 10.499 10.6301 10.5023 11.1086C10.5056 11.5772 10.0766 12.0128 9.6113 12.0161C9.14267 12.0227 8.71365 11.597 8.70705 11.1251C8.70375 10.6235 9.10637 10.2143 9.6047 10.211Z" fill="black"/>
</svg>
