<svg width="20" height="20" viewBox="0 0 9 9" fill="#0000008a" xmlns="http://www.w3.org/2000/svg">
<mask id="path-1-inside-1_2723_1640" fill="white">
<path d="M2.22309 8.38145C3.05533 8.86966 4.02245 9.07744 4.98177 8.97414C5.9411 8.87084 6.84181 8.46193 7.55104 7.80774C8.26027 7.15355 8.74045 6.28873 8.92074 5.34086C9.10103 4.39298 8.97189 3.41226 8.55236 2.54338C8.13283 1.67449 7.44514 0.963456 6.59073 0.515172C5.73632 0.0668892 4.76046 -0.0949026 3.8071 0.0536663C2.85374 0.202235 1.97337 0.653297 1.29589 1.34031C0.618403 2.02731 0.179674 2.91389 0.0444275 3.86923L0.798467 3.97598C0.910825 3.18231 1.27531 2.44578 1.83814 1.87504C2.40097 1.30429 3.13234 0.929568 3.92436 0.806142C4.71638 0.682716 5.52709 0.817127 6.2369 1.18954C6.94671 1.56196 7.51803 2.15267 7.86656 2.87451C8.21509 3.59634 8.32238 4.41109 8.1726 5.19855C8.02282 5.98601 7.6239 6.70448 7.0347 7.24796C6.4455 7.79143 5.69721 8.13114 4.90024 8.21696C4.10327 8.30277 3.29982 8.13016 2.60842 7.72458L2.22309 8.38145Z"/>
</mask>
<path d="M2.22309 8.38145C3.05533 8.86966 4.02245 9.07744 4.98177 8.97414C5.9411 8.87084 6.84181 8.46193 7.55104 7.80774C8.26027 7.15355 8.74045 6.28873 8.92074 5.34086C9.10103 4.39298 8.97189 3.41226 8.55236 2.54338C8.13283 1.67449 7.44514 0.963456 6.59073 0.515172C5.73632 0.0668892 4.76046 -0.0949026 3.8071 0.0536663C2.85374 0.202235 1.97337 0.653297 1.29589 1.34031C0.618403 2.02731 0.179674 2.91389 0.0444275 3.86923L0.798467 3.97598C0.910825 3.18231 1.27531 2.44578 1.83814 1.87504C2.40097 1.30429 3.13234 0.929568 3.92436 0.806142C4.71638 0.682716 5.52709 0.817127 6.2369 1.18954C6.94671 1.56196 7.51803 2.15267 7.86656 2.87451C8.21509 3.59634 8.32238 4.41109 8.1726 5.19855C8.02282 5.98601 7.6239 6.70448 7.0347 7.24796C6.4455 7.79143 5.69721 8.13114 4.90024 8.21696C4.10327 8.30277 3.29982 8.13016 2.60842 7.72458L2.22309 8.38145Z" stroke="rgba(0, 0, 0, 0)" stroke-width="2" stroke-linejoin="round" mask="url(#path-1-inside-1_2723_1640)"/>
<path d="M5.97875 4.04789C5.96476 4.018 5.94474 3.99074 5.91974 3.96751L4.94244 3.07996C4.87348 3.01275 4.76964 2.98509 4.67163 3.00782C4.57363 3.03055 4.49711 3.10004 4.47208 3.18904C4.44705 3.27805 4.47751 3.37236 4.55151 3.43498L5.05676 3.89382H2.76286C2.29438 3.89293 1.84486 4.06177 1.51394 4.36292C1.18303 4.66408 0.99805 5.07266 1.00002 5.49811V7.74881C1.00002 7.88754 1.12385 8 1.27661 8C1.42937 8 1.55321 7.88754 1.55321 7.74881V5.49811C1.55124 5.20591 1.67793 4.9251 1.90511 4.71816C2.13228 4.51122 2.4411 4.39531 2.76286 4.39621H5.06045L4.5552 4.85171C4.44735 4.94978 4.44735 5.10866 4.5552 5.20673C4.60679 5.25417 4.67725 5.28073 4.75066 5.28041C4.82416 5.28111 4.89478 5.25449 4.94612 5.20673L5.92343 4.32253C5.94855 4.29811 5.96854 4.26973 5.98244 4.2388C6.00706 4.17691 6.00575 4.10895 5.97875 4.04789Z"/>
</svg>
