<svg width="14" height="17" viewBox="0 0 14 17" fill="none" xmlns="http://www.w3.org/2000/svg">
<path d="M6.77507 16.3047C5.42869 16.3047 4.08232 16.3136 2.73594 16.3047C1.28967 16.2933 0.244256 15.4177 0.0431905 13.9867C-0.0382537 13.4071 0.0113764 12.8013 0.062279 12.2128C0.143723 11.2806 0.354333 10.3758 0.815639 9.54865C1.38384 8.52614 2.22882 7.92612 3.41804 7.90767C3.66364 7.90385 3.92706 8.01393 4.15613 8.12655C4.6187 8.35562 5.04692 8.66358 5.51714 8.86528C6.623 9.33804 7.69005 9.1497 8.70937 8.57068C8.88688 8.47593 9.05591 8.36609 9.21458 8.24236C9.72997 7.81859 10.2994 7.8345 10.8963 8.00375C11.7654 8.24999 12.3756 8.80929 12.7797 9.59446C13.5038 11.0064 13.6832 12.5258 13.5279 14.0758C13.4007 15.3681 12.2414 16.2901 10.846 16.3028C9.48946 16.3142 8.13226 16.3047 6.77507 16.3047ZM6.76934 15.3503C8.11508 15.3503 9.46146 15.3598 10.8072 15.3471C11.8723 15.3376 12.5328 14.7216 12.6142 13.6629C12.6364 13.2922 12.6277 12.9204 12.5882 12.5513C12.4978 11.5542 12.326 10.5788 11.7438 9.72617C11.4301 9.26741 10.9955 8.99826 10.4566 8.86592C10.015 8.75775 9.73888 9.04662 9.4271 9.24769C8.69283 9.72108 7.90002 10.0195 7.02449 10.0672C5.88809 10.1308 4.86813 9.78216 3.96651 9.11279C3.51666 8.77874 3.07572 8.77874 2.64368 9.0428C2.32554 9.23369 2.01503 9.4882 1.80506 9.78598C1.16878 10.6933 1.04152 11.7636 0.961984 12.8351C0.94544 13.0463 0.94544 13.2588 0.944804 13.4713C0.940987 14.6166 1.62245 15.3337 2.7633 15.3458C4.09886 15.3617 5.43442 15.3509 6.76934 15.3509V15.3503Z" fill="#8D8D8D"/>
<path d="M6.69284 7.84665C4.50593 7.85301 2.78352 6.14332 2.7657 3.9475C2.76091 3.17069 2.98684 2.40995 3.41485 1.76167C3.84286 1.11339 4.45369 0.606771 5.16992 0.306002C5.88616 0.00523241 6.67556 -0.0761425 7.43809 0.0721891C8.20062 0.220521 8.90196 0.591882 9.45322 1.13921C10.0045 1.68654 10.3808 2.3852 10.5346 3.14665C10.6884 3.9081 10.6127 4.69806 10.317 5.41643C10.0214 6.1348 9.51917 6.74924 8.87397 7.18187C8.22877 7.61451 7.46966 7.84588 6.69284 7.84665ZM3.71949 3.93987C3.72776 5.60438 5.02578 6.8935 6.68584 6.89159C7.27315 6.89158 7.84724 6.71723 8.33537 6.39063C8.8235 6.06403 9.20369 5.59988 9.42777 5.057C9.65185 4.51412 9.70973 3.91693 9.59408 3.34112C9.47843 2.76531 9.19446 2.23679 8.77814 1.82252C8.36182 1.40826 7.8319 1.1269 7.25553 1.0141C6.67915 0.901304 6.08226 0.96214 5.54049 1.1889C4.99872 1.41566 4.53646 1.79815 4.21228 2.28788C3.8881 2.77762 3.71659 3.35256 3.71949 3.93987Z" fill="#8D8D8D"/>
</svg>
