<svg width="24" height="17" viewBox="0 0 24 17" fill="none" xmlns="http://www.w3.org/2000/svg">
<path d="M2.10961 13.1905C2.10724 13.1536 2.10645 13.116 2.10645 13.0767V11.1719C2.10645 11.8037 2.10645 12.4355 2.10724 13.0665C2.10724 13.1097 2.10803 13.1513 2.10961 13.1905Z" fill="#303030"/>
<path d="M21.5988 13.2559C21.5621 13.799 21.3416 13.9662 20.73 13.9669C17.7716 13.9677 14.8139 13.9677 11.8555 13.9677C14.8046 13.9677 17.7544 13.9669 20.7043 13.9662C21.3042 13.9654 21.5559 13.7739 21.5988 13.2559Z" fill="#303030"/>
<path d="M20.773 0.00203912C17.8005 -0.000315453 14.828 -0.000315453 11.8556 0.000469405C8.88311 -0.000315453 5.91065 -0.000315453 2.93818 0.00203912C2.34213 0.00282398 2.10527 0.257118 2.10527 0.875586C2.10449 3.73875 2.10449 6.6027 2.10449 9.46664C2.10449 10.0357 2.10449 10.6055 2.10527 11.1753C2.10527 11.8071 2.10527 12.4389 2.10605 13.0699C2.10605 13.1131 2.10683 13.1547 2.10839 13.1939C2.10917 13.2151 2.11073 13.2355 2.1115 13.2559C2.15514 13.7724 2.4068 13.9631 3.00675 13.9639C5.95584 13.9647 8.90571 13.9655 11.8556 13.9655C14.8047 13.9655 17.7545 13.9647 20.7044 13.9639C21.3044 13.9631 21.556 13.7716 21.5989 13.2536V13.2473C21.6012 13.2159 21.6028 13.1837 21.6036 13.1508C21.6051 13.128 21.6051 13.1045 21.6051 13.0801C21.6059 11.9531 21.6059 10.8252 21.6059 9.69818C21.6067 6.75731 21.6067 3.81645 21.6059 0.875586C21.6051 0.257118 21.369 0.00282398 20.773 0.00203912ZM20.1746 12.5339H3.53579V1.39438H20.1746V12.5339Z" fill="#303030"/>
<path d="M11.8564 13.9654C8.89794 13.9654 5.94028 13.9654 2.98184 13.9646C2.37098 13.9638 2.1497 13.7974 2.1123 13.2559C2.15594 13.7723 2.4076 13.963 3.00755 13.9638C5.95664 13.9646 8.90651 13.9654 11.8564 13.9654Z" fill="#303030"/>
<path d="M16.591 11.5617C13.4456 11.5617 10.2986 11.5617 7.06201 11.5617C7.12356 11.1614 7.15317 10.7643 7.24901 10.3844C7.61131 8.96065 8.41462 7.87127 9.71347 7.16961C9.89657 7.07071 10.0298 7.04874 10.23 7.1908C11.2601 7.92228 12.4366 7.90737 13.5025 7.20335C13.6116 7.13115 13.7993 7.0817 13.9092 7.12644C15.4535 7.75511 16.7461 9.8962 16.591 11.5617Z" fill="#303030"/>
<path d="M11.8409 17.0005C8.16638 17.0005 4.49112 17.0013 0.816637 16.9997C0.314084 16.9997 0.007098 16.7368 8.56321e-05 16.3114C-0.00536843 15.9394 0.250193 15.6411 0.628861 15.5885C0.73093 15.5744 0.836116 15.5823 0.939743 15.5823C8.22404 15.5823 15.5091 15.5823 22.7934 15.5823C23.3528 15.5823 23.6458 15.7706 23.7089 16.1662C23.7845 16.6402 23.5055 16.9895 23.0194 16.9974C22.3314 17.0083 21.6426 17.0005 20.9546 17.0005C17.9175 17.0005 14.8796 17.0005 11.8409 17.0005Z" fill="#303030"/>
<path d="M11.8532 7.35181C10.4663 7.34632 9.38175 6.24752 9.39266 4.85832C9.40435 3.44636 10.4975 2.37346 11.914 2.38287C13.2557 2.39229 14.3465 3.51307 14.3442 4.87951C14.3411 6.25536 13.2323 7.35652 11.8532 7.35181Z" fill="#303030"/>
</svg>
