<svg width="26" height="26" viewBox="0 0 26 26" fill="none" xmlns="http://www.w3.org/2000/svg">
<circle cx="13" cy="13" r="13" fill="#FFEBC6"/>
<path d="M9.14362 9.27163C9.14362 8.98661 9.14362 8.71102 9.14362 8.43542C9.14362 8.21872 9.28208 8.05383 9.49692 8.00908C9.75234 7.95726 10.003 8.15983 10.003 8.41658C10.003 8.69924 10.003 8.97955 10.003 9.26692C10.8576 9.26692 11.7122 9.26692 12.5739 9.26692C12.5739 9.24572 12.5739 9.22452 12.5739 9.20567C12.5739 8.94421 12.5739 8.68511 12.5739 8.42365C12.5739 8.22578 12.71 8.05854 12.9009 8.01379C13.0967 7.96903 13.2924 8.05383 13.3807 8.2305C13.4094 8.28938 13.4261 8.36005 13.4285 8.426C13.4333 8.70395 13.4309 8.9819 13.4309 9.26456C14.2855 9.26456 15.14 9.26456 16.0018 9.26456C16.0018 9.24572 16.0018 9.22452 16.0018 9.20332C16.0018 8.94421 16.0018 8.68746 16.0018 8.42836C16.0018 8.20458 16.1689 8.02086 16.3885 8.00201C16.6129 7.98081 16.811 8.12921 16.854 8.35063C16.8588 8.37654 16.8588 8.4048 16.8588 8.43307C16.8588 8.69217 16.8588 8.94892 16.8588 9.20803C16.8588 9.22687 16.8588 9.24572 16.8588 9.27163C16.8993 9.27163 16.9351 9.27163 16.9686 9.27163C17.2192 9.27163 17.4675 9.27163 17.7181 9.27163C18.4271 9.27398 19 9.8393 19 10.5389C19 12.5387 19 14.5409 19 16.5407C19 16.9435 19 17.3463 19 17.7514C19 18.3662 18.5083 18.9174 17.89 18.9881C17.7706 19.0022 17.6489 18.9999 17.5272 18.9999C15.4647 18.9999 13.4046 18.9999 11.3422 18.9999C10.3205 18.9999 9.29879 18.9999 8.2771 18.9999C7.63258 18.9999 7.08355 18.5193 7.00955 17.8881C7.00239 17.8197 7 17.7514 7 17.6831C7 16.0037 7 14.3242 7 12.6447C7 11.9357 7 11.2267 7 10.5177C7 9.93117 7.45594 9.38705 8.04317 9.29989C8.26278 9.26692 8.48956 9.27869 8.71394 9.27398C8.85478 9.26927 8.99562 9.27163 9.14362 9.27163ZM18.143 12.6588C14.7104 12.6588 11.2849 12.6588 7.85697 12.6588C7.85697 12.6848 7.85697 12.706 7.85697 12.7271C7.85697 14.3948 7.85697 16.0625 7.85697 17.7302C7.85697 17.921 7.99065 18.0977 8.18162 18.1354C8.26994 18.1542 8.36304 18.1495 8.45375 18.1495C11.5331 18.1495 14.6125 18.1495 17.6919 18.1495C17.9616 18.1495 18.143 17.9705 18.1454 17.7043C18.1454 17.0189 18.1478 16.3334 18.1478 15.648C18.1478 14.6704 18.1478 13.6953 18.1478 12.7177C18.143 12.7036 18.143 12.6848 18.143 12.6588ZM13.4285 10.1196C13.4285 10.1432 13.4285 10.1597 13.4285 10.1761C13.4285 10.4376 13.4285 10.6967 13.4285 10.9582C13.4285 10.9864 13.4285 11.0123 13.4237 11.0406C13.3784 11.2644 13.1802 11.4104 12.9511 11.3869C12.7362 11.3657 12.5715 11.1819 12.5715 10.9605C12.5715 10.7014 12.5715 10.4447 12.5715 10.1856C12.5715 10.1644 12.5715 10.1432 12.5715 10.1243C11.7098 10.1243 10.8552 10.1243 10.0006 10.1243C10.0006 10.407 10.0006 10.6849 10.0006 10.9629C10.0006 10.9935 9.99821 11.0265 9.99105 11.0547C9.94092 11.2738 9.7404 11.4128 9.5184 11.3869C9.30356 11.361 9.14362 11.1819 9.14362 10.9629C9.14124 10.7462 9.14362 10.5295 9.14362 10.3104C9.14362 10.2492 9.14362 10.1856 9.14362 10.1196C9.12214 10.1196 9.10304 10.1196 9.08633 10.1196C8.82614 10.1196 8.56594 10.1196 8.30575 10.1196C8.04317 10.1196 7.85697 10.3033 7.85697 10.5648C7.85697 10.9158 7.85697 11.2667 7.85697 11.6154C7.85697 11.679 7.85697 11.7425 7.85697 11.8085C11.2896 11.8085 14.7151 11.8085 18.143 11.8085C18.143 11.7873 18.143 11.7685 18.143 11.752C18.143 11.3515 18.143 10.9535 18.143 10.553C18.143 10.3033 17.9568 10.1196 17.7038 10.1196C17.4436 10.1196 17.1834 10.1196 16.9232 10.1196C16.9017 10.1196 16.8826 10.1196 16.8588 10.1196C16.8588 10.4046 16.8588 10.6802 16.8588 10.9558C16.8588 10.9864 16.8588 11.0194 16.8516 11.05C16.8039 11.2714 16.6033 11.4151 16.379 11.3892C16.1617 11.3633 16.0018 11.1819 16.0018 10.9605C16.0018 10.7014 16.0018 10.4447 16.0018 10.1856C16.0018 10.1644 16.0018 10.1455 16.0018 10.122C15.14 10.1196 14.2878 10.1196 13.4285 10.1196Z" fill="#FDA907"/>
<path d="M12.5233 15.8299C12.697 15.5687 12.8706 15.3129 13.0421 15.0544C13.4563 14.4345 13.8704 13.8119 14.2846 13.192C14.3937 13.028 14.5362 12.9641 14.701 13.0196C14.8613 13.0725 14.9615 13.2087 14.9926 13.4144C15.0171 13.5728 14.9793 13.7146 14.8969 13.8397C14.4916 14.4429 14.0886 15.0488 13.6856 15.6548C13.4318 16.0356 13.1802 16.4137 12.9263 16.7945C12.7704 17.028 12.5545 17.0641 12.3541 16.8946C11.9689 16.5721 11.5814 16.2497 11.1962 15.93C11.0515 15.8105 10.9758 15.6103 11.0069 15.4213C11.0426 15.1962 11.1628 15.0461 11.3432 15.0071C11.4478 14.9849 11.5436 15.0183 11.6326 15.0905C11.9176 15.3296 12.2049 15.5659 12.4921 15.8049C12.4988 15.8105 12.5077 15.8188 12.5233 15.8299Z" fill="#FDA907"/>
</svg>
