<svg width="17" height="15" viewBox="0 0 17 15" fill="none" xmlns="http://www.w3.org/2000/svg">
<path d="M9.80829 1.15385C10.114 1.15385 10.403 1.27457 10.6222 1.49378C10.8414 1.71299 10.9621 2.00203 10.9621 2.30769V3.46154H5.19291V2.30769C5.19291 2.00203 5.31363 1.71299 5.53284 1.49378C5.75206 1.27457 6.04109 1.15385 6.34675 1.15385H9.80829ZM9.80829 0H6.34675C5.07752 0 4.03906 1.03846 4.03906 2.30769V4.61538H12.116V2.30769C12.116 1.03846 11.0775 0 9.80829 0ZM9.23137 7.5C9.43672 7.5 9.57417 7.6068 9.63783 7.67046C9.70149 7.73412 9.80829 7.87157 9.80829 8.07692V8.65385C9.80829 8.85919 9.70149 8.99665 9.63783 9.06031C9.57417 9.12397 9.43672 9.23077 9.23137 9.23077H6.92368C6.71833 9.23077 6.58088 9.12397 6.51722 9.06031C6.45356 8.99665 6.34675 8.85919 6.34675 8.65385V8.07692C6.34675 7.87157 6.45356 7.73412 6.51722 7.67046C6.58088 7.6068 6.71833 7.5 6.92368 7.5H9.23137ZM9.23137 6.34615H6.92368C5.97175 6.34615 5.19291 7.125 5.19291 8.07692V8.65385C5.19291 9.60577 5.97175 10.3846 6.92368 10.3846H9.23137C10.1833 10.3846 10.9621 9.60577 10.9621 8.65385V8.07692C10.9621 7.125 10.1833 6.34615 9.23137 6.34615Z" fill="#33372C"/>
<path d="M5.19231 8.07692C5.1922 7.88033 5.22589 7.68518 5.2919 7.5H0V8.65385H5.19231V8.07692ZM10.8619 7.5C10.928 7.68518 10.9616 7.88033 10.9615 8.07692V8.65385H16.1538V7.5H10.8619Z" fill="#33372C"/>
<path d="M13.8462 4.61576C14.1518 4.61576 14.4409 4.73648 14.6601 4.95569C14.8793 5.17491 15 5.46395 15 5.76961V12.6927C15 12.9983 14.8793 13.2874 14.6601 13.5066C14.4409 13.7258 14.1518 13.8465 13.8462 13.8465H2.30769C2.00203 13.8465 1.71299 13.7258 1.49378 13.5066C1.27457 13.2874 1.15385 12.9983 1.15385 12.6927V5.76961C1.15385 5.46395 1.27457 5.17491 1.49378 4.95569C1.71299 4.73648 2.00203 4.61576 2.30769 4.61576H13.8462ZM13.8462 3.46191H2.30769C1.03846 3.46191 0 4.50038 0 5.76961V12.6927C0 13.9619 1.03846 15.0004 2.30769 15.0004H13.8462C15.1154 15.0004 16.1538 13.9619 16.1538 12.6927V5.76961C16.1538 4.50038 15.1154 3.46191 13.8462 3.46191Z" fill="#33372C"/>
</svg>
