<svg width="25" height="26" viewBox="0 0 25 26" fill="white" xmlns="http://www.w3.org/2000/svg">
<path d="M5.60798 4.25048C6.08246 3.89387 6.75619 3.98942 7.11279 4.46388C7.4694 4.93835 7.37385 5.61206 6.89939 5.96869C4.55503 7.73067 3.14938 10.4833 3.14938 13.4715C3.14938 18.6514 7.34857 22.8506 12.5285 22.8506C17.7084 22.8506 21.9076 18.6514 21.9076 13.4715C21.9076 10.48 20.4989 7.72478 18.1503 5.96312C17.6754 5.607 17.5793 4.93337 17.9354 4.45855C18.2915 3.98373 18.9651 3.88755 19.44 4.24369C22.3242 6.40704 24.057 9.79625 24.057 13.4715C24.057 19.8385 18.8955 25 12.5285 25C6.1615 25 1 19.8385 1 13.4715C1 9.8002 2.72908 6.41427 5.60798 4.25048ZM13.6032 9.62195C13.6032 10.2155 13.122 10.6966 12.5285 10.6966C11.935 10.6966 11.4538 10.2155 11.4538 9.62195V2.07469C11.4538 1.48117 11.935 1 12.5285 1C13.122 1 13.6032 1.48117 13.6032 2.07469V9.62195Z" stroke-width="0.5"/>
</svg>
