<svg width="22" height="25" viewBox="0 0 22 25" fill="white" xmlns="http://www.w3.org/2000/svg">
<path fill-rule="evenodd" clip-rule="evenodd" d="M10.4607 0C6.83753 0 3.90039 2.93714 3.90039 6.56028C3.90039 10.1834 6.83753 13.1206 10.4607 13.1206C14.0838 13.1206 17.021 10.1834 17.021 6.56028C17.021 2.93714 14.0838 0 10.4607 0ZM6.5245 6.56028C6.5245 4.3864 8.28673 2.62411 10.4607 2.62411C12.6346 2.62411 14.3968 4.3864 14.3968 6.56028C14.3968 8.73417 12.6346 10.4965 10.4607 10.4965C8.28673 10.4965 6.5245 8.73417 6.5245 6.56028Z" />
<path fill-rule="evenodd" clip-rule="evenodd" d="M3.48721 15.7141C5.40068 14.8715 7.92041 14.5391 10.5496 14.5391C13.1789 14.5391 15.6987 14.8715 17.6121 15.7141C19.5627 16.5729 21.0993 18.0882 21.0993 20.4234C21.0993 21.0336 20.9869 21.7281 20.5682 22.3904C20.1496 23.0525 19.5064 23.5537 18.6758 23.9264C17.0813 24.6416 14.527 25.0001 10.5496 25.0001C6.57231 25.0001 4.01794 24.6416 2.42353 23.9264C1.59281 23.5537 0.949692 23.0525 0.531069 22.3904C0.112406 21.7281 0 21.0336 0 20.4234C0 18.0882 1.5365 16.5729 3.48721 15.7141ZM4.55757 18.1042C3.16732 18.7164 2.63741 19.4895 2.63741 20.4234C2.63741 20.7158 2.68984 20.8813 2.7657 21.0013C2.84159 21.1214 3.02266 21.3247 3.51065 21.5436C4.55365 22.0115 6.61475 22.3848 10.5496 22.3848C14.4845 22.3848 16.5457 22.0115 17.5886 21.5436C18.0767 21.3247 18.2577 21.1214 18.3336 21.0013C18.4094 20.8813 18.4619 20.7158 18.4619 20.4234C18.4619 19.4895 17.932 18.7164 16.5417 18.1042C15.1142 17.4757 13.0185 17.1543 10.5496 17.1543C8.08076 17.1543 5.98504 17.4757 4.55757 18.1042Z"/>
</svg>
