<svg width="15" height="15" viewBox="0 0 15 15" fill="none" xmlns="http://www.w3.org/2000/svg">
<path d="M7.58554 0.116911L13.9589 4.01186C14.0754 4.08304 14.1716 4.18296 14.2384 4.30203C14.3051 4.4211 14.3402 4.55532 14.3402 4.69182V14.2033C14.3402 14.4146 14.2562 14.6173 14.1068 14.7667C13.9574 14.9161 13.7548 15 13.5435 15H0.796675C0.585384 15 0.382746 14.9161 0.233341 14.7667C0.0839353 14.6173 2.46433e-08 14.4146 2.46433e-08 14.2033V4.69182C-3.39228e-05 4.55532 0.0350059 4.4211 0.101759 4.30203C0.168512 4.18296 0.264738 4.08304 0.381209 4.01186L6.75461 0.116911C6.8797 0.0404552 7.02347 0 7.17008 0C7.31669 0 7.46045 0.0404552 7.58554 0.116911ZM7.17008 1.28802L1.19501 4.89298V13.805H13.1451V4.89338L7.17008 1.28802ZM4.97922 5.4399H2.39003C2.28438 5.4399 2.18306 5.48186 2.10836 5.55657C2.03366 5.63127 1.99169 5.73259 1.99169 5.83824V8.42743C1.99169 8.53308 2.03366 8.63439 2.10836 8.7091C2.18306 8.7838 2.28438 8.82577 2.39003 8.82577H4.97922C5.08487 8.82577 5.18619 8.7838 5.26089 8.7091C5.33559 8.63439 5.37756 8.53308 5.37756 8.42743V5.83824C5.37756 5.73259 5.33559 5.63127 5.26089 5.55657C5.18619 5.48186 5.08487 5.4399 4.97922 5.4399ZM4.38171 6.43574V7.82992H2.98753V6.43574H4.38171ZM4.97922 9.82161H2.39003C2.28438 9.82161 2.18306 9.86358 2.10836 9.93828C2.03366 10.013 1.99169 10.1143 1.99169 10.2199V12.8091C1.99169 12.9148 2.03366 13.0161 2.10836 13.0908C2.18306 13.1655 2.28438 13.2075 2.39003 13.2075H4.97922C5.08487 13.2075 5.18619 13.1655 5.26089 13.0908C5.33559 13.0161 5.37756 12.9148 5.37756 12.8091V10.2199C5.37756 10.1143 5.33559 10.013 5.26089 9.93828C5.18619 9.86358 5.08487 9.82161 4.97922 9.82161ZM4.38171 10.8175V12.2116H2.98753V10.8175H4.38171ZM9.36093 9.82161H6.77174C6.71943 9.82161 6.66763 9.83191 6.6193 9.85193C6.57097 9.87195 6.52706 9.90129 6.49007 9.93828C6.45308 9.97527 6.42374 10.0192 6.40372 10.0675C6.38371 10.1158 6.3734 10.1676 6.3734 10.2199V12.8091C6.3734 12.8615 6.38371 12.9133 6.40372 12.9616C6.42374 13.0099 6.45308 13.0538 6.49007 13.0908C6.52706 13.1278 6.57097 13.1571 6.6193 13.1772C6.66763 13.1972 6.71943 13.2075 6.77174 13.2075H9.36093C9.41324 13.2075 9.46504 13.1972 9.51337 13.1772C9.5617 13.1571 9.60561 13.1278 9.6426 13.0908C9.67959 13.0538 9.70893 13.0099 9.72895 12.9616C9.74897 12.9133 9.75927 12.8615 9.75927 12.8091V10.2199C9.75927 10.1676 9.74897 10.1158 9.72895 10.0675C9.70893 10.0192 9.67959 9.97527 9.6426 9.93828C9.60561 9.90129 9.5617 9.87195 9.51337 9.85193C9.46504 9.83191 9.41324 9.82161 9.36093 9.82161ZM8.76343 10.8175V12.2116H7.36925V10.8175H8.76343Z" fill="#33372C"/>
</svg>
