<svg width="19" height="14" viewBox="0 0 19 14" fill="none" xmlns="http://www.w3.org/2000/svg">
<path id="Vector" d="M9.48887 14C6.94267 14 4.39573 14 1.84805 14C0.688008 14 0 13.2813 0 12.0703C0 8.69011 0 5.30859 0 1.92578C0 0.715556 0.68875 0 1.85027 0H17.169C18.3053 0 19 0.722556 19 1.90789C19 5.30315 19 8.69789 19 12.0921C19 13.2767 18.3061 13.9969 17.169 13.9977C14.6085 13.9992 12.0484 14 9.48887 14ZM2.00391 1.18378L1.93711 1.28256C2.04115 1.35297 2.14035 1.43094 2.23398 1.51589C4.19979 3.55937 6.16436 5.60415 8.1277 7.65022C9.05246 8.61233 9.94383 8.61467 10.8634 7.658C12.8376 5.60467 14.8108 3.55004 16.7831 1.49411C16.8662 1.40778 16.9419 1.31367 17.0562 1.183L2.00391 1.18378ZM2.06477 12.8069H16.9219L12.2758 7.81978C11.5106 8.69789 10.7461 9.53089 9.5141 9.53711C8.26574 9.54567 7.49684 8.69633 6.71234 7.81744L2.06477 12.8069ZM5.7757 7.00933L1.13555 2.1V11.9467L5.7757 7.00933ZM17.8674 2.1C16.3021 3.76289 14.7384 5.42033 13.2852 6.96344L17.8682 11.8417L17.8674 2.1Z" fill="#303030"/>
</svg>
