<svg width="18" height="18" viewBox="0 0 18 18" fill="rgb(48, 88, 26)" xmlns="http://www.w3.org/2000/svg">
<path d="M10.5379 0.00292969C10.6623 0.00122396 10.7855 0.00537761 10.91 0.00878906C11.1826 0.0139157 11.4554 0.0357285 11.7264 0.0732422C12.0672 0.122692 12.4046 0.185784 12.7352 0.28125C13.0198 0.363125 13.2983 0.466068 13.5643 0.595703C13.8846 0.752584 14.1847 0.941734 14.4539 1.17871C14.776 1.46183 15.0453 1.78984 15.2566 2.16504C15.4099 2.43609 15.5377 2.72073 15.6365 3.01562C15.7507 3.35677 15.8325 3.70698 15.8904 4.06348C15.9296 4.30723 15.9586 4.55265 15.9773 4.7998C15.9876 4.93616 15.9913 5.07263 15.993 5.20898C16.0066 6.96418 15.9961 8.72015 15.9979 10.4736C15.9978 10.6951 15.9966 10.9182 15.9812 11.1396C15.9642 11.3938 15.9355 11.645 15.8963 11.8975C15.84 12.2608 15.7581 12.6191 15.6404 12.9688C15.5433 13.2604 15.4201 13.542 15.2684 13.8115C15.1423 14.0348 14.9995 14.2449 14.8309 14.4375C14.6246 14.6746 14.3956 14.8863 14.1365 15.0654C13.7344 15.345 13.2929 15.5426 12.826 15.6875C12.4356 15.8086 12.0347 15.8836 11.6307 15.9365C11.4585 15.9587 11.286 15.979 11.1121 15.9824C10.9145 15.9875 10.7169 15.9966 10.5193 15.9932C10.5161 15.9932 10.5128 15.9945 10.5096 15.9961H5.53789C5.52445 15.9879 5.51101 15.9931 5.4959 15.9932C5.28805 15.9949 5.07998 15.988 4.87383 15.9795C4.55165 15.9658 4.23216 15.9232 3.9168 15.8652C3.47883 15.7868 3.05113 15.6671 2.64043 15.4932C2.23642 15.3226 1.86298 15.0973 1.53398 14.8057C1.21014 14.5191 0.942609 14.1865 0.731249 13.8096C0.569306 13.523 0.441199 13.2211 0.340624 12.9072C0.212785 12.5149 0.131002 12.1105 0.073046 11.7012C0.0508947 11.5392 0.0358985 11.3768 0.0222648 11.2148C0.0103572 11.0751 0.00834283 10.9354 0.00663976 10.7939C-0.00699752 9.47712 0.00516627 8.15837 0.00175695 6.83984C5.27694e-05 6.41516 5.24504e-05 5.99012 0.00175695 5.56543C0.00176385 5.38989 0.00641307 5.21435 0.0115226 5.03711C0.0217505 4.69085 0.060986 4.34578 0.118944 4.00293C0.176888 3.66027 0.259439 3.32122 0.371874 2.99219C0.525294 2.54358 0.7332 2.11988 1.02129 1.74121C1.32293 1.34398 1.69078 1.01798 2.12187 0.765625C2.38779 0.610412 2.66413 0.482471 2.95391 0.381836C3.27265 0.269269 3.60004 0.187629 3.93242 0.12793C4.15219 0.0887216 4.37208 0.0583042 4.59355 0.0361328C4.74868 0.0207813 4.90425 0.0131771 5.05937 0.00976562C5.20251 0.0063547 5.34397 0.00122668 5.48711 0.00292969C5.49387 0.00292969 5.50056 0.00495852 5.50566 0H10.5008C10.5126 0.00667106 10.5261 0.00296505 10.5379 0.00292969ZM7.82891 1.11035C7.16924 1.11717 6.34723 1.10136 5.52226 1.12012C5.31444 1.12353 5.10827 1.13212 4.90215 1.14746C4.56808 1.17134 4.23403 1.21256 3.90508 1.28418C3.50278 1.37288 3.11535 1.49746 2.75566 1.70215C2.45069 1.87608 2.18519 2.09466 1.96367 2.36914C1.76934 2.61135 1.6206 2.87945 1.50469 3.16602C1.37862 3.47976 1.29675 3.80716 1.23711 4.13965C1.14678 4.64958 1.11407 5.16464 1.11406 5.67969C1.11406 7.25571 1.10458 8.83023 1.11992 10.4062C1.12333 10.6195 1.12972 10.8315 1.14336 11.043C1.16211 11.3175 1.18964 11.5924 1.23906 11.8652C1.32089 12.3188 1.44353 12.759 1.65996 13.1699C1.82186 13.4751 2.03012 13.7459 2.29082 13.9727C2.52599 14.179 2.79165 14.3364 3.07793 14.4609C3.48023 14.6349 3.90349 14.7338 4.33476 14.7969C4.83247 14.8702 5.33366 14.887 5.83476 14.8887C7.21721 14.8921 8.60173 14.8906 9.98418 14.8906C10.2295 14.8906 10.4732 14.8855 10.7186 14.877C10.9519 14.8684 11.1854 14.8537 11.4187 14.8281C11.8483 14.7804 12.2713 14.6977 12.6805 14.5527C13.0588 14.4197 13.4081 14.2355 13.7098 13.9678C13.9672 13.7409 14.1755 13.4748 14.3357 13.1729C14.5181 12.8284 14.6358 12.4614 14.7176 12.0811C14.847 11.4791 14.8843 10.867 14.8826 10.2549C14.8792 8.58512 14.903 6.91684 14.8689 5.24707C14.8655 5.06469 14.8491 4.88185 14.8338 4.70117C14.8116 4.45727 14.776 4.21632 14.7283 3.97754C14.6431 3.55114 14.5114 3.14012 14.2967 2.75977C14.0222 2.27367 13.6355 1.90307 13.1395 1.64551C12.7627 1.44935 12.3601 1.33212 11.9441 1.25195C11.3988 1.14623 10.8466 1.11743 10.2928 1.1123C9.52568 1.10548 8.75795 1.11035 7.82891 1.11035Z"/>
<path d="M9.1436 9.19705C8.82994 9.19705 8.5589 9.08277 8.31513 8.89002C7.89237 8.554 7.46621 8.21967 7.04175 7.88535C7.02982 7.87682 7.01959 7.86829 7.00766 7.85976C6.90367 7.7813 6.79798 7.79495 6.71786 7.899C6.56785 8.09345 6.41955 8.2862 6.26954 8.48065C5.83485 9.04354 5.40016 9.60643 4.96888 10.1727C4.85296 10.3245 4.71148 10.4081 4.52226 10.4081C4.14382 10.4064 3.84551 10.0141 4.01768 9.62007C4.04155 9.5672 4.07393 9.52114 4.10973 9.47509C4.41657 9.07765 4.7217 8.68022 5.02854 8.28279C5.30811 7.92117 5.58426 7.55615 5.86724 7.19794C6.09907 6.90456 6.40761 6.74422 6.77753 6.7101C7.10312 6.6794 7.39973 6.7681 7.65884 6.96255C7.97079 7.19965 8.27592 7.44527 8.58447 7.68749C8.73959 7.80859 8.89301 7.93141 9.04813 8.05251C9.13166 8.11733 9.22712 8.11051 9.30042 8.03375C9.37372 7.95529 9.4368 7.86488 9.50328 7.7796C9.99763 7.14336 10.4903 6.50712 10.9829 5.87089C11.0409 5.79584 11.0954 5.72078 11.1756 5.66961C11.5114 5.45128 11.9802 5.67132 12.0279 6.06875C12.0466 6.22909 12.0023 6.36896 11.9034 6.49518C11.7176 6.73569 11.5318 6.97449 11.346 7.215C11.075 7.56467 10.8056 7.91264 10.5346 8.26232C10.4068 8.42607 10.284 8.59493 10.1476 8.75357C9.92944 9.00942 9.64988 9.15441 9.31406 9.19023C9.2561 9.19535 9.19985 9.19705 9.1436 9.19705Z" />
</svg>
