<svg width="18" height="15" viewBox="0 0 18 15" fill="none" xmlns="http://www.w3.org/2000/svg">
<path d="M4.5602 14.3797C4.5602 11.2055 7.15069 8.65148 10.325 8.68796C12.6236 8.72445 14.6303 10.1839 15.5424 12.3001C15.8343 13.0298 15.9802 13.723 15.9802 14.3797C15.9802 14.7081 16.2357 15 16.564 15H16.637C16.9654 15 17.2573 14.7446 17.2573 14.4162C17.2573 11.4244 15.3965 8.90688 12.7695 7.88528C13.8641 7.11907 14.5938 5.84207 14.5938 4.38264C14.6303 2.04755 12.733 0.0773212 10.3979 0.00434971C7.88041 -0.105108 5.87369 1.86512 5.87369 4.34616C5.87369 5.80559 6.60341 7.11907 7.73447 7.88528C5.14398 8.90688 3.2832 11.4244 3.2832 14.3797V14.4162C3.2832 14.7081 3.5386 14.9635 3.86698 14.9635H4.01292C4.3048 14.9635 4.5602 14.7081 4.5602 14.3797ZM7.18718 4.85696C6.82232 2.74078 8.64661 0.95298 10.7263 1.31784C12.0033 1.53675 13.0249 2.55835 13.2438 3.83536C13.6087 5.95153 11.7844 7.73933 9.7047 7.37447C8.4277 7.15556 7.40609 6.13396 7.18718 4.85696Z" fill="#33372C"/>
<path d="M5.25395 7.08285C4.08641 6.82745 3.24723 5.80584 3.24723 4.56533C3.24723 3.32481 4.12289 2.30321 5.29044 2.04781C5.50935 2.01132 5.69178 1.79241 5.69178 1.53701C5.69178 1.20864 5.36341 0.953237 5.03504 1.02621C3.39318 1.39107 2.15266 2.8505 2.15266 4.60181C2.15266 5.84233 2.77292 6.9369 3.72155 7.59365C1.5324 8.43282 0 10.5855 0 13.0665C0 13.2489 -2.97325e-08 13.3949 0.0364857 13.5773V13.6138C0.0364857 13.9057 0.291886 14.1611 0.583772 14.1611C0.875658 14.1611 1.13106 13.9057 1.13106 13.6138V13.5773C1.13106 13.4314 1.09457 13.2489 1.09457 13.0665C1.09457 10.6585 2.88238 8.65173 5.21747 8.32336C5.50935 8.28688 5.76475 8.03148 5.76475 7.70311C5.69178 7.41122 5.50935 7.15582 5.25395 7.08285Z" fill="#33372C"/>
</svg>
