<svg width="18" height="18" viewBox="0 0 31 40" fill="rgb(48, 88, 26)" xmlns="http://www.w3.org/2000/svg">
<path d="M16.546 35.0078C16.7333 34.259 16.3587 33.6661 15.9528 33.1045C15.547 32.5741 15.547 32.0437 15.9528 31.5444C16.5148 30.858 16.6396 30.078 16.546 29.2668C16.4835 28.6739 16.7021 28.2371 17.264 28.0187C18.1069 27.7067 18.6688 27.1139 19.0122 26.2714C19.2308 25.741 19.6366 25.4914 20.1985 25.5538C21.1351 25.6786 21.9468 25.4602 22.6648 24.8986C23.0706 24.5554 23.5389 24.5554 23.9448 24.8986C24.6628 25.4914 25.5057 25.6786 26.411 25.5538C26.973 25.4914 27.3788 25.7098 27.5661 26.2402C27.9095 27.1139 28.5027 27.7067 29.3768 28.0499C29.9075 28.2683 30.126 28.6739 30.0324 29.2044C29.9075 30.1404 30.126 30.9516 30.688 31.6693C31.0314 32.0749 31.0314 32.5429 30.688 32.9485C30.0948 33.6661 29.9075 34.5086 30.0324 35.4134C30.0948 35.975 29.8763 36.3806 29.3456 36.5679C28.4714 36.9111 27.8783 37.5039 27.5349 38.3775C27.3164 38.9079 26.9105 39.1264 26.3798 39.0327C25.4433 38.9079 24.6316 39.1264 23.9135 39.688C23.5077 40.0312 23.0394 40.0312 22.6336 39.688C21.9156 39.0952 21.0727 38.9079 20.1673 39.0327C19.6054 39.0952 19.2308 38.8767 19.0122 38.3463C18.7 37.6599 18.3566 37.0047 17.5762 36.7239C16.7333 36.5054 16.3274 35.9126 16.546 35.0078ZM22.3214 33.6661C21.9468 33.2917 21.6658 32.9173 21.3536 32.6053C20.9478 32.1997 20.4483 32.1997 20.1049 32.5741C19.7615 32.9173 19.7615 33.4165 20.1361 33.8221C20.6668 34.3838 21.1975 34.9142 21.7595 35.4446C22.259 35.9126 22.7585 35.8814 23.1955 35.351C24.2882 33.9781 25.3808 32.6053 26.4735 31.2324C26.5983 31.0764 26.692 30.9204 26.7232 30.7332C26.8169 30.3276 26.6608 29.9844 26.2549 29.7972C25.7867 29.5788 25.4433 29.766 25.1623 30.1092C24.2569 31.2636 23.3204 32.4181 22.3214 33.6661Z" />
<path d="M26.0358 32.3869C26.4104 31.9189 26.7538 31.4821 27.1284 31.0452C27.2221 30.9204 27.3157 30.7956 27.3782 30.6708C26.785 30.2964 26.1294 30.0468 25.3802 29.922C24.8495 30.6084 24.2876 31.2637 23.7568 31.9501C23.8505 31.9501 23.9754 31.9501 24.069 31.9501C24.787 31.8877 25.4739 32.0749 26.0358 32.3869Z" />
<path d="M23.0394 36.0999C22.5087 36.0999 21.978 36.0999 21.4473 36.0999C21.978 36.6303 22.5399 36.6303 23.0394 36.0999Z" />
<path d="M16.3897 37.6911C15.5468 37.4103 15.0785 36.8799 15.0785 36.0998C10.7704 36.0998 6.46223 36.0998 2.15408 36.0998C1.74824 33.6037 3.30916 31.8877 5.65055 31.9189C8.46022 31.9501 11.3011 31.9501 14.1108 31.9501C14.1732 31.7629 14.2669 31.5444 14.423 31.3572C14.8288 30.858 15.0473 30.2964 15.141 29.7348C12.9245 29.7348 10.7392 29.7348 8.52266 29.7348C8.52266 29.0483 8.52266 28.3931 8.52266 27.7067C10.7704 27.7067 13.0181 27.7067 15.2659 27.7067C15.422 27.4571 15.6405 27.2699 15.9839 27.1139C16.8268 26.7707 17.4512 26.2402 17.857 25.4914C15.2346 25.4914 12.6435 25.4914 10.0211 25.4914C10.4894 24.7426 10.9889 24.0873 11.3635 23.3385C13.424 19.0639 13.2679 14.8518 10.7392 10.8268C9.39678 8.70513 9.11581 6.67705 10.427 4.49296C11.5509 2.62089 13.9859 1.68485 16.2336 2.24648C18.3877 2.7769 20.0111 4.77378 20.1672 6.92666C20.2608 8.29952 19.855 9.48516 19.137 10.6396C17.6697 12.9797 16.9204 15.507 17.0453 18.2839C17.139 20.468 17.7321 22.4337 18.8872 24.2122C19.0745 24.1497 19.293 24.1186 19.5428 24.1498C20.1984 24.2434 20.8228 24.181 21.3847 23.9937C19.2618 21.5288 18.7311 18.5335 19.4804 15.2574C19.7925 13.8221 20.5106 12.5429 21.2598 11.2948C23.6324 7.26988 21.9778 2.30888 17.7009 0.530407C16.7643 0.187193 15.2659 -0.187222 13.2991 0.187193C12.6747 0.343199 12.1128 0.530407 11.5509 0.811218C7.67976 2.62089 6.18127 7.67549 8.52266 11.2324C9.95871 13.4477 10.7392 15.7566 10.5831 18.3775C10.4582 20.5928 9.70896 22.5273 8.27291 24.181C8.17925 24.2746 8.11682 24.3994 8.02316 24.4618C6.49345 25.5226 6.08761 27.0203 6.33736 28.7675C6.36858 29.0795 6.33736 29.3916 6.33736 29.7348C5.58812 29.7972 4.87009 29.8284 4.18328 29.922C3.21551 30.078 2.34139 30.546 1.6858 31.2324C1.65458 31.2636 1.62336 31.2948 1.56093 31.3572C1.52971 31.3884 1.49849 31.4196 1.46727 31.4508C1.40483 31.5444 1.31118 31.6068 1.24874 31.6693C0.437059 32.5741 0 34.0717 0 34.0717C0 35.5382 0 36.9111 0 38.2839C5.77543 38.2839 11.5196 38.2839 17.2638 38.2839C17.0453 38.0343 16.7643 37.8159 16.3897 37.6911Z" />
<path d="M22.3209 33.6661C23.3199 32.4181 24.2564 31.2636 25.1618 30.1092C25.4427 29.7348 25.8174 29.5787 26.2544 29.7972C26.6603 29.9844 26.8163 30.3276 26.7227 30.7332C26.6915 30.9204 26.5666 31.0764 26.4729 31.2324C25.3803 32.6053 24.2876 33.9781 23.195 35.351C22.7579 35.8814 22.2584 35.9126 21.7589 35.4446C21.197 34.9142 20.6663 34.3837 20.1356 33.8221C19.761 33.4165 19.761 32.9173 20.1044 32.5741C20.479 32.2309 20.9473 32.2309 21.3531 32.6053C21.6653 32.9173 21.9775 33.2917 22.3209 33.6661Z"/>
</svg>
