<svg width="10" height="13" viewBox="0 0 6 9" fill="#fff" xmlns="http://www.w3.org/2000/svg">
<path d="M2.60115 4.50626C2.63707 4.53078 2.66438 4.54473 2.68554 4.56431C3.68048 5.4743 4.67493 6.38474 5.66963 7.29495C5.87481 7.48262 5.98774 7.70741 5.9966 7.97316C6.01062 8.38968 5.75451 8.75759 5.34118 8.92028C4.93769 9.07915 4.46753 8.99656 4.14916 8.70831C3.8805 8.46484 3.6143 8.21934 3.34686 7.97451C2.34921 7.06093 1.35206 6.14689 0.353425 5.2342C-0.115506 4.80553 -0.118951 4.20068 0.349981 3.77133C1.61359 2.61427 2.87621 1.45699 4.14154 0.30195C4.44465 0.0253982 4.81344 -0.0646105 5.22357 0.0461002C5.6278 0.155236 5.88441 0.41041 5.97273 0.787997C6.05491 1.13858 5.95034 1.44866 5.67258 1.70338C4.67911 2.61472 3.68392 3.52449 2.68923 4.4347C2.66758 4.4545 2.64371 4.47183 2.6009 4.50603L2.60115 4.50626Z" />
</svg>
