<svg width="17" height="17" viewBox="0 0 17 17" fill="white" xmlns="http://www.w3.org/2000/svg">
<path d="M15.5289 14.1884H14.864V13.5235C14.864 13.241 14.648 13.0249 14.3654 13.0249H13.5676C13.6507 12.2271 13.7006 11.3961 13.7006 10.5319C13.7006 9.66759 13.6674 8.83657 13.5676 8.03878H15.4624C15.828 8.03878 16.1272 7.73961 16.1272 7.37396C16.1272 7.25762 16.094 7.05817 15.9111 6.89197L15.8945 6.87535L9.29617 1.27424C8.86404 0.908587 8.23246 0.908587 7.78371 1.27424L1.21861 6.87535C1.08565 6.99169 1.00255 7.15789 1.00255 7.3241C0.985925 7.4903 1.05241 7.67313 1.15213 7.78947C1.26847 7.93906 1.46792 8.02216 1.65074 8.02216H3.54548C3.46238 8.7867 3.41252 9.58449 3.3959 10.5152C3.37928 11.2632 3.41252 12.0443 3.51224 13.0083H2.73108C2.44853 13.0083 2.23246 13.2244 2.23246 13.5069V14.1717H1.56764C1.28509 14.1717 1.06903 14.3878 1.06903 14.6704V15.5014C1.06903 15.7839 1.28509 16 1.56764 16H15.5289C15.8114 16 16.0275 15.7839 16.0275 15.5014V14.6704C16.0275 14.4044 15.8114 14.1884 15.5289 14.1884ZM1.65074 7.37396C1.65074 7.37396 1.66737 7.37396 1.66737 7.39058C1.66737 7.39058 1.65074 7.39058 1.65074 7.37396ZM1.65074 7.37396L8.21584 1.77285C8.41529 1.60665 8.68122 1.60665 8.86404 1.77285L15.4458 7.37396H13.202C12.9028 7.37396 12.5039 7.35734 12.0053 7.3241C11.1743 7.27424 10.0109 7.20776 8.54825 7.20776C7.08565 7.20776 5.93883 7.27424 5.09119 7.3241C4.59257 7.35734 4.19368 7.37396 3.89451 7.37396H1.65074ZM10.7089 13.0249V7.92244C11.1909 7.93906 11.6064 7.9723 11.9555 7.98892C12.3211 8.00554 12.6369 8.02216 12.9028 8.03878C12.9859 8.83657 13.0358 9.66759 13.0358 10.5319C13.0358 11.3961 12.9859 12.2271 12.9028 13.0249H10.7089ZM4.16044 13.0249C4.06072 12.0609 4.02748 11.2798 4.0441 10.5319C4.06072 9.60111 4.11058 8.7867 4.19368 8.02216C4.45961 8.00554 4.7754 7.98892 5.14105 7.9723C5.5067 7.95568 5.92221 7.92244 6.38759 7.90582V13.0249H4.16044ZM7.05241 7.8892C7.50116 7.87258 7.99978 7.87258 8.54825 7.87258C9.09673 7.87258 9.59534 7.8892 10.0441 7.8892V13.0249H7.05241V7.8892ZM15.3627 15.3518H1.73385V14.8532H2.39867C2.68122 14.8532 2.89728 14.6371 2.89728 14.3546V13.6898H14.1992V14.3546C14.1992 14.6371 14.4153 14.8532 14.6978 14.8532H15.3627V15.3518Z" fill="#33372C"/>
<path d="M1.65074 7.37396C1.65074 7.37396 1.66737 7.37396 1.66737 7.39058C1.66737 7.39058 1.65074 7.39058 1.65074 7.37396ZM1.65074 7.37396L8.21584 1.77285C8.41529 1.60665 8.68122 1.60665 8.86404 1.77285L15.4458 7.37396H13.202C12.9028 7.37396 12.5039 7.35734 12.0053 7.3241C11.1743 7.27424 10.0109 7.20776 8.54825 7.20776C7.08565 7.20776 5.93883 7.27424 5.09119 7.3241C4.59257 7.35734 4.19368 7.37396 3.89451 7.37396H1.65074ZM15.5289 14.1884H14.864V13.5235C14.864 13.241 14.648 13.0249 14.3654 13.0249H13.5676C13.6507 12.2271 13.7006 11.3961 13.7006 10.5319C13.7006 9.66759 13.6674 8.83657 13.5676 8.03878H15.4624C15.828 8.03878 16.1272 7.73961 16.1272 7.37396C16.1272 7.25762 16.094 7.05817 15.9111 6.89197L15.8945 6.87535L9.29617 1.27424C8.86404 0.908587 8.23246 0.908587 7.78371 1.27424L1.21861 6.87535C1.08565 6.99169 1.00255 7.15789 1.00255 7.3241C0.985925 7.4903 1.05241 7.67313 1.15213 7.78947C1.26847 7.93906 1.46792 8.02216 1.65074 8.02216H3.54548C3.46238 8.7867 3.41252 9.58449 3.3959 10.5152C3.37928 11.2632 3.41252 12.0443 3.51224 13.0083H2.73108C2.44853 13.0083 2.23246 13.2244 2.23246 13.5069V14.1717H1.56764C1.28509 14.1717 1.06903 14.3878 1.06903 14.6704V15.5014C1.06903 15.7839 1.28509 16 1.56764 16H15.5289C15.8114 16 16.0275 15.7839 16.0275 15.5014V14.6704C16.0275 14.4044 15.8114 14.1884 15.5289 14.1884ZM10.7089 13.0249V7.92244C11.1909 7.93906 11.6064 7.9723 11.9555 7.98892C12.3211 8.00554 12.6369 8.02216 12.9028 8.03878C12.9859 8.83657 13.0358 9.66759 13.0358 10.5319C13.0358 11.3961 12.9859 12.2271 12.9028 13.0249H10.7089ZM4.16044 13.0249C4.06072 12.0609 4.02748 11.2798 4.0441 10.5319C4.06072 9.60111 4.11058 8.7867 4.19368 8.02216C4.45961 8.00554 4.7754 7.98892 5.14105 7.9723C5.5067 7.95568 5.92221 7.92244 6.38759 7.90582V13.0249H4.16044ZM7.05241 7.8892C7.50116 7.87258 7.99978 7.87258 8.54825 7.87258C9.09673 7.87258 9.59534 7.8892 10.0441 7.8892V13.0249H7.05241V7.8892ZM15.3627 15.3518H1.73385V14.8532H2.39867C2.68122 14.8532 2.89728 14.6371 2.89728 14.3546V13.6898H14.1992V14.3546C14.1992 14.6371 14.4153 14.8532 14.6978 14.8532H15.3627V15.3518Z" stroke="#33372C" stroke-width="0.4"/>
</svg>
