<svg width="16" height="19" viewBox="0 0 16 19" fill="none" xmlns="http://www.w3.org/2000/svg">
<g clip-path="url(#clip0_22_157)">
<path d="M7.8559 18.4955C6.18247 18.4955 4.5113 18.4955 2.83788 18.4955C1.40094 18.4775 0.527067 17.6352 0.513553 16.1982C0.50004 13.7883 0.50004 11.3852 0.513553 8.97976C0.513553 7.65769 1.15319 6.90093 2.46175 6.69147C2.87166 6.6239 2.9122 6.46624 2.9122 6.1284C2.90094 5.45273 2.88968 4.77705 2.9122 4.10138C2.94922 3.16717 3.33616 2.28104 3.99622 1.6189C4.65628 0.956758 5.54118 0.567019 6.47527 0.527053C7.37617 0.488765 8.29508 0.49327 9.20274 0.527053C10.1513 0.555105 11.0536 0.943234 11.7263 1.61258C12.399 2.28192 12.7916 3.18226 12.8244 4.13066C12.8379 4.42345 12.8244 4.7185 12.8244 5.01129C12.8424 5.85588 12.5473 6.75678 13.9708 6.91669C14.8244 7.01354 15.2095 7.94372 15.2163 8.83336C15.2343 11.3289 15.25 13.8244 15.2163 16.3176C15.1982 17.6487 14.2996 18.4798 12.964 18.4933C11.259 18.518 9.5586 18.4955 7.8559 18.4955ZM7.78382 17.0744C9.45499 17.0744 11.1284 17.0608 12.7996 17.0744C13.5136 17.0744 13.8109 16.7613 13.8086 16.0676C13.8086 13.7207 13.8086 11.3739 13.8086 9.02705C13.8086 8.38516 13.5203 8.06985 12.8401 8.07435C9.52481 8.08787 6.2095 8.08787 2.89418 8.07435C2.21851 8.07435 1.93022 8.38967 1.92797 9.02931C1.92797 11.3762 1.92797 13.723 1.92797 16.0698C1.92797 16.7455 2.22977 17.0834 2.94373 17.0744C4.55409 17.0586 6.17121 17.0721 7.78382 17.0744ZM7.82211 6.66669H9.0586C11.5744 6.66669 11.5744 6.66669 11.4077 4.14868C11.3847 3.57012 11.1437 3.02169 10.733 2.61352C10.3223 2.20535 9.77242 1.96767 9.19373 1.94822C8.31535 1.90543 7.43247 1.90543 6.55409 1.94822C5.95843 1.96178 5.39181 2.20827 4.9758 2.6348C4.55979 3.06134 4.32754 3.63394 4.32887 4.22976C4.30635 4.84462 4.34914 5.46399 4.31536 6.0766C4.29058 6.52705 4.44599 6.69147 4.9122 6.6757C5.88517 6.64417 6.8559 6.66669 7.82211 6.66669Z" fill="#121212"/>
<path d="M5.4978 11.9595C5.48607 11.3815 5.68544 10.8191 6.05857 10.3776C6.4317 9.93602 6.953 9.64565 7.52483 9.56084C8.02708 9.48652 8.44375 9.63291 8.5406 10.1487C8.63294 10.6239 8.3424 10.8987 7.8469 10.964C7.22303 11.0451 6.89645 11.437 6.946 12.0496C6.95125 12.2721 7.04274 12.4838 7.20116 12.6402C7.35959 12.7965 7.57255 12.8851 7.7951 12.8874C8.38069 12.9144 8.71853 12.5946 8.80636 12.0135C8.88294 11.518 9.11267 11.1509 9.67348 11.2658C10.2343 11.3807 10.2681 11.8221 10.2028 12.2996C10.1642 12.6502 10.0417 12.9863 9.84564 13.2796C9.64962 13.5728 9.38584 13.8145 9.07663 13.9843C8.73654 14.178 8.53384 14.3536 8.56312 14.7816C8.58219 14.8844 8.57661 14.9903 8.54686 15.0906C8.51711 15.1909 8.46402 15.2827 8.39194 15.3585C8.31987 15.4343 8.23086 15.492 8.13221 15.5267C8.03355 15.5615 7.92806 15.5724 7.82438 15.5586C7.72746 15.5644 7.63052 15.5478 7.54104 15.5101C7.45156 15.4724 7.37195 15.4146 7.30837 15.3413C7.24479 15.2679 7.19895 15.1809 7.17439 15.0869C7.14982 14.993 7.1472 14.8947 7.16672 14.7996C7.19826 14.3852 7.01582 14.1892 6.66672 13.991C5.88519 13.5631 5.53159 12.8401 5.4978 11.9595Z" fill="#121212"/>
</g>
<defs>
<clipPath id="clip0_22_157">
<rect width="14.7432" height="18" fill="white" transform="translate(0.5 0.5)"/>
</clipPath>
</defs>
</svg>
