<svg width="16" height="17" viewBox="0 0 16 17" fill="rgb(48, 88, 26)" xmlns="http://www.w3.org/2000/svg">
<path d="M12.6923 9.38477L9.38458 11.2304V14.9237L12.6923 16.7694L16 14.9237V11.2304L12.6923 9.38477ZM14.529 14.0554L12.6923 15.0812L10.8556 14.0554V12.1007L12.6923 11.0749L14.529 12.1007V14.0554Z" />
<path d="M12.0089 13.2C12.0235 13.2997 12.0556 13.3953 12.1034 13.4812C12.1512 13.5671 12.2137 13.6418 12.2875 13.7008C12.3612 13.7599 12.4447 13.8023 12.5332 13.8255C12.6217 13.8487 12.7134 13.8523 12.8031 13.8362C12.8929 13.82 12.9789 13.7843 13.0562 13.7312C13.1336 13.6781 13.2007 13.6086 13.2539 13.5267C13.3071 13.4447 13.3452 13.352 13.3661 13.2536C13.387 13.1553 13.3902 13.0534 13.3757 12.9537C13.3611 12.854 13.329 12.7584 13.2812 12.6725C13.2335 12.5866 13.1709 12.5119 13.0972 12.4529C13.0234 12.3938 12.9399 12.3514 12.8514 12.3282C12.7629 12.305 12.6712 12.3014 12.5815 12.3175C12.4917 12.3337 12.4057 12.3694 12.3284 12.4225C12.251 12.4756 12.1839 12.5451 12.1307 12.627C12.0775 12.709 12.0394 12.8017 12.0185 12.9001C11.9976 12.9984 11.9944 13.1003 12.0089 13.2Z"/>
<path d="M11.4624 8.06253C11.2109 7.93959 10.9536 7.82855 10.6923 7.73337C11.6782 6.93425 12.3077 5.71476 12.3077 4.35051C12.3077 1.95119 10.3597 0 7.96427 0C5.56885 0 3.62084 1.95119 3.62084 4.35051C3.62084 5.71674 4.25236 6.93822 5.23824 7.73535C2.18557 8.85371 0 11.7904 0 15.2308H1.44715C1.44715 11.6318 4.37114 8.705 7.96229 8.705C8.96599 8.705 9.92811 8.92708 10.8229 9.36531L11.4624 8.06253ZM7.96427 1.44951C9.56187 1.44951 10.8605 2.7503 10.8605 4.35051C10.8605 5.95073 9.56187 7.25152 7.96427 7.25152C6.36666 7.25152 5.06799 5.95073 5.06799 4.35051C5.06799 2.7503 6.36864 1.44951 7.96427 1.44951Z" />
</svg>
