<svg width="16" height="16" viewBox="0 0 16 16" fill="rgb(48, 88, 26)" xmlns="http://www.w3.org/2000/svg">
<path d="M0.574743 7.104L7.12041 0.576C7.50358 0.192 8.01446 0 8.55727 0L13.9215 0.16C14.9433 0.192 15.7735 1.024 15.8054 2.048L15.997 7.424C16.0289 7.968 15.8054 8.48 15.4222 8.864L8.87657 15.424C8.49341 15.808 8.01446 16 7.50357 16C6.99269 16 6.48181 15.808 6.13058 15.424L0.574743 9.856C0.191581 9.472 4.57371e-08 8.992 4.57371e-08 8.48C0.0319302 7.968 0.223511 7.488 0.574743 7.104ZM1.50071 8.96L7.02462 14.528C7.28006 14.784 7.72709 14.784 7.98253 14.528L14.4963 7.968C14.624 7.84 14.6878 7.648 14.6878 7.488L14.5282 2.112C14.5282 1.76 14.2408 1.472 13.8896 1.472L8.52534 1.28C8.33376 1.28 8.17411 1.344 8.04639 1.472L1.50071 8C1.37299 8.128 1.30913 8.288 1.30913 8.48C1.30913 8.672 1.37299 8.832 1.50071 8.96Z"/>
<path d="M9.88039 10.8082C10.0081 10.6804 10.1996 10.6804 10.3273 10.8082C10.455 10.9359 10.455 11.1275 10.3273 11.2553L9.68886 11.894C9.62501 11.9579 9.52924 11.9899 9.4654 11.9899C9.40155 11.9899 9.30578 11.9579 9.24193 11.894C9.11424 11.7663 9.11424 11.5747 9.24193 11.4469L9.88039 10.8082ZM4.03847 9.75421L7.2627 12.9799C7.39039 13.1077 7.58193 13.1077 7.70963 12.9799L8.47578 12.2134C8.60347 12.0857 8.79501 12.0857 8.9227 12.2134C9.0504 12.3412 9.0504 12.5328 8.9227 12.6605L8.15655 13.427C7.96501 13.6187 7.70963 13.7145 7.48616 13.7145C7.23078 13.7145 7.00732 13.6187 6.81578 13.427L3.59155 10.2013C3.46386 10.0736 3.46386 9.88196 3.59155 9.75421C3.71924 9.62646 3.91078 9.62646 4.03847 9.75421ZM10.0081 3.36667C10.3592 3.01536 10.8381 2.82373 11.3169 2.82373C11.7958 2.82373 12.2746 3.01536 12.6258 3.36667C13.36 4.10124 13.36 5.28293 12.6258 6.0175C12.2746 6.36882 11.7958 6.56044 11.3169 6.56044C10.8381 6.56044 10.3592 6.36882 10.0081 6.0175C9.27386 5.251 9.27386 4.0693 10.0081 3.36667ZM10.9019 5.09131C11.1254 5.31487 11.5085 5.31487 11.7319 5.09131C11.9554 4.86774 11.9554 4.48449 11.7319 4.26093C11.6362 4.16511 11.4765 4.10124 11.3169 4.10124C11.1573 4.10124 10.9977 4.16511 10.9019 4.26093C10.6785 4.48449 10.6785 4.86774 10.9019 5.09131Z" />
</svg>
