<svg width="36" height="25" viewBox="0 0 36 25" fill="none" xmlns="http://www.w3.org/2000/svg">
<path id="Vector" d="M17.9789 25C13.1545 25 8.32875 25 3.50156 25C1.30359 25 0 23.7167 0 21.5542C0 15.5181 0 9.47963 0 3.43889C0 1.27778 1.305 0 3.50578 0H32.5308C34.6838 0 36 1.29028 36 3.40694C36 9.46991 36 15.5319 36 21.5931C36 23.7083 34.6852 24.9944 32.5308 24.9958C27.6792 24.9986 22.8286 25 17.9789 25ZM3.79688 2.11389L3.67031 2.29028C3.86744 2.41602 4.0554 2.55525 4.23281 2.70694C7.9575 6.35602 11.6798 10.0074 15.3998 13.6611C17.152 15.3792 18.8409 15.3833 20.5833 13.675C24.3239 10.0083 28.0627 6.33935 31.7995 2.66806C31.957 2.51389 32.1005 2.34583 32.317 2.1125L3.79688 2.11389ZM3.91219 22.8694H32.0625L23.2594 13.9639C21.8095 15.5319 20.3611 17.0194 18.0267 17.0306C15.6614 17.0458 14.2045 15.5292 12.7181 13.9597L3.91219 22.8694ZM10.9434 12.5167L2.15156 3.75V21.3333L10.9434 12.5167ZM33.8541 3.75C30.8883 6.71944 27.9253 9.67917 25.1719 12.4347L33.8555 21.1458L33.8541 3.75Z" fill="#00577B"/>
</svg>
