<svg width="15" height="16" viewBox="0 0 15 16" fill="rgb(48, 88, 26)" xmlns="http://www.w3.org/2000/svg">
<path d="M8.9958 0.984955H3.53941C3.18342 0.984955 2.85481 1.04532 2.56037 1.16579C2.26607 1.28639 1.99223 1.46735 1.74564 1.70855C1.49919 1.94975 1.31429 2.21774 1.19106 2.5059C1.06783 2.79394 1.00629 3.11566 1.00629 3.46406V8.67674C1.00629 9.02513 1.06783 9.34673 1.19106 9.63489C1.31429 9.92305 1.49919 10.1909 1.74564 10.4322C1.99888 10.6736 2.27285 10.8609 2.56716 10.9749C2.8616 11.0955 3.18342 11.1558 3.53941 11.1558H5.88084C6.15481 11.1558 6.38066 11.3769 6.38066 11.6449C6.38066 11.7052 6.36697 11.7588 6.35328 11.8124C6.26421 12.1342 6.16837 12.4558 6.05884 12.7638C5.94239 13.0923 5.81929 13.4004 5.68224 13.7021C5.61379 13.8561 5.53163 14.0034 5.4427 14.1577C5.92192 13.9498 6.37375 13.7087 6.79141 13.4406C7.22955 13.1592 7.64031 12.8444 8.01677 12.5026C8.40014 12.1542 8.74244 11.7722 9.05735 11.3635C9.15319 11.2364 9.3038 11.1694 9.45441 11.1694H11.4672C11.8232 11.1694 12.1451 11.109 12.4394 10.9884C12.7338 10.8678 13.0076 10.6868 13.261 10.4458C13.5075 10.2045 13.6924 9.93658 13.8156 9.64842C13.9387 9.36026 14.0004 9.03853 14.0004 8.69027V3.47746C14.0004 3.12906 13.9387 2.80747 13.8156 2.5193C13.6924 2.23114 13.5075 1.96327 13.261 1.72195C13.0146 1.48062 12.7407 1.29979 12.4463 1.17932C12.1518 1.05872 11.8234 0.998354 11.4672 0.998354H8.9958V0.984955ZM8.04624 7.10678H6.74538V6.96921C6.74538 6.73529 6.7699 6.54463 6.82023 6.39863C6.87057 6.25123 6.94515 6.11877 7.04465 5.99753C7.14401 5.87616 7.36725 5.6633 7.71438 5.3588C7.89902 5.19915 7.99134 5.05303 7.99134 4.92043C7.99134 4.78682 7.95392 4.68409 7.88037 4.60981C7.80552 4.53669 7.69325 4.49955 7.54264 4.49955C7.38003 4.49955 7.24677 4.55647 7.14062 4.6703C7.03422 4.78299 6.96654 4.9822 6.93707 5.26462L5.60818 5.09004C5.65369 4.57268 5.83129 4.15664 6.13994 3.84104C6.44977 3.52544 6.92429 3.36809 7.5635 3.36809C8.06137 3.36809 8.46234 3.47822 8.76839 3.69734C9.18357 3.99571 9.39143 4.39171 9.39143 4.88687C9.39143 5.09234 9.33771 5.29167 9.23013 5.48234C9.12385 5.67287 8.904 5.90692 8.57331 6.18168C8.34303 6.37604 8.19685 6.53072 8.13608 6.64838C8.07662 6.76502 8.04624 6.91842 8.04624 7.10678ZM6.69987 7.47305H8.09423V8.56188H6.69987V7.47305ZM6.01098 0.00676375H11.4672C11.9465 0.00676375 12.3984 0.0939267 12.8229 0.261361C13.2404 0.428796 13.6239 0.683521 13.9662 1.01852C14.3086 1.35351 14.5688 1.72871 14.74 2.13747C14.9111 2.54623 15 2.9883 15 3.46419V8.67674C15 9.15262 14.9109 9.59469 14.74 10.0035C14.5688 10.412 14.3086 10.7872 13.9662 11.1224C13.6239 11.4574 13.2405 11.7051 12.8229 11.8794C12.4053 12.047 11.9534 12.1342 11.4672 12.1342H9.701C9.39299 12.516 9.05748 12.8777 8.70149 13.2062C8.27705 13.5947 7.82521 13.9429 7.33909 14.2512C6.85296 14.566 6.33267 14.8409 5.77809 15.0752C5.23041 15.3098 4.64166 15.5042 4.02553 15.665C3.84754 15.7118 3.65585 15.6582 3.52571 15.5174C3.34094 15.3166 3.36141 15.0085 3.56679 14.8275C3.85432 14.5796 4.10077 14.325 4.29937 14.0703C4.49105 13.8225 4.64858 13.5677 4.76489 13.3066V13.2998C4.89503 13.0184 5.01134 12.7303 5.1141 12.4421C5.14839 12.3417 5.18256 12.2345 5.21685 12.1273H3.53263C3.05341 12.1273 2.60158 12.04 2.177 11.8725C1.75934 11.705 1.37596 11.4505 1.03367 11.1155C0.691373 10.7805 0.431228 10.4052 0.260015 9.99656C0.0889318 9.58129 0 9.1391 0 8.6701V3.4573C0 2.98817 0.0889318 2.54598 0.260145 2.13058C0.431358 1.72182 0.691503 1.34662 1.0338 1.01163C1.3761 0.67663 1.75947 0.422032 2.17713 0.25447C2.5948 0.0869078 3.0465 0 3.53263 0H6.00407L6.01098 0.00676375Z"/>
</svg>
