<svg width="18" height="18" viewBox="0 0 27 42" fill="rgb(48, 88, 26)" xmlns="http://www.w3.org/2000/svg">
<path d="M8.50622 2.68109C6.57345 5.31696 6.25132 8.26756 7.3385 11.2575C7.8217 12.5164 7.49957 13.1459 6.45265 13.8147C4.88227 14.7982 3.39242 15.9391 2.30524 16.7259C0.614059 18.3389 0.0100665 19.9126 0.0100665 21.6829C0.0100665 26.2072 -0.0301996 30.6921 0.0503327 35.2164C0.130865 38.9931 2.66763 41.4323 6.57345 41.4716C11.2041 41.511 15.8347 41.511 20.425 41.4323C24.4113 41.3929 26.9481 38.9144 26.9884 35.0197C27.0286 30.6528 26.9481 26.2465 26.9884 21.8797C26.9884 19.5192 26.1025 17.7095 24.1295 16.3325C21.4719 14.4835 18.6936 12.7131 16.1568 10.6674C14.3448 9.21175 12.8147 8.73966 11.0027 10.5494C10.1169 11.4542 9.63367 10.8641 9.39207 9.88055C8.90888 7.79546 9.15048 5.8284 10.3987 4.05804C12.0094 1.81558 14.7877 1.81558 16.4386 4.0187C17.244 5.12025 17.6064 6.33984 17.6869 7.67744C17.7272 8.46427 17.9688 9.17241 18.9352 9.13307C20.0223 9.09373 20.1431 8.26756 20.1029 7.44139C19.9821 5.78906 19.4989 4.2154 18.5325 2.83846C15.9555 -0.859625 11.2041 -0.977649 8.50622 2.68109ZM12.6939 12.3197C13.3382 11.7296 13.9019 12.0443 14.4656 12.4771C17.1634 14.4048 19.9015 16.2932 22.6396 18.2209C24.0087 19.1651 24.5724 20.424 24.5724 22.0764C24.5321 26.2859 24.5724 30.4561 24.5724 34.6656C24.5724 37.7342 23.2034 39.0718 20.0223 39.1112C15.6736 39.1505 11.3249 39.1505 6.93584 39.1112C3.87562 39.1112 2.50657 37.7342 2.4663 34.7836C2.42603 30.5347 2.4663 26.2859 2.42603 21.9977C2.42603 20.6994 2.74816 19.5192 3.75482 18.6143C5.40573 17.4734 7.01637 16.3325 8.62702 15.1523C9.23101 14.7195 9.7142 14.8376 10.2377 15.231C11.0833 15.8211 12.0094 16.1358 13.0563 16.2145C13.7811 16.2538 14.4253 16.0178 14.5461 15.231C14.6669 14.4441 14.224 14.0507 13.459 13.8934C12.8952 13.7753 12.1302 13.8934 11.9288 13.1852C11.8483 12.8312 12.3718 12.5951 12.6939 12.3197Z"/>
<path d="M14.062 25.7188C13.4453 25.7188 12.8726 25.7188 12.3 25.7188C11.463 25.7188 10.582 25.7188 9.74508 25.7188C9.43673 25.7188 9.34863 25.5859 9.34863 25.3202C9.34863 25.0545 9.34863 24.7444 9.34863 24.4787C9.34863 24.0801 9.43673 23.9915 9.83319 23.9915C11.1106 23.9915 12.4321 23.9915 13.7096 23.9915C13.7977 23.9915 13.8418 23.9915 13.9299 23.9915C13.7537 23.6815 13.5334 23.46 13.2691 23.2829C12.7405 22.9286 12.1238 22.84 11.463 22.84C10.8904 22.84 10.3177 22.84 9.74508 22.84C9.48078 22.84 9.34863 22.7071 9.34863 22.4414C9.34863 22.0428 9.34863 21.6442 9.34863 21.2013C9.34863 20.8913 9.43673 20.7584 9.78913 20.7584C10.4939 20.7584 11.1987 20.7584 11.9035 20.7584C13.8858 20.7584 15.8681 20.7584 17.8503 20.7584C18.0265 20.7584 18.1587 20.7584 18.3349 20.7584C18.5111 20.7584 18.6432 20.8913 18.6432 21.0684C18.6432 21.4228 18.6432 21.7771 18.6432 22.1314C18.6432 22.3528 18.5111 22.4414 18.2908 22.4414C17.586 22.4414 16.9253 22.4414 16.2205 22.4414C16.1324 22.4414 16.0443 22.4414 15.9562 22.4414C16.0002 22.53 16.0443 22.5743 16.0443 22.6186C16.2645 22.9729 16.4407 23.3715 16.5288 23.7701C16.5729 23.8587 16.6169 23.9029 16.705 23.9029C17.2336 23.9029 17.7182 23.9029 18.2468 23.9029C18.5551 23.9029 18.6432 23.9915 18.6873 24.3015C18.6873 24.6116 18.6873 24.9216 18.6873 25.2316C18.6873 25.4973 18.5551 25.6302 18.2908 25.6302C17.8063 25.6302 17.2777 25.6302 16.7931 25.6302C16.705 25.6302 16.661 25.6302 16.6169 25.7631C16.2645 27.4903 15.1633 28.509 13.5334 28.9962C13.181 29.0847 12.8727 29.1733 12.4762 29.2176C12.5202 29.2619 12.5202 29.3062 12.5643 29.3505C14.062 31.122 15.6038 32.8936 17.1015 34.6652C17.1896 34.798 17.2777 34.8866 17.1896 35.0638C17.1015 35.2409 16.9693 35.2852 16.7931 35.2852C16.1764 35.2852 15.5597 35.2852 14.943 35.2852C14.7668 35.2852 14.6347 35.2409 14.5466 35.1081C12.9167 33.115 11.2428 31.1663 9.52483 29.3062C9.43673 29.2176 9.39268 29.0848 9.39268 28.9519C9.39268 28.5533 9.39268 28.1547 9.39268 27.8004C9.39268 27.4903 9.52483 27.3575 9.83319 27.3575C10.4499 27.3575 11.1106 27.3575 11.7273 27.3132C12.344 27.2689 12.9167 27.0917 13.4013 26.7374C13.6656 26.516 13.9299 26.206 14.062 25.7188Z"/>
</svg>
