<svg width="15" height="15" viewBox="0 0 15 15" fill="none" xmlns="http://www.w3.org/2000/svg">
<path d="M7.52037 4.54688L7.77807 5.06868L8.03152 5.58408L8.60017 5.66714L9.17521 5.75021L8.75777 6.15699L8.34672 6.55739L8.44469 7.12391L8.54266 7.69682L8.02726 7.42634L7.52037 7.16012L7.01348 7.42634L6.49808 7.69469L6.59605 7.12178L6.69402 6.55526L6.28297 6.15486L5.86554 5.74808L6.44058 5.66502L7.00923 5.58195L7.26267 5.06655L7.52037 4.54688ZM7.52037 2.27441C7.465 2.27441 7.40962 2.30423 7.38194 2.36173L6.2851 4.58522L3.8316 4.94089C3.70382 4.96006 3.6527 5.11553 3.74641 5.20498L5.52264 6.93436L5.10308 9.37721C5.08604 9.47731 5.16484 9.55824 5.25642 9.55824C5.27985 9.55824 5.30541 9.55185 5.32883 9.53907L7.5225 8.38474L9.71617 9.53907C9.7396 9.55185 9.76515 9.55824 9.78858 9.55824C9.87803 9.55824 9.95896 9.47731 9.94192 9.37721L9.52236 6.93436L11.2986 5.20498C11.3902 5.11553 11.3391 4.95793 11.2134 4.94089L8.75777 4.58522L7.66094 2.36173C7.63112 2.30423 7.57575 2.27441 7.52037 2.27441ZM2.82422 11.1066H12.1739V12.4718H2.82422V11.1066Z" fill="#33372C"/>
<path d="M13.6369 1.36306V13.6369H1.36306V1.36306H13.6369ZM14.6592 0H0.340764C0.151214 0 0 0.153344 0 0.340764V14.6592C0 14.8488 0.153344 15 0.340764 15H14.6592C14.8488 15 15 14.8467 15 14.6592V0.340764C15 0.151214 14.8488 0 14.6592 0Z" fill="#33372C"/>
</svg>
