<svg width="17" height="19" viewBox="0 0 17 19" fill="none" xmlns="http://www.w3.org/2000/svg">
<g clip-path="url(#clip0_22_160)">
<path d="M8.59592 18.5C6.82157 18.4914 5.09903 17.901 3.69248 16.8193C2.28593 15.7377 1.27303 14.2245 0.809124 12.5118C0.345218 10.7992 0.455922 8.98164 1.12426 7.33796C1.79259 5.69427 2.98166 4.3152 4.50909 3.41224C4.62865 3.33409 4.76509 3.28551 4.90714 3.2705C5.04919 3.2555 5.19277 3.27451 5.32602 3.32596C5.45927 3.37741 5.57837 3.45983 5.67348 3.5664C5.76858 3.67297 5.83697 3.80065 5.87298 3.93887C5.92685 4.13339 5.91267 4.34047 5.83279 4.52584C5.7529 4.7112 5.61211 4.86372 5.43372 4.95815C4.78931 5.33716 4.21471 5.82393 3.73492 6.39728C2.9182 7.3884 2.42468 8.60591 2.32078 9.88597C2.21688 11.166 2.50757 12.4472 3.15375 13.5571C3.79993 14.6669 4.77057 15.5522 5.93506 16.0938C7.09955 16.6354 8.40199 16.8073 9.66712 16.5864C10.9322 16.3654 12.0993 15.7622 13.0113 14.858C13.9233 13.9538 14.5364 12.7919 14.7681 11.5287C14.9999 10.2655 14.8391 8.96161 14.3075 7.79255C13.7758 6.62348 12.8988 5.64532 11.7945 4.9897C11.6499 4.91694 11.5269 4.80769 11.4375 4.67276C11.3481 4.53782 11.2955 4.38189 11.2849 4.22039C11.2698 4.05858 11.3013 3.89583 11.3757 3.75134C11.4501 3.60686 11.5642 3.48667 11.7047 3.40496C11.8465 3.31114 12.0128 3.26111 12.1828 3.26111C12.3528 3.26111 12.5191 3.31114 12.6609 3.40496C13.4888 3.88372 14.2231 4.50863 14.8281 5.24937C15.7215 6.33355 16.3167 7.63203 16.5548 9.01657C16.793 10.4011 16.6659 11.8238 16.186 13.1442C15.7062 14.4646 14.8903 15.637 13.8188 16.5456C12.7473 17.4542 11.4573 18.0676 10.0763 18.3253C9.5885 18.4126 9.08857 18.4442 8.59592 18.5Z" fill="#121212"/>
<path d="M9.49879 5.88766C9.49879 7.35348 9.49879 8.8193 9.49879 10.2851C9.53419 10.5213 9.4743 10.7619 9.3323 10.954C9.1903 11.1461 8.97782 11.2739 8.74161 11.3093C8.50539 11.3447 8.26479 11.2848 8.07272 11.1428C7.88066 11.0008 7.75287 10.7883 7.71747 10.5521C7.70244 10.4476 7.69594 10.3421 7.69806 10.2366C7.69806 7.34215 7.69806 4.4453 7.69806 1.54601C7.69427 1.41994 7.70404 1.29383 7.72718 1.16985C7.77843 0.967572 7.89907 0.78971 8.06805 0.667295C8.23704 0.54488 8.44364 0.485684 8.65181 0.500035C8.85984 0.510319 9.0574 0.594381 9.20906 0.737144C9.36071 0.879906 9.45655 1.07203 9.47937 1.27906C9.49028 1.38385 9.49514 1.48919 9.49393 1.59455L9.49879 5.88766Z" fill="#121212"/>
</g>
<defs>
<clipPath id="clip0_22_160">
<rect width="16.1847" height="18" fill="white" transform="translate(0.5 0.5)"/>
</clipPath>
</defs>
</svg>
