<svg width="16" height="17" viewBox="0 0 15 14" fill="rgb(48, 88, 26)" xmlns="http://www.w3.org/2000/svg">
<path d="M13.4911 1.76585C13.4911 2.07805 13.2742 2.28293 12.9586 2.28293H12.1696V5.54146C12.1598 5.54146 12.1598 5.55122 12.1499 5.55122C12.0907 5.49268 12.0414 5.43415 11.9822 5.38537C11.8738 5.28781 11.7653 5.18049 11.6469 5.09268C11.5286 5.00488 11.3807 4.94634 11.2327 4.91707C11.1933 4.90732 11.1736 4.89756 11.1834 4.85854C11.1834 4.84878 11.1834 4.82927 11.1834 4.81951C11.1834 3.60976 11.1834 2.4 11.1834 1.19024C11.1834 1.13171 11.1933 1.06341 11.1933 0.995122H11.1045C8.10651 0.995122 5.10848 0.995122 2.11045 0.995122C2.03156 0.995122 1.96252 0.995122 1.88363 0.995122C1.74556 0.995122 1.64694 1.09268 1.64694 1.22927C1.64694 1.26829 1.64694 1.29756 1.64694 1.33659V11.7268H1.72584C4.57594 11.7268 7.42603 11.7268 10.2761 11.7268C10.4241 11.7268 10.5621 11.7463 10.6805 11.8439C10.7298 11.8829 10.7594 11.9317 10.789 11.9512C10.789 11.9512 10.8678 12.0293 10.858 12.361V12.3707C10.858 12.4976 10.8481 12.6244 10.8481 12.7512C10.8481 12.7902 10.8481 12.839 10.8481 12.878C10.858 12.9659 10.9369 13.0341 11.0256 13.0244C11.1144 13.0146 11.1736 12.9561 11.1736 12.8585C11.1736 12.6927 11.1736 12.5268 11.1736 12.3512V12.1366V11.7561V11.5805V10.8293V10.6732C11.1834 10.6732 11.1834 10.6732 11.1933 10.6634C11.2821 10.7707 11.3807 10.878 11.4694 10.9951L12.1302 11.7854C12.1893 11.8537 12.1795 11.9415 12.1795 12.0293C12.1795 12.1268 12.1795 12.2341 12.1795 12.3317C12.1795 12.4585 12.1795 12.5951 12.1795 12.722C12.1795 12.8098 12.1795 12.9073 12.1598 12.9951C12.0809 13.5707 11.5976 13.9902 11.0059 13.9902C7.75148 13.9902 4.49704 13.9902 1.25247 13.9902C0.877712 13.9902 0.552268 13.8829 0.295858 13.6098C0.0887574 13.3854 0 13.1122 0 12.8098C0 12.6049 0 12.4098 0 12.2049C0 11.9122 0.216963 11.7073 0.502959 11.7073C0.552268 11.7073 0.591716 11.7073 0.650888 11.7073C0.650888 11.678 0.650888 11.6585 0.650888 11.639C0.650888 8.22439 0.650888 4.81951 0.650888 1.40488C0.650888 1.20976 0.650888 1.01463 0.719921 0.829268C0.887574 0.370732 1.21302 0.097561 1.70611 0.0097561C1.78501 0 1.87377 0 1.95266 0C5.40434 0 8.84615 0 12.2978 0C12.9487 0 13.4024 0.487805 13.4714 0.985366C13.4813 1.08293 13.4813 1.19024 13.4911 1.29756C13.4911 1.45366 13.4911 1.60976 13.4911 1.76585Z" />
<path d="M8.146 7.844C9.00398 7.52205 9.5957 6.93668 9.91128 6.09766C10.5326 6.71229 11.144 7.31717 11.7653 7.9318C10.9172 8.244 10.3255 8.83912 10 9.67814C9.37874 9.07327 8.75744 8.45863 8.146 7.844Z"/>
<path d="M6.24255 5.69748C5.22677 5.69748 4.211 5.69748 3.19522 5.69748C2.98812 5.69748 2.83032 5.57065 2.79088 5.37553C2.74157 5.14138 2.92894 4.92675 3.17549 4.91699C3.2248 4.91699 3.28397 4.91699 3.33328 4.91699C5.31553 4.91699 7.29778 4.91699 9.28989 4.91699C9.48713 4.91699 9.6252 5.02431 9.68437 5.19016C9.73368 5.34626 9.68437 5.52187 9.5463 5.61943C9.46741 5.67797 9.38851 5.69748 9.28989 5.69748C8.27411 5.69748 7.25833 5.69748 6.24255 5.69748Z"/>
<path d="M8.62916 7.09277C8.45165 7.23911 8.25441 7.34643 8.03745 7.42448C7.88952 7.47326 7.7909 7.56107 7.72187 7.69765C7.68242 7.76594 7.61339 7.81472 7.54435 7.87326C7.53449 7.88302 7.5049 7.88302 7.48518 7.88302C6.0552 7.88302 4.62522 7.88302 3.19524 7.88302C2.96842 7.88302 2.80076 7.73668 2.77118 7.50253C2.75145 7.32692 2.89938 7.15131 3.08676 7.10253C3.11634 7.09277 3.14593 7.09277 3.17552 7.09277C4.98025 7.09277 6.77512 7.09277 8.57985 7.09277C8.59958 7.09277 8.6193 7.09277 8.62916 7.09277Z" />
<path d="M7.55425 10.0583C7.52467 10.0583 7.49508 10.0583 7.46549 10.0583C6.04538 10.0583 4.62526 10.0583 3.20514 10.0583C2.97832 10.0583 2.82052 9.93149 2.78108 9.72661C2.74163 9.51198 2.89942 9.29734 3.12624 9.27783C3.15583 9.27783 3.18542 9.27783 3.20514 9.27783C4.43788 9.27783 5.66076 9.27783 6.8935 9.27783C6.96254 9.27783 7.00198 9.28759 7.02171 9.36564C7.07102 9.53149 7.16964 9.67783 7.29784 9.80466C7.37674 9.88271 7.46549 9.97052 7.55425 10.0486V10.0583Z"/>
<path d="M6.33131 3.52219C5.75931 3.52219 5.17746 3.52219 4.60547 3.52219C4.31947 3.52219 4.1321 3.23926 4.21099 3.00511C4.2603 2.84902 4.37864 2.76121 4.53643 2.7417C4.56602 2.7417 4.59561 2.7417 4.62519 2.7417C5.75931 2.7417 6.89344 2.7417 8.0177 2.7417C8.25438 2.7417 8.41217 2.85877 8.45162 3.07341C8.49107 3.28804 8.32342 3.50267 8.10645 3.52219C7.98811 3.53194 7.86977 3.52219 7.76129 3.52219C7.28791 3.52219 6.81454 3.52219 6.33131 3.52219Z" />
<path d="M7.94868 8.07812C8.56998 8.69276 9.19128 9.30739 9.82245 9.93178C9.66466 10.0684 9.52659 10.2342 9.34908 10.3611C9.05322 10.5659 8.63902 10.5269 8.38261 10.2732C8.1262 10.0196 7.85992 9.76593 7.60351 9.50252C7.30765 9.20008 7.30766 8.73178 7.59365 8.42934C7.71199 8.30252 7.8402 8.1952 7.94868 8.07812Z" />
<path d="M11.9625 7.72672C11.3412 7.11208 10.7199 6.49745 10.0887 5.87306C10.3057 5.68769 10.4635 5.41452 10.7791 5.33647C11.0552 5.26818 11.3116 5.32672 11.5187 5.52184C11.785 5.7755 12.0414 6.02916 12.2978 6.29257C12.6035 6.60477 12.6035 7.07306 12.288 7.39501C12.1795 7.50233 12.071 7.60964 11.9625 7.72672Z"/>
<path d="M14.5464 12.7121C14.2505 12.8877 13.9349 12.9072 13.6095 12.7706C13.5799 12.7608 13.5405 12.7413 13.5109 12.7413C13.432 12.7511 13.3925 12.7121 13.3531 12.6535C13.3235 12.6145 13.2939 12.5755 13.2742 12.5462L11.8935 10.8291C11.5484 10.4194 11.2131 9.99986 10.8679 9.58035C10.7101 9.39498 10.6805 9.19011 10.7693 8.96572C10.8679 8.74133 11.0454 8.62425 11.2821 8.60474C11.4399 8.59498 11.5779 8.64377 11.6963 8.74133C12.0809 9.05352 12.4557 9.35596 12.8403 9.66816C13.2545 10.0096 13.6785 10.3413 14.0927 10.6828C14.2505 10.8096 14.4083 10.9364 14.576 11.0633C14.5957 11.0828 14.6056 11.1121 14.6154 11.1316C14.6351 11.1511 14.6549 11.1706 14.6746 11.1901C14.7042 11.2096 14.7338 11.2096 14.7535 11.2291C15.1578 11.6584 15.0592 12.4096 14.5464 12.7121Z"/>
</svg>
