<svg width="18" height="18" viewBox="0 0 18 18" fill="rgb(48, 88, 26)" xmlns="http://www.w3.org/2000/svg">
<path d="M5 6.14743H13C13.3154 6.14743 13.5714 5.89143 13.5714 5.576C13.5714 5.26057 13.3154 5.00457 13 5.00457H5C4.68457 5.00457 4.42857 5.26057 4.42857 5.576C4.42857 5.89143 4.68457 6.14743 5 6.14743ZM13 8.424H5C4.68457 8.424 4.42857 8.68 4.42857 8.99543C4.42857 9.31086 4.68457 9.56686 5 9.56686H13C13.3154 9.56686 13.5714 9.31086 13.5714 8.99543C13.5714 8.68 13.3154 8.424 13 8.424ZM13 11.8526H5C4.68457 11.8526 4.42857 12.1086 4.42857 12.424C4.42857 12.7394 4.68457 12.9954 5 12.9954H13C13.3154 12.9954 13.5714 12.7394 13.5714 12.424C13.5714 12.1086 13.3154 11.8526 13 11.8526ZM7.33371 2.71429H10.1909C10.6646 2.71429 11.048 2.33029 11.048 1.85714C11.048 1.384 10.664 1 10.1909 1H7.33371C6.86057 1 6.47657 1.384 6.47657 1.85714C6.47657 2.33029 6.86057 2.71429 7.33371 2.71429ZM14.7143 1.57143H14.1429C13.8274 1.57143 13.5714 1.82743 13.5714 2.14286C13.5714 2.45829 13.8274 2.71429 14.1429 2.71429H14.7143C15.3446 2.71429 15.8571 3.22686 15.8571 3.85714V14.7143C15.8571 15.3446 15.3446 15.8571 14.7143 15.8571H3.28571C2.65543 15.8571 2.14286 15.3446 2.14286 14.7143V3.85714C2.14286 3.22686 2.65543 2.71429 3.28571 2.71429H3.85714C4.17257 2.71429 4.42857 2.45829 4.42857 2.14286C4.42857 1.82743 4.17257 1.57143 3.85714 1.57143H3.28571C2.02343 1.57143 1 2.59486 1 3.85714V14.7143C1 15.9766 2.02343 17 3.28571 17H14.7143C15.9766 17 17 15.9766 17 14.7143V3.85714C17 2.59486 15.9766 1.57143 14.7143 1.57143Z"  stroke-width="0.2"/>
</svg>
