<svg width="18" height="18" viewBox="0 0 18 18" fill="none" xmlns="http://www.w3.org/2000/svg">
<g clip-path="url(#clip0_22_154)">
<path d="M8.91678 18C5.56993 17.9392 2.8357 17.0518 0.484349 15.0721C0.419985 15.0046 0.349904 14.9428 0.27489 14.8874C-0.02466 14.7027 -0.0584437 14.4798 0.0721869 14.1554C0.355971 13.4392 0.569935 12.696 0.873989 11.9888C1.07938 11.5422 1.32913 11.1174 1.61948 10.7208C1.93963 10.2616 2.41255 9.9311 2.95382 9.78836C3.4951 9.64562 4.06948 9.69989 4.57444 9.94149C5.90104 10.5727 7.35808 10.8814 8.82669 10.8424C10.1273 10.8328 11.4092 10.5327 12.5789 9.96401C13.1077 9.71046 13.7097 9.65419 14.2763 9.80534C14.8429 9.95648 15.3368 10.3051 15.669 10.7883C16.2445 11.6476 16.6844 12.5903 16.9731 13.5834C17.0542 13.8717 17.1465 14.1555 17.2411 14.4392C17.2613 14.4797 17.2667 14.5259 17.2565 14.5699C17.2462 14.6139 17.2208 14.6529 17.1848 14.6802C15.4159 16.3425 13.1837 17.428 10.7839 17.7928C10.0677 17.9145 9.33795 17.955 8.91678 18ZM8.61723 16.8018C9.62741 16.8054 10.6337 16.6767 11.6105 16.419C13.129 16.0328 14.5463 15.3238 15.7659 14.3401C15.8425 14.2793 15.919 14.232 15.883 14.0991C15.6276 13.1608 15.223 12.2695 14.6848 11.4595C14.5111 11.2128 14.2561 11.0352 13.9645 10.9577C13.6729 10.8803 13.3634 10.908 13.0902 11.0361C11.755 11.68 10.2933 12.0193 8.81093 12.0293C7.17683 12.0708 5.5561 11.7251 4.0812 11.0203C3.82187 10.8924 3.52497 10.8627 3.24547 10.9368C2.96596 11.0109 2.72277 11.1838 2.56093 11.4235C2.0312 12.1875 1.63306 13.0348 1.383 13.9302C1.34672 14.0169 1.34316 14.1138 1.37299 14.2028C1.40283 14.2919 1.46401 14.3671 1.54516 14.4145C3.62849 16.0338 6.00462 16.7681 8.61723 16.8018Z" fill="#121212"/>
<path d="M13.4436 4.85135C13.4385 5.80896 13.1486 6.74342 12.6109 7.53582C12.0732 8.32823 11.3119 8.94276 10.4239 9.30124C9.53589 9.65972 8.56131 9.74595 7.62417 9.54894C6.68702 9.35193 5.82966 8.8806 5.16116 8.19491C4.49266 7.50922 4.04324 6.64017 3.87009 5.69833C3.69693 4.75648 3.80786 3.78441 4.18877 2.90579C4.56967 2.02717 5.20334 1.28172 6.00914 0.76428C6.81493 0.246837 7.75644 -0.0192074 8.71388 -5.83978e-06C9.9816 0.0248349 11.1886 0.547763 12.0737 1.45565C12.9588 2.36355 13.451 3.58341 13.4436 4.85135ZM8.60578 8.47972C9.32517 8.48146 10.029 8.27023 10.6285 7.87265C11.2281 7.47508 11.6965 6.90894 11.9749 6.24558C12.2532 5.58222 12.329 4.85132 12.1927 4.14496C12.0563 3.43861 11.714 2.78841 11.2087 2.27629C10.7035 1.76418 10.058 1.41305 9.35356 1.26716C8.64912 1.12128 7.91726 1.18716 7.25019 1.4565C6.58312 1.72584 6.0107 2.18659 5.60504 2.7807C5.19938 3.37481 4.97865 4.07569 4.97064 4.79504C4.96584 5.76518 5.34571 6.69768 6.02705 7.38831C6.70839 8.07894 7.63566 8.47139 8.60578 8.47972Z" fill="#121212"/>
</g>
<defs>
<clipPath id="clip0_22_154">
<rect width="17.259" height="18" fill="white"/>
</clipPath>
</defs>
</svg>
