<svg width="15" height="16" viewBox="0 0 15 16" fill="rgb(48, 88, 26)" xmlns="http://www.w3.org/2000/svg">
<path fill-rule="evenodd" clip-rule="evenodd" d="M8.74208 0.347077C8.74256 0.347359 8.74304 0.347642 8.74353 0.347924L12.8763 2.73738C12.8876 2.74392 12.8987 2.75086 12.9095 2.75817L12.9277 2.77047C13.2882 3.01377 13.5851 3.21418 13.8135 3.39516C14.0495 3.58214 14.2529 3.77882 14.398 4.02983C14.5464 4.28648 14.6074 4.55379 14.6355 4.83885C14.6617 5.1056 14.6617 5.42665 14.6617 5.80121V10.1988C14.6617 10.5733 14.6617 10.8944 14.6355 11.1611C14.6074 11.4462 14.5464 11.7135 14.398 11.9702C14.2529 12.2212 14.0495 12.4179 13.8135 12.6048C13.5851 12.7858 13.2881 12.9862 12.9277 13.2295L12.9095 13.2418C12.8987 13.2491 12.8876 13.2561 12.8763 13.2626L8.74353 15.6521C8.74301 15.6524 8.74249 15.6527 8.74197 15.653C8.3264 15.8958 7.81426 16 7.33365 16C6.8521 16 6.33883 15.8954 5.9207 15.6536L1.78541 13.2626C1.7741 13.2561 1.76301 13.2491 1.75218 13.2418L1.73385 13.2295C1.37347 12.9862 1.07649 12.7858 0.847988 12.6046C0.611799 12.4174 0.408372 12.2203 0.263313 11.9686C0.115114 11.7115 0.0541611 11.4436 0.0261803 11.1577C-2.44989e-05 10.8901 -1.28817e-05 10.5677 6.27545e-07 10.1912V5.8012C-1.31398e-05 5.42664 -2.48861e-05 5.1056 0.026204 4.83885C0.0542332 4.55379 0.115314 4.28648 0.263666 4.02983C0.408759 3.77882 0.612125 3.58214 0.848138 3.39516C1.07658 3.21418 1.3735 3.01377 1.73396 2.77047L1.75218 2.75817C1.76301 2.75086 1.7741 2.74392 1.78541 2.73738L5.9207 0.34643C5.92072 0.346421 5.92074 0.346412 5.92075 0.346402C6.33887 0.104613 6.85212 0 7.33365 0C7.8143 0 8.32648 0.104255 8.74208 0.347077ZM7.33365 1.12782C6.99753 1.12782 6.69125 1.20365 6.48532 1.32274L6.48527 1.32277L2.36691 3.70393C1.99257 3.95663 1.73643 4.13029 1.54848 4.27918C1.36156 4.42727 1.28297 4.52006 1.2401 4.59424C1.20048 4.66278 1.16757 4.75636 1.14861 4.94922C1.12845 5.15426 1.12782 5.4195 1.12782 5.82707V10.1654C1.12782 10.5748 1.12844 10.8416 1.14863 11.0479C1.16765 11.2421 1.20068 11.3364 1.24045 11.4054C1.28336 11.4799 1.36189 11.5728 1.54863 11.7208C1.73649 11.8697 1.99254 12.0434 2.36691 12.2961L6.48527 14.6772L6.48532 14.6773C6.69125 14.7963 6.99753 14.8722 7.33365 14.8722C7.67012 14.8722 7.97309 14.7962 8.17378 14.6788C8.17465 14.6782 8.17552 14.6777 8.17639 14.6772L12.2948 12.2961C12.6691 12.0434 12.9252 11.8697 13.1132 11.7208C13.3001 11.5727 13.3787 11.4799 13.4216 11.4058C13.4612 11.3372 13.4941 11.2436 13.5131 11.0508C13.5332 10.8457 13.5338 10.5805 13.5338 10.1729V5.82707C13.5338 5.4195 13.5332 5.15426 13.5131 4.94922C13.4941 4.75636 13.4612 4.66278 13.4216 4.59424C13.3787 4.52006 13.3001 4.42727 13.1132 4.27918C12.9252 4.13029 12.6691 3.95663 12.2947 3.70393L8.17639 1.32277C8.17552 1.32227 8.17465 1.32176 8.17378 1.32125C7.97309 1.20377 7.67012 1.12782 7.33365 1.12782Z" />
<path fill-rule="evenodd" clip-rule="evenodd" d="M4.51105 8.00021C4.51105 6.44299 5.77337 5.18066 7.3306 5.18066C8.88783 5.18066 10.1501 6.44299 10.1501 8.00021C10.1501 9.55744 8.88783 10.8198 7.3306 10.8198C5.77337 10.8198 4.51105 9.55744 4.51105 8.00021ZM7.3306 6.30848C6.39625 6.30848 5.63887 7.06586 5.63887 8.00021C5.63887 8.93457 6.39625 9.69194 7.3306 9.69194C8.26495 9.69194 9.02233 8.93457 9.02233 8.00021C9.02233 7.06586 8.26495 6.30848 7.3306 6.30848Z"/>
</svg>
