<svg width="25" height="25" viewBox="0 0 25 25"  fill="white" xmlns="http://www.w3.org/2000/svg">
<mask id="path-1-inside-1_1326_8" >
<path d="M24.836 10.5272L24.7263 9.8693L22.7254 9.18421C22.5424 8.63567 22.3231 8.10556 22.0675 7.59386L23 5.70263L22.6158 5.18158C21.8298 4.08509 20.8977 3.14386 19.8193 2.35789L19.2711 1.97368L17.3798 2.93333C16.8681 2.67719 16.338 2.45789 15.7895 2.27544L15.1316 0.274561L14.4737 0.164912C13.7608 0.0549708 13.1029 0 12.5 0C11.8971 0 11.2392 0.0549708 10.5263 0.164912L9.86842 0.274561L9.18333 2.27544C8.6348 2.45848 8.11403 2.67778 7.62105 2.93333L5.72982 1.97368L5.18158 2.38509C4.10322 3.17105 3.17105 4.10322 2.38509 5.18158L2.00088 5.72982L2.93333 7.62105C2.67719 8.13275 2.45789 8.65351 2.27544 9.18333L0.274561 9.86842L0.164912 10.5263C0.0549707 11.2392 0 11.8971 0 12.5C0 13.1029 0.0549707 13.7608 0.164912 14.4737L0.274561 15.1316L2.27544 15.8167C2.45848 16.3652 2.67778 16.886 2.93333 17.3789L2.00088 19.2702L2.38509 19.8184C2.78743 20.367 3.21696 20.8696 3.67368 21.3263C4.09415 21.7468 4.59678 22.1763 5.18158 22.6149L5.72982 22.9991L7.62105 22.0667C8.13275 22.3228 8.65351 22.5421 9.18333 22.7246L9.86842 24.7254L10.5263 24.8351C11.2392 24.945 11.8971 25 12.5 25C13.1029 25 13.7608 24.945 14.4737 24.8351L15.1316 24.7254L15.8167 22.7246C16.3465 22.5415 16.8673 22.3222 17.3789 22.0667L19.2702 23.0263L19.8184 22.6149C20.4032 22.1944 20.9058 21.7649 21.3263 21.3263C21.7649 20.9058 22.1944 20.4032 22.6149 19.8184L22.9991 19.2702L22.0667 17.3789C22.3228 16.8673 22.5421 16.3371 22.7246 15.7886L24.7254 15.1307L24.8351 14.4728C24.945 13.7599 25 13.102 25 12.4991C25 11.8962 24.945 11.2383 24.8351 10.5254L24.836 10.5272ZM23.0263 12.4737V12.5009C23.0263 12.8482 23.0079 13.2322 22.9711 13.6526L21.9842 13.9544L21.1342 14.2561L20.8596 15.1333C20.7135 15.6269 20.5216 16.102 20.2842 16.5588L19.8456 17.3535L20.7228 19.0807C20.4667 19.3912 20.2108 19.6746 19.9553 19.9307V19.9579C19.6991 20.214 19.4067 20.4608 19.0781 20.6982L17.3781 19.8482L16.5833 20.2596C16.1079 20.4971 15.6143 20.6982 15.1026 20.8632L14.2526 21.1377L13.9781 21.9877L13.6491 22.9474C13.2655 23.0023 12.8816 23.0298 12.4974 23.0298C12.15 23.0298 11.7661 23.0023 11.3456 22.9474L11.0439 21.9877L10.7421 21.1377L9.89211 20.8632C9.38041 20.6988 8.8962 20.4977 8.43947 20.2596L7.64474 19.8482L6.82193 20.2596L5.91754 20.6982C5.60702 20.4608 5.32368 20.205 5.06754 19.9307C4.79327 19.6746 4.53743 19.3912 4.3 19.0807L5.15 17.3807L4.7386 16.586C4.48246 16.0924 4.28129 15.6082 4.13509 15.1333L3.86053 14.2561L2.05088 13.6526C1.99591 13.269 1.96842 12.8851 1.96842 12.5009C1.96842 12.1535 1.99591 11.7696 2.05088 11.3491L3.86053 10.7456L4.13509 9.89561C4.28129 9.40205 4.48246 8.91784 4.7386 8.44298L5.15 7.62018L4.7386 6.82544L4.3 5.92105C4.77544 5.31813 5.31462 4.77895 5.91754 4.30351L7.61754 5.15351L8.44035 4.74211C8.89708 4.48596 9.38129 4.2848 9.89298 4.1386L10.743 3.86403L11.0175 3.01403L11.3465 2.02719C11.767 1.99035 12.1509 1.97193 12.4982 1.97193C12.8637 1.97193 13.2477 1.99035 13.65 2.02719L14.2535 3.86403L15.1035 4.11053C15.6152 4.27485 16.1088 4.47602 16.5842 4.71404L17.3789 5.15263L19.0789 4.27544C19.6819 4.76901 20.2301 5.31725 20.7237 5.92018L19.8465 7.62018L20.2579 8.41491C20.514 8.89035 20.7243 9.37456 20.8886 9.86754L21.1351 10.7447L21.9851 11.0193L22.9719 11.3482C23.0269 11.7506 23.0453 12.1251 23.0272 12.4719L23.0263 12.4737ZM12.5 7.73158C11.1842 7.73158 10.0602 8.19766 9.12807 9.12982C8.19591 10.062 7.72982 11.186 7.72982 12.5018C7.72982 13.8175 8.19591 14.9415 9.12807 15.8737C10.0602 16.8058 11.1842 17.2719 12.5 17.2719C13.8158 17.2719 14.9398 16.8058 15.8719 15.8737C16.8041 14.9415 17.2702 13.8175 17.2702 12.5018C17.2702 11.186 16.8041 10.062 15.8719 9.12982C14.9398 8.19766 13.8158 7.73158 12.5 7.73158ZM14.4737 14.4746C13.9251 15.0231 13.2673 15.2974 12.5 15.2974C11.7327 15.2974 11.0749 15.0231 10.5263 14.4746C9.97778 13.926 9.70351 13.2681 9.70351 12.5009C9.70351 11.7336 9.97778 11.0757 10.5263 10.5272C11.0749 9.97866 11.7374 9.70439 12.514 9.70439C13.2906 9.70439 13.9485 9.97866 14.4877 10.5272C15.0269 11.0757 15.2965 11.7336 15.2965 12.5009C15.2965 13.2681 15.0222 13.926 14.4737 14.4746Z"/>
</mask>
<path d="M24.836 10.5272L24.7263 9.8693L22.7254 9.18421C22.5424 8.63567 22.3231 8.10556 22.0675 7.59386L23 5.70263L22.6158 5.18158C21.8298 4.08509 20.8977 3.14386 19.8193 2.35789L19.2711 1.97368L17.3798 2.93333C16.8681 2.67719 16.338 2.45789 15.7895 2.27544L15.1316 0.274561L14.4737 0.164912C13.7608 0.0549708 13.1029 0 12.5 0C11.8971 0 11.2392 0.0549708 10.5263 0.164912L9.86842 0.274561L9.18333 2.27544C8.6348 2.45848 8.11403 2.67778 7.62105 2.93333L5.72982 1.97368L5.18158 2.38509C4.10322 3.17105 3.17105 4.10322 2.38509 5.18158L2.00088 5.72982L2.93333 7.62105C2.67719 8.13275 2.45789 8.65351 2.27544 9.18333L0.274561 9.86842L0.164912 10.5263C0.0549707 11.2392 0 11.8971 0 12.5C0 13.1029 0.0549707 13.7608 0.164912 14.4737L0.274561 15.1316L2.27544 15.8167C2.45848 16.3652 2.67778 16.886 2.93333 17.3789L2.00088 19.2702L2.38509 19.8184C2.78743 20.367 3.21696 20.8696 3.67368 21.3263C4.09415 21.7468 4.59678 22.1763 5.18158 22.6149L5.72982 22.9991L7.62105 22.0667C8.13275 22.3228 8.65351 22.5421 9.18333 22.7246L9.86842 24.7254L10.5263 24.8351C11.2392 24.945 11.8971 25 12.5 25C13.1029 25 13.7608 24.945 14.4737 24.8351L15.1316 24.7254L15.8167 22.7246C16.3465 22.5415 16.8673 22.3222 17.3789 22.0667L19.2702 23.0263L19.8184 22.6149C20.4032 22.1944 20.9058 21.7649 21.3263 21.3263C21.7649 20.9058 22.1944 20.4032 22.6149 19.8184L22.9991 19.2702L22.0667 17.3789C22.3228 16.8673 22.5421 16.3371 22.7246 15.7886L24.7254 15.1307L24.8351 14.4728C24.945 13.7599 25 13.102 25 12.4991C25 11.8962 24.945 11.2383 24.8351 10.5254L24.836 10.5272ZM23.0263 12.4737V12.5009C23.0263 12.8482 23.0079 13.2322 22.9711 13.6526L21.9842 13.9544L21.1342 14.2561L20.8596 15.1333C20.7135 15.6269 20.5216 16.102 20.2842 16.5588L19.8456 17.3535L20.7228 19.0807C20.4667 19.3912 20.2108 19.6746 19.9553 19.9307V19.9579C19.6991 20.214 19.4067 20.4608 19.0781 20.6982L17.3781 19.8482L16.5833 20.2596C16.1079 20.4971 15.6143 20.6982 15.1026 20.8632L14.2526 21.1377L13.9781 21.9877L13.6491 22.9474C13.2655 23.0023 12.8816 23.0298 12.4974 23.0298C12.15 23.0298 11.7661 23.0023 11.3456 22.9474L11.0439 21.9877L10.7421 21.1377L9.89211 20.8632C9.38041 20.6988 8.8962 20.4977 8.43947 20.2596L7.64474 19.8482L6.82193 20.2596L5.91754 20.6982C5.60702 20.4608 5.32368 20.205 5.06754 19.9307C4.79327 19.6746 4.53743 19.3912 4.3 19.0807L5.15 17.3807L4.7386 16.586C4.48246 16.0924 4.28129 15.6082 4.13509 15.1333L3.86053 14.2561L2.05088 13.6526C1.99591 13.269 1.96842 12.8851 1.96842 12.5009C1.96842 12.1535 1.99591 11.7696 2.05088 11.3491L3.86053 10.7456L4.13509 9.89561C4.28129 9.40205 4.48246 8.91784 4.7386 8.44298L5.15 7.62018L4.7386 6.82544L4.3 5.92105C4.77544 5.31813 5.31462 4.77895 5.91754 4.30351L7.61754 5.15351L8.44035 4.74211C8.89708 4.48596 9.38129 4.2848 9.89298 4.1386L10.743 3.86403L11.0175 3.01403L11.3465 2.02719C11.767 1.99035 12.1509 1.97193 12.4982 1.97193C12.8637 1.97193 13.2477 1.99035 13.65 2.02719L14.2535 3.86403L15.1035 4.11053C15.6152 4.27485 16.1088 4.47602 16.5842 4.71404L17.3789 5.15263L19.0789 4.27544C19.6819 4.76901 20.2301 5.31725 20.7237 5.92018L19.8465 7.62018L20.2579 8.41491C20.514 8.89035 20.7243 9.37456 20.8886 9.86754L21.1351 10.7447L21.9851 11.0193L22.9719 11.3482C23.0269 11.7506 23.0453 12.1251 23.0272 12.4719L23.0263 12.4737ZM12.5 7.73158C11.1842 7.73158 10.0602 8.19766 9.12807 9.12982C8.19591 10.062 7.72982 11.186 7.72982 12.5018C7.72982 13.8175 8.19591 14.9415 9.12807 15.8737C10.0602 16.8058 11.1842 17.2719 12.5 17.2719C13.8158 17.2719 14.9398 16.8058 15.8719 15.8737C16.8041 14.9415 17.2702 13.8175 17.2702 12.5018C17.2702 11.186 16.8041 10.062 15.8719 9.12982C14.9398 8.19766 13.8158 7.73158 12.5 7.73158ZM14.4737 14.4746C13.9251 15.0231 13.2673 15.2974 12.5 15.2974C11.7327 15.2974 11.0749 15.0231 10.5263 14.4746C9.97778 13.926 9.70351 13.2681 9.70351 12.5009C9.70351 11.7336 9.97778 11.0757 10.5263 10.5272C11.0749 9.97866 11.7374 9.70439 12.514 9.70439C13.2906 9.70439 13.9485 9.97866 14.4877 10.5272C15.0269 11.0757 15.2965 11.7336 15.2965 12.5009C15.2965 13.2681 15.0222 13.926 14.4737 14.4746Z" />
<path d="M24.836 10.5272L24.7263 9.8693L22.7254 9.18421C22.5424 8.63567 22.3231 8.10556 22.0675 7.59386L23 5.70263L22.6158 5.18158C21.8298 4.08509 20.8977 3.14386 19.8193 2.35789L19.2711 1.97368L17.3798 2.93333C16.8681 2.67719 16.338 2.45789 15.7895 2.27544L15.1316 0.274561L14.4737 0.164912C13.7608 0.0549708 13.1029 0 12.5 0C11.8971 0 11.2392 0.0549708 10.5263 0.164912L9.86842 0.274561L9.18333 2.27544C8.6348 2.45848 8.11403 2.67778 7.62105 2.93333L5.72982 1.97368L5.18158 2.38509C4.10322 3.17105 3.17105 4.10322 2.38509 5.18158L2.00088 5.72982L2.93333 7.62105C2.67719 8.13275 2.45789 8.65351 2.27544 9.18333L0.274561 9.86842L0.164912 10.5263C0.0549707 11.2392 0 11.8971 0 12.5C0 13.1029 0.0549707 13.7608 0.164912 14.4737L0.274561 15.1316L2.27544 15.8167C2.45848 16.3652 2.67778 16.886 2.93333 17.3789L2.00088 19.2702L2.38509 19.8184C2.78743 20.367 3.21696 20.8696 3.67368 21.3263C4.09415 21.7468 4.59678 22.1763 5.18158 22.6149L5.72982 22.9991L7.62105 22.0667C8.13275 22.3228 8.65351 22.5421 9.18333 22.7246L9.86842 24.7254L10.5263 24.8351C11.2392 24.945 11.8971 25 12.5 25C13.1029 25 13.7608 24.945 14.4737 24.8351L15.1316 24.7254L15.8167 22.7246C16.3465 22.5415 16.8673 22.3222 17.3789 22.0667L19.2702 23.0263L19.8184 22.6149C20.4032 22.1944 20.9058 21.7649 21.3263 21.3263C21.7649 20.9058 22.1944 20.4032 22.6149 19.8184L22.9991 19.2702L22.0667 17.3789C22.3228 16.8673 22.5421 16.3371 22.7246 15.7886L24.7254 15.1307L24.8351 14.4728C24.945 13.7599 25 13.102 25 12.4991C25 11.8962 24.945 11.2383 24.8351 10.5254L24.836 10.5272ZM23.0263 12.4737V12.5009C23.0263 12.8482 23.0079 13.2322 22.9711 13.6526L21.9842 13.9544L21.1342 14.2561L20.8596 15.1333C20.7135 15.6269 20.5216 16.102 20.2842 16.5588L19.8456 17.3535L20.7228 19.0807C20.4667 19.3912 20.2108 19.6746 19.9553 19.9307V19.9579C19.6991 20.214 19.4067 20.4608 19.0781 20.6982L17.3781 19.8482L16.5833 20.2596C16.1079 20.4971 15.6143 20.6982 15.1026 20.8632L14.2526 21.1377L13.9781 21.9877L13.6491 22.9474C13.2655 23.0023 12.8816 23.0298 12.4974 23.0298C12.15 23.0298 11.7661 23.0023 11.3456 22.9474L11.0439 21.9877L10.7421 21.1377L9.89211 20.8632C9.38041 20.6988 8.8962 20.4977 8.43947 20.2596L7.64474 19.8482L6.82193 20.2596L5.91754 20.6982C5.60702 20.4608 5.32368 20.205 5.06754 19.9307C4.79327 19.6746 4.53743 19.3912 4.3 19.0807L5.15 17.3807L4.7386 16.586C4.48246 16.0924 4.28129 15.6082 4.13509 15.1333L3.86053 14.2561L2.05088 13.6526C1.99591 13.269 1.96842 12.8851 1.96842 12.5009C1.96842 12.1535 1.99591 11.7696 2.05088 11.3491L3.86053 10.7456L4.13509 9.89561C4.28129 9.40205 4.48246 8.91784 4.7386 8.44298L5.15 7.62018L4.7386 6.82544L4.3 5.92105C4.77544 5.31813 5.31462 4.77895 5.91754 4.30351L7.61754 5.15351L8.44035 4.74211C8.89708 4.48596 9.38129 4.2848 9.89298 4.1386L10.743 3.86403L11.0175 3.01403L11.3465 2.02719C11.767 1.99035 12.1509 1.97193 12.4982 1.97193C12.8637 1.97193 13.2477 1.99035 13.65 2.02719L14.2535 3.86403L15.1035 4.11053C15.6152 4.27485 16.1088 4.47602 16.5842 4.71404L17.3789 5.15263L19.0789 4.27544C19.6819 4.76901 20.2301 5.31725 20.7237 5.92018L19.8465 7.62018L20.2579 8.41491C20.514 8.89035 20.7243 9.37456 20.8886 9.86754L21.1351 10.7447L21.9851 11.0193L22.9719 11.3482C23.0269 11.7506 23.0453 12.1251 23.0272 12.4719L23.0263 12.4737ZM12.5 7.73158C11.1842 7.73158 10.0602 8.19766 9.12807 9.12982C8.19591 10.062 7.72982 11.186 7.72982 12.5018C7.72982 13.8175 8.19591 14.9415 9.12807 15.8737C10.0602 16.8058 11.1842 17.2719 12.5 17.2719C13.8158 17.2719 14.9398 16.8058 15.8719 15.8737C16.8041 14.9415 17.2702 13.8175 17.2702 12.5018C17.2702 11.186 16.8041 10.062 15.8719 9.12982C14.9398 8.19766 13.8158 7.73158 12.5 7.73158ZM14.4737 14.4746C13.9251 15.0231 13.2673 15.2974 12.5 15.2974C11.7327 15.2974 11.0749 15.0231 10.5263 14.4746C9.97778 13.926 9.70351 13.2681 9.70351 12.5009C9.70351 11.7336 9.97778 11.0757 10.5263 10.5272C11.0749 9.97866 11.7374 9.70439 12.514 9.70439C13.2906 9.70439 13.9485 9.97866 14.4877 10.5272C15.0269 11.0757 15.2965 11.7336 15.2965 12.5009C15.2965 13.2681 15.0222 13.926 14.4737 14.4746Z"  stroke-width="2" mask="url(#path-1-inside-1_1326_8)"/>
<path d="M24.836 10.5272L24.7263 9.8693L22.7254 9.18421C22.5424 8.63567 22.3231 8.10556 22.0675 7.59386L23 5.70263L22.6158 5.18158C21.8298 4.08509 20.8977 3.14386 19.8193 2.35789L19.2711 1.97368L17.3798 2.93333C16.8681 2.67719 16.338 2.45789 15.7895 2.27544L15.1316 0.274561L14.4737 0.164912C13.7608 0.0549708 13.1029 0 12.5 0C11.8971 0 11.2392 0.0549708 10.5263 0.164912L9.86842 0.274561L9.18333 2.27544C8.6348 2.45848 8.11403 2.67778 7.62105 2.93333L5.72982 1.97368L5.18158 2.38509C4.10322 3.17105 3.17105 4.10322 2.38509 5.18158L2.00088 5.72982L2.93333 7.62105C2.67719 8.13275 2.45789 8.65351 2.27544 9.18333L0.274561 9.86842L0.164912 10.5263C0.0549707 11.2392 0 11.8971 0 12.5C0 13.1029 0.0549707 13.7608 0.164912 14.4737L0.274561 15.1316L2.27544 15.8167C2.45848 16.3652 2.67778 16.886 2.93333 17.3789L2.00088 19.2702L2.38509 19.8184C2.78743 20.367 3.21696 20.8696 3.67368 21.3263C4.09415 21.7468 4.59678 22.1763 5.18158 22.6149L5.72982 22.9991L7.62105 22.0667C8.13275 22.3228 8.65351 22.5421 9.18333 22.7246L9.86842 24.7254L10.5263 24.8351C11.2392 24.945 11.8971 25 12.5 25C13.1029 25 13.7608 24.945 14.4737 24.8351L15.1316 24.7254L15.8167 22.7246C16.3465 22.5415 16.8673 22.3222 17.3789 22.0667L19.2702 23.0263L19.8184 22.6149C20.4032 22.1944 20.9058 21.7649 21.3263 21.3263C21.7649 20.9058 22.1944 20.4032 22.6149 19.8184L22.9991 19.2702L22.0667 17.3789C22.3228 16.8673 22.5421 16.3371 22.7246 15.7886L24.7254 15.1307L24.8351 14.4728C24.945 13.7599 25 13.102 25 12.4991C25 11.8962 24.945 11.2383 24.8351 10.5254L24.836 10.5272ZM23.0263 12.4737V12.5009C23.0263 12.8482 23.0079 13.2322 22.9711 13.6526L21.9842 13.9544L21.1342 14.2561L20.8596 15.1333C20.7135 15.6269 20.5216 16.102 20.2842 16.5588L19.8456 17.3535L20.7228 19.0807C20.4667 19.3912 20.2108 19.6746 19.9553 19.9307V19.9579C19.6991 20.214 19.4067 20.4608 19.0781 20.6982L17.3781 19.8482L16.5833 20.2596C16.1079 20.4971 15.6143 20.6982 15.1026 20.8632L14.2526 21.1377L13.9781 21.9877L13.6491 22.9474C13.2655 23.0023 12.8816 23.0298 12.4974 23.0298C12.15 23.0298 11.7661 23.0023 11.3456 22.9474L11.0439 21.9877L10.7421 21.1377L9.89211 20.8632C9.38041 20.6988 8.8962 20.4977 8.43947 20.2596L7.64474 19.8482L6.82193 20.2596L5.91754 20.6982C5.60702 20.4608 5.32368 20.205 5.06754 19.9307C4.79327 19.6746 4.53743 19.3912 4.3 19.0807L5.15 17.3807L4.7386 16.586C4.48246 16.0924 4.28129 15.6082 4.13509 15.1333L3.86053 14.2561L2.05088 13.6526C1.99591 13.269 1.96842 12.8851 1.96842 12.5009C1.96842 12.1535 1.99591 11.7696 2.05088 11.3491L3.86053 10.7456L4.13509 9.89561C4.28129 9.40205 4.48246 8.91784 4.7386 8.44298L5.15 7.62018L4.7386 6.82544L4.3 5.92105C4.77544 5.31813 5.31462 4.77895 5.91754 4.30351L7.61754 5.15351L8.44035 4.74211C8.89708 4.48596 9.38129 4.2848 9.89298 4.1386L10.743 3.86403L11.0175 3.01403L11.3465 2.02719C11.767 1.99035 12.1509 1.97193 12.4982 1.97193C12.8637 1.97193 13.2477 1.99035 13.65 2.02719L14.2535 3.86403L15.1035 4.11053C15.6152 4.27485 16.1088 4.47602 16.5842 4.71404L17.3789 5.15263L19.0789 4.27544C19.6819 4.76901 20.2301 5.31725 20.7237 5.92018L19.8465 7.62018L20.2579 8.41491C20.514 8.89035 20.7243 9.37456 20.8886 9.86754L21.1351 10.7447L21.9851 11.0193L22.9719 11.3482C23.0269 11.7506 23.0453 12.1251 23.0272 12.4719L23.0263 12.4737ZM12.5 7.73158C11.1842 7.73158 10.0602 8.19766 9.12807 9.12982C8.19591 10.062 7.72982 11.186 7.72982 12.5018C7.72982 13.8175 8.19591 14.9415 9.12807 15.8737C10.0602 16.8058 11.1842 17.2719 12.5 17.2719C13.8158 17.2719 14.9398 16.8058 15.8719 15.8737C16.8041 14.9415 17.2702 13.8175 17.2702 12.5018C17.2702 11.186 16.8041 10.062 15.8719 9.12982C14.9398 8.19766 13.8158 7.73158 12.5 7.73158ZM14.4737 14.4746C13.9251 15.0231 13.2673 15.2974 12.5 15.2974C11.7327 15.2974 11.0749 15.0231 10.5263 14.4746C9.97778 13.926 9.70351 13.2681 9.70351 12.5009C9.70351 11.7336 9.97778 11.0757 10.5263 10.5272C11.0749 9.97866 11.7374 9.70439 12.514 9.70439C13.2906 9.70439 13.9485 9.97866 14.4877 10.5272C15.0269 11.0757 15.2965 11.7336 15.2965 12.5009C15.2965 13.2681 15.0222 13.926 14.4737 14.4746Z" stroke-width="2" mask="url(#path-1-inside-1_1326_8)"/>
<path d="M24.836 10.5272L24.7263 9.8693L22.7254 9.18421C22.5424 8.63567 22.3231 8.10556 22.0675 7.59386L23 5.70263L22.6158 5.18158C21.8298 4.08509 20.8977 3.14386 19.8193 2.35789L19.2711 1.97368L17.3798 2.93333C16.8681 2.67719 16.338 2.45789 15.7895 2.27544L15.1316 0.274561L14.4737 0.164912C13.7608 0.0549708 13.1029 0 12.5 0C11.8971 0 11.2392 0.0549708 10.5263 0.164912L9.86842 0.274561L9.18333 2.27544C8.6348 2.45848 8.11403 2.67778 7.62105 2.93333L5.72982 1.97368L5.18158 2.38509C4.10322 3.17105 3.17105 4.10322 2.38509 5.18158L2.00088 5.72982L2.93333 7.62105C2.67719 8.13275 2.45789 8.65351 2.27544 9.18333L0.274561 9.86842L0.164912 10.5263C0.0549707 11.2392 0 11.8971 0 12.5C0 13.1029 0.0549707 13.7608 0.164912 14.4737L0.274561 15.1316L2.27544 15.8167C2.45848 16.3652 2.67778 16.886 2.93333 17.3789L2.00088 19.2702L2.38509 19.8184C2.78743 20.367 3.21696 20.8696 3.67368 21.3263C4.09415 21.7468 4.59678 22.1763 5.18158 22.6149L5.72982 22.9991L7.62105 22.0667C8.13275 22.3228 8.65351 22.5421 9.18333 22.7246L9.86842 24.7254L10.5263 24.8351C11.2392 24.945 11.8971 25 12.5 25C13.1029 25 13.7608 24.945 14.4737 24.8351L15.1316 24.7254L15.8167 22.7246C16.3465 22.5415 16.8673 22.3222 17.3789 22.0667L19.2702 23.0263L19.8184 22.6149C20.4032 22.1944 20.9058 21.7649 21.3263 21.3263C21.7649 20.9058 22.1944 20.4032 22.6149 19.8184L22.9991 19.2702L22.0667 17.3789C22.3228 16.8673 22.5421 16.3371 22.7246 15.7886L24.7254 15.1307L24.8351 14.4728C24.945 13.7599 25 13.102 25 12.4991C25 11.8962 24.945 11.2383 24.8351 10.5254L24.836 10.5272ZM23.0263 12.4737V12.5009C23.0263 12.8482 23.0079 13.2322 22.9711 13.6526L21.9842 13.9544L21.1342 14.2561L20.8596 15.1333C20.7135 15.6269 20.5216 16.102 20.2842 16.5588L19.8456 17.3535L20.7228 19.0807C20.4667 19.3912 20.2108 19.6746 19.9553 19.9307V19.9579C19.6991 20.214 19.4067 20.4608 19.0781 20.6982L17.3781 19.8482L16.5833 20.2596C16.1079 20.4971 15.6143 20.6982 15.1026 20.8632L14.2526 21.1377L13.9781 21.9877L13.6491 22.9474C13.2655 23.0023 12.8816 23.0298 12.4974 23.0298C12.15 23.0298 11.7661 23.0023 11.3456 22.9474L11.0439 21.9877L10.7421 21.1377L9.89211 20.8632C9.38041 20.6988 8.8962 20.4977 8.43947 20.2596L7.64474 19.8482L6.82193 20.2596L5.91754 20.6982C5.60702 20.4608 5.32368 20.205 5.06754 19.9307C4.79327 19.6746 4.53743 19.3912 4.3 19.0807L5.15 17.3807L4.7386 16.586C4.48246 16.0924 4.28129 15.6082 4.13509 15.1333L3.86053 14.2561L2.05088 13.6526C1.99591 13.269 1.96842 12.8851 1.96842 12.5009C1.96842 12.1535 1.99591 11.7696 2.05088 11.3491L3.86053 10.7456L4.13509 9.89561C4.28129 9.40205 4.48246 8.91784 4.7386 8.44298L5.15 7.62018L4.7386 6.82544L4.3 5.92105C4.77544 5.31813 5.31462 4.77895 5.91754 4.30351L7.61754 5.15351L8.44035 4.74211C8.89708 4.48596 9.38129 4.2848 9.89298 4.1386L10.743 3.86403L11.0175 3.01403L11.3465 2.02719C11.767 1.99035 12.1509 1.97193 12.4982 1.97193C12.8637 1.97193 13.2477 1.99035 13.65 2.02719L14.2535 3.86403L15.1035 4.11053C15.6152 4.27485 16.1088 4.47602 16.5842 4.71404L17.3789 5.15263L19.0789 4.27544C19.6819 4.76901 20.2301 5.31725 20.7237 5.92018L19.8465 7.62018L20.2579 8.41491C20.514 8.89035 20.7243 9.37456 20.8886 9.86754L21.1351 10.7447L21.9851 11.0193L22.9719 11.3482C23.0269 11.7506 23.0453 12.1251 23.0272 12.4719L23.0263 12.4737ZM12.5 7.73158C11.1842 7.73158 10.0602 8.19766 9.12807 9.12982C8.19591 10.062 7.72982 11.186 7.72982 12.5018C7.72982 13.8175 8.19591 14.9415 9.12807 15.8737C10.0602 16.8058 11.1842 17.2719 12.5 17.2719C13.8158 17.2719 14.9398 16.8058 15.8719 15.8737C16.8041 14.9415 17.2702 13.8175 17.2702 12.5018C17.2702 11.186 16.8041 10.062 15.8719 9.12982C14.9398 8.19766 13.8158 7.73158 12.5 7.73158ZM14.4737 14.4746C13.9251 15.0231 13.2673 15.2974 12.5 15.2974C11.7327 15.2974 11.0749 15.0231 10.5263 14.4746C9.97778 13.926 9.70351 13.2681 9.70351 12.5009C9.70351 11.7336 9.97778 11.0757 10.5263 10.5272C11.0749 9.97866 11.7374 9.70439 12.514 9.70439C13.2906 9.70439 13.9485 9.97866 14.4877 10.5272C15.0269 11.0757 15.2965 11.7336 15.2965 12.5009C15.2965 13.2681 15.0222 13.926 14.4737 14.4746Z" stroke-width="2" mask="url(#path-1-inside-1_1326_8)"/>
</svg>
