<svg width="37" height="32" viewBox="0 0 37 32" fill="none" xmlns="http://www.w3.org/2000/svg">
<g id="Group">
<path id="Vector" d="M1.32227 7.43006C1.37874 7.1537 1.42804 6.87471 1.49259 6.6001C2.26351 3.30308 5.10249 1.03341 8.59855 1.01937C15.1944 0.991297 21.7912 0.992174 28.3871 1.01849C32.0383 1.03253 34.9266 3.45485 35.5774 6.97297C35.6527 7.37917 35.6724 7.79942 35.6733 8.21352C35.6814 11.1789 35.6805 14.1443 35.6769 17.1088C35.6715 20.7085 33.1382 23.6362 29.5166 24.2161C29.0783 24.2863 28.6265 24.2995 28.1801 24.3003C24.5352 24.3065 20.8903 24.3021 17.2464 24.3109C17.059 24.3117 16.8466 24.3679 16.687 24.4644C13.1712 26.5893 9.66261 28.7274 6.14414 30.8488C5.95499 30.9628 5.68069 31.0242 5.46465 30.9909C5.15179 30.9418 5.03257 30.6198 5.12759 30.2513C5.57043 28.5238 6.01505 26.7981 6.45878 25.0715C6.54305 24.7451 6.62372 24.4179 6.71157 24.0705C6.51078 24.0056 6.3288 23.9573 6.15579 23.8897C3.445 22.8396 1.83681 20.92 1.38322 18.0897C1.37157 18.016 1.34288 17.944 1.32227 17.8712C1.32227 14.3908 1.32227 10.9104 1.32227 7.43006ZM6.59056 29.231C6.75012 29.1406 6.83797 29.095 6.92223 29.0432C9.98801 27.1806 13.0565 25.3224 16.116 23.4502C16.4539 23.244 16.7883 23.1545 17.1845 23.1554C20.841 23.1651 24.4967 23.1659 28.1532 23.1554C28.6641 23.1537 29.1867 23.1256 29.6843 23.0194C32.5466 22.4114 34.4909 20.0505 34.5106 17.143C34.5312 14.1557 34.5178 11.1684 34.5115 8.18106C34.5106 7.85381 34.4909 7.52218 34.4326 7.20107C33.8885 4.17778 31.4395 2.16605 28.2957 2.16429C21.7661 2.15991 15.2357 2.16078 8.70612 2.1678C8.26149 2.16868 7.8079 2.195 7.37493 2.28361C4.46693 2.87757 2.49838 5.26216 2.48762 8.21001C2.47596 11.1868 2.48314 14.1627 2.48851 17.1395C2.48941 17.4668 2.50913 17.7984 2.5665 18.1195C3.02458 20.6848 4.82639 22.5044 7.43768 23.0536C7.92533 23.1563 8.08848 23.4081 7.96747 23.8818C7.77832 24.6241 7.58649 25.3654 7.39555 26.1068C7.13379 27.1218 6.87293 28.136 6.59056 29.231Z" fill="#00577B" stroke="#00577B"/>
<path id="Vector_2" d="M18.464 14.7757C19.1963 12.9877 19.8973 11.2751 20.5983 9.56169C20.8449 8.96072 21.0349 8.83965 21.683 8.86421C22.1805 8.88351 22.4575 9.15812 22.4584 9.66171C22.4629 11.3032 22.4602 12.9438 22.4602 14.5853C22.4602 14.881 22.4647 15.1766 22.4584 15.4714C22.4504 15.8373 22.246 16.0522 21.9188 16.0478C21.5952 16.0443 21.3863 15.825 21.3854 15.4626C21.3818 13.9528 21.3836 12.4429 21.3827 10.933C21.3827 10.8198 21.3729 10.7066 21.3675 10.5926C21.337 10.5847 21.3074 10.5768 21.2769 10.5689C21.2249 10.6777 21.1667 10.7838 21.121 10.8952C20.4961 12.4034 19.8678 13.9106 19.251 15.4214C19.1013 15.7881 18.8871 16.0496 18.4514 16.0478C18.0139 16.0461 17.806 15.7741 17.6581 15.4109C17.0449 13.9098 16.4228 12.4122 15.8025 10.9137C15.755 10.7979 15.6994 10.6856 15.6474 10.5715C15.6169 10.5768 15.5855 10.5812 15.5551 10.5864C15.5488 10.6961 15.538 10.8066 15.538 10.9163C15.5371 12.3823 15.538 13.8484 15.5362 15.3144C15.5362 15.4337 15.5371 15.5583 15.5031 15.6706C15.4233 15.9355 15.2252 16.0636 14.9455 16.0417C14.6631 16.0198 14.5018 15.8566 14.4659 15.582C14.456 15.5065 14.4596 15.4293 14.4596 15.3521C14.4596 13.4922 14.4587 11.6322 14.4596 9.77225C14.4596 9.24322 14.6568 8.94756 15.0513 8.87474C15.6904 8.7563 16.0579 8.9265 16.2749 9.45466C16.949 11.0962 17.6204 12.7394 18.2936 14.3818C18.3393 14.4941 18.3887 14.602 18.464 14.7757Z" fill="#00577B"/>
<path id="Vector_3" d="M10.5614 16.1042C9.63182 16.0963 8.87972 15.9524 8.1581 15.662C7.78698 15.5129 7.63997 15.2409 7.76367 14.9496C7.882 14.6706 8.1572 14.5891 8.53012 14.7356C9.34586 15.0549 10.1858 15.1918 11.0571 15.0418C11.283 15.0032 11.5188 14.9295 11.7115 14.811C12.2888 14.4548 12.253 13.6933 11.6362 13.4169C11.2337 13.2371 10.7918 13.1423 10.3678 13.0063C9.89089 12.8537 9.40144 12.73 8.94247 12.5361C8.2594 12.2474 7.81208 11.7535 7.79594 10.9832C7.77981 10.219 8.10252 9.59877 8.7838 9.24082C9.19526 9.02411 9.67844 8.889 10.1437 8.8311C10.9146 8.73547 11.6819 8.85303 12.4233 9.09518C12.8186 9.22415 12.9656 9.46629 12.8536 9.78038C12.7541 10.0576 12.5076 10.1462 12.1302 10.0322C11.4274 9.81986 10.7138 9.71107 9.98322 9.85583C9.76718 9.89882 9.55025 9.97164 9.35572 10.0725C9.03749 10.2383 8.86538 10.5112 8.87614 10.877C8.886 11.2403 9.09666 11.4824 9.41758 11.5991C9.87655 11.7658 10.3552 11.8781 10.8214 12.0255C11.2768 12.1694 11.7537 12.2781 12.175 12.4913C13.4551 13.1397 13.5384 14.7891 12.3534 15.5954C11.7707 15.9928 11.1082 16.113 10.5614 16.1042Z" fill="#00577B"/>
<path id="Vector_4" d="M26.5406 16.1793C25.732 16.1003 24.9691 15.9573 24.2394 15.6582C23.88 15.5108 23.7419 15.2572 23.8549 14.9703C23.9714 14.6764 24.2376 14.5852 24.6079 14.7308C25.4218 15.051 26.2609 15.1932 27.1322 15.0475C27.3581 15.0098 27.5948 14.9405 27.7893 14.8256C28.3863 14.4729 28.3558 13.6973 27.7238 13.4148C27.3312 13.2393 26.9018 13.1455 26.4886 13.0139C26.0117 12.8621 25.5231 12.7393 25.0624 12.5498C24.364 12.262 23.9042 11.761 23.8898 10.9811C23.8755 10.1932 24.2314 9.5756 24.9386 9.20536C25.2748 9.02902 25.6639 8.91496 26.043 8.85794C26.9189 8.72458 27.7794 8.84478 28.6131 9.13518C28.9322 9.2466 29.0541 9.49839 28.9519 9.78177C28.8578 10.0432 28.6158 10.1503 28.2949 10.0537C27.5714 9.83529 26.8364 9.6993 26.0861 9.86336C25.801 9.92565 25.5007 10.0397 25.2748 10.2143C24.8024 10.5793 24.8642 11.2487 25.3913 11.5329C25.6988 11.6987 26.0511 11.7917 26.39 11.8953C26.9215 12.0576 27.471 12.1708 27.9919 12.3603C28.7969 12.6533 29.2881 13.2165 29.2764 14.0912C29.2648 14.9528 28.787 15.538 27.9892 15.8345C27.5284 16.0056 27.0255 16.0679 26.5406 16.1793Z" fill="#00577B"/>
</g>
</svg>
