<svg width="42" height="34" viewBox="0 0 42 34" fill="none" xmlns="http://www.w3.org/2000/svg">
<g id="telecaller logo">
<path id="Vector" d="M0.712891 17.3193C0.818987 16.2659 0.804768 15.1831 1.05743 14.1659C1.65792 11.7508 3.79298 10.073 6.27914 9.93076C6.59962 9.91217 6.73853 9.79514 6.87963 9.51403C9.40626 4.45639 13.4379 1.38068 19.0556 0.615034C25.9377 -0.324524 32.4293 3.29917 35.3551 9.56107C35.4776 9.82357 35.6275 9.90889 35.9053 9.9253C39.0051 10.1178 41.3775 12.6051 41.4004 15.7037C41.4103 17.0666 41.4551 18.4393 41.3195 19.7912C41.0012 22.9566 37.9003 25.2699 34.7415 24.7788C34.4407 24.7318 34.2559 24.7821 34.0666 25.0545C31.5958 28.6016 28.2248 30.7782 23.994 31.6423C23.831 31.6751 23.6353 31.8283 23.5631 31.977C22.8379 33.4853 21.2661 34.2772 19.6703 33.9119C18.127 33.5597 17.0048 32.1247 17.0321 30.542C17.0605 28.9275 18.2003 27.58 19.8136 27.2497C21.1874 26.9686 22.6509 27.6238 23.3673 28.8816C23.5324 29.1715 23.691 29.2032 23.9809 29.1365C29.5023 27.8622 33.5165 23.4827 34.2723 17.8968C35.2107 10.96 30.3751 4.33826 23.4898 3.13292C16.3441 1.88163 9.57142 6.43285 8.1156 13.4943C7.47902 16.582 7.91325 19.5418 9.36032 22.3474C9.42923 22.4808 9.50361 22.6121 9.55939 22.7499C9.83612 23.4357 9.55611 24.1149 8.88015 24.4102C5.48943 25.8956 1.32103 23.5385 0.895552 19.8601C0.799299 19.0266 0.881333 18.1724 0.881333 17.328C0.824456 17.3258 0.768673 17.3225 0.712891 17.3193ZM35.5673 22.3638C37.1686 22.4042 38.6988 21.1901 38.8519 19.6162C38.9908 18.1997 38.9974 16.756 38.8957 15.3351C38.794 13.899 37.745 12.8041 36.3942 12.4858C37.1752 15.8667 36.8974 19.1481 35.5673 22.3638ZM6.64118 22.3583C5.31333 19.1404 5.03989 15.8612 5.82413 12.4476C4.44706 12.9026 3.49875 13.7448 3.3675 15.1043C3.22202 16.6116 3.22968 18.156 3.37187 19.6643C3.51625 21.2109 5.09786 22.4272 6.64118 22.3583ZM21.3766 30.5835C21.3733 30.0629 20.9697 29.6615 20.4469 29.6582C19.912 29.6549 19.48 30.0826 19.4887 30.6076C19.4964 31.1096 19.9306 31.5417 20.4294 31.5461C20.9555 31.5482 21.3799 31.1184 21.3766 30.5835Z" fill="#00577B"/>
<path id="Vector_2" d="M20.8701 5.86963C26.4407 5.88275 30.9055 9.97787 31.3584 15.2641C31.8265 20.7341 28.0136 25.5621 22.5742 26.3747C21.3492 26.5574 20.123 26.5202 18.9177 26.2282C18.583 26.1472 18.326 26.2019 18.0383 26.3726C16.8187 27.0944 15.5915 27.8043 14.3577 28.501C13.5199 28.9747 12.5814 28.5371 12.4688 27.6216C12.4414 27.4007 12.4983 27.1612 12.5563 26.9402C12.8527 25.8071 13.1546 24.675 13.4707 23.5473C13.545 23.2826 13.4893 23.1065 13.3143 22.8921C10.804 19.8142 10.0843 16.3557 11.4669 12.627C12.8527 8.88956 15.6353 6.69543 19.5707 6.00088C20.0771 5.91229 20.5977 5.89588 20.8701 5.86963ZM15.6451 24.9189C16.2959 24.5448 16.8537 24.2583 17.3744 23.917C17.8852 23.5834 18.385 23.5462 18.9669 23.707C19.5401 23.8656 20.1405 23.9805 20.7334 24.0034C25.009 24.1686 28.4948 21.1027 28.9072 16.8446C29.4092 11.6579 24.5386 7.35061 19.4602 8.52314C16.4775 9.21222 14.4627 11.0465 13.6008 13.9789C12.7269 16.9474 13.4652 19.5824 15.6407 21.7885C16.0925 22.2468 16.2467 22.7281 16.0597 23.3428C15.9131 23.8219 15.8037 24.3108 15.6451 24.9189Z" fill="#00577B"/>
<path id="Vector_3" d="M17.0179 17.398C16.3365 17.4002 15.794 16.8708 15.7853 16.1948C15.7765 15.5167 16.354 14.937 17.0267 14.9479C17.6895 14.9588 18.2408 15.521 18.2386 16.1839C18.2364 16.8598 17.6983 17.3958 17.0179 17.398Z" fill="#00577B"/>
<path id="Vector_4" d="M25.2032 17.398C24.524 17.4002 23.9804 16.8664 23.9727 16.1915C23.9651 15.5123 24.5404 14.937 25.2164 14.9479C25.8814 14.9588 26.4294 15.52 26.4261 16.185C26.4228 16.8587 25.8814 17.3958 25.2032 17.398Z" fill="#00577B"/>
<path id="Vector_5" d="M21.1137 17.3957C20.4355 17.399 19.8908 16.8674 19.881 16.1936C19.8711 15.5177 20.4443 14.9412 21.1224 14.9478C21.782 14.9533 22.3354 15.5177 22.3332 16.1816C22.3321 16.8543 21.7918 17.3924 21.1137 17.3957Z" fill="#00577B"/>
</g>
</svg>
