<svg width="30" height="30" viewBox="0 0 30 30" fill="none" xmlns="http://www.w3.org/2000/svg">
<g id="Group">
<path id="Vector" d="M10.0248 17.9477C10.1009 18.9718 10.1753 19.9801 10.2545 21.0549C11.5867 19.5983 12.5728 18.0792 12.3336 16.0595C12.2853 15.65 12.1824 15.246 12.0818 14.8453C11.9511 14.3249 12.1348 14.054 12.656 14.0984C13.6033 14.1791 14.53 14.3637 15.3949 14.7803C16.2329 15.1843 16.853 15.7822 17.0597 16.7691C17.2593 16.6076 17.4296 16.465 17.6047 16.3288C21.9878 12.9071 28.4493 15.4385 29.3412 20.9258C29.9906 24.9208 27.2169 28.7226 23.1949 29.2739C20.3451 29.6644 18.0237 28.6664 16.2503 26.4043C16.118 26.2356 15.9857 26.1849 15.7806 26.1857C10.7416 26.1913 5.70344 26.1897 0.664471 26.1897C0.114793 26.1897 -0.0293583 26.0495 0.00469948 25.5038C0.135386 23.4041 0.273202 21.3044 0.407849 19.2047C0.445867 18.613 0.491013 18.0221 0.518735 17.4305C0.579722 16.122 1.28147 15.2706 2.42835 14.7391C3.27108 14.3494 4.17005 14.1744 5.08803 14.096C5.51969 14.0596 5.75255 14.3368 5.63058 14.7463C5.12208 16.4499 5.51494 18.0047 6.40282 19.4716C6.73627 20.0228 7.12991 20.5385 7.49584 21.0707C7.52435 21.058 7.55286 21.0454 7.58138 21.0335C7.65345 20.007 7.72553 18.9797 7.7976 17.9588C7.73662 17.9374 7.70969 17.9215 7.68197 17.9192C7.01269 17.8518 6.97784 17.8138 6.97784 17.1446C6.97784 16.7691 6.97309 16.3929 6.97942 16.0175C6.98655 15.6088 7.13466 15.4623 7.53544 15.4607C8.3948 15.4583 9.25417 15.4583 10.1143 15.4607C10.5111 15.4623 10.6672 15.6199 10.6711 16.0199C10.6751 16.4056 10.6719 16.7905 10.6719 17.1762C10.6711 17.7703 10.6299 17.8225 10.0248 17.9477ZM13.2286 15.0536C13.2286 15.1993 13.2223 15.2397 13.2294 15.2777C13.6064 17.1493 13.174 18.8348 12.0778 20.3753C11.2652 21.5174 10.2727 22.494 9.25971 23.4508C9.00705 23.6892 8.78053 23.6821 8.53737 23.4207C7.87206 22.7055 7.17347 22.014 6.57073 21.2473C5.15931 19.4534 4.20965 17.4891 4.61597 15.0702C3.77799 15.2048 2.96694 15.3458 2.23747 15.7664C1.8763 15.9747 1.64977 16.2884 1.59354 16.7097C1.55156 17.0226 1.508 17.3354 1.48503 17.6499C1.38919 18.9694 1.29969 20.2898 1.21019 21.6101C1.12861 22.8108 1.0494 24.0116 0.967823 25.2266C1.76066 25.2266 2.54161 25.2266 3.33524 25.2266C3.33524 24.6674 3.33445 24.1343 3.33524 23.6005C3.33524 23.3439 3.32336 23.0857 3.34474 22.8298C3.36692 22.5621 3.57443 22.3942 3.82472 22.4045C4.08293 22.4148 4.25401 22.5875 4.26826 22.8639C4.27618 23.0215 4.27064 23.1799 4.27064 23.3383C4.27064 23.9672 4.27064 24.5969 4.27064 25.2313C7.35089 25.2313 10.3971 25.2313 13.4647 25.2313C13.4647 24.4622 13.4631 23.713 13.4655 22.9637C13.4663 22.6001 13.6318 22.4037 13.928 22.4045C14.2211 22.4053 14.3953 22.6049 14.3977 22.9677C14.4024 23.6195 14.3993 24.2721 14.3993 24.924C14.3993 25.0278 14.3993 25.1315 14.3993 25.2519C14.6337 25.2519 14.8206 25.2519 15.0076 25.2519C15.1977 25.2519 15.3877 25.2519 15.5858 25.2519C15.5723 25.1862 15.5715 25.1664 15.5644 25.1489C14.4785 22.6017 14.6638 20.1717 16.2336 17.8677C16.2835 17.7948 16.3026 17.6839 16.2962 17.5936C16.2796 17.3679 16.2273 17.1446 16.2107 16.9188C16.1639 16.2812 15.8044 15.8678 15.2365 15.6626C14.5933 15.4314 13.9272 15.2627 13.2286 15.0536ZM19.8723 23.8571C21.3803 23.8571 22.8725 23.8571 24.3663 23.8571C24.4851 22.6469 24.5034 21.4604 24.3608 20.2731C22.8488 20.2731 21.3637 20.2731 19.8715 20.2731C19.7321 21.4786 19.7163 22.6659 19.8723 23.8571ZM25.3524 23.9094C25.3516 23.9086 25.3683 23.9268 25.3849 23.9268C26.0257 23.9308 26.6672 23.9363 27.308 23.9332C27.6105 23.9316 28.0248 24.0298 28.1871 23.8737C28.3836 23.6845 28.3955 23.2773 28.4374 22.9581C28.5562 22.0505 28.5127 21.1507 28.2236 20.2779C27.2462 20.2779 26.2847 20.2779 25.3516 20.2779C25.3524 21.4984 25.3524 22.6991 25.3524 23.9094ZM18.8767 20.2565C17.9761 20.2565 17.07 20.2517 16.1647 20.266C16.0911 20.2668 15.9786 20.3872 15.9525 20.4727C15.6285 21.5507 15.6784 22.6326 15.9659 23.7082C15.9857 23.7827 16.1259 23.8722 16.2107 23.8737C17.059 23.8856 17.9064 23.8817 18.7547 23.8793C18.8086 23.8793 18.8624 23.8595 18.8759 23.8563C18.8767 22.6516 18.8767 21.4715 18.8767 20.2565ZM20.0156 24.8345C20.0671 25.0808 20.1052 25.3113 20.1653 25.5355C20.3998 26.4051 20.6738 27.2605 21.2758 27.9599C21.8168 28.588 22.4179 28.5967 22.9533 27.967C23.7153 27.0712 23.9806 25.9703 24.2198 24.8337C22.8108 24.8345 21.4326 24.8345 20.0156 24.8345ZM20.0077 19.3029C21.4326 19.3029 22.81 19.3029 24.2159 19.3029C24.0147 18.2819 23.7493 17.3069 23.168 16.4523C22.4908 15.4559 21.6995 15.4377 21.0699 16.4674C20.7055 17.063 20.483 17.7497 20.2255 18.4063C20.117 18.6827 20.0814 18.9884 20.0077 19.3029ZM27.799 19.3037C27.4743 18.0411 25.1726 16.0626 24.021 16.0579C24.6538 17.0527 24.9382 18.1655 25.16 19.3187C25.9916 19.3187 26.8098 19.3187 27.628 19.3179C27.6842 19.3179 27.7404 19.3084 27.799 19.3037ZM24.0163 28.0914C25.2788 27.9916 27.5496 26.0265 27.7943 24.8321C26.9175 24.8321 26.0415 24.8321 25.1568 24.8321C24.9398 25.9806 24.6483 27.091 24.0163 28.0914ZM19.0787 24.8488C18.1749 24.8488 17.2982 24.8488 16.4095 24.8488C17.0661 26.3362 19.1721 28.1191 20.2042 28.0739C19.5816 27.0871 19.2893 25.9869 19.0787 24.8488ZM19.0779 19.3037C19.2862 18.1417 19.5903 17.04 20.2517 15.981C18.4696 16.5822 17.2292 17.6784 16.3841 19.3037C17.3061 19.3037 18.1797 19.3037 19.0779 19.3037ZM8.88508 22.4322C8.93894 22.3887 8.99913 22.338 9.0617 22.2912C9.3104 22.1035 9.45693 21.8952 9.39198 21.5444C9.32466 21.1792 9.3405 20.7982 9.31516 20.4252C9.25734 19.5825 9.19635 18.7397 9.13616 17.8946C8.98646 17.8946 8.86607 17.8946 8.73776 17.8946C8.65222 19.1437 8.58014 20.3713 8.47638 21.5974C8.44391 21.9768 8.55321 22.2429 8.88508 22.4322ZM9.77533 16.3596C9.16467 16.3596 8.56905 16.3596 7.96948 16.3596C7.96948 16.5584 7.96948 16.739 7.96948 16.9164C8.58569 16.9164 9.18209 16.9164 9.77533 16.9164C9.77533 16.72 9.77533 16.5458 9.77533 16.3596Z" fill="#146A8E"/>
<path id="Vector_2" d="M15.307 4.56686C15.307 4.99931 15.2967 5.40404 15.3142 5.80799C15.3189 5.91174 15.3854 6.03847 15.4639 6.10975C15.9739 6.57389 16.1403 7.14495 16.0626 7.8174C16.0294 8.10966 16.0626 8.40984 16.0555 8.70607C16.046 9.091 15.8939 9.25416 15.5177 9.26367C15.0837 9.27396 14.6481 9.27476 14.214 9.26288C13.8433 9.25258 13.7039 9.09971 13.7016 8.72508C13.6976 8.23084 13.7127 7.73661 13.696 7.24317C13.6865 6.95962 13.7673 6.7323 13.9431 6.50974C14.4295 5.89353 14.4611 5.7367 14.3463 4.90268C13.8109 5.07376 13.2794 5.2393 12.7527 5.41989C12.6973 5.43889 12.6426 5.54582 12.6386 5.61473C12.5919 6.364 12.5333 7.11406 12.5254 7.86413C12.5206 8.31401 12.626 8.76468 12.6386 9.21614C12.6846 10.7899 12.1666 12.1522 11.0015 13.2223C9.63047 14.4816 7.96084 14.4539 6.63813 13.1391C5.298 11.8077 4.87267 10.1729 5.1879 8.32747C5.20929 8.20233 5.2275 8.07323 5.22434 7.94729C5.20454 7.20673 5.16969 6.46617 5.15939 5.72482C5.15622 5.49513 5.06593 5.41038 4.85208 5.34702C3.65292 4.9906 2.46011 4.61517 1.26412 4.24845C1.02889 4.17638 0.807116 4.0845 0.781771 3.79858C0.754049 3.48572 0.963148 3.35028 1.21581 3.24019C3.65609 2.17806 6.09241 1.10801 8.53666 0.0553828C8.69744 -0.0135249 8.93901 -0.020653 9.09742 0.0482547C11.5686 1.11118 14.0311 2.19152 16.4975 3.26553C16.7398 3.37087 16.8887 3.53958 16.8705 3.80887C16.8531 4.0647 16.6638 4.17083 16.4404 4.23499C16.0706 4.34033 15.7031 4.45043 15.307 4.56686ZM8.97228 7.5679C8.13034 7.68988 7.33196 7.79918 6.53596 7.92511C6.35379 7.95442 6.19696 8.03204 6.14311 8.26411C5.76213 9.8973 6.13756 11.3254 7.34463 12.4865C8.29746 13.4029 9.42612 13.3989 10.3766 12.4817C11.5646 11.3356 11.9258 9.91868 11.605 8.31005C11.5615 8.08986 11.4411 7.97185 11.2454 7.93858C10.4811 7.80552 9.71522 7.68671 8.97228 7.5679ZM15.0092 3.63304C14.9641 3.6069 14.9403 3.59027 14.9142 3.57839C12.9365 2.71665 10.9595 1.85332 8.97703 1.00187C8.87248 0.956727 8.70853 0.987617 8.59527 1.03672C6.77674 1.81768 4.96217 2.60814 3.14681 3.39622C2.98365 3.46671 2.82049 3.53799 2.58921 3.63858C3.51828 3.93401 4.36972 4.20727 5.22434 4.47102C5.28216 4.48844 5.3669 4.43854 5.43264 4.40686C5.74946 4.254 6.04964 4.04569 6.3823 3.95065C7.71214 3.56809 9.0697 3.56968 10.4288 3.74947C11.1148 3.84055 11.7912 3.97282 12.3503 4.43696C12.4042 4.48132 12.5365 4.46072 12.6204 4.43379C13.3515 4.20014 14.081 3.95936 14.8096 3.71858C14.8722 3.69799 14.9324 3.6663 15.0092 3.63304ZM11.6225 7.10614C11.647 6.53746 11.6494 5.98461 11.7024 5.43731C11.7349 5.10861 11.5955 4.96446 11.312 4.89159C11.2454 4.87417 11.1813 4.84803 11.1148 4.8314C10.0202 4.56131 8.90892 4.50428 7.79372 4.63497C7.2884 4.69437 6.7902 4.82269 6.29676 4.95258C6.19063 4.9803 6.04806 5.14821 6.04806 5.25118C6.04885 5.86185 6.08766 6.4733 6.1138 7.10535C7.95609 6.62221 9.77858 6.63171 11.6225 7.10614ZM15.0385 8.3647C14.9356 7.85938 15.1993 7.3398 14.797 6.87645C14.416 7.36039 14.6536 7.87442 14.5791 8.3647C14.7479 8.3647 14.8627 8.3647 15.0385 8.3647Z" fill="#146A8E"/>
</g>
</svg>
