<svg width="31" height="26" viewBox="0 0 31 26" fill="none" xmlns="http://www.w3.org/2000/svg">
<path id="Vector" d="M4.00215 4.11262C4.00215 3.73816 4.00215 3.36822 4.00215 2.99827C4.00215 1.4508 5.11873 0.661282 6.61971 1.15755C9.47065 2.10498 12.317 3.06143 15.1725 3.99532C15.3785 4.063 15.6485 4.063 15.8544 3.99532C18.7099 3.05692 21.5563 2.10498 24.4072 1.15304C24.9518 0.972579 25.4918 0.918441 26.0226 1.1756C26.6953 1.49592 26.9882 2.06438 27.0156 2.77269C27.0339 3.21933 27.0156 3.66598 27.0156 4.09458C27.4183 4.14871 27.789 4.16225 28.1368 4.25248C29.2122 4.53671 29.9306 5.44353 29.9901 6.53533C30.0038 6.83309 29.9993 7.13085 29.9993 7.43313C29.9993 12.3868 29.9993 17.3405 29.9993 22.2987C29.9993 23.6206 29.2991 24.5861 28.1093 24.8974C27.8347 24.9695 27.5373 24.9966 27.249 24.9966C19.4238 25.0011 11.594 25.0011 3.76877 24.9966C2.08932 24.9966 1.0185 23.9454 1.0185 22.2942C1.0185 17.1916 1.05053 12.0891 1.00019 6.98648C0.981889 5.21344 2.26321 4.05848 3.77792 4.1442C3.83741 4.1442 3.90147 4.13067 4.00215 4.11713V4.11262ZM16.1839 23.395C16.2891 23.3725 16.3395 23.3679 16.3852 23.3499C19.0714 22.4566 21.753 21.5678 24.4347 20.67C25.2126 20.4084 25.6657 19.7542 25.6657 18.9331C25.6657 13.6275 25.6657 8.32642 25.6657 3.02083C25.6657 2.92157 25.6702 2.82232 25.6611 2.72306C25.6245 2.41628 25.4323 2.28995 25.1348 2.32605C24.9975 2.34409 24.8694 2.39823 24.7367 2.43884C22.0047 3.34566 19.2728 4.25699 16.5408 5.15479C16.2479 5.24953 16.1747 5.3939 16.1747 5.68716C16.1839 11.4529 16.1839 17.2142 16.1839 22.9799C16.1839 23.1018 16.1839 23.2281 16.1839 23.395ZM14.8156 23.4085C14.8247 23.2597 14.8339 23.1514 14.8339 23.0431C14.8339 17.2412 14.8339 11.4394 14.8431 5.64204C14.8431 5.37135 14.7607 5.25405 14.4998 5.16833C11.7404 4.2615 8.99015 3.34115 6.23531 2.4253C5.54431 2.19521 5.35669 2.33056 5.35669 3.03887C5.35669 8.31739 5.35669 13.5959 5.35669 18.8744C5.35669 19.7858 5.80515 20.4084 6.67462 20.6971C8.45017 21.2926 10.2257 21.8836 12.0013 22.4792C12.9302 22.786 13.8592 23.0927 14.8156 23.4085ZM4.00215 5.48865C2.95421 5.37586 2.35016 5.85859 2.35016 6.79249C2.34558 11.9718 2.34558 17.151 2.35016 22.3348C2.35016 23.1875 2.85811 23.6747 3.723 23.6747C6.12091 23.6747 8.52339 23.6747 10.9213 23.6747C11.0082 23.6747 11.0952 23.6612 11.2874 23.6432C11.0998 23.5755 11.0174 23.5439 10.935 23.5168C9.37455 22.9935 7.80951 22.4747 6.24904 21.9513C4.84416 21.4821 4.00673 20.3362 4.00673 18.8789C4.00673 14.5704 4.00673 10.2619 4.00673 5.95334V5.48865H4.00215ZM27.0202 5.48865C27.0202 5.66009 27.0202 5.80446 27.0202 5.95334C27.0202 10.2483 27.0202 14.5433 27.0202 18.8429C27.0202 20.3587 26.2056 21.4776 24.7413 21.9603C23.3089 22.4386 21.8766 22.9123 20.4443 23.3905C20.2383 23.4582 20.0324 23.5394 19.8311 23.6116C19.8356 23.6341 19.8402 23.6522 19.8448 23.6747C19.9546 23.6747 20.0644 23.6747 20.1743 23.6747C22.5218 23.6747 24.874 23.6747 27.2215 23.6747C28.1917 23.6747 28.6676 23.21 28.6676 22.2581C28.6676 17.1285 28.6676 11.9988 28.6676 6.86918C28.6676 5.86762 28.0864 5.37135 27.0156 5.49316L27.0202 5.48865Z" fill="#146A8E" stroke="#146A8E" stroke-width="0.2"/>
</svg>
