<svg width="33" height="31" viewBox="0 0 33 31" fill="none" xmlns="http://www.w3.org/2000/svg">
<g id="Group">
<path id="Vector" d="M0.419922 25.2408C0.612704 24.6848 0.936214 24.257 1.53855 24.1097C1.65687 24.0808 1.78264 24.0675 1.90509 24.0667C2.86486 24.0634 3.82463 24.0634 4.78523 24.0651C5.19809 24.0659 5.37019 24.2355 5.3735 24.6426C5.37681 25.0554 5.3793 25.4683 5.37102 25.8812C5.36772 26.0392 5.39997 26.136 5.55883 26.2196C6.0834 26.4984 6.36803 26.9444 6.36224 27.5467C6.35644 28.1341 6.07347 28.5718 5.55883 28.8432C5.4008 28.9268 5.36772 29.0236 5.37102 29.1816C5.3793 29.6044 5.37764 30.028 5.37267 30.4508C5.36853 30.819 5.18982 30.9961 4.81667 30.9977C3.86683 31.0011 2.91782 31.0002 1.96797 30.9986C1.23904 30.9977 0.734332 30.6428 0.484461 29.9619C0.467085 29.9139 0.442262 29.8692 0.42075 29.8228C0.42075 29.616 0.42075 29.41 0.42075 29.2031C0.618496 28.9111 0.755022 28.5214 1.02806 28.3526C1.38715 28.1308 1.44589 27.8826 1.41445 27.531C1.40203 27.3887 1.42355 27.2422 1.407 27.1007C1.39955 27.0329 1.35487 26.9377 1.30026 26.9121C0.839409 26.6978 0.584572 26.318 0.419922 25.8597C0.419922 25.6536 0.419922 25.4468 0.419922 25.2408ZM4.36988 25.0538C3.54911 25.0538 2.76557 25.0496 1.9812 25.0554C1.64446 25.0579 1.41775 25.2623 1.41362 25.5436C1.40865 25.8348 1.64281 26.0417 1.99941 26.045C2.59762 26.05 3.19664 26.0466 3.79484 26.0466C3.98597 26.0466 4.17792 26.0466 4.36988 26.0466C4.36988 25.6958 4.36988 25.3905 4.36988 25.0538ZM2.41228 28.0274C3.2496 28.0274 4.05299 28.034 4.85638 28.0241C5.15259 28.0208 5.3611 27.8073 5.37102 27.5475C5.38095 27.2795 5.16169 27.0561 4.85555 27.0395C4.64953 27.0279 4.44269 27.0362 4.23667 27.0362C3.63185 27.0362 3.02703 27.0362 2.41228 27.0362C2.41228 27.3796 2.41228 27.6849 2.41228 28.0274ZM4.36905 29.0211C3.53173 29.0211 2.70849 29.012 1.88606 29.0261C1.6031 29.031 1.39707 29.2859 1.41362 29.5399C1.43016 29.8005 1.63866 29.9999 1.93901 30.0065C2.45447 30.0173 2.97077 30.0098 3.48706 30.0107C3.78161 30.0107 4.07615 30.0107 4.36905 30.0107C4.36905 29.6582 4.36905 29.3529 4.36905 29.0211Z" fill="#146A8E"/>
<path id="Vector_2" d="M21.2264 23.8384C21.2264 23.9907 21.2264 24.1032 21.2264 24.2149C21.2264 26.2478 21.2264 28.2807 21.2264 30.3144C21.2264 30.8539 21.0849 30.9987 20.5587 30.9987C16.0486 30.9987 11.5385 30.9987 7.02921 30.9987C6.94647 30.9987 6.8629 31.0045 6.78182 30.9929C6.53278 30.9565 6.36233 30.7488 6.36564 30.4964C6.36895 30.2441 6.54436 30.0381 6.79755 30.0157C6.96964 30 7.14421 30.0124 7.33699 30.0124C7.33699 25.1325 7.33699 20.2757 7.33699 15.3387C6.68584 15.6258 6.0231 15.8401 5.44559 16.1934C4.71004 16.6426 4.38984 17.3873 4.38405 18.2453C4.37412 19.6072 4.38156 20.9699 4.38156 22.3318C4.38156 22.4145 4.38487 22.4972 4.38074 22.5792C4.36336 22.8721 4.16727 23.0673 3.89175 23.069C3.61457 23.0714 3.3978 22.8778 3.39697 22.5874C3.39283 21.0187 3.33326 19.4467 3.41931 17.8829C3.49212 16.5582 4.24339 15.6043 5.44559 15.0276C5.62099 14.9432 5.8055 14.8712 5.99249 14.8158C7.32127 14.4203 8.49286 13.7128 9.64955 12.9765C9.73974 12.9186 9.78607 12.7787 9.83075 12.6679C9.85557 12.6058 9.8291 12.5247 9.83654 12.4527C9.90522 11.7677 9.78938 11.1943 9.24413 10.6598C8.90987 10.3321 8.66331 10.1576 8.19087 10.1741C7.18642 10.2097 6.37061 9.35996 6.36813 8.34889C6.36482 6.98701 6.36564 5.62429 6.36813 4.26241C6.36978 3.12806 7.06727 2.18567 8.15446 1.86547C8.31993 1.81665 8.40847 1.75212 8.47052 1.58747C8.7841 0.753458 9.4791 0.2835 10.3768 0.282672C11.6982 0.281018 13.0187 0.279363 14.34 0.282672C16.4863 0.289292 18.2503 2.05825 18.2561 4.21029C18.2602 5.51094 18.2569 6.81077 18.2569 8.11143C18.2569 9.51054 17.4088 10.3015 16.0213 10.1758C15.8252 10.1576 15.7375 10.2105 15.6274 10.3628C15.4231 10.6449 15.1707 10.8923 14.9556 11.167C14.8753 11.2696 14.8034 11.4077 14.7959 11.5335C14.7744 11.8827 14.8009 12.2351 14.7835 12.5851C14.7727 12.7961 14.8538 12.9045 15.0259 13.0261C16.6815 14.196 18.5994 14.7835 20.4569 15.5075C20.8119 15.6456 21.1552 15.8566 21.4506 16.099C22.3748 16.8594 23.2733 17.6512 24.1818 18.4298C24.2364 18.4761 24.2952 18.5175 24.3763 18.5804C24.5881 18.2925 24.7941 18.012 25.0001 17.7307C26.1709 16.1338 27.3441 14.5386 28.5074 12.9368C28.5968 12.8143 28.6572 12.6422 28.6621 12.4908C28.7515 9.64458 28.8301 6.79754 28.9128 3.95049C28.9327 3.2712 29.4771 2.75491 30.1605 2.75905C30.8373 2.76236 31.3652 3.28775 31.3851 3.97531C31.4612 6.63619 31.5348 9.2979 31.62 11.9588C31.625 12.1193 31.6904 12.2972 31.7806 12.4321C32.2497 13.137 32.2356 13.8337 31.8128 14.5518C30.2358 17.235 28.6654 19.9224 27.0926 22.6081C26.6185 23.4173 26.1452 24.2273 25.6711 25.0357C25.4204 25.4626 25.2326 25.5263 24.7808 25.3344C23.7102 24.8801 22.6396 24.4234 21.5689 23.9692C21.4655 23.9278 21.3612 23.8906 21.2264 23.8384ZM24.9331 24.31C26.5829 21.4928 28.2244 18.6888 29.8709 15.8765C29.3687 15.5008 28.9004 15.1509 28.4147 14.7868C28.3378 14.8853 28.2733 14.9622 28.2137 15.0425C26.865 16.8793 25.518 18.7177 24.1686 20.5537C23.9444 20.859 23.6473 20.9277 23.4016 20.7407C23.165 20.562 23.1451 20.2707 23.3536 19.9737C23.4876 19.7826 23.6266 19.5939 23.7689 19.3962C22.6826 18.4654 21.6186 17.5519 20.5504 16.6435C20.4751 16.5789 20.3742 16.5384 20.2798 16.5028C19.3945 16.1685 18.5076 15.8376 17.6206 15.5058C17.5106 15.4644 17.4005 15.4247 17.2822 15.3817C17.2822 20.2782 17.2822 25.1325 17.2822 29.9868C18.2751 29.9868 19.2489 29.9868 20.2376 29.9868C20.2376 29.8411 20.2376 29.7187 20.2376 29.5954C20.2376 26.6243 20.2368 23.6523 20.2385 20.6811C20.2385 20.3113 20.4197 20.102 20.7291 20.1003C21.0386 20.0986 21.2239 20.3096 21.2255 20.6762C21.228 21.295 21.2206 21.9148 21.233 22.5328C21.2347 22.6213 21.2992 22.7587 21.3712 22.7893C22.5485 23.3031 23.7317 23.8012 24.9331 24.31ZM16.2587 29.9983C16.2587 25.2905 16.2587 20.6124 16.2587 15.8467C15.8798 16.2331 15.5546 16.5707 15.2228 16.9024C14.9515 17.1738 14.7868 17.1937 14.4542 17.0141C14.3921 16.981 14.3284 16.9521 14.268 16.9223C13.9205 17.3749 13.7468 17.8506 13.885 18.4223C13.952 18.7004 13.9487 18.9949 13.9784 19.282C14.134 20.7572 14.2912 22.2333 14.4468 23.7085C14.5585 24.7643 14.6685 25.8192 14.7818 26.875C14.8092 27.1314 14.7397 27.3342 14.5229 27.4938C13.9081 27.9456 13.3025 28.4098 12.6886 28.8632C12.3832 29.0891 12.2285 29.0833 11.91 28.8458C11.3225 28.4089 10.7434 27.9605 10.1485 27.5336C9.90108 27.3565 9.80428 27.1455 9.83654 26.8485C9.9954 25.3939 10.1493 23.9386 10.3032 22.484C10.4571 21.0286 10.5928 19.5716 10.7723 18.1195C10.8335 17.6214 10.558 17.2979 10.3652 16.9165C9.75463 17.2259 9.70913 17.2193 9.24579 16.7527C8.9653 16.4705 8.6873 16.1859 8.36296 15.8574C8.36296 20.6174 8.36296 25.3021 8.36296 29.9992C10.999 29.9983 13.6161 29.9983 16.2587 29.9983ZM8.34642 6.67425C8.34642 6.41776 8.34559 6.14059 8.34642 5.86424C8.34807 5.41745 8.47466 5.28424 8.91649 5.23046C9.51386 5.15765 10.0649 4.99962 10.4256 4.45023C10.5837 4.21029 10.8261 4.1987 11.0859 4.31371C11.4334 4.46678 11.7801 4.62895 12.14 4.74478C13.2892 5.11545 14.4798 5.20729 15.6779 5.23708C16.1098 5.24783 16.2687 5.40835 16.2712 5.8419C16.2728 6.12818 16.2712 6.41528 16.2712 6.67922C16.6187 6.75947 16.9322 6.83228 17.2541 6.90675C17.2541 5.94781 17.3046 4.99631 17.2425 4.05226C17.1374 2.45043 15.8773 1.2954 14.273 1.27554C12.9831 1.25982 11.694 1.26892 10.4041 1.27305C9.79269 1.27554 9.40381 1.63711 9.33514 2.24772C9.29543 2.59771 9.16057 2.72761 8.80148 2.75988C7.91783 2.83848 7.35768 3.44496 7.35272 4.33854C7.34858 5.1229 7.35107 5.90644 7.35272 6.6908C7.35272 6.76609 7.36596 6.84139 7.37258 6.90923C7.69691 6.83063 7.9956 6.75865 8.34642 6.67425ZM9.38561 6.18113C9.38561 7.01927 9.31446 7.84832 9.40134 8.66082C9.55109 10.0508 10.7252 11.0751 12.1499 11.1753C13.4737 11.2679 14.7835 10.3586 15.1475 9.06292C15.4073 8.13625 15.2394 7.18641 15.2866 6.22995C13.8221 6.21836 12.4453 5.96684 11.1198 5.44393C11.0454 5.41497 10.9105 5.44144 10.8484 5.4944C10.4141 5.86258 9.91514 6.0835 9.38561 6.18113ZM11.771 18.1278C11.7404 18.4116 11.7131 18.6664 11.6866 18.9213C11.5302 20.3973 11.3747 21.8734 11.2183 23.3495C11.1066 24.4052 10.9999 25.4618 10.8799 26.5167C10.8542 26.7393 10.9221 26.875 11.1074 27.0015C11.4566 27.239 11.7917 27.4988 12.1226 27.7619C12.2608 27.872 12.3601 27.8744 12.4991 27.7644C12.8466 27.4889 13.2007 27.2208 13.5623 26.9651C13.7062 26.8634 13.7617 26.7558 13.7418 26.5804C13.6657 25.9044 13.6003 25.2268 13.53 24.5508C13.3728 23.0541 13.2148 21.5573 13.0559 20.0614C12.9881 19.4194 12.9169 18.7781 12.8474 18.1295C12.4784 18.1278 12.1408 18.1278 11.771 18.1278ZM30.5842 11.694C30.5842 11.603 30.5866 11.4913 30.5842 11.3796C30.5221 8.99922 30.4592 6.61882 30.3955 4.23759C30.3905 4.03654 30.4352 3.76184 30.1423 3.76681C29.8519 3.77177 29.904 4.04812 29.8982 4.24752C29.8412 6.26718 29.7824 8.28684 29.7311 10.3065C29.7187 10.7988 29.7295 11.2919 29.7295 11.7751C30.0066 11.7486 30.2813 11.723 30.5842 11.694ZM10.822 11.9679C10.822 12.1491 10.8162 12.3444 10.8236 12.5396C10.8294 12.6902 10.7947 12.8937 10.8766 12.9814C11.3366 13.4762 11.8256 13.9429 12.3228 14.4368C12.8011 13.9544 13.2578 13.4944 13.712 13.0319C13.7517 12.9914 13.7906 12.9285 13.7923 12.8755C13.7997 12.5611 13.7956 12.2467 13.7956 11.9687C13.2785 12.039 12.7928 12.1565 12.308 12.1565C11.8223 12.1565 11.3374 12.0382 10.822 11.9679ZM8.69888 14.7264C9.1192 15.1459 9.52462 15.5521 9.9499 15.9774C10.4422 15.682 10.9577 15.3726 11.4607 15.0698C11.0412 14.6495 10.6366 14.2432 10.2122 13.8179C9.71822 14.1141 9.20276 14.4236 8.69888 14.7264ZM14.4335 13.8336C13.9933 14.2746 13.5896 14.6792 13.185 15.0855C13.6657 15.3742 14.1762 15.6804 14.6478 15.9634C15.0739 15.5348 15.4826 15.1235 15.8955 14.7082C15.4131 14.4203 14.9018 14.1141 14.4335 13.8336ZM28.9997 13.9702C29.4672 14.321 29.9098 14.6528 30.3814 15.0069C30.604 14.6238 30.8258 14.2664 31.0227 13.8949C31.2337 13.4961 31.1162 13.0658 30.762 12.8383C30.4063 12.6099 29.9677 12.6844 29.6864 13.0394C29.4556 13.3306 29.2446 13.6359 28.9997 13.9702ZM11.2663 16.3622C11.4235 16.9182 11.589 17.125 11.8744 17.1283C13.0981 17.1416 13.1188 17.1308 13.3505 16.3779C12.4039 15.6613 12.4039 15.6614 11.416 16.2637C11.373 16.2902 11.3308 16.32 11.2663 16.3622ZM8.31828 7.73579C7.77468 7.74986 7.33451 8.08992 7.35685 8.48127C7.38002 8.89828 7.90128 9.23171 8.42088 9.16883C8.38696 8.6906 8.3522 8.2132 8.31828 7.73579ZM16.1975 9.17214C16.7345 9.22427 17.245 8.89083 17.2624 8.47465C17.2789 8.07999 16.8255 7.73662 16.3001 7.74159C16.2662 8.21154 16.2323 8.6815 16.1975 9.17214Z" fill="#146A8E"/>
</g>
</svg>
