<svg width="27" height="29" viewBox="0 0 27 29" fill="none" xmlns="http://www.w3.org/2000/svg">
<g id="Group">
<path id="Vector" d="M3.02418 25.6637C2.46391 25.6637 1.93974 25.6645 1.41632 25.6637C0.657519 25.6622 0.332641 25.3403 0.332641 24.5905C0.332641 18.9713 0.334145 13.3521 0.328128 7.73289C0.327376 7.35913 0.448455 7.06884 0.713924 6.80864C1.41858 6.12052 2.11346 5.42263 2.80383 4.71948C3.04373 4.47507 3.31973 4.36753 3.65815 4.36903C4.94338 4.37429 6.22861 4.37129 7.51384 4.37129C7.61386 4.37129 7.71388 4.37129 7.8139 4.37129C7.81691 4.35023 7.82067 4.32842 7.82368 4.30736C7.3687 4.18779 6.91146 4.07649 6.46024 3.94338C6.31434 3.90051 6.1504 3.82907 6.05715 3.71777C5.83454 3.45079 6.00224 3.10561 6.38277 3.00408C7.55746 2.69048 8.73289 2.37839 9.90832 2.06629C11.9245 1.53159 13.94 0.994639 15.9585 0.467461C16.1126 0.426851 16.2961 0.423091 16.4495 0.463701C19.6231 1.29846 22.7945 2.143 25.9666 2.98227C26.2185 3.0492 26.4358 3.13719 26.4486 3.44252C26.4622 3.76439 26.2418 3.87644 25.9816 3.94864C25.9545 3.95616 25.9275 3.96443 25.8726 3.98023C25.8726 4.06521 25.8726 4.1562 25.8726 4.24795C25.8726 5.49558 25.8763 6.74321 25.8688 7.99084C25.8681 8.1781 25.9162 8.2894 26.0884 8.38867C27.1428 8.99782 26.9886 8.73987 26.9976 9.9687C27.0036 10.8035 26.9961 11.6382 27.0006 12.4737C27.0021 12.7061 26.9495 12.9039 26.7254 13.0129C26.5065 13.1197 26.3298 13.0197 26.1591 12.8874C25.9222 12.7039 25.6808 12.5264 25.4161 12.3278C25.1574 12.5211 24.8949 12.7129 24.637 12.9099C24.47 13.0378 24.2963 13.1077 24.091 13.0084C23.8842 12.9092 23.8338 12.7272 23.8338 12.5174C23.8345 11.4292 23.8353 10.341 23.833 9.25276C23.8323 9.01511 23.9165 8.83387 24.1399 8.73084C24.1482 8.72708 24.1549 8.71881 24.1639 8.71655C24.8498 8.4947 25.028 8.02618 24.9754 7.32754C24.907 6.41307 24.9588 5.49032 24.9588 4.57057C24.9588 4.4683 24.9588 4.36602 24.9588 4.21637C24.4084 4.36226 23.8894 4.49913 23.3585 4.63901C23.3585 5.18499 23.3585 5.70991 23.3585 6.23408C23.3585 7.32228 23.36 8.41048 23.3578 9.49867C23.357 9.9153 23.2698 10.0221 22.8554 10.1026C21.9003 10.2883 20.9445 10.4688 19.9886 10.6531C19.8788 10.6741 19.7705 10.6997 19.651 10.726C19.651 11.8548 19.651 12.9746 19.651 14.1771C20.0232 13.8003 20.3458 13.4672 20.676 13.1423C21.0565 12.767 21.5077 12.6174 22.0387 12.7415C22.8892 12.94 23.5601 13.9304 23.3337 14.7231C23.2555 14.9968 23.0765 15.2683 22.8757 15.4751C21.8687 16.5107 20.8414 17.5267 19.8142 18.5427C19.6826 18.6728 19.6337 18.8036 19.6337 18.9849C19.6382 21.7524 19.6224 24.5199 19.6472 27.2866C19.6532 27.9988 19.1892 28.3447 18.6034 28.3425C13.7445 28.3244 8.8848 28.3327 4.02514 28.3319C3.34831 28.3319 3.02493 28.0116 3.02343 27.3392C3.02267 26.7978 3.02418 26.2548 3.02418 25.6637ZM1.26742 7.83968C1.26742 13.4927 1.26742 19.1067 1.26742 24.7244C6.19853 24.7244 11.1086 24.7244 16.0209 24.7244C16.0209 23.9288 16.0209 23.1504 16.0209 22.3593C15.6155 22.4691 15.2395 22.5826 14.859 22.6714C14.3326 22.7939 13.8031 22.9902 13.2729 22.9955C10.1873 23.0263 7.10097 23.0105 4.01461 23.0098C3.90256 23.0098 3.76343 23.0383 3.68372 22.9842C3.54158 22.8887 3.38064 22.7593 3.328 22.6089C3.25731 22.4066 3.38741 22.2231 3.59347 22.1442C3.70327 22.1028 3.83112 22.096 3.95069 22.096C5.67661 22.093 7.40254 22.0938 9.12846 22.0938C10.3949 22.0938 11.6613 22.0953 12.9278 22.0908C13.021 22.0908 13.1804 22.0675 13.1962 22.0193C13.3166 21.6433 13.4083 21.2583 13.5158 20.8499C13.3557 20.8499 13.2436 20.8499 13.1316 20.8499C10.0926 20.8499 7.05359 20.8499 4.01386 20.8499C3.91985 20.8499 3.82585 20.8544 3.7326 20.8462C3.48518 20.8251 3.31371 20.6424 3.31146 20.4047C3.3092 20.1701 3.48217 19.9791 3.72433 19.952C3.79878 19.9437 3.87398 19.9482 3.94918 19.9482C7.08217 19.9482 10.2152 19.9482 13.3481 19.9482C13.4422 19.9482 13.5482 19.9257 13.6264 19.9618C13.7843 20.0347 13.8655 19.952 13.9611 19.8557C14.5898 19.224 15.217 18.5908 15.8532 17.9674C15.9908 17.8327 16.0502 17.6974 16.0495 17.5026C16.0427 15.5044 16.0449 13.507 16.0449 11.5089C16.0449 11.4088 16.0449 11.3081 16.0449 11.1885C15.7795 11.1712 15.5441 11.1757 15.317 11.1366C14.0167 10.914 12.7187 10.6786 11.4192 10.453C10.4348 10.2823 9.46312 10.0514 8.44636 10.0808C7.01223 10.1221 5.57659 10.0913 4.14095 10.0913C4.00032 10.0913 3.85819 10.1003 3.71906 10.0853C3.47766 10.0589 3.30619 9.85815 3.31071 9.62652C3.31522 9.38963 3.48819 9.21215 3.73786 9.19184C3.82209 9.18507 3.90632 9.18808 3.9913 9.18808C5.56682 9.18808 7.14308 9.18808 8.7186 9.18808C8.81937 9.18808 8.92015 9.18808 9.03747 9.18808C9.03747 8.76318 9.03747 8.36686 9.03747 7.94496C8.9194 7.94496 8.81863 7.94496 8.7171 7.94496C8.0508 7.94496 7.38524 7.94872 6.71894 7.94346C6.39255 7.9412 6.18649 7.75846 6.18123 7.49073C6.17672 7.22 6.37601 7.03199 6.7039 7.02673C7.22882 7.0177 7.75449 7.02372 8.27941 7.02372C8.52909 7.02372 8.77877 7.02372 9.03446 7.02372C9.03446 6.42886 9.03446 5.87235 9.03446 5.31584C7.28447 5.31584 5.55403 5.31584 3.79953 5.31584C3.79953 5.90544 3.80254 6.47548 3.79878 7.04553C3.79502 7.57947 3.53557 7.83667 3.00162 7.83893C2.43158 7.84118 1.86078 7.83968 1.26742 7.83968ZM22.4395 4.90222C22.353 4.91952 22.2816 4.9308 22.2117 4.94885C20.3143 5.45046 18.4176 5.95658 16.518 6.44916C16.3367 6.49579 16.1232 6.50406 15.9434 6.45744C14.1784 6.0002 12.4179 5.52717 10.6558 5.0594C10.4423 5.003 10.2272 4.95186 9.99481 4.8932C9.98353 4.99021 9.97075 5.05263 9.97075 5.11505C9.96924 6.41833 9.9745 7.72161 9.96473 9.02489C9.96322 9.22418 10.0505 9.27757 10.2189 9.30916C11.5982 9.5641 12.9759 9.82882 14.3551 10.0823C15.402 10.2748 16.4541 10.353 17.5122 10.1635C18.6169 9.96494 19.7217 9.76865 20.8249 9.56636C21.3649 9.46784 21.9026 9.35879 22.4388 9.25576C22.4395 7.7908 22.4395 6.35817 22.4395 4.90222ZM18.7079 27.4242C18.7079 24.832 18.7079 22.2645 18.7079 19.6467C18.1604 20.1979 17.6453 20.704 17.1489 21.2274C17.0527 21.329 16.9812 21.4982 16.979 21.6365C16.9647 22.6495 16.97 23.6625 16.9722 24.6755C16.973 25.05 16.8571 25.3764 16.5082 25.5396C16.3142 25.6306 16.075 25.6584 15.8562 25.6592C12.0012 25.666 8.1463 25.6645 4.29136 25.6645C4.17479 25.6645 4.05823 25.6645 3.94167 25.6645C3.94167 26.2796 3.94167 26.8467 3.94167 27.4242C8.87127 27.4242 13.7828 27.4242 18.7079 27.4242ZM8.31326 3.43425C8.31025 3.4538 8.30724 3.47411 8.30423 3.49366C10.9048 4.18403 13.5053 4.8759 16.1074 5.56176C16.1984 5.58582 16.3097 5.56702 16.4044 5.54145C17.8596 5.15867 19.3141 4.77137 20.7692 4.38482C21.886 4.08852 23.0028 3.79146 24.1835 3.47787C24.0654 3.43425 24.009 3.40793 23.9496 3.39213C21.4468 2.72583 18.9448 2.05877 16.4405 1.39999C16.2961 1.36239 16.1239 1.36991 15.978 1.40826C14.1784 1.87678 12.3818 2.35507 10.5844 2.83111C9.82636 3.03191 9.06981 3.2327 8.31326 3.43425ZM15.7501 21.262C17.5633 19.4496 19.3697 17.6432 21.1438 15.8699C20.8369 15.5646 20.5151 15.2442 20.2233 14.9539C18.4379 16.737 16.63 18.5419 14.8312 20.3385C15.1327 20.6416 15.4478 20.9582 15.7501 21.262ZM16.994 11.1644C16.994 13.0581 16.994 14.9141 16.994 16.8265C17.5746 16.2452 18.1183 15.7067 18.6515 15.157C18.7117 15.0953 18.7305 14.9728 18.7312 14.878C18.7372 13.9695 18.735 13.0603 18.735 12.1519C18.735 11.7412 18.735 11.3299 18.735 10.9012C18.1386 10.9915 17.5693 11.0772 16.994 11.1644ZM26.0327 11.6803C26.0493 11.6578 26.0666 11.6352 26.0831 11.6126C26.0831 11.0343 26.0598 10.4553 26.0922 9.87845C26.111 9.54154 25.9944 9.36707 25.7079 9.19786C25.4401 9.03993 25.2702 9.13469 25.0498 9.24824C24.8257 9.36406 24.725 9.50168 24.7408 9.76715C24.7671 10.2056 24.7475 10.647 24.7475 11.0877C24.7475 11.269 24.7475 11.4495 24.7475 11.73C25.204 11.1998 25.6176 11.1975 26.0327 11.6803ZM21.8883 15.1984C22.0936 14.8938 22.5606 14.7517 22.4531 14.2523C22.4049 14.0259 22.0041 13.6529 21.7868 13.6281C21.313 13.5747 21.1768 14.0026 20.9129 14.2027C21.2475 14.5441 21.5589 14.8614 21.8883 15.1984ZM2.85798 6.11752C2.59476 6.37622 2.30072 6.665 2.04427 6.91693C2.26387 6.91693 2.55115 6.91693 2.85798 6.91693C2.85798 6.60935 2.85798 6.3168 2.85798 6.11752ZM14.3551 21.256C14.3047 21.4561 14.2551 21.6523 14.1912 21.9043C14.4491 21.8351 14.6432 21.7832 14.8349 21.7321C14.665 21.5636 14.5176 21.4162 14.3551 21.256Z" fill="#146A8E"/>
<path id="Vector_2" d="M8.62374 16.5587C7.0768 16.5587 5.52987 16.5595 3.98293 16.5572C3.8626 16.5572 3.73701 16.5512 3.62345 16.5166C3.41062 16.4519 3.30007 16.291 3.31361 16.0699C3.32715 15.8503 3.45199 15.7037 3.67158 15.6593C3.7716 15.639 3.87614 15.6375 3.97841 15.6375C7.09109 15.6367 10.203 15.6367 13.3157 15.6367C13.7617 15.6367 13.991 15.7924 13.9918 16.0932C13.9925 16.3925 13.7549 16.558 13.3195 16.558C11.7552 16.5587 10.1895 16.5587 8.62374 16.5587Z" fill="#146A8E"/>
<path id="Vector_3" d="M8.65828 12.237C7.05494 12.237 5.45235 12.2348 3.84901 12.2393C3.57978 12.2401 3.39027 12.1476 3.32108 11.8798C3.25866 11.6369 3.43765 11.385 3.69334 11.3429C3.76629 11.3308 3.84299 11.3361 3.9182 11.3361C7.0775 11.3361 10.2368 11.3361 13.3961 11.3361C13.4525 11.3361 13.5089 11.3331 13.5646 11.3391C13.8052 11.3632 13.9887 11.5542 13.9932 11.7821C13.9977 12.0227 13.8097 12.228 13.5518 12.2333C13.0923 12.2431 12.6328 12.237 12.1741 12.237C11.0016 12.237 9.82996 12.237 8.65828 12.237Z" fill="#146A8E"/>
<path id="Vector_4" d="M8.6565 18.7044C7.07195 18.7044 5.48817 18.7051 3.90363 18.7021C3.79383 18.7021 3.64342 18.7104 3.58326 18.6472C3.46594 18.5232 3.3411 18.3562 3.32756 18.1983C3.30951 17.9892 3.46895 17.8403 3.69381 17.8087C3.78631 17.7959 3.88107 17.7974 3.97432 17.7974C7.087 17.7967 10.1989 17.7967 13.3116 17.7974C13.7696 17.7974 13.9877 17.9411 13.993 18.2426C13.9982 18.5495 13.7651 18.7044 13.2973 18.7051C11.7496 18.7044 10.2027 18.7044 8.6565 18.7044Z" fill="#146A8E"/>
<path id="Vector_5" d="M8.65531 13.4814C10.2211 13.4814 11.7868 13.4806 13.3518 13.4836C13.4714 13.4836 13.6293 13.4708 13.7015 13.5378C13.8263 13.6528 13.9587 13.8198 13.976 13.977C13.9985 14.1815 13.8474 14.3425 13.6218 14.3793C13.521 14.3958 13.4165 14.3974 13.3134 14.3974C10.2007 14.3981 7.08881 14.3981 3.97613 14.3981C3.91071 14.3981 3.84453 14.3996 3.7791 14.3943C3.49107 14.3703 3.30758 14.1905 3.31058 13.9371C3.31359 13.6867 3.50536 13.4919 3.78888 13.4859C4.26642 13.4754 4.74472 13.4821 5.22301 13.4821C6.36837 13.4806 7.51221 13.4814 8.65531 13.4814Z" fill="#146A8E"/>
</g>
</svg>
