<svg width="18" height="17" viewBox="0 0 18 17" fill="rgb(48, 88, 26)" xmlns="http://www.w3.org/2000/svg">
<path d="M14.7291 1.2002L14.629 1H3.41756L3.31746 1.2002C3.11726 1.40041 -0.3863 6.70578 1.61574 9.10821C2.81695 10.6098 4.61878 10.5096 6.52071 8.80794C7.02122 9.30842 7.82203 10.1092 9.02325 10.1092C10.2245 10.1092 11.0254 9.30842 11.4258 8.80794C12.4268 9.70882 13.4278 10.1092 14.3287 10.1092C15.1295 10.1092 15.8302 9.70882 16.3307 9.10821C18.4329 6.70578 14.9293 1.40041 14.7291 1.2002ZM15.7301 8.50761C15.3297 9.00815 14.9293 9.20835 14.4288 9.20835C13.7281 9.20835 12.9273 8.80793 11.9263 7.907V4.50354C11.9263 4.20325 11.7261 4.00305 11.4258 4.00305C11.1255 4.00305 10.9253 4.30335 10.9253 4.50354V7.907C10.8252 8.1072 10.1244 9.20835 9.02325 9.20835C7.82203 9.20835 7.02122 7.907 7.02122 7.907V7.80692V4.40346C7.02122 4.10315 6.82102 3.90295 6.52071 3.90295C6.2204 3.90295 6.0202 4.10315 6.0202 4.40346V8.00713C5.21939 8.80793 4.31847 9.20835 3.71787 9.20835C3.21735 9.20835 2.71685 9.00814 2.31644 8.50761C1.11522 7.00611 2.91705 3.50254 3.91806 2.00101H14.1285C15.1295 3.50254 16.9314 7.00611 15.7301 8.50761ZM14.9293 11.0102C14.629 11.0102 14.4288 11.2104 14.4288 11.5107V14.714C14.4288 14.9142 14.2286 15.1144 14.0284 15.1144L4.01817 15.1144C3.81797 15.1144 3.61776 14.9142 3.61776 14.714V11.5107C3.61776 11.2104 3.41756 11.0102 3.11726 11.0102C2.81694 11.0102 2.61675 11.2104 2.61675 11.5107V14.714C2.61675 15.4147 3.21735 16.0153 3.91806 16.0153H13.9283C14.629 16.0153 15.2296 15.4147 15.2296 14.714V11.5107C15.3297 11.2104 15.1295 11.0102 14.9293 11.0102Z"  stroke-width="0.2"/>
</svg>
