<svg width="15" height="18" viewBox="0 0 15 18" fill="none" xmlns="http://www.w3.org/2000/svg">
<g id="Group 1678">
<path id="Vector" d="M1.59843 17.9995C1.49419 17.9671 1.38853 17.938 1.28523 17.9023C0.482725 17.6248 0.00798716 16.9402 0.00329144 16.0438C-0.000934719 15.2413 0.00235229 14.4388 0.00235229 13.6363C0.00235229 10.2619 0.00470016 6.88803 4.42681e-06 3.51415C-0.000934719 2.95583 0.14745 2.46277 0.545648 2.06129C0.933046 1.6706 1.40872 1.49498 1.95624 1.49968C2.30044 1.5025 2.64464 1.50015 3.00574 1.50015C3.00574 1.11275 3.00339 0.745077 3.00668 0.377401C3.00856 0.193329 3.13252 0.0440046 3.29922 0.00972576C3.47203 -0.0259618 3.6561 0.0599701 3.71808 0.222912C3.74813 0.30227 3.75424 0.393836 3.75565 0.480707C3.76034 0.755877 3.75706 1.03152 3.75753 1.30669C3.75753 1.36397 3.76269 1.42079 3.76598 1.48888H7.12155C7.12155 1.13482 7.11544 0.789686 7.1253 0.445489C7.12812 0.34547 7.15629 0.232773 7.2103 0.150598C7.3028 0.0106649 7.45494 -0.0297184 7.61507 0.0209955C7.79163 0.0768747 7.87897 0.213051 7.88225 0.393367C7.88789 0.692015 7.88413 0.990663 7.88413 1.28978C7.88413 1.35317 7.88413 1.4161 7.88413 1.48982H10.4954C10.4954 1.13107 10.4935 0.781234 10.4959 0.431402C10.4978 0.199433 10.6213 0.0379001 10.8119 0.00737789C11.0542 -0.0311271 11.251 0.140267 11.2566 0.406984C11.2627 0.699528 11.258 0.992542 11.2585 1.28556C11.2585 1.34942 11.2585 1.41328 11.2585 1.50015C11.5102 1.50015 11.7492 1.49921 11.9877 1.50015C12.3324 1.50203 12.6766 1.48935 13.0109 1.61238C13.7514 1.8852 14.2492 2.57265 14.2497 3.35919C14.2515 7.61775 14.2515 11.8763 14.2497 16.1349C14.2497 17.0341 13.6157 17.7915 12.732 17.9657C12.6987 17.9723 12.6667 17.9883 12.6343 18H1.59843V17.9995ZM3.00527 2.25194C2.63806 2.25194 2.29856 2.251 1.95906 2.25194C1.23592 2.25428 0.755077 2.72996 0.754608 3.44935C0.753669 7.64874 0.753669 11.8486 0.754608 16.048C0.754608 16.765 1.22042 17.2435 1.9384 17.2445C5.40009 17.2482 8.86131 17.2463 12.323 17.2463C12.5742 17.2463 12.81 17.1919 13.0184 17.043C13.3805 16.7843 13.5016 16.4218 13.5016 15.9907C13.4983 11.8322 13.4998 7.67362 13.4993 3.51509C13.4993 3.43338 13.496 3.35121 13.4885 3.2695C13.4439 2.76988 13.0875 2.3435 12.5878 2.2895C12.1563 2.24301 11.7154 2.27964 11.2599 2.27964C11.2599 2.33129 11.2599 2.39375 11.2599 2.45667C11.2599 2.75532 11.2641 3.05397 11.258 3.35262C11.2533 3.58834 11.0899 3.75551 10.8795 3.75645C10.6701 3.75786 10.5039 3.58975 10.4982 3.35543C10.4917 3.07463 10.4964 2.79335 10.4964 2.51208C10.4964 2.42756 10.4964 2.34303 10.4964 2.26461H7.88507C7.88507 2.6229 7.88695 2.9685 7.8846 3.31364C7.88272 3.57707 7.73105 3.75222 7.50847 3.75645C7.28167 3.76067 7.12483 3.57895 7.12202 3.3066C7.12014 3.11924 7.12202 2.93188 7.12202 2.74452C7.12202 2.58345 7.12202 2.42239 7.12202 2.25851H3.75753C3.75753 2.32801 3.75753 2.39093 3.75753 2.45385C3.75753 2.74687 3.76128 3.03988 3.75565 3.33242C3.75048 3.58505 3.59552 3.75504 3.38187 3.75692C3.15976 3.7588 3.00621 3.58224 3.00574 3.32068C3.0048 2.97085 3.00574 2.62055 3.00574 2.25147L3.00527 2.25194Z" fill="#252525"/>
<path id="Vector_2" d="M7.49941 10.5085C6.15267 10.5085 4.80641 10.5085 3.45967 10.5085C3.20986 10.5085 3.04645 10.3944 3.01076 10.2009C2.97085 9.98773 3.1089 9.79239 3.33054 9.75295C3.38172 9.74403 3.43572 9.74637 3.48832 9.74637C6.16394 9.74637 8.83957 9.74637 11.5152 9.74637C11.5791 9.74637 11.6453 9.74543 11.7068 9.75952C11.8876 9.80084 12.0017 9.94594 12.0031 10.1234C12.0045 10.3033 11.8951 10.4474 11.7129 10.4916C11.6457 10.508 11.5739 10.508 11.5044 10.508C10.1694 10.509 8.8344 10.5085 7.49988 10.5085H7.49941Z" fill="#252525"/>
<path id="Vector_3" d="M7.50865 13.4976C6.15065 13.4976 4.79264 13.4976 3.43464 13.4976C3.18624 13.4976 3.02235 13.3629 3.00874 13.1525C2.99559 12.9501 3.12378 12.7867 3.32523 12.7571C3.39426 12.7468 3.46516 12.7463 3.53513 12.7463C6.1807 12.7458 8.82674 12.7463 11.4723 12.7463C11.531 12.7463 11.5897 12.7454 11.6475 12.7515C11.8743 12.774 12.0156 12.9327 12.0034 13.1478C11.9921 13.3492 11.8353 13.4962 11.6174 13.4971C11.0614 13.5 10.5055 13.4981 9.94902 13.4981C9.13525 13.4981 8.32195 13.4981 7.50818 13.4981L7.50865 13.4976Z" fill="#252525"/>
<path id="Vector_4" d="M5.64455 6.75068C6.37051 6.75068 7.096 6.75021 7.82196 6.75068C8.0929 6.75068 8.25443 6.89202 8.25443 7.12446C8.25443 7.34891 8.09901 7.50012 7.83933 7.50059C6.37004 7.50387 4.90121 7.50387 3.43192 7.50059C3.16051 7.50012 3.00367 7.34844 3.0079 7.11554C3.01212 6.88779 3.17694 6.75068 3.44929 6.75021C4.18089 6.74974 4.91248 6.75021 5.64408 6.75021L5.64455 6.75068Z" fill="#252525"/>
</g>
</svg>
